<svg xmlns="http://www.w3.org/2000/svg" width="48" height="48" viewBox="0 0 48 48">
<defs><style>.a,.c{fill:#0047bb;}.a{opacity:0.12;}.b{fill:none;}</style></defs>
<g transform="translate(-9 -12)"><circle class="a" cx="24" cy="24" r="24" transform="translate(9 12)"/>
<g transform="translate(19 22)"><path class="b" d="M0,0H28V28H0Z"/>
<path class="c" d="M13.333,6.333A2.333,2.333,0,1,1,11,8.667a2.34,2.34,0,0,1,2.333-2.333m0,11.667c3.15,0,6.767,1.505,7,2.333h-14c.268-.84,3.862-2.333,7-2.333m0-14A4.667,4.667,0,1,0,18,8.667,4.665,4.665,0,0,0,13.333,4Zm0,11.667C10.218,15.667,4,17.23,4,20.333v2.333H22.667V20.333C22.667,17.23,16.448,15.667,13.333,15.667Z" transform="translate(0.667 0.667)"/>
</g>
</g>
</svg>