<svg xmlns="http://www.w3.org/2000/svg" width="223.212" height="286.16" viewBox="0 0 223.212 286.16">
  <g id="Layer_2" data-name="Layer 2" transform="translate(-41.794 -32)">
    <g id="_ÎÓÈ_1" data-name="—ÎÓÈ_1">
      <path id="Path_25594" data-name="Path 25594" d="M126.61,237.49h.07a.39.39,0,0,0,.08-.54c-33.55-45-60.33-75.69-75.41-86.35a7.6,7.6,0,0,1-.68-.5.393.393,0,0,0-.53.58c.14.12.38.29.76.56,15,10.61,41.74,41.21,75.23,86.17a.39.39,0,0,0,.48.08Z" fill="#19438a"/>
      <path id="Path_25595" data-name="Path 25595" d="M43.49,150.47c1.76,1.17,8.73,2,9.07,1.46s-3.06-6.64-4.82-7.81a3.821,3.821,0,1,0-4.25,6.35Z" fill="#19438a"/>
      <path id="Path_25596" data-name="Path 25596" d="M56.67,151.19c.12,2.16,3.77,8.34,4.38,8.31s3.55-6.59,3.42-8.75a3.91,3.91,0,1,0-7.8.44Z" fill="#19438a"/>
      <path id="Path_25597" data-name="Path 25597" d="M53.84,165.35c2.07-.6,7.27-5.55,7.1-6.14s-7.22-2-9.29-1.37a3.911,3.911,0,1,0,2.19,7.51Z" fill="#19438a"/>
      <path id="Path_25598" data-name="Path 25598" d="M86.18,178.39C86,182,91,193,92,193.05s7.1-10.36,7.29-14a6.564,6.564,0,0,0-13.11-.68Z" fill="#19438a"/>
      <path id="Path_25599" data-name="Path 25599" d="M78.9,201.51c3.57-.63,13.14-7.95,13-9S80.17,188,76.6,188.59a6.562,6.562,0,1,0,2.3,12.92Z" fill="#19438a"/>
      <path id="Path_25600" data-name="Path 25600" d="M99.63,187.82c-1.2,4.27,1.77,18.71,3,19.05s11.27-10.45,12.47-14.72a8.027,8.027,0,1,0-15.46-4.33Z" fill="#19438a"/>
      <path id="Path_25601" data-name="Path 25601" d="M88.41,218.68c4.27-1.22,15-11.33,14.66-12.54S88.26,202,84,203.24a8.03,8.03,0,0,0,4.42,15.44Z" fill="#19438a"/>
      <path id="Path_25602" data-name="Path 25602" d="M111.09,202.31c-1.19,4.27,1.78,18.71,3,19.06s11.27-10.45,12.47-14.72a8.034,8.034,0,0,0-15.47-4.34Z" fill="#19438a"/>
      <path id="Path_25603" data-name="Path 25603" d="M99.88,233.17c4.26-1.22,15-11.33,14.65-12.54s-14.81-4.12-19.07-2.9a8.03,8.03,0,0,0,4.42,15.44Z" fill="#19438a"/>
      <path id="Path_25604" data-name="Path 25604" d="M130.63,218.66c-2.73,3.49-5.49,18-4.49,18.76s14.4-5.37,17.14-8.86a8.032,8.032,0,0,0-12.65-9.9Z" fill="#19438a"/>
      <path id="Path_25605" data-name="Path 25605" d="M110.64,247.72c4.39-.68,16.3-9.37,16.11-10.62s-14.18-5.93-18.56-5.26a8.034,8.034,0,0,0,2.45,15.88Z" fill="#19438a"/>
      <path id="Path_25606" data-name="Path 25606" d="M65.81,159.68c.12,2.19,3.83,8.47,4.45,8.44s3.6-6.7,3.48-8.89a4,4,0,0,0-7.93.45Z" fill="#19438a"/>
      <path id="Path_25607" data-name="Path 25607" d="M63.24,174.09c2.11-.61,7.4-5.64,7.22-6.24s-7.33-2-9.44-1.38a4,4,0,1,0,2.22,7.62Z" fill="#19438a"/>
      <path id="Path_25608" data-name="Path 25608" d="M75.43,167.15c-.08,3.11,4.44,12.44,5.33,12.47s5.88-9.07,6-12.18a5.65,5.65,0,1,0-11.29-.29Z" fill="#19438a"/>
      <path id="Path_25609" data-name="Path 25609" d="M70.47,188.12c3-.87,10.5-8,10.25-8.87s-10.42-2.84-13.41-2a5.65,5.65,0,1,0,3.16,10.84Z" fill="#19438a"/>
      <path id="Path_25610" data-name="Path 25610" d="M138.39,295.48S167.05,243.83,71,209.85C71,209.85,75.33,314.67,138.39,295.48Z" fill="#4a72b5"/>
      <path id="Path_25611" data-name="Path 25611" d="M70.9,209.69l69.93,78.75C144.85,273.26,145.62,236.12,70.9,209.69Z" fill="#769ddb"/>
      <path id="Path_25612" data-name="Path 25612" d="M137.87,285.35a.25.25,0,0,1-.17-.08l-67-75.43a.23.23,0,0,1,.33-.32l67,75.43a.23.23,0,0,1,0,.32A.25.25,0,0,1,137.87,285.35Z" fill="#19438a"/>
      <path id="Path_25613" data-name="Path 25613" d="M105.87,249.3h0L78,246.23a.24.24,0,0,1-.21-.26.23.23,0,0,1,.26-.2l27.85,3.07a.21.21,0,0,1,.2.25A.23.23,0,0,1,105.87,249.3Z" fill="#19438a"/>
      <path id="Path_25614" data-name="Path 25614" d="M120.21,265.45a.22.22,0,0,1-.22-.18l-6.12-26.81a.232.232,0,1,1,.45-.11l6.12,26.82a.24.24,0,0,1-.18.28Z" fill="#19438a"/>
      <path id="Path_25615" data-name="Path 25615" d="M141.82,306.28s4.52-52.45-85.95-45.16C55.87,261.12,97.5,344.82,141.82,306.28Z" fill="#19438a"/>
      <path id="Path_25616" data-name="Path 25616" d="M55.87,261.12l85.95,45.16S105.25,349.48,55.87,261.12Z" fill="#4a72b5"/>
      <path id="Path_25617" data-name="Path 25617" d="M76.08,282.22h0l22.39.68a.31.31,0,0,0,.32-.3.3.3,0,0,0-.3-.31l-22.39-.68a.31.31,0,0,0-.06.61Z" fill="#19438a"/>
      <path id="Path_25618" data-name="Path 25618" d="M103,303.83h.07l29.57-2.08a.31.31,0,0,0,.29-.33.3.3,0,0,0-.33-.28L103,303.22a.305.305,0,0,0,0,.61Z" fill="#19438a"/>
      <path id="Path_25619" data-name="Path 25619" d="M191.16,263.46h-.09a.47.47,0,0,1-.32-.6c20.49-65.95,39-112.48,52.14-131,.3-.42.51-.71.59-.86a.477.477,0,1,1,.84.45,10.884,10.884,0,0,1-.65,1c-13.08,18.45-31.55,64.88-52,130.75a.47.47,0,0,1-.51.26Z" fill="#19438a"/>
      <path id="Path_25620" data-name="Path 25620" d="M252,128.51c-1.56,2.07-9.32,5.85-9.92,5.4s.83-9,2.39-11a4.7,4.7,0,0,1,7.53,5.64Z" fill="#19438a"/>
      <path id="Path_25621" data-name="Path 25621" d="M237,134.73c.74,2.55-1,11.22-1.69,11.43s-6.8-6.19-7.54-8.74a4.81,4.81,0,0,1,9.23-2.69Z" fill="#19438a"/>
      <path id="Path_25622" data-name="Path 25622" d="M246.06,150c-2.65.15-10.71-3.46-10.75-4.22s7.56-5.24,10.22-5.38a4.81,4.81,0,1,1,.53,9.6Z" fill="#19438a"/>
      <path id="Path_25623" data-name="Path 25623" d="M213.87,178.36c1.7,4.13.43,18.9-.75,19.38s-12.48-9.11-14.18-13.23a8.074,8.074,0,0,1,14.93-6.15Z" fill="#19438a"/>
      <path id="Path_25624" data-name="Path 25624" d="M231.78,202.2c-4.4.72-18.5-3.84-18.71-5.1s11.69-10.11,16.09-10.83a8.072,8.072,0,1,1,2.62,15.93Z" fill="#19438a"/>
      <path id="Path_25625" data-name="Path 25625" d="M202.13,194.8c3.14,4.46,5.6,22.43,4.33,23.33s-17.35-7.51-20.49-12a9.88,9.88,0,1,1,16.16-11.36Z" fill="#19438a"/>
      <path id="Path_25626" data-name="Path 25626" d="M227.77,226c-5.44.33-22-7-22.13-8.56s15.49-10.83,20.94-11.16A9.879,9.879,0,1,1,227.77,226Z" fill="#19438a"/>
      <path id="Path_25627" data-name="Path 25627" d="M194.76,216.3c3.14,4.46,5.6,22.44,4.33,23.33s-17.35-7.51-20.49-12a9.88,9.88,0,1,1,16.16-11.36Z" fill="#19438a"/>
      <path id="Path_25628" data-name="Path 25628" d="M220.4,247.51c-5.44.33-22-7-22.13-8.55s15.49-10.84,20.94-11.17a9.879,9.879,0,1,1,1.19,19.722Z" fill="#19438a"/>
      <path id="Path_25629" data-name="Path 25629" d="M178.79,243.26c4.6,2.93,13.72,18.61,12.89,19.92s-18.91-.33-23.51-3.26a9.879,9.879,0,1,1,10.621-16.661Z" fill="#19438a"/>
      <path id="Path_25630" data-name="Path 25630" d="M213.86,268.79c-5.36,1-22.74-4.19-23-5.73s14-12.68,19.37-13.69a9.88,9.88,0,0,1,3.65,19.42Z" fill="#19438a"/>
      <path id="Path_25631" data-name="Path 25631" d="M229.85,148.32c.76,2.59-1,11.39-1.71,11.61s-6.92-6.29-7.67-8.89a4.883,4.883,0,1,1,9.38-2.72Z" fill="#19438a"/>
      <path id="Path_25632" data-name="Path 25632" d="M238.73,164c-2.7.15-10.89-3.52-10.93-4.29s7.69-5.32,10.38-5.47a4.89,4.89,0,0,1,.55,9.76Z" fill="#19438a"/>
      <path id="Path_25633" data-name="Path 25633" d="M221.74,160.92c1.37,3.58-.05,16.25-1.07,16.64s-10.53-8.1-11.9-11.69a6.964,6.964,0,1,1,13-5Z" fill="#19438a"/>
      <path id="Path_25634" data-name="Path 25634" d="M236.08,183.22c-3.82.21-15.46-5-15.52-6.09s10.92-7.56,14.75-7.77a6.941,6.941,0,0,1,.77,13.86Z" fill="#19438a"/>
      <path id="Path_25635" data-name="Path 25635" d="M185,296.92s-21.21-55.75,79.66-75.9C264.66,221,245.27,325.17,185,296.92Z" fill="#4a72b5"/>
      <path id="Path_25636" data-name="Path 25636" d="M264.81,220.88l-81.23,68.66C181.75,273.78,186.33,236.55,264.81,220.88Z" fill="#769ddb"/>
      <path id="Path_25637" data-name="Path 25637" d="M187,286.87a.23.23,0,0,1-.17-.08.24.24,0,0,1,0-.33l77.79-65.76a.23.23,0,0,1,.32,0,.24.24,0,0,1,0,.33l-77.8,65.75A.2.2,0,0,1,187,286.87Z" fill="#19438a"/>
      <path id="Path_25638" data-name="Path 25638" d="M252.48,256.38h0l-28.28-.94a.23.23,0,0,1,0-.46h0l28.28.94a.23.23,0,0,1,.23.24.24.24,0,0,1-.23.22Z" fill="#19438a"/>
      <path id="Path_25639" data-name="Path 25639" d="M207.53,269.52h-.08a.23.23,0,0,1-.13-.3l10-25.92a.24.24,0,0,1,.3-.14.23.23,0,0,1,.13.3l-10,25.93a.23.23,0,0,1-.22.13Z" fill="#19438a"/>
      <path id="Path_25640" data-name="Path 25640" d="M186.85,303.77s3.75-42.79,75.44-24.2C262.29,279.57,217.05,341,186.85,303.77Z" fill="#19438a"/>
      <path id="Path_25641" data-name="Path 25641" d="M262.29,279.57l-75.44,24.2S210.16,343.65,262.29,279.57Z" fill="#4a72b5"/>
      <path id="Path_25642" data-name="Path 25642" d="M243.08,293.69h0L225,291.08a.252.252,0,0,1,.07-.5l18.09,2.61a.25.25,0,0,1,0,.5Z" fill="#19438a"/>
      <path id="Path_25643" data-name="Path 25643" d="M218.4,307.27h-.06l-23.48-5.83a.26.26,0,0,1-.18-.31.24.24,0,0,1,.3-.18l23.48,5.83a.252.252,0,1,1-.06.5Z" fill="#00348a"/>
      <path id="Path_25644" data-name="Path 25644" d="M198.64,281.28s-2.22-60.24,0-65.16,11.06-24.9,12-37.53-5.16-50.5-6.51-53.45.61-34.72-1.85-38-11.69-.84-13.71,14.9S135,183.57,135,183.57l-28.82,11.9s17.34,20.65,25.78,30.49v55.32Z" fill="#fcd3a3"/>
      <path id="Path_25645" data-name="Path 25645" d="M105.57,98.83l.44-.47a9.38,9.38,0,0,0-.55-13.24L81.21,62.8a9.7,9.7,0,0,0-13.7.57h0a9.69,9.69,0,0,0,.57,13.69L92.33,99.38A9.37,9.37,0,0,0,105.57,98.83Z" fill="#fcd3a3"/>
      <rect id="Rectangle_2144" data-name="Rectangle 2144" width="97.97" height="164.85" rx="8.02" transform="translate(90.64 33.37)" fill="#fff"/>
      <path id="Path_25646" data-name="Path 25646" d="M179.2,199.59H100.05a10.8,10.8,0,0,1-10.78-10.78v-146A10.79,10.79,0,0,1,100.05,32H179.2A10.78,10.78,0,0,1,190,42.78v146a10.79,10.79,0,0,1-10.8,10.81ZM100.05,34.74a8.06,8.06,0,0,0-8,8v146a8.06,8.06,0,0,0,8,8.05H179.2a8.06,8.06,0,0,0,8-8.05v-146a8.05,8.05,0,0,0-8-8Z" fill="#050521"/>
      <path id="Path_25647" data-name="Path 25647" d="M90.64,186.87h98v2.28a9.08,9.08,0,0,1-9.08,9.08H99.76a9.12,9.12,0,0,1-9.12-9.12v-2.23Z" fill="#050521"/>
      <path id="Path_25648" data-name="Path 25648" d="M78.67,105.76l-.42.48a9.37,9.37,0,0,0,.9,13.22L88,127.19a9.69,9.69,0,0,0,13.67-.93h0a9.68,9.68,0,0,0-.93-13.67l-8.86-7.73a9.36,9.36,0,0,0-13.21.9Z" fill="#fcd3a3"/>
      <path id="Path_25649" data-name="Path 25649" d="M75.89,150.44l-.42.48a9.37,9.37,0,0,0,.9,13.22l8.86,7.73a9.69,9.69,0,0,0,13.67-.93h0a9.69,9.69,0,0,0-.9-13.67l-8.86-7.73a9.37,9.37,0,0,0-13.25.9Z" fill="#fcd3a3"/>
      <path id="Path_25650" data-name="Path 25650" d="M74.46,127.05l-.42.48a9.36,9.36,0,0,0,.9,13.22l10.45,9.12a9.69,9.69,0,0,0,13.67-.94h0a9.69,9.69,0,0,0-.93-13.67l-10.45-9.12a9.37,9.37,0,0,0-13.22.91Z" fill="#fcd3a3"/>
      <rect id="Rectangle_2145" data-name="Rectangle 2145" width="79.39" height="50.16" transform="translate(124.4 268)" fill="#45c98f"/>
      <rect id="Rectangle_2146" data-name="Rectangle 2146" width="50.62" height="50.62" rx="4.94" transform="translate(114.32 70)" fill="#0047bb"/>
      <g id="Group_414" data-name="Group 414">
        <path id="Path_126" data-name="Path 126" d="M122.6,107.31a21.08,21.08,0,0,0,5,5l6.88-11.91-11.91,6.88" fill="#fff"/>
        <path id="Path_127" data-name="Path 127" d="M127.63,78.28a20.94,20.94,0,0,0-5,5l11.91,6.87-6.88-11.91" fill="#fff"/>
        <path id="Path_128" data-name="Path 128" d="M148.38,76.4a20.48,20.48,0,0,0-6.87-1.84V88.31l6.87-11.91" fill="#fff"/>
        <path id="Path_129" data-name="Path 129" d="M130.88,114.22a20.84,20.84,0,0,0,6.88,1.84V102.31l-6.88,11.91" fill="#fff"/>
        <path id="Path_130" data-name="Path 130" d="M156.66,83.31a20.89,20.89,0,0,0-5-5l-6.87,11.9,11.9-6.87" fill="#fff"/>
        <path id="Path_131" data-name="Path 131" d="M151.63,112.34a21.08,21.08,0,0,0,5-5l-11.91-6.88,6.88,11.91" fill="#fff"/>
      </g>
      <g id="Group_415" data-name="Group 415">
        <path id="Path_132" data-name="Path 132" d="M160.38,93.43a20.54,20.54,0,0,0-1.84-6.87l-11.91,6.87h13.75" fill="#fff"/>
        <path id="Path_133" data-name="Path 133" d="M118.89,97.18a20.82,20.82,0,0,0,1.83,6.88l11.92-6.88H118.88" fill="#fff"/>
        <path id="Path_134" data-name="Path 134" d="M120.72,86.56a20.76,20.76,0,0,0-1.83,6.87h13.75l-11.91-6.87" fill="#fff"/>
        <path id="Path_135" data-name="Path 135" d="M146.63,97.18l11.91,6.88a20.6,20.6,0,0,0,1.84-6.88H146.63" fill="#fff"/>
        <path id="Path_136" data-name="Path 136" d="M137.76,74.56a20.6,20.6,0,0,0-6.88,1.84l6.88,11.91V74.56" fill="#fff"/>
        <path id="Path_137" data-name="Path 137" d="M141.51,116.06a20.84,20.84,0,0,0,6.88-1.84l-6.88-11.91v13.75" fill="#fff"/>
      </g>
      <path id="Path_25651" data-name="Path 25651" d="M109.2,131.46h1.52l1.81,4.36h0l1.82-4.36h1.51v6.47h-1.34v-4h0l-1.7,4h-.59l-1.68-4h0v4H109.2Z"/>
      <path id="Path_25652" data-name="Path 25652" d="M118.41,137.68,116.52,133h1.37l1.17,3.1h0l1.18-3.1h1.36l-2.82,7h-1.35Z"/>
      <path id="Path_25653" data-name="Path 25653" d="M126.92,131.33a2.52,2.52,0,0,1,2.58,2.31l-1.34.22c-.14-.82-.59-1.29-1.24-1.29-.94,0-1.49.8-1.49,2.13s.55,2.13,1.49,2.13c.69,0,1.14-.49,1.26-1.39l1.34.23a2.55,2.55,0,0,1-2.6,2.4c-1.73,0-2.86-1.33-2.86-3.37S125.19,131.33,126.92,131.33Z"/>
      <path id="Path_25654" data-name="Path 25654" d="M132.26,132.9a2.33,2.33,0,0,1,2.3,2.59v.38h-3.28a.972.972,0,0,0,1,1.09,1.35,1.35,0,0,0,1.18-.73l.93.73a2.5,2.5,0,1,1-2.14-4.06Zm1,2a.93.93,0,0,0-1-.93,1,1,0,0,0-1,.93Z"/>
      <path id="Path_25655" data-name="Path 25655" d="M135.29,133h1.26v.43h0a1.89,1.89,0,0,1,2.64-.06,1.94,1.94,0,0,1,.5,1.39v3.13h-1.32V135a.82.82,0,0,0-.89-.91.84.84,0,0,0-.89.91v2.9h-1.32Z"/>
      <path id="Path_25656" data-name="Path 25656" d="M142.24,134.2v2.07c0,.31.12.4.5.4h.54v1.26h-.67c-1.21,0-1.69-.44-1.69-1.58V134.2h-.84V133h.84v-1.23h1.32V133h1.21v1.16Z"/>
      <path id="Path_25657" data-name="Path 25657" d="M144,133h1.32v3c0,.6.29.9.85.9a.82.82,0,0,0,.86-.9v-3h1.32v4.89h-1.26v-.43h0a1.68,1.68,0,0,1-1.32.57,1.63,1.63,0,0,1-1.75-1.81Z"/>
      <path id="Path_25658" data-name="Path 25658" d="M149.27,133h1.24v.43h0a1.21,1.21,0,0,1,1.05-.53,2.11,2.11,0,0,1,.64.09l-.22,1.25a2.67,2.67,0,0,0-.54-.07c-.57,0-.86.38-.86,1.09v2.63h-1.33Z"/>
      <path id="Path_25659" data-name="Path 25659" d="M154.26,137.68,152.37,133h1.37l1.17,3.1h0l1.18-3.1h1.36l-2.82,7h-1.36Z"/>
      <path id="Path_25660" data-name="Path 25660" d="M158.11,131.46h1.37v5.22h2.73v1.25h-4.1Z"/>
      <path id="Path_25661" data-name="Path 25661" d="M162.88,130.94h1.34v1.29h-1.34Zm0,2.1h1.32v4.89h-1.3Z"/>
      <path id="Path_25662" data-name="Path 25662" d="M165.13,133h1.26v.43h0a1.89,1.89,0,0,1,2.64-.06,1.94,1.94,0,0,1,.5,1.39v3.13h-1.32V135a.82.82,0,0,0-.89-.91.84.84,0,0,0-.89.91v2.9h-1.32Z"/>
      <path id="Path_25663" data-name="Path 25663" d="M170.43,131.19h1.32v3.69h0l1.57-1.84H175l-1.76,2,1.81,2.93h-1.49l-1.16-2.06h0l-.65.76v1.3h-1.32Z"/>
    </g>
  </g>
</svg>
