<svg xmlns="http://www.w3.org/2000/svg" viewBox="0 0 113.145 29"><path d="M103.55641,145.74275a7.26279,7.26279,0,0,0-5.76,2.72447v-8.36128a.62542.62542,0,0,0-.62542-.62541H94.36065a.62542.62542,0,0,0-.62542.62541v24.0095a.62542.62542,0,0,0,.62542.62542h2.44067a.607.607,0,0,0,.62292-.61809l.178-1.96a7.34733,7.34733,0,0,0,5.96228,2.84647c5.15329,0,9.03645-4.09891,9.03645-9.53159-.00809-5.55467-3.89934-9.7349-9.04454-9.7349Zm5.20088,9.68466a5.5518,5.5518,0,0,1-5.52316,5.82368,5.49045,5.49045,0,0,1-5.52316-5.82368c0-3.40324,2.37171-5.96989,5.52316-5.96989C106.43431,149.45753,108.75729,151.96731,108.75729,155.42741Z" transform="translate(-93.73523 -136.00924)"/><path d="M133.3877,146.14081h-2.45507a.6104.6104,0,0,0-.626.626l-.1382,1.9917a7.32156,7.32156,0,0,0-6.02388-2.99162c-5.17842-.00812-9.08053,4.17038-9.08053,9.71463,0,5.43043,3.90211,9.52764,9.08054,9.52764a7.39784,7.39784,0,0,0,5.99136-2.84528l.17885,1.95918a.60847.60847,0,0,0,.626.61784h2.45562a.62542.62542,0,0,0,.62542-.62542V146.76677a.604.604,0,0,0-.6341-.626Zm-3.35,9.2866a5.495,5.495,0,0,1-5.52315,5.82368,5.55668,5.55668,0,0,1-5.52316-5.82368c0-3.4601,2.323-5.96989,5.52316-5.96989C127.65786,149.45753,130.03769,152.02417,130.03769,155.42741Z" transform="translate(-93.73523 -136.00924)"/><path d="M146.66637,145.72639a5.22209,5.22209,0,0,0-4.57081,2.66527l-.13753-1.63329a.60677.60677,0,0,0-.62293-.61756h-2.62674a.62542.62542,0,0,0-.62541.62541v17.34922a.62542.62542,0,0,0,.62541.62542h2.81032a.62542.62542,0,0,0,.62541-.62542V153.43781a3.80242,3.80242,0,0,1,3.88317-3.97353,4.54421,4.54421,0,0,1,1.48855.22752c.38023.07313.65528.04063.81708-.37379l.86562-2.07209a.56407.56407,0,0,0-.16988-.7882,3.81018,3.81018,0,0,0-2.36226-.73133Z" transform="translate(-93.73523 -136.00924)"/><path d="M169.269,163.96077l-7.66925-10.02728,6.60947-7.0126a.52606.52606,0,0,0,.16989-.54443c-.06472-.15439-.25078-.23565-.51776-.23565h-3.19552a.945.945,0,0,0-.76045.31793l-7.7097,8.24994V140.10594a.62542.62542,0,0,0-.62542-.62541h-2.81031a.62542.62542,0,0,0-.62542.62541v24.0095a.62542.62542,0,0,0,.62542.62542h2.81031a.62542.62542,0,0,0,.62542-.62542v-4.502L159.0595,156.55l6.03508,7.82518a.77474.77474,0,0,0,.7281.36567h3.04181a.52643.52643,0,0,0,.50966-.24378c.09708-.15439.04854-.34129-.10517-.53631Z" transform="translate(-93.73523 -136.00924)"/><path d="M204.9171,141.17279a.52713.52713,0,0,1-.12183-1.03966l1.43764-.34925a.526.526,0,1,1,.24367,1.0234l-1.43764.34926A.62732.62732,0,0,1,204.9171,141.17279Z" transform="translate(-93.73523 -136.00924)" fill="#1942d8"/><path d="M203.39824,139.34527a.49642.49642,0,0,1-.27616-.08122.52022.52022,0,0,1-.17057-.72289l.57668-.93406a.52732.52732,0,0,1,.72289-.17057.52021.52021,0,0,1,.17056.72289l-.57668.93406A.53551.53551,0,0,1,203.39824,139.34527Z" transform="translate(-93.73523 -136.00924)" fill="#1942d8"/><path d="M205.33134,144.06432a.49634.49634,0,0,1-.27616-.08122l-.93407-.57668a.52519.52519,0,0,1,.55232-.89345l.93407.57668a.52728.52728,0,0,1-.27616.97467Z" transform="translate(-93.73523 -136.00924)" fill="#1942d8"/><path d="M178.90141,164.54874a.40656.40656,0,0,0,.50357.35456h8.39846l.34113-1.16679a.43794.43794,0,0,0-.2924-.53607l-3.07835-.96655,6.0836-3.47634a.29213.29213,0,0,1,.42235.18681l1.55136,5.66124a.5155.5155,0,0,0,.48733.37892h4.386l.34926-1.26425a.43781.43781,0,0,0-.25991-.51983l-1.54323-.60917a1.18408,1.18408,0,0,1-.74725-.92594c-.17056-1.11276-.32489-3.785.43861-9.62492a7.60285,7.60285,0,0,1,2.77782-5.36071,9.39292,9.39292,0,0,1,2.48542-1.63258.25578.25578,0,0,0,.15038-.25179v-.57668a.32962.32962,0,0,0-.3372-.34926l-2.41232.1462a.1569.1569,0,0,1-.10559-.28428,12.45816,12.45816,0,0,0,3.03774-3.22455.37765.37765,0,0,0-.00812-.45485c-.23555-.2924-.64978-.796-.88533-1.08839a.36646.36646,0,0,0-.42236-.10559,10.47449,10.47449,0,0,1-4.16674.70664,9.64074,9.64074,0,0,1-4.248-.95843l.87721-2.29048a.14192.14192,0,0,0-.02437-.13808l-.08934-.10559a.19624.19624,0,0,0-.23555-.04061l-3.2408,1.90061a2.05972,2.05972,0,0,0-.87721,1.01529l-1.14524,2.81031a1.43754,1.43754,0,0,0-.04873.95843l1.75441,4.16674a.77142.77142,0,0,1-.38174.88533l-8.65836,4.87337a1.20445,1.20445,0,0,0-.4711.43048l-.14621.24367a.21584.21584,0,0,1-.398-.08122l-.82035-5.01958a.45912.45912,0,0,0-.90157-.03249l-1.2021,5.13329a8.4061,8.4061,0,0,0,.7635,5.8643Z" transform="translate(-93.73523 -136.00924)" fill="#1942d8"/></svg>