<svg xmlns="http://www.w3.org/2000/svg" width="48" height="48" viewBox="0 0 48 48"><defs><style>.a,.c{fill:#2bc7ef;}.a{opacity:0.12;}.b{fill:none;}</style></defs><g transform="translate(-9 -12)"><circle class="a" cx="24" cy="24" r="24" transform="translate(9 12)"/><g transform="translate(19 22)"><path class="b" d="M0,0H28V28H0Z"/><g transform="translate(3.5 2.333)"><path class="c" d="M22.25,3.75,20.5,2,18.75,3.75,17,2,15.25,3.75,13.5,2,11.75,3.75,10,2,8.25,3.75,6.5,2V18.333H3v3.5a3.5,3.5,0,0,0,3.5,3.5h14a3.5,3.5,0,0,0,3.5-3.5V2ZM17,23H6.5a1.17,1.17,0,0,1-1.167-1.167V20.667H17Zm4.667-1.167a1.167,1.167,0,0,1-2.333,0v-3.5H8.833V5.5H21.667Z" transform="translate(-3 -2)"/><rect class="c" width="7" height="2.333" transform="translate(7 5.833)"/><rect class="c" width="2.333" height="2.333" transform="translate(15.167 5.833)"/><rect class="c" width="7" height="2.333" transform="translate(7 9.333)"/><rect class="c" width="2.333" height="2.333" transform="translate(15.167 9.333)"/></g></g></g></svg>