<svg xmlns="http://www.w3.org/2000/svg" width="48" height="48" viewBox="0 0 48 48"><defs><style>.a,.c{fill:#0047bb;}.a{opacity:0.12;}.b{fill:none;}</style></defs><g transform="translate(-9 -12)"><circle class="a" cx="24" cy="24" r="24" transform="translate(9 12)"/><g transform="translate(19 22)"><path class="b" d="M0,0H28V28H0Z"/><path class="c" d="M17.167,4.333V12.5H5.7l-.688.688-.677.677V4.333H17.167M18.333,2H3.167A1.17,1.17,0,0,0,2,3.167V19.5l4.667-4.667H18.333A1.17,1.17,0,0,0,19.5,13.667V3.167A1.17,1.17,0,0,0,18.333,2Zm5.833,4.667H21.833v10.5H6.667V19.5a1.17,1.17,0,0,0,1.167,1.167H20.667l4.667,4.667V7.833A1.17,1.17,0,0,0,24.167,6.667Z" transform="translate(0.333 0.333)"/></g></g></svg>