<svg xmlns="http://www.w3.org/2000/svg" width="70.671" height="42.496" viewBox="0 0 70.671 42.496"><defs><style>.a,.b,.d,.e{fill:none;stroke-miterlimit:10;}.a,.b,.e{stroke:#0047bb;}.a{stroke-width:1.332px;}.b{stroke-width:1.479px;}.c{fill:#0047bb;}.d{stroke:#000;stroke-width:0.726px;}.e{stroke-width:1.212px;}</style></defs><g transform="translate(0 0)"><path class="a" d="M52.288,33.637H70V.666H9.259V18.983"/><line class="a" x2="12.189" transform="translate(33.038 33.637)"/><line class="b" x1="3.197" y1="4.33" transform="translate(62.079 33.304)"/><path class="c" d="M22.713,40.032v1.2H14.054v-1.2H0V42.5H36.368V40.032Z"/><path class="d" d="M160.722,155.607" transform="translate(-115.095 -128.964)"/><path class="d" d="M161.588,151.943" transform="translate(-115.095 -128.964)"/><path class="c" d="M166.65,154.941v8.926h2.131l1.665,6.727H157.325l1.532-6.727h2.2v-8.926h5.6m.733-.733h-7.061v8.926h-2.065l-1.8,8.193h14.854l-1.932-8.193h-2Z" transform="translate(-115.095 -128.964)"/><rect class="c" width="3.597" height="2.305" transform="translate(47.092 27.642)"/><circle class="c" cx="0.466" cy="0.466" r="0.466" transform="translate(47.292 31.173)"/><circle class="c" cx="0.466" cy="0.466" r="0.466" transform="translate(49.357 31.173)"/><circle class="c" cx="0.466" cy="0.466" r="0.466" transform="translate(47.292 33.437)"/><circle class="c" cx="0.466" cy="0.466" r="0.466" transform="translate(49.357 33.437)"/><circle class="c" cx="0.466" cy="0.466" r="0.466" transform="translate(47.292 35.702)"/><circle class="c" cx="0.466" cy="0.466" r="0.466" transform="translate(49.357 35.702)"/><rect class="c" width="0.733" height="2.338" transform="translate(45.227 22.98)"/><rect class="e" width="30.107" height="19.01" transform="translate(2.931 18.983)"/><path class="c" d="M166.517,155.007V167.33h-5.4V155.007h5.4m.733-.733h-6.861v13.789h6.861Z" transform="translate(-115.095 -128.964)"/></g></svg>