<svg xmlns="http://www.w3.org/2000/svg" width="49.142" height="53.955" viewBox="0 0 49.142 53.955"><defs><style>.a{fill:none;stroke:#0047bb;stroke-width:1.5px;fill-rule:evenodd;}.b{fill:#0047bb;}</style></defs><g transform="matrix(0.819, 0.574, -0.574, 0.819, 26.644, 1.151)"><path class="a" d="M0,45V12.857L12.857,0,25.714,12.857V45Z" transform="translate(0.258)"/><circle class="b" cx="1.022" cy="1.022" r="1.022" transform="translate(12.009 4.822)"/><path class="b" d="M6.489,9.448C3.8,8.742,2.937,8.012,2.937,6.876c0-1.3,1.2-2.212,3.2-2.212,2.108,0,2.893,1.017,2.96,2.511H11.71a4.755,4.755,0,0,0-3.8-4.558V0H4.357V2.583C2.06,3.085.213,4.592.213,6.9c0,2.763,2.261,4.138,5.565,4.939,2.96.718,3.552,1.768,3.552,2.882,0,.825-.58,2.141-3.2,2.141-2.436,0-3.4-1.1-3.528-2.511H0c.142,2.619,2.084,4.089,4.357,4.58v2.595H7.909V18.953c2.309-.442,4.145-1.791,4.145-4.245,0-3.4-2.878-4.556-5.565-5.262Z" transform="translate(6.9 16.38)"/></g></svg>