<svg xmlns="http://www.w3.org/2000/svg" width="24" height="24" viewBox="0 0 24 24">
  <g id="cloud_black_24dp" opacity="0.65">
    <path id="Path_24509" data-name="Path 24509" d="M0,0H24V24H0Z" fill="none"/>
    <path id="Path_24510" data-name="Path 24510" d="M12,6a5.5,5.5,0,0,1,5.39,4.43l.3,1.5,1.53.11A2.983,2.983,0,0,1,19,18H6a4,4,0,0,1-.44-7.97l1.07-.11.5-.95A5.469,5.469,0,0,1,12,6m0-2A7.5,7.5,0,0,0,5.35,8.04,6,6,0,0,0,6,20H19a4.986,4.986,0,0,0,.35-9.96A7.49,7.49,0,0,0,12,4Z" fill="#14161a"/>
  </g>
</svg>
