<svg xmlns="http://www.w3.org/2000/svg" width="48" height="48" viewBox="0 0 48 48">
  <g id="Group_17781" data-name="Group 17781" transform="translate(-32 -821)">
    <g id="icon_-_vacation_service" data-name="icon - vacation service" transform="translate(-238 -682)">
      <circle id="Ellipse_40" data-name="Ellipse 40" cx="24" cy="24" r="24" transform="translate(270 1503)" fill="#0047bb" opacity="0.12"/>
    </g>
    <path id="redeem_FILL0_wght400_GRAD0_opsz48" d="M5.65,20.583V23.25h18.7V20.583ZM5.65,8.4H9.087a2.311,2.311,0,0,1-.22-.619,3.132,3.132,0,0,1-.082-.674,3,3,0,0,1,.908-2.2A2.964,2.964,0,0,1,11.865,4a3,3,0,0,1,1.568.426A3.287,3.287,0,0,1,14.56,5.513l.467.715.44-.715a3.4,3.4,0,0,1,1.128-1.1A2.836,2.836,0,0,1,18.08,4a3.052,3.052,0,0,1,2.228.894,2.983,2.983,0,0,1,.907,2.214,2.722,2.722,0,0,1-.069.605,6.089,6.089,0,0,1-.206.687h3.41A1.692,1.692,0,0,1,26,10.05v13.2a1.692,1.692,0,0,1-1.65,1.65H5.65a1.583,1.583,0,0,1-1.155-.5A1.583,1.583,0,0,1,4,23.25V10.05A1.583,1.583,0,0,1,4.5,8.9,1.583,1.583,0,0,1,5.65,8.4Zm0,9.24h18.7V10.05H17.5l2.75,3.823-1.32.99L15,9.418l-3.932,5.445-1.32-.99L12.5,10.05H5.65Zm6.243-9.075A1.455,1.455,0,0,0,13.35,7.108a1.458,1.458,0,1,0-2.489,1.031A1.4,1.4,0,0,0,11.893,8.565Zm6.188,0a1.437,1.437,0,0,0,1.059-.426,1.461,1.461,0,0,0,0-2.062A1.437,1.437,0,0,0,18.08,5.65a1.373,1.373,0,0,0-1,.426,1.461,1.461,0,0,0,0,2.063A1.373,1.373,0,0,0,18.08,8.565Z" transform="translate(41.5 830.5)" fill="#0047bb" stroke="#0047bb" stroke-width="0.5"/>
  </g>
</svg>
