<svg id="generic_modem" data-name="generic modem" xmlns="http://www.w3.org/2000/svg" width="271.674" height="336" viewBox="0 0 271.674 336">
  <path id="Path_26441" data-name="Path 26441" d="M331.951,103.661V412.966a3.451,3.451,0,0,1-3.451,3.451H260.271a3.451,3.451,0,0,1-3.451-3.451V103.661a3.451,3.451,0,0,1,3.451-3.451H328.5A3.451,3.451,0,0,1,331.951,103.661Z" transform="translate(-231.587 -99.663)" fill="#333" stroke="#000" stroke-width="1"/>
  <path id="Path_26442" data-name="Path 26442" d="M305.627,1039.314v2.744a4.5,4.5,0,0,1-4.5,4.5H187.5a4.5,4.5,0,0,1-4.5-4.5v-2.851a8.791,8.791,0,0,1,1.451-4.835c3.036-4.6,9.924-14.712,11.844-14.712l11.439.067v4.627a3.451,3.451,0,0,0,3.451,3.451h68.229a3.451,3.451,0,0,0,3.451-3.451v-4.175l9.716.057c2.121,0,10.128,13.01,12.434,16.829a4.336,4.336,0,0,1,.613,2.248Z" transform="translate(-182.5 -711.054)" fill="#333" stroke="#000" stroke-width="1"/>
  <path id="Path_26443" data-name="Path 26443" d="M305.627,1069.363v2.744a4.5,4.5,0,0,1-4.5,4.5H187.5a4.5,4.5,0,0,1-4.5-4.5v-2.851a4.459,4.459,0,0,1,1.625-3.015c3.994-.979,21.188-1.391,23.118-1.391l75.131.03c2.121,0,17.221,1.8,21,2.68C304.622,1067.755,305.627,1068.586,305.627,1069.363Z" transform="translate(-182.5 -741.103)" fill="#333" stroke="#000" stroke-width="1"/>
  <line id="Line_262" data-name="Line 262" x1="65.793" y2="316.207" transform="translate(28.684 0.547)" fill="#333" stroke="#000" stroke-width="1"/>
  <path id="Path_26444" data-name="Path 26444" d="M216.785,327.093l-5.294-5.153-1.591,7.83Z" transform="translate(-139.241 -213.743)" fill="#ccc"/>
  <path id="Path_26445" data-name="Path 26445" d="M193.055,440.663l-5.294-5.153-1.591,7.83Z" transform="translate(-123.462 -289.261)" fill="#ccc"/>
  <path id="Path_26446" data-name="Path 26446" d="M169.835,553.263l-5.294-5.153-1.591,7.83Z" transform="translate(-108.022 -364.135)" fill="#ccc"/>
  <path id="Path_26447" data-name="Path 26447" d="M773.828,103.521V412.826a3.451,3.451,0,0,1-3.451,3.451H702.151a3.451,3.451,0,0,1-3.451-3.451V103.521a3.451,3.451,0,0,1,3.451-3.451h68.226A3.451,3.451,0,0,1,773.828,103.521Z" transform="translate(-525.416 -99.57)" fill="#333" stroke="#000" stroke-width="1"/>
  <path id="Path_26448" data-name="Path 26448" d="M747.5,1039.18v2.744a4.5,4.5,0,0,1-4.5,4.5H629.366a4.5,4.5,0,0,1-4.5-4.5v-2.848a8.792,8.792,0,0,1,1.451-4.835c3.036-4.6,9.924-14.712,11.844-14.712l11.439.067v4.627a3.451,3.451,0,0,0,3.451,3.451h68.229a3.451,3.451,0,0,0,3.451-3.451v-4.175l9.716.057c2.121,0,10.128,13.01,12.434,16.829A4.335,4.335,0,0,1,747.5,1039.18Z" transform="translate(-476.323 -710.968)" fill="#333" stroke="#000" stroke-width="1"/>
  <path id="Path_26449" data-name="Path 26449" d="M747.5,1069.23v2.744a4.5,4.5,0,0,1-4.5,4.5H629.366a4.5,4.5,0,0,1-4.5-4.5v-2.848a4.459,4.459,0,0,1,1.625-3.015c3.994-.978,21.188-1.391,23.118-1.391l75.131.03c2.121,0,17.221,1.8,21,2.68C746.505,1067.621,747.5,1068.436,747.5,1069.23Z" transform="translate(-476.323 -741.017)" fill="#333" stroke="#000" stroke-width="1"/>
  <circle id="Ellipse_242" data-name="Ellipse 242" cx="7.897" cy="7.897" r="7.897" transform="translate(197.303 85.297)" fill="#666"/>
  <circle id="Ellipse_243" data-name="Ellipse 243" cx="8.426" cy="8.426" r="8.426" transform="translate(201.233 57.481)" fill="#666"/>
  <circle id="Ellipse_244" data-name="Ellipse 244" cx="8.426" cy="8.426" r="8.426" transform="translate(201.233 56.285)" fill="#a1a1a1"/>
  <circle id="Ellipse_245" data-name="Ellipse 245" cx="2.64" cy="2.64" r="2.64" transform="translate(202.56 90.554)" fill="#ccc"/>
  <rect id="Rectangle_2325" data-name="Rectangle 2325" width="32.446" height="38.443" transform="translate(189.46 203.492)" fill="#fcec5d"/>
  <rect id="Rectangle_2326" data-name="Rectangle 2326" width="32.446" height="38.443" transform="translate(189.46 243.282)" fill="#ccc"/>
  <path id="Path_26450" data-name="Path 26450" d="M606.31,626.31v10.433h-2.556v3.019h-5.113v6.617h-3.679v1.588H587.5v-1.588H582.15V616.56h5.689v-1.25H595.3v1.25h3.344v7.2h5.113v2.546Z" transform="translate(-386.77 -408.82)" fill="#8a8a8a"/>
  <path id="Path_26451" data-name="Path 26451" d="M606.31,747.928v10.638h-1.963v2.925h-5.706v4.265h-3.17v1.923h-7.639v-1.923H582.15v-25.43h5.9v-1.8h7.639v1.8h2.952v4.624h5.706v2.979Z" transform="translate(-386.77 -490.755)" fill="#8a8a8a"/>
  <path id="Path_26452" data-name="Path 26452" d="M726.76,292.775v-3.836h1.447a3.589,3.589,0,0,1,.583.037,1.106,1.106,0,0,1,.472.181.935.935,0,0,1,.308.369,1.25,1.25,0,0,1-.194,1.34,1.5,1.5,0,0,1-1.126.335h-.985v1.558Zm.506-2.01h1.005a1.062,1.062,0,0,0,.7-.184.67.67,0,0,0,.208-.516.7.7,0,0,0-.124-.412.573.573,0,0,0-.335-.228,2.391,2.391,0,0,0-.476-.034h-.982Z" transform="translate(-544.075 -225.158)" fill="#fff"/>
  <path id="Path_26453" data-name="Path 26453" d="M736.72,293.362a1.431,1.431,0,0,1,.429-1.146,1.3,1.3,0,0,1,.874-.308,1.236,1.236,0,0,1,.935.375,1.424,1.424,0,0,1,.365,1.039,1.836,1.836,0,0,1-.161.844,1.126,1.126,0,0,1-.469.476,1.34,1.34,0,0,1-.67.171,1.243,1.243,0,0,1-.945-.375A1.481,1.481,0,0,1,736.72,293.362Zm.482,0a1.169,1.169,0,0,0,.234.8.772.772,0,0,0,1.169,0,1.216,1.216,0,0,0,.231-.814,1.14,1.14,0,0,0-.234-.781.737.737,0,0,0-.58-.268.751.751,0,0,0-.586.265,1.173,1.173,0,0,0-.234.8Z" transform="translate(-550.695 -227.133)" fill="#fff"/>
  <path id="Path_26454" data-name="Path 26454" d="M745.991,294.878l-.851-2.778h.486l.442,1.6.164.6c0-.03.057-.221.144-.573l.442-1.628h.486l.415,1.612.141.533.157-.539.476-1.6h.459l-.868,2.778H747.6l-.442-1.675-.107-.476-.563,2.138Z" transform="translate(-556.297 -227.261)" fill="#fff"/>
  <path id="Path_26455" data-name="Path 26455" d="M759.284,293.868l.486.06a1.173,1.173,0,0,1-.426.67,1.447,1.447,0,0,1-1.762-.141,1.471,1.471,0,0,1-.359-1.052,1.531,1.531,0,0,1,.362-1.089,1.226,1.226,0,0,1,.938-.389,1.2,1.2,0,0,1,.911.379,1.518,1.518,0,0,1,.335,1.069v.124H757.7a1.076,1.076,0,0,0,.258.7.774.774,0,0,0,.58.245.717.717,0,0,0,.442-.137A.878.878,0,0,0,759.284,293.868Zm-1.548-.761h1.555a.965.965,0,0,0-.178-.526.727.727,0,0,0-.586-.271.757.757,0,0,0-.546.214A.872.872,0,0,0,757.736,293.108Z" transform="translate(-564.33 -227.146)" fill="#fff"/>
  <path id="Path_26456" data-name="Path 26456" d="M766.58,294.751v-2.778h.426v.419a1.183,1.183,0,0,1,.3-.389.53.53,0,0,1,.3-.094.921.921,0,0,1,.483.151l-.161.439a.67.67,0,0,0-.335-.1.455.455,0,0,0-.278.094.489.489,0,0,0-.174.258,1.8,1.8,0,0,0-.08.549v1.454Z" transform="translate(-570.553 -227.135)" fill="#fff"/>
  <path id="Path_26457" data-name="Path 26457" d="M855.27,759.4v-3.83h.506v3.384h1.89v.446Z" transform="translate(-629.528 -535.447)" fill="#fff"/>
  <path id="Path_26458" data-name="Path 26458" d="M863,759.386l1.474-3.836h.536l1.571,3.836h-.566l-.446-1.163h-1.6l-.436,1.163Zm1.106-1.575h1.3l-.4-1.062c-.121-.335-.211-.59-.271-.8a4.781,4.781,0,0,1-.208.734Z" transform="translate(-634.668 -535.433)" fill="#fff"/>
  <path id="Path_26459" data-name="Path 26459" d="M874.88,759.4v-3.83h.523l2.01,3.015V755.57h.489v3.83h-.523l-2.01-3.015V759.4Z" transform="translate(-642.568 -535.447)" fill="#fff"/>
  <path id="Path_26460" data-name="Path 26460" d="M855.648,880.9l-1.488-3.836h.553l1.005,2.788c.08.224.147.432.2.627.06-.208.131-.419.208-.627l1.035-2.788h.519l-1.5,3.836Z" transform="translate(-628.79 -616.232)" fill="#fff"/>
  <path id="Path_26461" data-name="Path 26461" d="M866,880.894v-3.836h1.34a3.163,3.163,0,0,1,.67.054,1.3,1.3,0,0,1,.563.275,1.561,1.561,0,0,1,.456.67,2.561,2.561,0,0,1,.151.911,2.593,2.593,0,0,1-.1.774,1.807,1.807,0,0,1-.261.56,1.338,1.338,0,0,1-.335.335,1.437,1.437,0,0,1-.459.194,2.6,2.6,0,0,1-.616.064Zm.509-.452h.831a2.009,2.009,0,0,0,.6-.07.848.848,0,0,0,.335-.2,1.185,1.185,0,0,0,.281-.482,2.4,2.4,0,0,0,.1-.74,1.79,1.79,0,0,0-.2-.925,1.006,1.006,0,0,0-.483-.436,2.044,2.044,0,0,0-.67-.077h-.8Z" transform="translate(-636.663 -616.23)" fill="#fff"/>
  <path id="Path_26462" data-name="Path 26462" d="M877,879.516l.479-.04a1.064,1.064,0,0,0,.157.472.894.894,0,0,0,.385.3,1.505,1.505,0,0,0,.59.114,1.418,1.418,0,0,0,.513-.087.687.687,0,0,0,.335-.238.539.539,0,0,0,.11-.335.5.5,0,0,0-.107-.315.773.773,0,0,0-.335-.228c-.1-.037-.335-.1-.67-.184a3.491,3.491,0,0,1-.74-.241,1.051,1.051,0,0,1-.409-.359.858.858,0,0,1-.134-.476.965.965,0,0,1,.164-.543,1.035,1.035,0,0,1,.482-.385,1.829,1.829,0,0,1,.7-.131,1.924,1.924,0,0,1,.75.137,1.106,1.106,0,0,1,.5.405,1.137,1.137,0,0,1,.188.6l-.486.037a.791.791,0,0,0-.265-.549,1.039,1.039,0,0,0-.67-.184,1.082,1.082,0,0,0-.67.168.509.509,0,0,0-.211.409.435.435,0,0,0,.147.335,2.034,2.034,0,0,0,.767.275,4.952,4.952,0,0,1,.848.245,1.175,1.175,0,0,1,.5.392.945.945,0,0,1,.161.546,1.041,1.041,0,0,1-.178.576,1.159,1.159,0,0,1-.5.422,1.752,1.752,0,0,1-.74.151,2.157,2.157,0,0,1-.871-.154,1.213,1.213,0,0,1-.553-.456A1.29,1.29,0,0,1,877,879.516Z" transform="translate(-643.977 -616.085)" fill="#fff"/>
  <path id="Path_26463" data-name="Path 26463" d="M888.16,880.9V877.06h.509v3.384h1.89v.452Z" transform="translate(-651.398 -616.232)" fill="#fff"/>
</svg>
