<svg xmlns="http://www.w3.org/2000/svg" width="200.329" height="190.782" viewBox="0 0 261.329 250.782">
  <g id="Layer_2" data-name="Layer 2" transform="translate(-20.569 -7.081)">
    <g id="_ÎÓÈ_1" data-name="—ÎÓÈ_1" transform="translate(0.012 -0.002)">
      <ellipse id="Ellipse_137" data-name="Ellipse 137" cx="130.665" cy="14.839" rx="130.665" ry="14.839" transform="translate(20.557 228.186)" fill="#3b703b"/>
      <path id="Path_24638" data-name="Path 24638" d="M1520.92,1380.26h23.174V1396.8a1.758,1.758,0,0,1-1.758,1.758h-19.658a1.758,1.758,0,0,1-1.758-1.758Z" transform="translate(-1277.85 -1159.668)" fill="#f9f162"/>
      <path id="Path_24639" data-name="Path 24639" d="M1467.96,1080.933a.156.156,0,0,0,.038,0,.193.193,0,0,0,.139-.235c-7.013-27.064-13.6-46.234-18.558-53.979-.11-.172-.19-.3-.219-.359a.193.193,0,1,0-.35.16q.112.206.243.4c4.932,7.713,11.507,26.849,18.508,53.859A.2.2,0,0,0,1467.96,1080.933Z" transform="translate(-1217.411 -862.218)" fill="#6e6bbf"/>
      <path id="Path_24640" data-name="Path 24640" d="M1428.431,1004.158c.59.869,3.657,2.544,3.9,2.376s-.16-3.639-.751-4.508a1.9,1.9,0,1,0-3.153,2.132Z" transform="translate(-1199.868 -841.18)" fill="#6e6bbf"/>
      <path id="Path_24641" data-name="Path 24641" d="M1466.7,1029.853c-.348,1.016.173,4.553.464,4.652s2.877-2.373,3.22-3.39a1.947,1.947,0,1,0-3.676-1.263Z" transform="translate(-1232.199 -864.068)" fill="#6e6bbf"/>
      <path id="Path_24642" data-name="Path 24642" d="M1433.326,1054.437c1.069.112,4.4-1.192,4.429-1.5s-2.96-2.263-4.029-2.375a1.947,1.947,0,0,0-.4,3.873Z" transform="translate(-1202.788 -882.656)" fill="#6e6bbf"/>
      <path id="Path_24643" data-name="Path 24643" d="M1517.9,1141.009c-.766,1.635-.537,7.63-.07,7.849s5.221-3.441,5.987-5.076a3.267,3.267,0,0,0-5.913-2.773Z" transform="translate(-1274.891 -957.138)" fill="#2e572e"/>
      <path id="Path_24644" data-name="Path 24644" d="M1458.783,1174.655c1.758.377,7.556-1.2,7.671-1.7s-4.529-4.315-6.294-4.689a3.269,3.269,0,1,0-1.37,6.393Z" transform="translate(-1223.479 -981.493)" fill="#6e6bbf"/>
      <path id="Path_24645" data-name="Path 24645" d="M1536.128,1185.352c-1.354,1.745-2.7,8.964-2.2,9.351s7.16-2.7,8.514-4.446a4,4,0,1,0-6.316-4.9Z" transform="translate(-1288.693 -994.611)" fill="#6e6bbf"/>
      <path id="Path_24646" data-name="Path 24646" d="M1460.829,1227.42c2.2.238,9.046-2.407,9.11-3.036s-6.057-4.679-8.252-4.918a4,4,0,0,0-.863,7.951Z" transform="translate(-1224.362 -1024.552)" fill="#6e6bbf"/>
      <path id="Path_24647" data-name="Path 24647" d="M1552.181,1240.64c-1.354,1.744-2.695,8.964-2.2,9.349s7.16-2.7,8.514-4.446a4,4,0,0,0-6.316-4.9Z" transform="translate(-1302.18 -1041.063)" fill="#2e572e"/>
      <path id="Path_24648" data-name="Path 24648" d="M1476.883,1282.7c2.2.238,9.046-2.405,9.11-3.036s-6.056-4.68-8.251-4.918a4,4,0,1,0-.863,7.949Z" transform="translate(-1237.851 -1070.997)" fill="#6e6bbf"/>
      <path id="Path_24649" data-name="Path 24649" d="M1571.948,1316.118c-1.918,1.1-5.913,7.26-5.594,7.809s7.649.229,9.567-.869a4,4,0,1,0-3.973-6.939Z" transform="translate(-1316.009 -1105.333)" fill="#2e572e"/>
      <path id="Path_24650" data-name="Path 24650" d="M1493.476,1337.759c2.148.511,9.269-1.256,9.421-1.87s-5.423-5.4-7.572-5.913a4,4,0,0,0-1.849,7.78Z" transform="translate(-1252.209 -1117.329)" fill="#6e6bbf"/>
      <path id="Path_24651" data-name="Path 24651" d="M1483.089,1065.54c-.355,1.034.176,4.635.47,4.729s2.918-2.412,3.271-3.446a1.977,1.977,0,1,0-3.741-1.279Z" transform="translate(-1245.967 -894.126)" fill="#6e6bbf"/>
      <path id="Path_24652" data-name="Path 24652" d="M1450.307,1090.413c1.087.113,4.475-1.212,4.5-1.522s-3.006-2.3-4.093-2.413a1.979,1.979,0,0,0-.408,3.935Z" transform="translate(-1217.074 -912.833)" fill="#6e6bbf"/>
      <path id="Path_24653" data-name="Path 24653" d="M1500.9,1096.562c-.622,1.421-.291,6.57.115,6.748s4.411-3.073,5.034-4.5a2.81,2.81,0,1,0-5.149-2.252Z" transform="translate(-1260.737 -919.895)" fill="#6e6bbf"/>
      <path id="Path_24654" data-name="Path 24654" d="M1450.469,1130.631c1.544.16,6.35-1.723,6.393-2.164s-4.272-3.267-5.816-3.427a2.812,2.812,0,0,0-.578,5.594Z" transform="translate(-1216.538 -945.225)" fill="#6e6bbf"/>
      <path id="Path_24655" data-name="Path 24655" d="M1605.052,906.915a.266.266,0,0,1-.062,0,.31.31,0,0,1-.272-.345c5.411-44.455,11.826-76.288,18.06-89.634.139-.3.238-.51.273-.615a.31.31,0,1,1,.59.19,6.772,6.772,0,0,1-.3.687c-6.2,13.289-12.594,45.055-18,89.447A.31.31,0,0,1,1605.052,906.915Z" transform="translate(-1348.254 -685.666)" fill="#448a44"/>
      <path id="Path_24656" data-name="Path 24656" d="M1719.846,778.334c-.751,1.505-5.274,4.814-5.7,4.6s-.51-5.811.241-7.318a3.048,3.048,0,1,1,5.456,2.717Z" transform="translate(-1439.927 -650.238)" fill="#448a44"/>
      <path id="Path_24657" data-name="Path 24657" d="M1665.133,828.171c.769,1.541.689,7.267.249,7.486s-5.061-3.161-5.83-4.7a3.118,3.118,0,1,1,5.581-2.784Z" transform="translate(-1394.051 -694.362)" fill="#448a44"/>
      <path id="Path_24658" data-name="Path 24658" d="M1704.87,859.282c-1.675.4-7.237-.959-7.352-1.438s4.221-4.219,5.9-4.62a3.118,3.118,0,1,1,1.456,6.064Z" transform="translate(-1426.223 -716.789)" fill="#448a44"/>
      <path id="Path_24659" data-name="Path 24659" d="M1584.974,1015.536c1.561,2.432,2.466,12,1.771,12.448s-9.019-4.36-10.58-6.792a5.234,5.234,0,0,1,8.809-5.656Z" transform="translate(-1323.568 -851.212)" fill="#448a44"/>
      <path id="Path_24660" data-name="Path 24660" d="M1658.562,1056.88c-2.717.973-12.25-.3-12.526-1.077s6.279-7.805,9-8.779a5.234,5.234,0,1,1,3.526,9.856Z" transform="translate(-1382.963 -879.432)" fill="#448a44"/>
      <path id="Path_24661" data-name="Path 24661" d="M1543.417,1092.633c2.519,2.482,6.175,13.663,5.467,14.384s-11.942-2.776-14.46-5.26a6.405,6.405,0,1,1,8.993-9.123Z" transform="translate(-1287.592 -916.461)" fill="#448a44"/>
      <path id="Path_24662" data-name="Path 24662" d="M1646.277,1141.895c-3.436.842-14.873-1.908-15.113-2.888s8.63-8.712,12.062-9.554a6.405,6.405,0,1,1,3.051,12.442Z" transform="translate(-1370.472 -948.789)" fill="#448a44"/>
      <path id="Path_24663" data-name="Path 24663" d="M1529.627,1183.819c2.52,2.484,6.177,13.663,5.467,14.384s-11.94-2.776-14.459-5.26a6.4,6.4,0,0,1,8.991-9.122Z" transform="translate(-1276.008 -993.075)" fill="#448a44"/>
      <path id="Path_24664" data-name="Path 24664" d="M1632.519,1233.074c-3.436.843-14.873-1.908-15.114-2.888s8.63-8.71,12.061-9.554a6.405,6.405,0,1,1,3.053,12.442Z" transform="translate(-1358.911 -1025.396)" fill="#448a44"/>
      <path id="Path_24665" data-name="Path 24665" d="M1496.361,1310.181c3.276,1.336,10.916,10.281,10.534,11.216s-12.1,1.98-15.373.639a6.4,6.4,0,1,1,4.839-11.86Z" transform="translate(-1249.801 -1100.385)" fill="#448a44"/>
      <path id="Path_24666" data-name="Path 24666" d="M1620.522,1324c-3.3,1.266-14.994-.033-15.355-.976s7.47-9.72,10.773-10.986a6.405,6.405,0,1,1,4.582,11.963Z" transform="translate(-1348.623 -1101.995)" fill="#448a44"/>
      <path id="Path_24667" data-name="Path 24667" d="M1646.053,887.429c.781,1.566.7,7.384.254,7.607s-5.143-3.212-5.923-4.779a3.168,3.168,0,1,1,5.669-2.829Z" transform="translate(-1377.941 -744.127)" fill="#448a44"/>
      <path id="Path_24668" data-name="Path 24668" d="M1685.146,919.907c-1.7.409-7.352-.98-7.468-1.466s4.288-4.286,5.988-4.7a3.168,3.168,0,1,1,1.48,6.161Z" transform="translate(-1409.554 -767.637)" fill="#448a44"/>
      <path id="Path_24669" data-name="Path 24669" d="M1610.464,941.464c1.288,2.126,1.854,10.374,1.247,10.741s-7.657-3.949-8.95-6.073a4.5,4.5,0,0,1,7.7-4.665Z" transform="translate(-1346.064 -789.181)" fill="#448a44"/>
      <path id="Path_24670" data-name="Path 24670" d="M1672.033,984.78c-2.417.58-10.444-1.392-10.61-2.078s6.092-6.091,8.51-6.671a4.5,4.5,0,1,1,2.1,8.753Z" transform="translate(-1395.896 -819.938)" fill="#448a44"/>
      <path id="Path_24671" data-name="Path 24671" d="M1257.046,1396.57s-1.995,11.667-2.078,11.816.729,1.392.729,1.392l3.15.564,2.877-1.322s1.659-9.409,1.961-10.868S1257.046,1396.57,1257.046,1396.57Z" transform="translate(-1054.398 -1173.371)" fill="#e09357"/>
      <path id="Path_24672" data-name="Path 24672" d="M1200.211,1470.1a8.152,8.152,0,0,1-6.733-.831s-12.09,4.531-11.721,7.977c0,0-.516,1.028,4.723.8s13.38-.456,13.6-.575S1201.32,1477.908,1200.211,1470.1Z" transform="translate(-992.88 -1234.453)" fill="#454c59"/>
      <path id="Path_24673" data-name="Path 24673" d="M1492.64,1396.566s3.08,11.667,3,11.815.729,1.392.729,1.392l3.15.564,2.877-1.322s-1.568-9.6-1.267-11.066S1492.64,1396.566,1492.64,1396.566Z" transform="translate(-1254.09 -1173.368)" fill="#e09357"/>
      <path id="Path_24674" data-name="Path 24674" d="M1456.593,1470.1a8.156,8.156,0,0,1-6.735-.831s-12.09,4.531-11.721,7.977c0,0-.515,1.028,4.724.8s13.378-.456,13.6-.575S1457.7,1477.908,1456.593,1470.1Z" transform="translate(-1208.286 -1234.453)" fill="#454c59"/>
      <path id="Path_24675" data-name="Path 24675" d="M1255.116,929.136l-6.316,79.884h10.855s11.477-63.128,13.105-63.4,13.255,63.4,13.255,63.4h12.466l-6.369-81.95Z" transform="translate(-1049.22 -778.906)" fill="#001b47"/>
      <path id="Path_24676" data-name="Path 24676" d="M152.051,483.556c-5.34,1.1-10.15,4.954-10.7,13.346-.518,7.94,3.82,15.8,1.673,23.666-2.2,8.072-8.486,10.834-6.191,20.82.817,3.556,2.134,7.022,2.066,10.757-.139,7.831-5.6,12.6-8.275,18.739-3.447,7.921-2.172,18.833,2.418,25.342,8.724,12.376,23.524,7.93,34.53,6.759,6.393-.682,12.164-5.258,13.764-14.544,1.855-10.773-3-15.966-6.043-24.486-2.957-8.291.682-18.06.77-27.319.1-10.355-5.886-16.039-6.984-25.553-.8-6.872,1.977-13.968-.782-20.468a11.459,11.459,0,0,0-6.957-6.476,18.42,18.42,0,0,0-9.292-.583Z" transform="translate(-108.103 -405.988)" fill="#0047bb" opacity="0.2"/>
      <rect id="Rectangle_2066" data-name="Rectangle 2066" width="1.274" height="97.72" transform="translate(46.462 127.146)" fill="#769ddb"/>
      <rect id="Rectangle_2067" data-name="Rectangle 2067" width="25.8" height="1.274" transform="matrix(0.416, -0.91, 0.91, 0.416, 46.52, 170.701)" fill="#769ddb"/>
      <rect id="Rectangle_2068" data-name="Rectangle 2068" width="1.274" height="18.486" transform="translate(36.009 173.105) rotate(-34.83)" fill="#769ddb"/>
      <path id="Path_24677" data-name="Path 24677" d="M1.755,0H23.867a1.758,1.758,0,0,1,1.758,1.758V20.241H0V1.756A1.758,1.758,0,0,1,1.755,0Z" transform="translate(60.202 241.504) rotate(180)" fill="#769ddb"/>
      <path id="Path_24678" data-name="Path 24678" d="M1129.263,688s-1.1,17.508-3.443,20.864-15.08,10.069-15.08,10.069l1.557,4.23s22.419-2.333,25.192-14.3,1.459-18.979,1.459-18.979Z" transform="translate(-933.225 -578.044)" fill="#e2918f"/>
      <path id="Path_24679" data-name="Path 24679" d="M1074.327,878.32a34.379,34.379,0,0,0-5.8.706c-1.392.492-3.474.5-3.478,1.352s3.2.479,3.2.479-2.067,2.183-2.8,2.757-1.529,1.374-1.152,1.947,3.466-1.859,3.466-1.859-2.572,2.806-2.335,3.409,4.032-2.488,4.032-2.488-2.888,2.859-2.92,3.283.508.479,1.777-.288a14.054,14.054,0,0,0,2.367-1.871,31.935,31.935,0,0,0-2.014,2.5c-.134.337-.073.9,1.685-.428s3.059-3.561,5.8-5.368Z" transform="translate(-894.116 -737.948)" fill="#e2918f"/>
      <path id="Path_24680" data-name="Path 24680" d="M1228.333,575.3s-12.762,6.618-15.368,12.466A38.268,38.268,0,0,0,1210,599.571s6.784,2.223,9.18,1.851c0,0,3.3,32.505.786,40.885,0,0,2.679,4.251,12.372,2.933s21.355-4.681,23.211-4.088a34.627,34.627,0,0,0,5.4.93s-2.015-24.919-3.642-37.658-2.025-13.412-2.025-13.412l8.857-3.957s-6.11-9.637-13.382-11.55a49.615,49.615,0,0,0-14.224-1.438Z" transform="translate(-1016.621 -482.275)" fill="#45c98f"/>
      <path id="Path_24681" data-name="Path 24681" d="M1254.816,466.911s-1.133-1.255-1.777-.577c-1.643,1.726.5,3.305,1.8,3.532Z" transform="translate(-1052.282 -391.636)" fill="#e09357"/>
      <path id="Path_24682" data-name="Path 24682" d="M1258.839,367.482h.011c-.027-.145-.054-.291-.077-.438a11.493,11.493,0,1,1,22.44,1.355c-1.485,6.412-2.314,10.8-5.162,13.22a1.968,1.968,0,0,0-.651,1.795l.435,2.877a3.922,3.922,0,0,0,2.092,2.894h0c-5.885,3.356-8.911,1.346-8.911,1.346h0a4.212,4.212,0,0,0,1.018-3.431l-.236-1.565a2,2,0,0,0-1.969-1.7h-.018C1256.755,383.807,1259.427,371.383,1258.839,367.482Z" transform="translate(-1057.492 -297.289)" fill="#e09357"/>
      <path id="Path_24683" data-name="Path 24683" d="M1336.758,461.445a1.047,1.047,0,1,1,1.191.879A1.047,1.047,0,0,1,1336.758,461.445Z" transform="translate(-1123.111 -386.686)" fill="#14161a"/>
      <path id="Path_24684" data-name="Path 24684" d="M1273.568,460.276a1.047,1.047,0,1,1,.414.687A1.047,1.047,0,0,1,1273.568,460.276Z" transform="translate(-1070.02 -385.705)" fill="#14161a"/>
      <path id="Path_24685" data-name="Path 24685" d="M1358.321,405.973s-4.6-6.85-4.831-10.832l7.094-1.71a13.779,13.779,0,0,1-.441,11.517Z" transform="translate(-1137.179 -330.552)" fill="#24170e"/>
      <path id="Path_24686" data-name="Path 24686" d="M1301.374,466.74a1.831,1.831,0,0,0,.654-.237.232.232,0,0,0-.253-.388h0a1.248,1.248,0,0,1-.889.147,1.37,1.37,0,0,1-.812-.77c-.046-.091-.054-.105.219-.334.479-.4,1.37-1.148,1.317-3.591a.234.234,0,0,0-.238-.227.228.228,0,0,0-.225.237c.048,2.223-.7,2.851-1.151,3.227-.26.219-.556.467-.332.9a1.808,1.808,0,0,0,1.108,1.007A1.5,1.5,0,0,0,1301.374,466.74Z" transform="translate(-1091.889 -387.609)" fill="#8c5c36"/>
      <path id="Path_24687" data-name="Path 24687" d="M1274.7,442.362a.348.348,0,0,0,.066-.671,4.979,4.979,0,0,0-3.481.273.35.35,0,1,0,.286.639,4.363,4.363,0,0,1,2.965-.253A.344.344,0,0,0,1274.7,442.362Z" transform="translate(-1067.934 -370.938)" fill="#24170e"/>
      <path id="Path_24688" data-name="Path 24688" d="M1338.318,445.586a.347.347,0,0,0,.134-.639,4.964,4.964,0,0,0-3.409-.751.345.345,0,0,0-.272.409.353.353,0,0,0,.409.272,4.363,4.363,0,0,1,2.9.658.341.341,0,0,0,.237.051Z" transform="translate(-1121.446 -373.162)" fill="#24170e"/>
      <path id="Path_24689" data-name="Path 24689" d="M1291.769,503.437a9.671,9.671,0,0,0,2.968-1.013.232.232,0,1,0-.211-.412c-4.94,2.54-7.032-.294-7.113-.416a.232.232,0,0,0-.379.267A4.877,4.877,0,0,0,1291.769,503.437Z" transform="translate(-1081.31 -421.352)" fill="#8c5c36"/>
      <path id="Path_24690" data-name="Path 24690" d="M1379.838,460.1a1.7,1.7,0,0,1,.764-.935,2.882,2.882,0,0,1,3.164-.181c1.6,1.186-.639,5.309-3.7,3.887C1380.068,462.876,1379.156,462.2,1379.838,460.1Z" transform="translate(-1159.104 -385.287)" fill="#e09357"/>
      <path id="Path_24691" data-name="Path 24691" d="M1261.889,352.653a5.659,5.659,0,0,0,.513-3.724,1.59,1.59,0,0,0-1.661.876,4.624,4.624,0,0,0-.415,1.963c-.259-1.667-1.854-2.637-3.224-3.348a13.16,13.16,0,0,0-5.351-1.774c-2.626-.12-5.258.665-7.812,1.183-1.918.291-3.836.829-5.736,1.146l-1.106.243c-.547.131-1.68.035-1.545.876a3.152,3.152,0,0,0,1.654,2.13,8.918,8.918,0,0,0,2.525.826,3.925,3.925,0,0,0-1.394.337,18.009,18.009,0,0,0-1.669.807,1.333,1.333,0,0,0-.684.718,1.1,1.1,0,0,0-.01.543c.352,1.643,2.444,2.519,3.893,2.8,4.689.927,9.429-.951,14.171-1.488,2.129-.24,4.729.03,6.713-.871a7.141,7.141,0,0,0,2.629-2.616.468.468,0,0,0-.479-.649A5.245,5.245,0,0,1,1261.889,352.653Z" transform="translate(-1038.081 -291.234)" fill="#24170e"/>
      <path id="Path_24692" data-name="Path 24692" d="M1258.2,413.323a14.769,14.769,0,0,0-1.053,4.526s-1.052-3.971-.441-5.364S1258.2,413.323,1258.2,413.323Z" transform="translate(-1055.704 -346.178)" fill="#24170e"/>
      <path id="Path_24693" data-name="Path 24693" d="M1454.192,659.48s11.248,12.867,7.6,24.1-22.462,15.617-22.462,15.617l-1.459-3.792s14.444-11.235,14.3-15.466-7.489-16.389-7.489-16.389Z" transform="translate(-1208.073 -554.082)" fill="#e09357"/>
      <path id="Path_24694" data-name="Path 24694" d="M1389.455,880.21a34.361,34.361,0,0,0-5.8.706c-1.392.492-3.474.5-3.478,1.352s3.2.479,3.2.479-2.066,2.183-2.8,2.757-1.53,1.374-1.152,1.947,3.463-1.871,3.463-1.871-2.572,2.806-2.335,3.409,4.032-2.488,4.032-2.488-2.888,2.861-2.92,3.283.508.48,1.777-.288a14.045,14.045,0,0,0,2.367-1.872,31.922,31.922,0,0,0-2.014,2.5c-.134.337-.074.9,1.684-.428s3.059-3.561,5.8-5.368Z" transform="translate(-1158.882 -739.536)" fill="#e09357"/>
      <path id="Path_24695" data-name="Path 24695" d="M516.1,469.719a7.74,7.74,0,0,0-3.535,6.027c-.248,2.7.679,5.753-.945,7.914-2.012,2.685-6.49,2.006-8.9,4.345A5.839,5.839,0,0,0,501.253,493a12.034,12.034,0,0,0,2.126,4.914c1.084,1.609,2.407,3.313,2.215,5.244-.208,2.092-2.138,3.62-2.695,5.648-.75,2.733,1.41,5.678,4.139,6.437s5.7-.272,7.948-2c3.2-2.456,5.616-6.433,9.6-7,4.256-.6,8.311,3.1,12.535,2.268a11.228,11.228,0,0,0,2.955-1.173,10.38,10.38,0,0,0,3.866-2.926,5.726,5.726,0,0,0-2.015-8.068,3.029,3.029,0,0,1-1.2-.789,1.935,1.935,0,0,1-.267-1.227,5.251,5.251,0,0,1,1.325-3.216c.737-.818,1.715-1.384,2.487-2.167a6.358,6.358,0,0,0,.914-7.192c-1.486-2.861-3.382-4.144-5.2-6.69-1.961-2.747-3.367-4.5-6.823-6.124a16.131,16.131,0,0,0-4.954-1.215C524.371,467.264,519.406,467.518,516.1,469.719Z" transform="translate(-421.087 -392.811)" fill="#24170e"/>
      <path id="Path_24696" data-name="Path 24696" d="M727.006,737.37s8.913,24.654,18.355,29.111l-1.8,3.77s-19.4-7.748-22.448-24.391Z" transform="translate(-605.865 -619.524)" fill="#e09357"/>
      <path id="Path_24697" data-name="Path 24697" d="M658.48,1391.892l1.985-9.563-6.051-.548-2.154,11.109S657.093,1393.472,658.48,1391.892Z" transform="translate(-548.019 -1160.945)" fill="#fff"/>
      <path id="Path_24698" data-name="Path 24698" d="M649.106,1445.186a11.118,11.118,0,0,0,6-.136s10.818,3.335,10.812,6.5c0,0,.566.884-4.213,1.183s-12.194.861-12.4.773S647.15,1452.379,649.106,1445.186Z" transform="translate(-544.641 -1214.104)" fill="#454c59"/>
      <path id="Path_24699" data-name="Path 24699" d="M649.684,1484.423c.209.088,7.625-.479,12.4-.774s4.213-1.183,4.213-1.183a1.619,1.619,0,0,0-.137-.626l-17.463.66C648.919,1484.02,649.568,1484.367,649.684,1484.423Z" transform="translate(-545.027 -1245.014)" fill="#fff"/>
      <path id="Path_24700" data-name="Path 24700" d="M553.757,1393.893l3.171-9.238L551,1383.35,547.46,1394.1S552.181,1395.28,553.757,1393.893Z" transform="translate(-459.968 -1162.264)" fill="#fff"/>
      <path id="Path_24701" data-name="Path 24701" d="M541.15,1445.45a11.091,11.091,0,0,0,5.968.618s10.311,4.672,9.909,7.809c0,0,.451.948-4.328.639s-12.205-.678-12.4-.8S538.3,1452.34,541.15,1445.45Z" transform="translate(-453.328 -1214.44)" fill="#454c59"/>
      <path id="Path_24702" data-name="Path 24702" d="M540.305,1486.612c.2.115,7.623.479,12.4.8s4.328-.639,4.328-.639a1.6,1.6,0,0,0-.057-.639l-17.407-1.542C539.6,1486.123,540.195,1486.548,540.305,1486.612Z" transform="translate(-453.339 -1247.324)" fill="#fff"/>
      <path id="Path_24703" data-name="Path 24703" d="M604.585,485.351a19.678,19.678,0,0,0-1.061-6.356c-3.1-7.649-15.573-8.43-20.936-3.145a18,18,0,0,0-4.809,8.736c-.8,3.816.583,8.227,3.922,10.248a11.276,11.276,0,0,0,7.991.981,72.232,72.232,0,0,0,7.863-2.471,16.215,16.215,0,0,0,3.653-1.438c.829-.508,2.429-1.159,2.974-1.966C604.957,488.79,604.657,486.652,604.585,485.351Z" transform="translate(-485.255 -396.952)" fill="#24170e"/>
      <path id="Path_24704" data-name="Path 24704" d="M562.757,1062.657c.62,1.186-4.315,40.2-17.6,57.984l-6.393-2.925s6.006-47.29-2.877-58.316Z" transform="translate(-450.247 -890.088)" fill="#586782"/>
      <path id="Path_24705" data-name="Path 24705" d="M517.634,919.52s-3.147,9.442-1.573,16.524,15.212,33.832,16.522,41.176,3.676,23.866,3.676,23.866H546.75s7.606-35.406,3.409-55.075l-2.626-13.637,1.312-10.492Z" transform="translate(-433.217 -772.563)" fill="#586782"/>
      <path id="Path_24706" data-name="Path 24706" d="M490.875,694.748l-4.635,21.046s16.8,7.082,35.8,2.557v-23.6l7.786-2.6s-4.556-11.959-7.786-14.122-14.638-5.507-24.473-2.557-16.917,12.392-16.917,12.392,4.264,7.043,8.4,8.716Z" transform="translate(-403.835 -566.543)" fill="#45c98f"/>
      <path id="Path_24707" data-name="Path 24707" d="M430.938,774.477s-9.359,9.218-13.556,21.807l-4.852-.786s4.491-19.522,11.759-27.968C424.289,767.524,428.108,772.989,430.938,774.477Z" transform="translate(-346.602 -644.864)" fill="#e09357"/>
      <path id="Path_24708" data-name="Path 24708" d="M745.09,549.7s.751-1.256,1.411-.788c1.683,1.189.133,2.888-.935,3.3Z" transform="translate(-626.013 -461.096)" fill="#e09357"/>
      <ellipse id="Ellipse_138" data-name="Ellipse 138" cx="11.886" cy="12.819" rx="11.886" ry="12.819" transform="translate(95.34 76.651)" fill="#e09357"/>
      <path id="Path_24709" data-name="Path 24709" d="M608.49,557.737a4.742,4.742,0,0,1,1.248,4.649h0a3.445,3.445,0,0,1-2.237,2.274c.073,2.215,9.516,6.6,12.066,1a2.686,2.686,0,0,1-2.223-2.579h0a4.83,4.83,0,0,1,3.045-3.2,19.14,19.14,0,0,0,3.676-1.758c7.217-4.43,2.993-14.467,2.993-14.467s-25.226,1.36-21.919,9.025A15.155,15.155,0,0,0,608.49,557.737Z" transform="translate(-508.177 -456.773)" fill="#e09357"/>
      <path id="Path_24710" data-name="Path 24710" d="M647.178,572.391a1.229,1.229,0,1,0-.319.887A1.231,1.231,0,0,0,647.178,572.391Z" transform="translate(-541.682 -479.926)" fill="#14161a"/>
      <path id="Path_24711" data-name="Path 24711" d="M719.609,558.4a1.232,1.232,0,1,0-1.175,1.279,1.232,1.232,0,0,0,1.175-1.279Z" transform="translate(-602.534 -468.164)" fill="#14161a"/>
      <path id="Path_24712" data-name="Path 24712" d="M692.493,579.825a.28.28,0,1,1,0-.559.8.8,0,0,0,.668-.35.417.417,0,0,0,.072-.376,4.4,4.4,0,0,0-1.347-.822.28.28,0,0,1,.229-.51c.43.193,1.451.687,1.633,1.119a.959.959,0,0,1-.12.9A1.371,1.371,0,0,1,692.493,579.825Z" transform="translate(-581.183 -484.944)" fill="#8c5c36"/>
      <path id="Path_24713" data-name="Path 24713" d="M635.458,556.625a.412.412,0,0,1-.32-.16.419.419,0,0,1,.053-.59,5.84,5.84,0,0,1,3.014-1.119.419.419,0,0,1,.048.837h0a5,5,0,0,0-2.525.922A.419.419,0,0,1,635.458,556.625Z" transform="translate(-533.551 -466.095)" fill="#24170e"/>
      <path id="Path_24714" data-name="Path 24714" d="M714.468,543.951a.424.424,0,0,1-.189-.045,4.967,4.967,0,0,0-2.667-.32.419.419,0,0,1-.142-.826,5.783,5.783,0,0,1,3.187.4.419.419,0,0,1-.189.8Z" transform="translate(-597.473 -455.959)" fill="#24170e"/>
      <path id="Path_24715" data-name="Path 24715" d="M676.491,597s-4.531,1.98-8.311,1.83a5.394,5.394,0,0,0,5,1.661A4.115,4.115,0,0,0,676.491,597Z" transform="translate(-561.394 -501.588)" fill="#fff"/>
      <path id="Path_24716" data-name="Path 24716" d="M594.819,495.6c.329.089,2.568-4.018,4.042-8.311a12.664,12.664,0,0,1,5.737-6.436s8.6,1.386,9.851,3.065a21.282,21.282,0,0,1,2.279,5.114s-.433-5.538-3.516-8.541-7.858-5.208-15.212-1.9S590.59,494.469,594.819,495.6Z" transform="translate(-497.373 -400.716)" fill="#24170e"/>
      <path id="Path_24717" data-name="Path 24717" d="M589.754,582.636a1.938,1.938,0,0,0-1.056-.873c-.916-.32-2.519-.639-3.559.494-1.528,1.673,1.883,5.766,4.967,3.516C590.109,585.772,590.977,584.822,589.754,582.636Z" transform="translate(-491.308 -488.535)" fill="#e09357"/>
      <path id="Path_24718" data-name="Path 24718" d="M396.876,932.8a44.608,44.608,0,0,1,1.45,5.846c.136,1.63,1.478,3.105.617,3.5s-2.343-2.383-2.343-2.383-1.261,3.078-1.505,4.082-1.136,2.69-1.886,2.568.761-4.863.761-4.863-1.664,3.869-2.378,3.9.678-5.2.678-5.2-1.573,4.214-1.983,4.437-.714-.294-.519-1.918a15.631,15.631,0,0,1,.812-3.24,35.438,35.438,0,0,1-1.606,3.168c-.28.291-.876.479-.332-1.894s2.557-7.332,4.566-9.4Z" transform="translate(-326.344 -782.553)" fill="#e09357"/>
      <path id="Path_24719" data-name="Path 24719" d="M857.384,914.444a39.026,39.026,0,0,1,5.236-.479c1.422.1,2.877-.866,3.1-.069s-2.365,1.707-2.365,1.707,2.488,1.494,3.323,1.838,2.172,1.336,1.967,1.966-4.1-1.3-4.1-1.3,3.118,1.945,3.054,2.568-4.4-1.279-4.4-1.279,3.428,1.918,3.566,2.3-.348.575-1.728.193a13.689,13.689,0,0,1-2.687-1.128,30.714,30.714,0,0,1,2.52,1.8c.213.28.3.82-1.678.037s-5.99-3.174-7.511-5.181Z" transform="translate(-718.937 -767.57)" fill="#e2918f"/>
      <path id="Path_24720" data-name="Path 24720" d="M899.182,1385.31a1.771,1.771,0,0,0,1.724-2.194l-6.8-27.783a1.771,1.771,0,1,0-3.44.842l6.8,27.785A1.772,1.772,0,0,0,899.182,1385.31Z" transform="translate(-748.282 -1137.59)" fill="#14161a"/>
      <path id="Path_24721" data-name="Path 24721" d="M1122.351,1319.244a1.753,1.753,0,0,0,.422-.051,1.771,1.771,0,0,0,1.3-2.14l-9.866-40.311a1.771,1.771,0,1,0-3.439.841l9.866,40.311a1.769,1.769,0,0,0,1.718,1.351Z" transform="translate(-933.196 -1071.524)" fill="#14161a"/>
      <path id="Path_24722" data-name="Path 24722" d="M606.446,639.82c-67.945,0-54.888,69.878-76.3,68.677s-31.345,49.269,46.523,49.269S668.982,639.82,606.446,639.82Z" transform="translate(-432.566 -537.565)" fill="#769ddb"/>
      <path id="Path_24723" data-name="Path 24723" d="M922.4,410.894s-12.87-3.216-16.621,10.081-4.155,28.1.4,33.543,15.822,1.6,15.822,1.6,14.42.408,18.809-6.672S937.074,411.742,922.4,410.894Z" transform="translate(-758.568 -344.938)" fill="#bebebe"/>
      <path id="Path_24724" data-name="Path 24724" d="M921.168,544.5s-1.3-1.338-1.982-.566c-1.74,1.969.862,3.658,2.3,3.856Z" transform="translate(-771.798 -456.805)" fill="#e09357"/>
      <path id="Path_24725" data-name="Path 24725" d="M934.425,417.143a12.674,12.674,0,0,1,13.829,15.525c-.9,4.66-1.667,8.422-2.955,11.3a12.614,12.614,0,0,0-.51,9.223l1.037,3.054c-6.567,4.986-10.305,2.557-10.305,2.557l-1.475-7.85h0c-8.015.537-9.687-14.126-10.489-18.4h.013c-.037-.16-.074-.32-.1-.479a12.677,12.677,0,0,1,10.959-14.925Z" transform="translate(-775.699 -350.4)" fill="#e09357"/>
      <path id="Path_24726" data-name="Path 24726" d="M936.553,425.356a53.659,53.659,0,0,1,5.114,4.229c1.742,1.566,3.556,3.236,4.3,5.459a16.375,16.375,0,0,0,3.257-6.949,11.984,11.984,0,0,0,.527-3.54,13.386,13.386,0,0,0-1.5-4.827c-.913-1.991-1.884-4.059-3.61-5.408a10.517,10.517,0,0,0-3.943-1.758,17.836,17.836,0,0,0-10.008.187,12.854,12.854,0,0,0-7.523,6.4c-1.881,3.93-1.307,8.539-.692,12.853a12.819,12.819,0,0,1,1.865-5.205,10.833,10.833,0,0,1,2.042-2.976c1.514-1.4,2.038-1.255,4.664-3.86C932.329,422.453,934.281,423.775,936.553,425.356Z" transform="translate(-774.552 -346.103)" fill="#bebebe"/>
      <path id="Path_24727" data-name="Path 24727" d="M944.268,539.625a1.106,1.106,0,1,1,1.37.754A1.106,1.106,0,0,1,944.268,539.625Z" transform="translate(-793.322 -452.195)" fill="#14161a"/>
      <path id="Path_24728" data-name="Path 24728" d="M1013.008,534.765a1.106,1.106,0,1,1,1.37.754A1.106,1.106,0,0,1,1013.008,534.765Z" transform="translate(-851.076 -448.111)" fill="#14161a"/>
      <path id="Path_24729" data-name="Path 24729" d="M965.855,582.492s1.343-1.119,1.918-1.037a1.664,1.664,0,0,1,.977.718,1.282,1.282,0,0,1,.927-.82,12.243,12.243,0,0,1,3.126.887s-1.758,3.185-3.877,3.08c-2.153-.107-3.075-2.827-3.075-2.827Z" transform="translate(-811.491 -488.435)" fill="#8c5c36"/>
      <path id="Path_24730" data-name="Path 24730" d="M1011.953,523.8a.465.465,0,0,0,.32-.229.46.46,0,0,0-.177-.626,5.515,5.515,0,0,0-3.665-.428.459.459,0,0,0-.344.551.47.47,0,0,0,.552.344,4.6,4.6,0,0,1,3.009.337A.459.459,0,0,0,1011.953,523.8Z" transform="translate(-846.967 -438.896)" fill="#757575"/>
      <path id="Path_24731" data-name="Path 24731" d="M940.632,528.557a.46.46,0,0,0-.1-.858,5.454,5.454,0,0,0-3.639.615.46.46,0,0,0-.177.626.467.467,0,0,0,.627.176,4.572,4.572,0,0,1,2.982-.515A.46.46,0,0,0,940.632,528.557Z" transform="translate(-786.961 -443.29)" fill="#757575"/>
      <path id="Path_24732" data-name="Path 24732" d="M976.5,543.206a1.977,1.977,0,0,1-2.078-1.389.384.384,0,0,1,.035-.285,5.718,5.718,0,0,0,.379-3.676.387.387,0,0,1,.75-.193,6.5,6.5,0,0,1-.366,4.088c.131.284.566.9,1.776.609a.387.387,0,0,1,.181.753A3.462,3.462,0,0,1,976.5,543.206Z" transform="translate(-818.682 -451.49)" fill="#8c5c36"/>
      <path id="Path_24733" data-name="Path 24733" d="M972.832,586.94a65.775,65.775,0,0,1-6.952.253s1.515,1.959,3.116,1.758S972.832,586.94,972.832,586.94Z" transform="translate(-811.516 -493.136)" fill="#fff"/>
      <path id="Path_24734" data-name="Path 24734" d="M996.25,520.526a3.836,3.836,0,1,1,3.836,3.836A3.836,3.836,0,0,1,996.25,520.526Zm.353,0a3.487,3.487,0,1,0,3.487-3.487,3.487,3.487,0,0,0-3.487,3.487Z" transform="translate(-837.033 -434.113)" fill="#474e5c"/>
      <path id="Path_24735" data-name="Path 24735" d="M927.11,523.536a3.836,3.836,0,1,1,3.836,3.836A3.836,3.836,0,0,1,927.11,523.536Zm.355,0a3.487,3.487,0,1,0,3.486-3.487A3.487,3.487,0,0,0,927.465,523.536Z" transform="translate(-778.942 -436.642)" fill="#474e5c"/>
      <rect id="Rectangle_2069" data-name="Rectangle 2069" width="4.585" height="0.353" transform="matrix(0.994, -0.113, 0.113, 0.994, 166.708, 85.827)" fill="#4a4750"/>
      <path id="Path_24736" data-name="Path 24736" d="M973.54,540.2a2.992,2.992,0,0,1,3.549-.085l.173-.308a3.392,3.392,0,0,0-3.962.133Z" transform="translate(-817.75 -453.071)" fill="#474e5c"/>
      <path id="Path_24737" data-name="Path 24737" d="M1058.835,531.659a1.876,1.876,0,0,1,.8-1.061c.8-.508,2.237-1.171,3.479-.32,1.819,1.242-.5,5.877-3.919,4.432C1059.206,534.706,1058.174,534,1058.835,531.659Z" transform="translate(-889.43 -445.186)" fill="#e09357"/>
      <path id="Path_24738" data-name="Path 24738" d="M439.9,1408.871s.684,16.84-1.095,18.072-20.947,0-20.947,0l5.065-6.3s10.406,1.506,10.268-12.6Z" transform="translate(-351.08 -1183.017)" fill="#e09357"/>
      <path id="Path_24739" data-name="Path 24739" d="M421.789,1483.787s-1.216-9.589-3.676-9.857-11.09,2.6-11.363,9.857h15.044Z" transform="translate(-341.746 -1238.354)" fill="#00348a"/>
      <rect id="Rectangle_2070" data-name="Rectangle 2070" width="23.859" height="1.472" transform="translate(88.952 245.947) rotate(180)" fill="#00348a"/>
      <path id="Path_24740" data-name="Path 24740" d="M658.934,1408.871s.684,16.84-1.1,18.072-20.947,0-20.947,0l5.066-6.3s10.406,1.506,10.268-12.6Z" transform="translate(-535.105 -1183.017)" fill="#e09357"/>
      <path id="Path_24741" data-name="Path 24741" d="M640.819,1483.787s-1.215-9.589-3.676-9.857-11.09,2.6-11.363,9.857h15.042Z" transform="translate(-525.771 -1238.354)" fill="#00348a"/>
      <rect id="Rectangle_2071" data-name="Rectangle 2071" width="23.859" height="1.472" transform="translate(123.957 245.947) rotate(180)" fill="#00348a"/>
      <path id="Path_24742" data-name="Path 24742" d="M494.975,1004.754s-13.509,1.093-17.842,18.306c-2.519,10-1.529,42.568-1.529,42.568l17.516,2.747s-1.571-36.394,11.986-47.61c0,0-2.746,7.393,7.192,49.451h13l4.333-43.078s30.589,1.02,39.764-6.628,10.1-16.8,10.1-16.8l-43.223-6.572Z" transform="translate(-399.434 -837.778)" fill="#00348a"/>
      <path id="Path_24743" data-name="Path 24743" d="M786.24,646.036s-.849-6.541-2.209-6.2-13.425,2.535-14.614,2.287,0,5.531,0,5.531-9.856.849-13.255,6.626-7.817,27.359-10.708,29.229-15.8,7.817-15.8,7.817l23.493,13.217L775.4,703.5s16.1,9.648,28.675,2.135,10.366-46.937-1.529-53.905S786.24,646.036,786.24,646.036Z" transform="translate(-613.04 -537.565)" fill="#fff"/>
      <path id="Path_24744" data-name="Path 24744" d="M988.741,863.3a.178.178,0,0,0,.069-.34l-4.9-2.14.686-8.534c1.5-.292,15.26-2.974,21.835-3.741a.179.179,0,0,0,.16-.174c.01-.658.245-16.177-.78-18.481a.177.177,0,0,0-.32.144c.94,2.114.775,16.517.751,18.178-7,.834-21.689,3.724-21.838,3.754a.174.174,0,0,0-.142.16l-.706,8.79a.176.176,0,0,0,.105.177l5.014,2.191A.191.191,0,0,0,988.741,863.3Z" transform="translate(-826.367 -697.188)" fill="#00348a"/>
      <path id="Path_24745" data-name="Path 24745" d="M852.065,834.334a.175.175,0,0,0,.042,0c8.531-2.047,8.958-19.154,8.972-19.881a.181.181,0,0,0-.043-.118c-.032-.037-3.176-3.735-2.846-7.858s5.664-8.84,5.718-8.886a.177.177,0,0,0-.233-.267c-.224.2-5.5,4.852-5.838,9.126-.32,4.048,2.479,7.574,2.886,8.063-.035,1.183-.69,17.556-8.7,19.477a.177.177,0,0,0,.042.35Z" transform="translate(-715.741 -669.863)" fill="#00348a"/>
      <path id="Path_24746" data-name="Path 24746" d="M1000.02,871.108a14.08,14.08,0,0,0,7.635-2.527.177.177,0,1,0-.192-.3c-9.27,5.961-14.836-.743-14.89-.813a.179.179,0,0,0-.249-.026.176.176,0,0,0-.026.249A10.522,10.522,0,0,0,1000.02,871.108Z" transform="translate(-833.678 -728.778)" fill="#00348a"/>
      <path id="Path_24747" data-name="Path 24747" d="M660.329,1054.779a.176.176,0,0,0,.174-.144c.029-.16,3.126-15.1,27.594-16.871a.177.177,0,0,0,.16-.189.16.16,0,0,0-.189-.16c-24.745,1.785-27.885,17-27.914,17.153a.177.177,0,0,0,.142.206.109.109,0,0,0,.032,0Z" transform="translate(-554.649 -871.615)" fill="#001b47"/>
      <path id="Path_24748" data-name="Path 24748" d="M890.509,977.06l-.9.027c-2.79.088-11.136.374-12.1.716-1.165.411,2.341,7.691,2.341,7.691s10.029.55,13.255-1.6S890.509,977.06,890.509,977.06Z" transform="translate(-737.064 -820.907)" fill="#e09357"/>
      <path id="Path_24749" data-name="Path 24749" d="M869.483,1022.768s-5.594,2.53-6.089,1.979,4.382-3.377,4.382-3.377Z" transform="translate(-725.38 -858.136)" fill="#e09357"/>
      <path id="Path_24750" data-name="Path 24750" d="M845.157,1009.238s-8.282,3.407-8.908,2.263,8.538-4.1,8.538-4.1Z" transform="translate(-702.577 -846.398)" fill="#e09357"/>
      <path id="Path_24751" data-name="Path 24751" d="M837.45,996.543s-8.547,2.671-9.071,1.475,8.872-3.339,8.872-3.339Z" transform="translate(-695.973 -835.711)" fill="#e09357"/>
      <path id="Path_24752" data-name="Path 24752" d="M837.835,983.065s-7.983,2.607-8.483,1.41,8.275-3.275,8.275-3.275Z" transform="translate(-696.79 -824.386)" fill="#e09357"/>
      <path id="Path_24753" data-name="Path 24753" d="M948.19,974.409l6.3-.789-.58,7.123-3.241.726Z" transform="translate(-796.653 -818.017)" fill="#e09357"/>
      <path id="Path_24754" data-name="Path 24754" d="M501.78,840.314l46.111-.064L562.4,873.967l-46.111.064Z" transform="translate(-421.588 -705.962)" fill="#001b47"/>
      <rect id="Rectangle_2072" data-name="Rectangle 2072" width="30.871" height="2.041" transform="translate(162.627 167.974) rotate(179.92)" fill="#001b47"/>
      <path id="Path_24755" data-name="Path 24755" d="M654.219,932.119a2.03,2.03,0,1,0-2.041,2.02A2.03,2.03,0,0,0,654.219,932.119Z" transform="translate(-546.254 -781.436)" fill="#fff"/>
      <circle id="Ellipse_139" data-name="Ellipse 139" cx="20.032" cy="20.032" r="20.032" transform="translate(70.772 35.412) rotate(-45)" fill="#769ddb"/>
      <circle id="Ellipse_140" data-name="Ellipse 140" cx="15.934" cy="15.934" r="15.934" transform="matrix(0.031, -1, 1, 0.031, 82.292, 50.695)" fill="#fff"/>
      <circle id="Ellipse_141" data-name="Ellipse 141" cx="1.784" cy="1.784" r="1.784" transform="translate(96.647 33.625) rotate(-9.22)" fill="#769ddb"/>
      <path id="Path_24756" data-name="Path 24756" d="M610.037,152.526h-.356a.355.355,0,1,1,0-.708h0l.016-10.994-.441.639a.354.354,0,0,1-.583-.4l1.09-1.581a.353.353,0,0,1,.639.2l-.019,12.488A.355.355,0,0,1,610.037,152.526Z" transform="translate(-511.345 -117.067)" fill="#769ddb"/>
      <path id="Path_24757" data-name="Path 24757" d="M617.051,141.495a.352.352,0,0,1-.275-.131l-1.2-1.48a.354.354,0,0,1,.548-.447l1.2,1.478a.35.35,0,0,1-.051.5A.346.346,0,0,1,617.051,141.495Z" transform="translate(-517.134 -117.042)" fill="#769ddb"/>
      <path id="Path_24758" data-name="Path 24758" d="M570.011,219.556a.35.35,0,0,1-.254-.107l-1.052-1.09a.353.353,0,0,1,.254-.6h0l8.311.019a.353.353,0,0,1,.353.353v.356a.355.355,0,1,1-.708,0h0l-7.118-.016.47.479a.353.353,0,0,1-.256.6Z" transform="translate(-477.733 -182.958)" fill="#769ddb"/>
      <path id="Path_24759" data-name="Path 24759" d="M568.957,212.178a.355.355,0,0,1-.275-.579l.985-1.2a.354.354,0,0,1,.548.448l-.983,1.205A.358.358,0,0,1,568.957,212.178Z" transform="translate(-477.732 -176.661)" fill="#769ddb"/>
      <path id="Path_24760" data-name="Path 24760" d="M955.4,504.51a.243.243,0,0,0,.174-.16.248.248,0,0,0-.16-.32,15.211,15.211,0,0,0-9.65.075.248.248,0,1,0,.179.462,15,15,0,0,1,9.309-.069A.25.25,0,0,0,955.4,504.51Z" transform="translate(-794.486 -422.842)" fill="#8c5c36"/>
      <path id="Path_24761" data-name="Path 24761" d="M959.559,492.673a.248.248,0,0,0,.03-.471,12.285,12.285,0,0,0-8.114-.075.249.249,0,0,0-.141.32.246.246,0,0,0,.32.141,11.952,11.952,0,0,1,7.753.075A.255.255,0,0,0,959.559,492.673Z" transform="translate(-799.282 -412.911)" fill="#8c5c36"/>
    </g>
  </g>
</svg>
