<svg xmlns="http://www.w3.org/2000/svg" width="34.621" height="45" viewBox="0 0 34.621 45"><defs><style>.a,.b{fill:none;}.a{stroke:#000;stroke-miterlimit:10;stroke-width:1.689px;}.c{fill:#0047bb;}</style></defs><g transform="translate(0 0.076)"><path class="a" d="M143.12,136.272" transform="translate(-133.12 -127.788)"/><path class="a" d="M145.166,127.712" transform="translate(-133.12 -127.788)"/><path class="b" d="M1.061,44.09,4.924,26.742H9.848V6.061h14.7V26.742h4.849L33.56,44.09Z"/><path class="c" d="M156.832,134.682v20.682h5.076l3.788,15.606H135.241l3.485-15.606h5.151V134.682h12.954m1.667-1.667H142.135V153.7h-4.773l-4.242,19.015h34.621L163.2,153.7h-4.7Z" transform="translate(-133.12 -127.788)"/><rect class="c" width="8.333" height="5.379" transform="translate(13.409 10.833)"/><circle class="c" cx="1.136" cy="1.136" r="1.136" transform="translate(13.788 18.939)"/><circle class="c" cx="1.136" cy="1.136" r="1.136" transform="translate(18.56 18.939)"/><circle class="c" cx="1.136" cy="1.136" r="1.136" transform="translate(13.788 24.242)"/><circle class="c" cx="1.136" cy="1.136" r="1.136" transform="translate(18.56 24.242)"/><circle class="c" cx="1.136" cy="1.136" r="1.136" transform="translate(13.788 29.545)"/><circle class="c" cx="1.136" cy="1.136" r="1.136" transform="translate(18.56 29.545)"/><rect class="c" width="1.667" height="5.454" transform="translate(9.015)"/><path class="c" d="M156.832,134.682v28.636H143.8V134.682h13.03m1.667-1.667H142.135v31.969H158.5Z" transform="translate(-133.12 -127.788)"/></g></svg>