<svg xmlns="http://www.w3.org/2000/svg" width="130.826" height="120.512" viewBox="0 0 130.826 120.512">
  <g id="Layer_2" data-name="Layer 2" transform="translate(-0.702 -9.097)">
    <g id="_ÎÓÈ_1" data-name="—ÎÓÈ_1" transform="translate(0.012 -0.018)">
      <ellipse id="Ellipse_204" data-name="Ellipse 204" cx="65.413" cy="9.302" rx="65.413" ry="9.302" transform="translate(0.69 111.024)" fill="#3b703b"/>
      <path id="Path_25665" data-name="Path 25665" d="M190.692,189h14.524v10.37a1.124,1.124,0,0,1-1.124,1.124h-12.3a1.124,1.124,0,0,1-1.124-1.124V189Z" transform="translate(-83.508 -82.759)" fill="#f9f162"/>
      <path id="Path_25666" data-name="Path 25666" d="M198.83,186.746a.118.118,0,0,0,.124.09h0a.118.118,0,0,0,.09-.146" transform="translate(-87.081 -81.748)" fill="#6e6bbf"/>
      <path id="Path_25667" data-name="Path 25667" d="M194.456,154.838c-.849,1.1-1.686,5.621-1.377,5.862s4.5-1.686,5.334-2.81a2.507,2.507,0,1,0-3.934-3.075Z" transform="translate(-84.534 -67.286)" fill="#6e6bbf"/>
      <path id="Path_25668" data-name="Path 25668" d="M187.114,184.988c1.343.32,5.812-.787,5.907-1.169s-3.4-3.372-4.749-3.7a2.507,2.507,0,1,0-1.158,4.873Z" transform="translate(-81.059 -78.826)" fill="#6e6bbf"/>
      <path id="Path_25669" data-name="Path 25669" d="M205.867,145.414h0a.185.185,0,0,1-.169-.214c3.372-27.867,7.408-47.826,11.314-56.207a3.8,3.8,0,0,0,.169-.388.2.2,0,0,1,.371.124c-.028.084-.09.214-.186.427-3.889,8.33-7.869,28.244-11.286,56.072a.2.2,0,0,1-.214.185Z" transform="translate(-90.088 -38.735)" fill="#448a44"/>
      <path id="Path_25670" data-name="Path 25670" d="M228.866,83.8c-.472.944-3.3,3.018-3.575,2.883s-.32-3.642.152-4.586a1.911,1.911,0,0,1,3.423,1.686Z" transform="translate(-98.58 -35.517)" fill="#448a44"/>
      <path id="Path_25671" data-name="Path 25671" d="M219.086,91.351c.483.967.433,4.558.157,4.693s-3.176-1.978-3.653-2.945a1.956,1.956,0,1,1,3.5-1.748Z" transform="translate(-94.314 -39.49)" fill="#448a44"/>
      <path id="Path_25672" data-name="Path 25672" d="M226.8,98.921c-1.051.253-4.536-.607-4.609-.9s2.647-2.647,3.693-2.895a1.956,1.956,0,1,1,.916,3.8Z" transform="translate(-97.31 -41.613)" fill="#448a44"/>
      <path id="Path_25673" data-name="Path 25673" d="M206.463,125.114c.978,1.523,1.546,7.52,1.124,7.8s-5.621-2.732-6.632-4.255a3.283,3.283,0,1,1,5.525-3.547Z" transform="translate(-87.783 -54.12)" fill="#448a44"/>
      <path id="Path_25674" data-name="Path 25674" d="M220.864,135.963c-1.686.607-7.678-.191-7.869-.68s3.934-4.89,5.621-5.5a3.283,3.283,0,1,1,2.209,6.183Z" transform="translate(-93.282 -56.741)" fill="#448a44"/>
      <path id="Path_25675" data-name="Path 25675" d="M199.741,138.722c1.579,1.557,3.873,8.566,3.429,8.993s-7.487-1.737-9.066-3.294a4.019,4.019,0,0,1,5.621-5.722Z" transform="translate(-84.563 -60.304)" fill="#448a44"/>
      <path id="Path_25676" data-name="Path 25676" d="M219.834,152.192c-2.153.528-9.325-1.2-9.476-1.81s5.407-5.463,7.565-5.992a4.019,4.019,0,1,1,1.911,7.8Z" transform="translate(-92.128 -63.156)" fill="#448a44"/>
      <path id="Path_25677" data-name="Path 25677" d="M197.061,154.753c1.579,1.557,3.873,8.566,3.429,8.993s-7.481-1.737-9.061-3.294a4.013,4.013,0,1,1,5.621-5.722Z" transform="translate(-83.266 -67.201)" fill="#448a44"/>
      <path id="Path_25678" data-name="Path 25678" d="M217.374,168.475c-2.153.528-9.325-1.2-9.476-1.81s5.413-5.463,7.565-5.986a4.013,4.013,0,0,1,1.911,7.8Z" transform="translate(-91.051 -70.306)" fill="#448a44"/>
      <path id="Path_25679" data-name="Path 25679" d="M190.288,176.767c2.052.837,6.846,6.447,6.6,7.031s-7.582,1.242-9.639.4a4.016,4.016,0,0,1,3.035-7.436Z" transform="translate(-80.916 -77.271)" fill="#448a44"/>
      <path id="Path_25680" data-name="Path 25680" d="M215.357,184.57c-2.068.8-9.4,0-9.623-.607s4.682-6.1,6.745-6.891a4.015,4.015,0,1,1,2.872,7.5Z" transform="translate(-90.101 -77.419)" fill="#448a44"/>
      <path id="Path_25681" data-name="Path 25681" d="M215.73,102.034c.489.984.438,4.631.157,4.772s-3.221-2.018-3.715-3a1.99,1.99,0,0,1,3.558-1.776Z" transform="translate(-92.846 -44.221)" fill="#448a44"/>
      <path id="Path_25682" data-name="Path 25682" d="M223.351,109.788c-1.068.259-4.609-.613-4.682-.916s2.687-2.687,3.755-2.945a1.986,1.986,0,0,1,.927,3.861Z" transform="translate(-95.769 -46.354)" fill="#448a44"/>
      <path id="Path_25683" data-name="Path 25683" d="M210.411,111.808c.809,1.332,1.163,6.5.781,6.745s-4.8-2.479-5.621-3.811a2.822,2.822,0,1,1,4.828-2.923Z" transform="translate(-89.855 -48.363)" fill="#448a44"/>
      <path id="Path_25684" data-name="Path 25684" d="M222.408,122.53c-1.518.36-6.548-.877-6.649-1.31s3.816-3.816,5.334-4.182a2.823,2.823,0,1,1,1.315,5.491Z" transform="translate(-94.494 -51.211)" fill="#448a44"/>
      <line id="Line_140" data-name="Line 140" x2="6.807" transform="translate(79.919 112.238)" fill="#001b47"/>
      <path id="Path_25685" data-name="Path 25685" d="M115.652,99.57a21.571,21.571,0,0,0-3.637.444c-.871.309-2.175.309-2.175.849s2,.3,2,.3-1.293,1.366-1.754,1.726-.961.866-.725,1.225,2.17-1.175,2.17-1.175-1.608,1.759-1.461,2.136,2.529-1.557,2.529-1.557a15.49,15.49,0,0,0-1.832,2.057c-.017.264.32.3,1.124-.18a8.9,8.9,0,0,0,1.484-1.175s-1.175,1.355-1.265,1.568-.045.562,1.057-.27,1.922-2.248,3.637-3.372Z" transform="translate(-47.874 -43.595)" fill="#e2918f"/>
      <path id="Path_25686" data-name="Path 25686" d="M73.194,106.4a24.294,24.294,0,0,1,3.282-.3c.894.062,1.8-.562,1.945-.039s-1.484,1.068-1.484,1.068a21.417,21.417,0,0,0,2.085,1.124c.523.185,1.36.837,1.231,1.231s-2.563-.787-2.563-.787,1.956,1.22,1.917,1.613-2.754-.8-2.754-.8a15.907,15.907,0,0,1,2.248,1.439c.1.242-.214.365-1.079.124a8.623,8.623,0,0,1-1.686-.708,18.792,18.792,0,0,1,1.579,1.124c.135.174.191.517-1.051,0a14.168,14.168,0,0,1-4.7-3.249Z" transform="translate(-31.608 -46.343)" fill="#e2918f"/>
      <path id="Path_25687" data-name="Path 25687" d="M123.746,204.11a1.034,1.034,0,0,0,.264-.034,1.124,1.124,0,0,0,.815-1.343l-4.26-17.424a1.124,1.124,0,0,0-2.158.528l4.266,17.424A1.124,1.124,0,0,0,123.746,204.11Z" transform="translate(-51.859 -80.839)" fill="#14161a"/>
      <path id="Path_25688" data-name="Path 25688" d="M164.924,197.992A1.118,1.118,0,0,0,166,196.615l-6.183-25.293a1.124,1.124,0,0,0-2.153.528l6.183,25.293A1.124,1.124,0,0,0,164.924,197.992Z" transform="translate(-69.053 -74.721)" fill="#14161a"/>
      <path id="Path_25689" data-name="Path 25689" d="M108.794,57.06c-42.593,0-34.41,43.807-47.832,43.054S41.29,131.028,90.128,131.028,148,57.06,108.794,57.06Z" transform="translate(-22.501 -24.978)" fill="#769ddb"/>
      <path id="Path_25690" data-name="Path 25690" d="M132.783,16.414s-8.054-2.012-10.421,6.318-2.6,17.615.247,21.027,9.92.995,9.92.995,9.038.253,11.8-4.187S141.984,16.948,132.783,16.414Z" transform="translate(-52.791 -7.084)" fill="#bebebe"/>
      <path id="Path_25691" data-name="Path 25691" d="M124.952,40.437s-.809-.837-1.242-.354c-1.09,1.231.562,2.293,1.445,2.417Z" transform="translate(-54.026 -17.478)" fill="#e09357"/>
      <path id="Path_25692" data-name="Path 25692" d="M131.173,17.418a7.976,7.976,0,0,1,8.661,6,7.869,7.869,0,0,1,0,3.726,34.3,34.3,0,0,1-1.849,7.082,7.869,7.869,0,0,0-.32,5.784l.652,1.911c-4.12,3.125-6.464,1.608-6.464,1.608l-.922-4.924h0c-5.025.337-6.076-8.853-6.576-11.534h0a1.939,1.939,0,0,0-.062-.3,7.942,7.942,0,0,1,6.88-9.353Z" transform="translate(-54.379 -7.594)" fill="#e09357"/>
      <path id="Path_25693" data-name="Path 25693" d="M133.137,24.851a33.574,33.574,0,0,1,3.209,2.647,8.441,8.441,0,0,1,2.692,3.423,10.318,10.318,0,0,0,2.046-4.356,7.442,7.442,0,0,0,.326-2.215,8.268,8.268,0,0,0-.939-3.03,8.485,8.485,0,0,0-2.248-3.372,6.6,6.6,0,0,0-2.473-1.124,11.174,11.174,0,0,0-6.273.118,8.049,8.049,0,0,0-4.716,4.013c-1.18,2.462-.821,5.351-.438,8.054a8.009,8.009,0,0,1,1.175-3.26,6.706,6.706,0,0,1,1.293-1.86,32.259,32.259,0,0,0,2.923-2.423A9.159,9.159,0,0,0,133.137,24.851Z" transform="translate(-54.292 -7.186)" fill="#bebebe"/>
      <path id="Path_25694" data-name="Path 25694" d="M127.979,39.842a.691.691,0,1,1,.86.472.691.691,0,0,1-.86-.472Z" transform="translate(-56.041 -17.051)" fill="#14161a"/>
      <path id="Path_25695" data-name="Path 25695" d="M140.2,38.971a.691.691,0,1,1,.854.472.691.691,0,0,1-.854-.472Z" transform="translate(-61.392 -16.669)" fill="#14161a"/>
      <path id="Path_25696" data-name="Path 25696" d="M131.757,47.364s.843-.7,1.208-.652a1.023,1.023,0,0,1,.613.45.793.793,0,0,1,.562-.511,7.74,7.74,0,0,1,1.962.562s-1.124,2-2.434,1.928-1.928-1.771-1.928-1.771Z" transform="translate(-57.7 -20.419)" fill="#8c5c36"/>
      <path id="Path_25697" data-name="Path 25697" d="M141.725,37.018a.253.253,0,0,0,.2-.141.292.292,0,0,0-.107-.393,3.49,3.49,0,0,0-2.3-.27.288.288,0,1,0,.129.562,2.9,2.9,0,0,1,1.889.214.259.259,0,0,0,.191.028Z" transform="translate(-61.007 -15.812)" fill="#757575"/>
      <path id="Path_25698" data-name="Path 25698" d="M129.057,37.656a.3.3,0,0,0,.152-.2.287.287,0,0,0-.214-.343,3.4,3.4,0,0,0-2.282.382.281.281,0,0,0-.112.388.287.287,0,0,0,.393.112,2.81,2.81,0,0,1,1.872-.32.275.275,0,0,0,.191-.022Z" transform="translate(-55.433 -16.22)" fill="#757575"/>
      <path id="Path_25699" data-name="Path 25699" d="M134.6,42.458a1.237,1.237,0,0,1-1.3-.871.253.253,0,0,1,0-.18,3.564,3.564,0,0,0,.236-2.3.242.242,0,0,1,.174-.3.247.247,0,0,1,.3.174,4.075,4.075,0,0,1-.23,2.563c.084.18.354.562,1.124.382a.243.243,0,1,1,.112.472,2.467,2.467,0,0,1-.41.062Z" transform="translate(-58.375 -16.98)" fill="#8c5c36"/>
      <path id="Path_25700" data-name="Path 25700" d="M136.132,47.64a41.252,41.252,0,0,1-4.362.157s.95,1.225,1.956,1.124A6.108,6.108,0,0,0,136.132,47.64Z" transform="translate(-57.713 -20.853)" fill="#fff"/>
      <path id="Path_25701" data-name="Path 25701" d="M137.19,37.52a2.406,2.406,0,1,1,.7,1.7A2.406,2.406,0,0,1,137.19,37.52Zm.219,0a2.186,2.186,0,1,0,2.186-2.186,2.186,2.186,0,0,0-2.186,2.186Z" transform="translate(-60.087 -15.37)" fill="#474e5c"/>
      <path id="Path_25702" data-name="Path 25702" d="M124.86,38.047a2.411,2.411,0,1,1,2.411,2.406,2.411,2.411,0,0,1-2.411-2.406Zm.225,0a2.186,2.186,0,1,0,.632-1.561,2.186,2.186,0,0,0-.632,1.561Z" transform="translate(-54.687 -15.593)" fill="#474e5c"/>
      <rect id="Rectangle_2147" data-name="Rectangle 2147" width="2.872" height="0.219" transform="matrix(0.994, -0.113, 0.113, 0.994, 81.794, 21.792)" fill="#4a4750"/>
      <path id="Path_25703" data-name="Path 25703" d="M133.252,39.727a1.872,1.872,0,0,1,2.22-.056l.112-.191a2.125,2.125,0,0,0-2.484.084Z" transform="translate(-58.296 -17.121)" fill="#474e5c"/>
      <path id="Path_25704" data-name="Path 25704" d="M148.451,38.585a1.124,1.124,0,0,1,.506-.663,1.99,1.99,0,0,1,2.181-.208c1.124.781-.315,3.687-2.462,2.81C148.7,40.5,148.03,40.052,148.451,38.585Z" transform="translate(-64.957 -16.395)" fill="#e09357"/>
      <path id="Path_25705" data-name="Path 25705" d="M47.911,194.511s.427,10.561-.691,11.331-13.13,0-13.13,0l3.176-3.934s6.526.933,6.436-7.908Z" transform="translate(-14.936 -84.949)" fill="#e09357"/>
      <path id="Path_25706" data-name="Path 25706" d="M41.536,211.924s-.759-6.008-2.3-6.183-6.953,1.63-7.121,6.183Z" transform="translate(-14.069 -90.086)" fill="#00348a"/>
      <rect id="Rectangle_2148" data-name="Rectangle 2148" width="14.957" height="0.922" transform="translate(33.054 122.158) rotate(180)" fill="#00348a"/>
      <path id="Path_25707" data-name="Path 25707" d="M86.951,194.511s.427,10.561-.686,11.331-13.135,0-13.135,0l3.176-3.934s6.526.933,6.441-7.908Z" transform="translate(-32.033 -84.949)" fill="#e09357"/>
      <path id="Path_25708" data-name="Path 25708" d="M80.581,211.924s-.764-6.008-2.31-6.183-6.953,1.63-7.121,6.183Z" transform="translate(-31.166 -90.086)" fill="#00348a"/>
      <rect id="Rectangle_2149" data-name="Rectangle 2149" width="14.957" height="0.922" transform="translate(54.997 122.158) rotate(180)" fill="#00348a"/>
      <path id="Path_25709" data-name="Path 25709" d="M56.613,125.539s-8.47.686-11.185,11.477c-1.579,6.273-.961,26.687-.961,26.687l10.983,1.72s-.984-22.814,7.52-29.846c0,0-1.726,4.637,4.5,31h8.161L78.343,139.6s19.178.641,24.928-4.154A17.319,17.319,0,0,0,109.6,124.91l-27.1-4.12Z" transform="translate(-19.428 -52.888)" fill="#00348a"/>
      <path id="Path_25710" data-name="Path 25710" d="M125.142,60.963s-.528-4.1-1.383-3.889-8.431,1.585-9.162,1.433,0,3.468,0,3.468-6.183.528-8.307,4.154-4.9,17.149-6.711,18.323-9.909,4.9-9.909,4.9L104.4,97.632l13.95-.652s10.117,6.048,17.986,1.338,6.5-29.419-.956-33.791S125.142,60.963,125.142,60.963Z" transform="translate(-39.276 -24.981)" fill="#fff"/>
      <path id="Path_25711" data-name="Path 25711" d="M138.164,111.9a.1.1,0,0,0,.1-.067.107.107,0,0,0-.056-.146l-3.069-1.343.427-5.345c.939-.185,9.555-1.866,13.686-2.349a.107.107,0,0,0,.1-.107c0-.416.152-10.117-.489-11.584a.112.112,0,1,0-.2.09c.59,1.326.483,10.353.472,11.393-4.39.523-13.6,2.333-13.692,2.355a.107.107,0,0,0-.09.1l-.444,5.508a.112.112,0,0,0,.067.112l3.142,1.371a.073.073,0,0,0,.045.011Z" transform="translate(-59.088 -39.784)" fill="#00348a"/>
      <path id="Path_25712" data-name="Path 25712" d="M111.561,108.356h0c5.351-1.287,5.621-12.011,5.621-12.467a.118.118,0,0,0,0-.073,7.779,7.779,0,0,1-1.782-4.924c.208-2.585,3.547-5.542,3.58-5.57a.107.107,0,0,0,0-.157.112.112,0,0,0-.157,0c-.141.124-3.445,3.041-3.659,5.722a7.834,7.834,0,0,0,1.81,5.059c0,.742-.433,11.005-5.452,12.208a.112.112,0,0,0-.084.135.118.118,0,0,0,.124.067Z" transform="translate(-48.808 -37.272)" fill="#00348a"/>
      <path id="Path_25713" data-name="Path 25713" d="M141.346,99.957a8.83,8.83,0,0,0,4.789-1.585.112.112,0,0,0,.034-.152.107.107,0,0,0-.152-.034c-5.817,3.738-9.3-.467-9.336-.511a.112.112,0,0,0-.157,0,.107.107,0,0,0,0,.157,6.6,6.6,0,0,0,4.823,2.125Z" transform="translate(-59.78 -42.751)" fill="#00348a"/>
      <path id="Path_25714" data-name="Path 25714" d="M77.4,138.817a.112.112,0,0,0,.107-.09c0-.1,1.962-9.465,17.3-10.578a.112.112,0,0,0,0-.219c-15.519,1.124-17.48,10.679-17.5,10.758a.112.112,0,0,0,.09.129Z" transform="translate(-33.862 -56.015)" fill="#001b47"/>
      <path id="Path_25715" data-name="Path 25715" d="M124.284,117.17h-.562c-1.748.056-6.981.236-7.588.45-.731.259,1.473,4.823,1.473,4.823s6.284.343,8.307-1.006S124.284,117.17,124.284,117.17Z" transform="translate(-50.801 -51.302)" fill="#e09357"/>
      <path id="Path_25716" data-name="Path 25716" d="M117.339,125.947s-3.507,1.585-3.816,1.242,2.743-2.119,2.743-2.119Z" transform="translate(-49.713 -54.762)" fill="#e09357"/>
      <path id="Path_25717" data-name="Path 25717" d="M114.267,123.732s-5.193,2.136-5.581,1.422,5.351-2.574,5.351-2.574Z" transform="translate(-47.595 -53.672)" fill="#e09357"/>
      <path id="Path_25718" data-name="Path 25718" d="M112.962,121.479s-5.356,1.686-5.682.927,5.553-2.1,5.553-2.1Z" transform="translate(-46.982 -52.677)" fill="#e09357"/>
      <path id="Path_25719" data-name="Path 25719" d="M112.767,119.089s-5,1.636-5.317.882,5.188-2.052,5.188-2.052Z" transform="translate(-47.057 -51.631)" fill="#e09357"/>
      <path id="Path_25720" data-name="Path 25720" d="M128.62,117.055l3.951-.495-.365,4.468-2.029.45Z" transform="translate(-56.334 -51.035)" fill="#e09357"/>
      <path id="Path_25721" data-name="Path 25721" d="M49.05,92.829l28.907-.039,9.094,21.134-28.907.045Z" transform="translate(-21.487 -40.626)" fill="#001b47"/>
      <rect id="Rectangle_2150" data-name="Rectangle 2150" width="19.352" height="1.282" transform="translate(79.239 73.281) rotate(179.92)" fill="#001b47"/>
      <path id="Path_25722" data-name="Path 25722" d="M78.012,110.081a1.276,1.276,0,1,0-1.282,1.27A1.276,1.276,0,0,0,78.012,110.081Z" transform="translate(-33.053 -47.637)" fill="#fff"/>
      <path id="Path_25723" data-name="Path 25723" d="M134.309,33.512a.169.169,0,0,0,.112-.1.157.157,0,0,0-.1-.2,9.555,9.555,0,0,0-6.053.045.157.157,0,0,0,.112.292,9.375,9.375,0,0,1,5.84-.045A.146.146,0,0,0,134.309,33.512Z" transform="translate(-56.144 -14.329)" fill="#8c5c36"/>
      <path id="Path_25724" data-name="Path 25724" d="M134.363,31.412a.156.156,0,0,0,.017-.3,7.672,7.672,0,0,0-5.087-.045.157.157,0,0,0,.118.287,7.481,7.481,0,0,1,4.856.051A.186.186,0,0,0,134.363,31.412Z" transform="translate(-56.596 -13.416)" fill="#8c5c36"/>
    </g>
  </g>
</svg>
