<svg xmlns="http://www.w3.org/2000/svg" xmlns:xlink="http://www.w3.org/1999/xlink" width="369.025" height="245" viewBox="0 0 369.025 245">
  <defs>
    <clipPath id="clip-path">
      <path id="Path_26109" data-name="Path 26109" d="M298.8,244.957H53.129c-22.251,0-42.438-15.869-50.657-40.208-2.756-8.185-3.166-17.841-1.437-28.172,2.882-17.2,11.693-36.266,25.5-53.522,25.692-32.106-23.9-73.191,40.45-90.865C108.848,20.7,131.248-21.349,200.047,13.622c60.847,30.9,142.958-.4,148.312,46.4,10.507,91.934,18.968,62.885,20.647,124.09C370.008,220.885,330.435,244.957,298.8,244.957Z" transform="translate(-0.001 0.002)" fill="none"/>
    </clipPath>
  </defs>
  <g id="illustration_man_on_phone" data-name="illustration_man on phone" transform="translate(-0.001 -6.838)">
    <g id="Layer_2" data-name="Layer 2" transform="translate(0.001 6.838)">
      <path id="Path_25892" data-name="Path 25892" d="M367.7,196.832c-7.066,29.534-41.052,48.176-68.9,48.176H53.131c-22.226,0-42.438-15.828-50.623-40.2a45.937,45.937,0,0,1-1.921-7.976,65.324,65.324,0,0,1,.451-20.2c2.882-17.2,11.693-36.266,25.5-53.522C52.229,91,2.641,49.915,66.979,32.25c41.87-11.493,64.271-53.538,133.069-18.567,60.847,30.9,142.958-.4,148.312,46.4,10.507,91.942,18.968,62.885,20.647,124.09A48.445,48.445,0,0,1,367.7,196.832Z" transform="translate(-0.002 -0.008)" fill="#ebf3ff"/>
      <g id="Group_16041" data-name="Group 16041" clip-path="url(#clip-path)">
        <rect id="Rectangle_2249" data-name="Rectangle 2249" width="183.684" height="175.825" transform="translate(171.548 -3.607)" fill="#f0f4ff"/>
        <rect id="Rectangle_2250" data-name="Rectangle 2250" width="29.901" height="112.147" transform="translate(245.624 60.071)" fill="#a1bfed"/>
        <rect id="Rectangle_2251" data-name="Rectangle 2251" width="29.901" height="81.736" transform="translate(284.179 90.482)" fill="#a1bfed"/>
        <rect id="Rectangle_2252" data-name="Rectangle 2252" width="29.901" height="95.3" transform="translate(267.449 76.918)" fill="#a1bfed"/>
        <rect id="Rectangle_2253" data-name="Rectangle 2253" width="29.901" height="81.736" transform="translate(227.116 90.482)" fill="#a1bfed"/>
        <rect id="Rectangle_2254" data-name="Rectangle 2254" width="35.096" height="95.3" transform="translate(171.548 76.918)" fill="#a1bfed"/>
        <path id="Path_25893" data-name="Path 25893" d="M271.86,78.76l-29.91,9.221V190.907h29.91Z" transform="translate(-39.866 -18.689)" fill="#a1bfed"/>
        <rect id="Rectangle_2255" data-name="Rectangle 2255" width="41.77" height="100.387" transform="translate(313.462 71.831)" fill="#a1bfed"/>
        <rect id="Rectangle_2256" data-name="Rectangle 2256" width="4.151" height="6.999" transform="translate(309.929 101.858)" fill="#fff"/>
        <rect id="Rectangle_2257" data-name="Rectangle 2257" width="4.151" height="6.999" transform="translate(218.304 69.902)" fill="#fff"/>
        <rect id="Rectangle_2258" data-name="Rectangle 2258" width="4.151" height="6.999" transform="translate(319.943 77.795)" fill="#fff"/>
        <rect id="Rectangle_2259" data-name="Rectangle 2259" width="4.151" height="6.999" transform="translate(335.161 88.62)" fill="#fff"/>
        <rect id="Rectangle_2260" data-name="Rectangle 2260" width="4.151" height="6.999" transform="translate(264.952 93.539)" fill="#fff"/>
        <rect id="Rectangle_2261" data-name="Rectangle 2261" width="4.151" height="6.999" transform="translate(254.344 116.483)" fill="#fff"/>
        <rect id="Rectangle_2262" data-name="Rectangle 2262" width="4.151" height="6.999" transform="translate(286.568 83.65)" fill="#fff"/>
        <rect id="Rectangle_2263" data-name="Rectangle 2263" width="4.151" height="6.999" transform="translate(200.012 100.639)" fill="#fff"/>
        <rect id="Rectangle_2264" data-name="Rectangle 2264" width="4.151" height="6.999" transform="translate(254.344 68.332)" fill="#fff"/>
        <rect id="Rectangle_2265" data-name="Rectangle 2265" width="4.151" height="6.999" transform="translate(219.256 93.572)" fill="#fff"/>
        <rect id="Rectangle_2266" data-name="Rectangle 2266" width="4.151" height="6.999" transform="translate(219.256 119.49)" fill="#fff"/>
        <rect id="Rectangle_2267" data-name="Rectangle 2267" width="3.374" height="175.75" transform="translate(171.548 -3.532)" fill="#769ddb"/>
        <rect id="Rectangle_2268" data-name="Rectangle 2268" width="3.374" height="175.75" transform="translate(353.545 -3.532)" fill="#769ddb"/>
        <path id="Path_25894" data-name="Path 25894" d="M202.017-6.3a.543.543,0,0,0-.535-.543.543.543,0,0,0-.543.543.543.543,0,0,0,.543.543.543.543,0,0,0,.534-.543Z" transform="translate(-33.109 1.128)" fill="#9ab3f4"/>
        <path id="Path_25895" data-name="Path 25895" d="M201.819-4.622a.526.526,0,0,0,.162-.38.526.526,0,0,0-.162-.38.526.526,0,0,0-.38-.162.526.526,0,0,0-.38.162.543.543,0,0,0,0,.76.543.543,0,0,0,.76,0Z" transform="translate(-33.103 0.915)" fill="#9ab3f4"/>
        <path id="Path_25896" data-name="Path 25896" d="M202.017-3.687a.543.543,0,0,0-.535-.543.543.543,0,0,0-.543.543.543.543,0,0,0,.543.535A.535.535,0,0,0,202.017-3.687Z" transform="translate(-33.109 0.698)" fill="#9ab3f4"/>
        <path id="Path_25897" data-name="Path 25897" d="M201.819-2.012a.535.535,0,0,0,.163-.384.535.535,0,0,0-.163-.384.543.543,0,0,0-.76,0,.551.551,0,0,0,0,.768.543.543,0,0,0,.76,0Z" transform="translate(-33.103 0.485)" fill="#9ab3f4"/>
        <path id="Path_25898" data-name="Path 25898" d="M202.017-1.045a.535.535,0,0,0-.535-.535.543.543,0,0,0-.543.535.543.543,0,0,0,.543.543.543.543,0,0,0,.535-.543Z" transform="translate(-33.109 0.262)" fill="#9ab3f4"/>
        <path id="Path_25899" data-name="Path 25899" d="M201.819.644a.543.543,0,0,0-.76-.768.551.551,0,0,0,0,.768.543.543,0,0,0,.76,0Z" transform="translate(-33.103 0.042)" fill="#9ab3f4"/>
        <path id="Path_25900" data-name="Path 25900" d="M202.016,1.563a.543.543,0,1,0-.535.543.543.543,0,0,0,.535-.543Z" transform="translate(-33.107 -0.167)" fill="#9ab3f4"/>
        <path id="Path_25901" data-name="Path 25901" d="M201.819,3.239a.526.526,0,0,0,0-.76.537.537,0,1,0-.76.76.526.526,0,0,0,.76,0Z" transform="translate(-33.103 -0.381)" fill="#9ab3f4"/>
        <path id="Path_25902" data-name="Path 25902" d="M202.016,4.163a.543.543,0,1,0-.535.543.543.543,0,0,0,.535-.543Z" transform="translate(-33.107 -0.595)" fill="#9ab3f4"/>
        <path id="Path_25903" data-name="Path 25903" d="M201.819,5.819a.537.537,0,1,0-.76,0,.537.537,0,0,0,.76,0Z" transform="translate(-33.103 -0.806)" fill="#9ab3f4"/>
        <path id="Path_25904" data-name="Path 25904" d="M202.016,6.771a.543.543,0,1,0-.535.535A.543.543,0,0,0,202.016,6.771Z" transform="translate(-33.107 -1.023)" fill="#9ab3f4"/>
        <path id="Path_25905" data-name="Path 25905" d="M201.819,8.454a.543.543,0,0,0-.76-.768.551.551,0,0,0,0,.768.543.543,0,0,0,.76,0Z" transform="translate(-33.103 -1.245)" fill="#9ab3f4"/>
        <path id="Path_25906" data-name="Path 25906" d="M202.016,9.413a.543.543,0,1,0-.535.543.535.535,0,0,0,.535-.543Z" transform="translate(-33.107 -1.46)" fill="#9ab3f4"/>
        <path id="Path_25907" data-name="Path 25907" d="M201.819,11.1a.543.543,0,0,0-.76-.768.551.551,0,0,0,0,.768.543.543,0,0,0,.76,0Z" transform="translate(-33.103 -1.682)" fill="#9ab3f4"/>
        <path id="Path_25908" data-name="Path 25908" d="M202.016,12.023a.543.543,0,1,0-.535.543.543.543,0,0,0,.535-.543Z" transform="translate(-33.107 -1.89)" fill="#9ab3f4"/>
        <path id="Path_25909" data-name="Path 25909" d="M201.819,13.7a.526.526,0,0,0,0-.76.537.537,0,0,0-.76.76.526.526,0,0,0,.76,0Z" transform="translate(-33.103 -2.105)" fill="#9ab3f4"/>
        <path id="Path_25910" data-name="Path 25910" d="M202.016,14.6a.543.543,0,1,0-.535.543.543.543,0,0,0,.535-.543Z" transform="translate(-33.107 -2.315)" fill="#9ab3f4"/>
        <path id="Path_25911" data-name="Path 25911" d="M201.819,16.279a.537.537,0,1,0-.76,0,.537.537,0,0,0,.76,0Z" transform="translate(-33.103 -2.53)" fill="#9ab3f4"/>
        <path id="Path_25912" data-name="Path 25912" d="M202.016,17.211a.543.543,0,1,0-.535.535A.543.543,0,0,0,202.016,17.211Z" transform="translate(-33.107 -2.744)" fill="#9ab3f4"/>
        <path id="Path_25913" data-name="Path 25913" d="M201.819,18.894a.543.543,0,0,0-.76-.768.551.551,0,0,0,0,.768.543.543,0,0,0,.76,0Z" transform="translate(-33.103 -2.965)" fill="#9ab3f4"/>
        <path id="Path_25914" data-name="Path 25914" d="M202.016,19.893a.543.543,0,1,0-.535.543.535.535,0,0,0,.535-.543Z" transform="translate(-33.107 -3.187)" fill="#9ab3f4"/>
        <path id="Path_25915" data-name="Path 25915" d="M201.819,21.544a.543.543,0,0,0-.76-.768.551.551,0,0,0,0,.768.543.543,0,0,0,.76,0Z" transform="translate(-33.103 -3.402)" fill="#9ab3f4"/>
        <path id="Path_25916" data-name="Path 25916" d="M202.016,22.463a.543.543,0,1,0-.535.543.543.543,0,0,0,.535-.543Z" transform="translate(-33.107 -3.61)" fill="#9ab3f4"/>
        <path id="Path_25917" data-name="Path 25917" d="M201.819,24.139a.526.526,0,0,0,0-.76.537.537,0,0,0-.76.76.526.526,0,0,0,.76,0Z" transform="translate(-33.103 -3.825)" fill="#9ab3f4"/>
        <path id="Path_25918" data-name="Path 25918" d="M202.016,25.063a.543.543,0,1,0-.535.543.543.543,0,0,0,.535-.543Z" transform="translate(-33.107 -4.039)" fill="#9ab3f4"/>
        <path id="Path_25919" data-name="Path 25919" d="M201.819,26.739a.537.537,0,1,0-.76,0,.537.537,0,0,0,.76,0Z" transform="translate(-33.103 -4.253)" fill="#9ab3f4"/>
        <path id="Path_25920" data-name="Path 25920" d="M202.016,27.671a.543.543,0,1,0-.535.535A.543.543,0,0,0,202.016,27.671Z" transform="translate(-33.107 -4.467)" fill="#9ab3f4"/>
        <path id="Path_25921" data-name="Path 25921" d="M201.819,29.354a.543.543,0,0,0-.76-.768.551.551,0,0,0,0,.768.543.543,0,0,0,.76,0Z" transform="translate(-33.103 -4.689)" fill="#9ab3f4"/>
        <path id="Path_25922" data-name="Path 25922" d="M202.016,30.313a.543.543,0,1,0-.535.543.535.535,0,0,0,.535-.543Z" transform="translate(-33.107 -4.904)" fill="#9ab3f4"/>
        <path id="Path_25923" data-name="Path 25923" d="M201.819,32a.543.543,0,0,0-.76-.768.551.551,0,0,0,0,.768.543.543,0,0,0,.76,0Z" transform="translate(-33.103 -5.125)" fill="#9ab3f4"/>
        <path id="Path_25924" data-name="Path 25924" d="M202.016,32.893a.543.543,0,1,0-.535.543.543.543,0,0,0,.535-.543Z" transform="translate(-33.107 -5.329)" fill="#9ab3f4"/>
        <path id="Path_25925" data-name="Path 25925" d="M201.819,34.6a.526.526,0,0,0,0-.76.537.537,0,1,0-.76.76.526.526,0,0,0,.76,0Z" transform="translate(-33.103 -5.548)" fill="#9ab3f4"/>
        <path id="Path_25926" data-name="Path 25926" d="M202.039,35.38a.56.56,0,1,0-.56.56A.56.56,0,0,0,202.039,35.38Z" transform="translate(-33.106 -5.736)" fill="#9ab3f4"/>
        <path id="Path_25927" data-name="Path 25927" d="M201.871,37.122a.56.56,0,1,0-.793,0,.568.568,0,0,0,.793,0Z" transform="translate(-33.105 -5.958)" fill="#9ab3f4"/>
        <path id="Path_25928" data-name="Path 25928" d="M202.039,38.08a.56.56,0,1,0-.56.56A.56.56,0,0,0,202.039,38.08Z" transform="translate(-33.106 -6.181)" fill="#9ab3f4"/>
        <path id="Path_25929" data-name="Path 25929" d="M201.871,39.812a.56.56,0,1,0-.793,0A.568.568,0,0,0,201.871,39.812Z" transform="translate(-33.105 -6.401)" fill="#9ab3f4"/>
        <path id="Path_25930" data-name="Path 25930" d="M202.039,40.83a.56.56,0,1,0-.56.56A.56.56,0,0,0,202.039,40.83Z" transform="translate(-33.106 -6.634)" fill="#9ab3f4"/>
        <path id="Path_25931" data-name="Path 25931" d="M201.871,42.57a.568.568,0,0,0,0-.793.551.551,0,0,0-.793,0,.561.561,0,0,0,.793.793Z" transform="translate(-33.105 -6.854)" fill="#9ab3f4"/>
        <path id="Path_25932" data-name="Path 25932" d="M202.039,43.53a.56.56,0,1,0-.56.56A.56.56,0,0,0,202.039,43.53Z" transform="translate(-33.106 -7.079)" fill="#9ab3f4"/>
        <path id="Path_25933" data-name="Path 25933" d="M201.871,45.272a.56.56,0,1,0-.793,0A.568.568,0,0,0,201.871,45.272Z" transform="translate(-33.105 -7.301)" fill="#9ab3f4"/>
        <path id="Path_25934" data-name="Path 25934" d="M202.038,46.22a.56.56,0,0,0-.56-.56.568.568,0,0,0-.568.56.576.576,0,0,0,.568.568.568.568,0,0,0,.56-.568Z" transform="translate(-33.104 -7.522)" fill="#9ab3f4"/>
        <path id="Path_25935" data-name="Path 25935" d="M201.871,47.962a.56.56,0,1,0-.793,0A.568.568,0,0,0,201.871,47.962Z" transform="translate(-33.105 -7.744)" fill="#9ab3f4"/>
        <path id="Path_25936" data-name="Path 25936" d="M202.039,48.89a.56.56,0,1,0-.56.56A.56.56,0,0,0,202.039,48.89Z" transform="translate(-33.106 -7.962)" fill="#9ab3f4"/>
        <path id="Path_25937" data-name="Path 25937" d="M201.871,50.662a.56.56,0,1,0-.793,0,.551.551,0,0,0,.793,0Z" transform="translate(-33.105 -8.189)" fill="#9ab3f4"/>
        <path id="Path_25938" data-name="Path 25938" d="M202.039,51.67a.56.56,0,1,0-.56.56A.56.56,0,0,0,202.039,51.67Z" transform="translate(-33.106 -8.42)" fill="#9ab3f4"/>
        <path id="Path_25939" data-name="Path 25939" d="M201.871,53.412a.56.56,0,1,0-.793,0,.568.568,0,0,0,.793,0Z" transform="translate(-33.105 -8.642)" fill="#9ab3f4"/>
        <path id="Path_25940" data-name="Path 25940" d="M202.024,54.377a.56.56,0,0,0-.56-.568.568.568,0,1,0,0,1.128A.56.56,0,0,0,202.024,54.377Z" transform="translate(-33.091 -8.864)" fill="#9ab3f4"/>
        <path id="Path_25941" data-name="Path 25941" d="M201.871,56.112a.56.56,0,1,0-.793,0A.568.568,0,0,0,201.871,56.112Z" transform="translate(-33.105 -9.087)" fill="#9ab3f4"/>
        <path id="Path_25942" data-name="Path 25942" d="M202.039,57.05a.56.56,0,1,0-.56.56A.56.56,0,0,0,202.039,57.05Z" transform="translate(-33.106 -9.306)" fill="#9ab3f4"/>
        <path id="Path_25943" data-name="Path 25943" d="M201.871,58.812a.56.56,0,1,0-.793,0,.551.551,0,0,0,.793,0Z" transform="translate(-33.105 -9.532)" fill="#9ab3f4"/>
        <path id="Path_25944" data-name="Path 25944" d="M202.039,59.75a.56.56,0,1,0-.56.56A.56.56,0,0,0,202.039,59.75Z" transform="translate(-33.106 -9.751)" fill="#9ab3f4"/>
        <path id="Path_25945" data-name="Path 25945" d="M201.868,61.482a.568.568,0,0,0,0-.835.551.551,0,0,0-.793,0,.576.576,0,1,0,.793.835Z" transform="translate(-33.102 -9.963)" fill="#9ab3f4"/>
        <path id="Path_25946" data-name="Path 25946" d="M202.036,62.49a.56.56,0,0,0-.56-.56.568.568,0,1,0,.56.56Z" transform="translate(-33.102 -10.203)" fill="#9ab3f4"/>
        <path id="Path_25947" data-name="Path 25947" d="M201.871,64.232a.56.56,0,1,0-.793,0A.568.568,0,0,0,201.871,64.232Z" transform="translate(-33.105 -10.425)" fill="#9ab3f4"/>
        <path id="Path_25948" data-name="Path 25948" d="M202.039,65.2a.56.56,0,1,0-.56.56A.56.56,0,0,0,202.039,65.2Z" transform="translate(-33.106 -10.649)" fill="#9ab3f4"/>
        <path id="Path_25949" data-name="Path 25949" d="M201.871,66.932a.56.56,0,1,0-.793,0,.551.551,0,0,0,.793,0Z" transform="translate(-33.105 -10.87)" fill="#9ab3f4"/>
        <path id="Path_25950" data-name="Path 25950" d="M202.039,67.89a.56.56,0,1,0-.56.56A.56.56,0,0,0,202.039,67.89Z" transform="translate(-33.106 -11.092)" fill="#9ab3f4"/>
        <path id="Path_25951" data-name="Path 25951" d="M201.871,69.632a.56.56,0,1,0-.793,0A.568.568,0,0,0,201.871,69.632Z" transform="translate(-33.105 -11.314)" fill="#9ab3f4"/>
        <path id="Path_25952" data-name="Path 25952" d="M202.039,70.59a.56.56,0,1,0-.56.56A.56.56,0,0,0,202.039,70.59Z" transform="translate(-33.106 -11.537)" fill="#9ab3f4"/>
        <path id="Path_25953" data-name="Path 25953" d="M201.871,72.332a.56.56,0,1,0-.793,0A.568.568,0,0,0,201.871,72.332Z" transform="translate(-33.105 -11.759)" fill="#9ab3f4"/>
        <path id="Path_25954" data-name="Path 25954" d="M202.039,73.34a.56.56,0,1,0-.56.56A.56.56,0,0,0,202.039,73.34Z" transform="translate(-33.106 -11.99)" fill="#9ab3f4"/>
        <path id="Path_25955" data-name="Path 25955" d="M201.868,75.072a.568.568,0,0,0,0-.835.551.551,0,0,0-.793,0,.576.576,0,0,0,.793.835Z" transform="translate(-33.102 -12.203)" fill="#9ab3f4"/>
        <path id="Path_25956" data-name="Path 25956" d="M202.039,76.04a.56.56,0,1,0-.56.56A.56.56,0,0,0,202.039,76.04Z" transform="translate(-33.106 -12.435)" fill="#9ab3f4"/>
        <path id="Path_25957" data-name="Path 25957" d="M201.871,77.812a.56.56,0,1,0-.793,0A.568.568,0,0,0,201.871,77.812Z" transform="translate(-33.105 -12.662)" fill="#9ab3f4"/>
        <path id="Path_25958" data-name="Path 25958" d="M431.417-6.3a.543.543,0,0,0-.543-.543.543.543,0,0,0-.535.543.543.543,0,0,0,.535.543A.543.543,0,0,0,431.417-6.3Z" transform="translate(-70.907 1.128)" fill="#9ab3f4"/>
        <path id="Path_25959" data-name="Path 25959" d="M431.258-4.622a.543.543,0,0,0,0-.76.526.526,0,0,0-.38-.162.526.526,0,0,0-.38.162.526.526,0,0,0-.162.38.526.526,0,0,0,.162.38.543.543,0,0,0,.76,0Z" transform="translate(-70.906 0.915)" fill="#9ab3f4"/>
        <path id="Path_25960" data-name="Path 25960" d="M431.417-3.687a.543.543,0,0,0-.543-.543.543.543,0,0,0-.535.543.535.535,0,0,0,.535.535.543.543,0,0,0,.543-.535Z" transform="translate(-70.907 0.698)" fill="#9ab3f4"/>
        <path id="Path_25961" data-name="Path 25961" d="M431.258-2.012a.551.551,0,0,0,0-.768.543.543,0,0,0-.76,0,.534.534,0,0,0-.163.384.535.535,0,0,0,.163.384.543.543,0,0,0,.76,0Z" transform="translate(-70.906 0.485)" fill="#9ab3f4"/>
        <circle id="Ellipse_227" data-name="Ellipse 227" cx="0.543" cy="0.543" r="0.543" transform="translate(359.425 -1.327)" fill="#9ab3f4"/>
        <path id="Path_25962" data-name="Path 25962" d="M431.257.637a.551.551,0,0,0,0-.768.543.543,0,1,0,0,.768Z" transform="translate(-70.905 0.049)" fill="#9ab3f4"/>
        <path id="Path_25963" data-name="Path 25963" d="M431.416,1.563a.543.543,0,1,0-.543.543A.543.543,0,0,0,431.416,1.563Z" transform="translate(-70.905 -0.167)" fill="#9ab3f4"/>
        <path id="Path_25964" data-name="Path 25964" d="M431.259,3.239a.537.537,0,1,0-.76,0,.537.537,0,0,0,.76,0Z" transform="translate(-70.907 -0.381)" fill="#9ab3f4"/>
        <circle id="Ellipse_228" data-name="Ellipse 228" cx="0.543" cy="0.543" r="0.543" transform="translate(359.425 3.025)" fill="#9ab3f4"/>
        <path id="Path_25965" data-name="Path 25965" d="M431.259,5.819a.543.543,0,0,0,0-.76.537.537,0,0,0-.76.76.543.543,0,0,0,.76,0Z" transform="translate(-70.907 -0.806)" fill="#9ab3f4"/>
        <path id="Path_25966" data-name="Path 25966" d="M431.416,6.771a.543.543,0,1,0-.543.535.543.543,0,0,0,.543-.535Z" transform="translate(-70.905 -1.023)" fill="#9ab3f4"/>
        <path id="Path_25967" data-name="Path 25967" d="M431.257,8.447a.551.551,0,0,0,0-.768.543.543,0,1,0,0,.768Z" transform="translate(-70.905 -1.238)" fill="#9ab3f4"/>
        <path id="Path_25968" data-name="Path 25968" d="M431.416,9.413a.543.543,0,1,0-.543.543A.543.543,0,0,0,431.416,9.413Z" transform="translate(-70.905 -1.46)" fill="#9ab3f4"/>
        <path id="Path_25969" data-name="Path 25969" d="M431.257,11.1a.551.551,0,0,0,0-.768.543.543,0,1,0,0,.768Z" transform="translate(-70.905 -1.674)" fill="#9ab3f4"/>
        <path id="Path_25970" data-name="Path 25970" d="M431.416,12.023a.543.543,0,1,0-.543.543A.543.543,0,0,0,431.416,12.023Z" transform="translate(-70.905 -1.89)" fill="#9ab3f4"/>
        <path id="Path_25971" data-name="Path 25971" d="M431.259,13.7a.537.537,0,1,0-.76,0,.537.537,0,0,0,.76,0Z" transform="translate(-70.907 -2.105)" fill="#9ab3f4"/>
        <path id="Path_25972" data-name="Path 25972" d="M431.416,14.6a.543.543,0,1,0-.543.543A.543.543,0,0,0,431.416,14.6Z" transform="translate(-70.905 -2.315)" fill="#9ab3f4"/>
        <path id="Path_25973" data-name="Path 25973" d="M431.259,16.279a.543.543,0,0,0,0-.76.537.537,0,0,0-.76.76.543.543,0,0,0,.76,0Z" transform="translate(-70.907 -2.53)" fill="#9ab3f4"/>
        <path id="Path_25974" data-name="Path 25974" d="M431.416,17.218a.543.543,0,1,0-.144.394A.543.543,0,0,0,431.416,17.218Z" transform="translate(-70.905 -2.75)" fill="#9ab3f4"/>
        <path id="Path_25975" data-name="Path 25975" d="M431.257,18.887a.551.551,0,0,0,0-.768.543.543,0,1,0,0,.768Z" transform="translate(-70.905 -2.958)" fill="#9ab3f4"/>
        <circle id="Ellipse_229" data-name="Ellipse 229" cx="0.543" cy="0.543" r="0.543" transform="translate(359.425 16.13)" fill="#9ab3f4"/>
        <path id="Path_25976" data-name="Path 25976" d="M431.257,21.537a.551.551,0,0,0,0-.768.543.543,0,1,0,0,.768Z" transform="translate(-70.905 -3.394)" fill="#9ab3f4"/>
        <path id="Path_25977" data-name="Path 25977" d="M431.416,22.463a.543.543,0,1,0-.543.543.543.543,0,0,0,.543-.543Z" transform="translate(-70.905 -3.61)" fill="#9ab3f4"/>
        <path id="Path_25978" data-name="Path 25978" d="M431.259,24.139a.537.537,0,1,0-.76,0,.537.537,0,0,0,.76,0Z" transform="translate(-70.907 -3.825)" fill="#9ab3f4"/>
        <circle id="Ellipse_230" data-name="Ellipse 230" cx="0.543" cy="0.543" r="0.543" transform="translate(359.425 20.481)" fill="#9ab3f4"/>
        <path id="Path_25979" data-name="Path 25979" d="M431.259,26.739a.543.543,0,0,0,0-.76.537.537,0,0,0-.76.76.543.543,0,0,0,.76,0Z" transform="translate(-70.907 -4.253)" fill="#9ab3f4"/>
        <circle id="Ellipse_231" data-name="Ellipse 231" cx="0.543" cy="0.543" r="0.543" transform="translate(359.425 22.661)" fill="#9ab3f4"/>
        <path id="Path_25980" data-name="Path 25980" d="M431.257,29.347a.551.551,0,0,0,0-.768.543.543,0,1,0,0,.768Z" transform="translate(-70.905 -4.681)" fill="#9ab3f4"/>
        <path id="Path_25981" data-name="Path 25981" d="M431.416,30.313a.543.543,0,1,0-.543.543.543.543,0,0,0,.543-.543Z" transform="translate(-70.905 -4.904)" fill="#9ab3f4"/>
        <path id="Path_25982" data-name="Path 25982" d="M431.257,32a.551.551,0,0,0,0-.768.543.543,0,1,0,0,.768Z" transform="translate(-70.905 -5.118)" fill="#9ab3f4"/>
        <path id="Path_25983" data-name="Path 25983" d="M431.416,32.893a.543.543,0,1,0-.543.543.543.543,0,0,0,.543-.543Z" transform="translate(-70.905 -5.329)" fill="#9ab3f4"/>
        <path id="Path_25984" data-name="Path 25984" d="M431.259,34.6a.537.537,0,1,0-.76,0,.537.537,0,0,0,.76,0Z" transform="translate(-70.907 -5.548)" fill="#9ab3f4"/>
        <path id="Path_25985" data-name="Path 25985" d="M431.416,35.413a.543.543,0,1,0-.543.543A.543.543,0,0,0,431.416,35.413Z" transform="translate(-70.905 -5.744)" fill="#9ab3f4"/>
        <path id="Path_25986" data-name="Path 25986" d="M431.257,37.1a.551.551,0,0,0,0-.768.543.543,0,1,0,0,.768Z" transform="translate(-70.905 -5.958)" fill="#9ab3f4"/>
        <circle id="Ellipse_232" data-name="Ellipse 232" cx="0.543" cy="0.543" r="0.543" transform="translate(359.425 31.306)" fill="#9ab3f4"/>
        <path id="Path_25987" data-name="Path 25987" d="M431.26,39.7a.543.543,0,0,0,0-.76.535.535,0,1,0,0,.76Z" transform="translate(-70.908 -6.389)" fill="#9ab3f4"/>
        <path id="Path_25988" data-name="Path 25988" d="M431.416,40.673a.543.543,0,1,0-.543.543A.543.543,0,0,0,431.416,40.673Z" transform="translate(-70.905 -6.611)" fill="#9ab3f4"/>
        <path id="Path_25989" data-name="Path 25989" d="M431.259,42.349a.543.543,0,0,0,0-.76.537.537,0,0,0-.76.76.543.543,0,0,0,.76,0Z" transform="translate(-70.907 -6.825)" fill="#9ab3f4"/>
        <circle id="Ellipse_233" data-name="Ellipse 233" cx="0.543" cy="0.543" r="0.543" transform="translate(359.425 35.691)" fill="#9ab3f4"/>
        <path id="Path_25990" data-name="Path 25990" d="M431.257,44.957a.551.551,0,0,0,0-.768.543.543,0,1,0,0,.768Z" transform="translate(-70.905 -7.253)" fill="#9ab3f4"/>
        <path id="Path_25991" data-name="Path 25991" d="M431.416,45.893a.543.543,0,1,0-.543.543A.543.543,0,0,0,431.416,45.893Z" transform="translate(-70.905 -7.471)" fill="#9ab3f4"/>
        <path id="Path_25992" data-name="Path 25992" d="M431.257,47.557a.551.551,0,0,0,0-.768.543.543,0,1,0,0,.768Z" transform="translate(-70.905 -7.682)" fill="#9ab3f4"/>
        <path id="Path_25993" data-name="Path 25993" d="M431.416,48.483a.543.543,0,1,0-.543.543.543.543,0,0,0,.543-.543Z" transform="translate(-70.905 -7.898)" fill="#9ab3f4"/>
        <path id="Path_25994" data-name="Path 25994" d="M431.26,50.16a.543.543,0,0,0,0-.76.535.535,0,1,0,0,.76Z" transform="translate(-70.908 -8.113)" fill="#9ab3f4"/>
        <circle id="Ellipse_234" data-name="Ellipse 234" cx="0.543" cy="0.543" r="0.543" transform="translate(359.425 42.256)" fill="#9ab3f4"/>
        <path id="Path_25995" data-name="Path 25995" d="M431.259,52.819a.543.543,0,0,0,0-.76.537.537,0,0,0-.76.76.543.543,0,0,0,.76,0Z" transform="translate(-70.907 -8.55)" fill="#9ab3f4"/>
        <path id="Path_25996" data-name="Path 25996" d="M431.416,53.741a.543.543,0,1,0-.543.535.543.543,0,0,0,.543-.535Z" transform="translate(-70.905 -8.763)" fill="#9ab3f4"/>
        <path id="Path_25997" data-name="Path 25997" d="M431.257,55.417a.551.551,0,0,0,0-.768.543.543,0,1,0,0,.768Z" transform="translate(-70.905 -8.977)" fill="#9ab3f4"/>
        <path id="Path_25998" data-name="Path 25998" d="M431.416,56.313a.543.543,0,1,0-.543.543.543.543,0,0,0,.543-.543Z" transform="translate(-70.905 -9.188)" fill="#9ab3f4"/>
        <path id="Path_25999" data-name="Path 25999" d="M431.257,58a.551.551,0,0,0,0-.768.543.543,0,1,0,0,.768Z" transform="translate(-70.905 -9.402)" fill="#9ab3f4"/>
        <circle id="Ellipse_235" data-name="Ellipse 235" cx="0.543" cy="0.543" r="0.543" transform="translate(359.425 48.762)" fill="#9ab3f4"/>
        <path id="Path_26000" data-name="Path 26000" d="M431.26,60.6a.543.543,0,0,0,0-.76.535.535,0,1,0,0,.76Z" transform="translate(-70.908 -9.833)" fill="#9ab3f4"/>
        <path id="Path_26001" data-name="Path 26001" d="M431.416,61.573a.543.543,0,1,0-.543.543A.543.543,0,0,0,431.416,61.573Z" transform="translate(-70.905 -10.054)" fill="#9ab3f4"/>
        <path id="Path_26002" data-name="Path 26002" d="M431.259,63.249a.543.543,0,0,0,0-.76.537.537,0,0,0-.76.76.543.543,0,0,0,.76,0Z" transform="translate(-70.907 -10.269)" fill="#9ab3f4"/>
        <path id="Path_26003" data-name="Path 26003" d="M431.416,64.181a.543.543,0,1,0-.543.535.543.543,0,0,0,.543-.535Z" transform="translate(-70.905 -10.483)" fill="#9ab3f4"/>
        <path id="Path_26004" data-name="Path 26004" d="M431.257,65.817a.551.551,0,0,0,0-.768.543.543,0,1,0,0,.768Z" transform="translate(-70.905 -10.69)" fill="#9ab3f4"/>
        <path id="Path_26005" data-name="Path 26005" d="M431.416,66.773a.543.543,0,1,0-.543.543A.543.543,0,0,0,431.416,66.773Z" transform="translate(-70.905 -10.911)" fill="#9ab3f4"/>
        <path id="Path_26006" data-name="Path 26006" d="M431.257,68.457a.551.551,0,0,0,0-.768.543.543,0,1,0,0,.768Z" transform="translate(-70.905 -11.125)" fill="#9ab3f4"/>
        <path id="Path_26007" data-name="Path 26007" d="M431.416,69.383a.543.543,0,1,0-.543.543A.543.543,0,0,0,431.416,69.383Z" transform="translate(-70.905 -11.341)" fill="#9ab3f4"/>
        <path id="Path_26008" data-name="Path 26008" d="M431.26,71.06a.543.543,0,0,0,0-.76.535.535,0,1,0,0,.76Z" transform="translate(-70.908 -11.556)" fill="#9ab3f4"/>
        <path id="Path_26009" data-name="Path 26009" d="M431.416,72.033a.543.543,0,1,0-.543.543A.543.543,0,0,0,431.416,72.033Z" transform="translate(-70.905 -11.778)" fill="#9ab3f4"/>
        <path id="Path_26010" data-name="Path 26010" d="M431.259,73.709a.543.543,0,0,0,0-.76.537.537,0,1,0-.76.76.543.543,0,0,0,.76,0Z" transform="translate(-70.907 -11.992)" fill="#9ab3f4"/>
        <path id="Path_26011" data-name="Path 26011" d="M431.416,74.641a.543.543,0,1,0-.543.535.543.543,0,0,0,.543-.535Z" transform="translate(-70.905 -12.206)" fill="#9ab3f4"/>
        <path id="Path_26012" data-name="Path 26012" d="M431.257,76.317a.551.551,0,0,0,0-.768.543.543,0,1,0,0,.768Z" transform="translate(-70.905 -12.42)" fill="#9ab3f4"/>
        <rect id="Rectangle_2269" data-name="Rectangle 2269" width="194.876" height="6.824" transform="translate(167.438 -3.607)" fill="#c1cff6"/>
        <rect id="Rectangle_2270" data-name="Rectangle 2270" width="194.876" height="6.824" transform="translate(167.438 5.497)" fill="#769ddb"/>
        <rect id="Rectangle_2271" data-name="Rectangle 2271" width="194.876" height="6.824" transform="translate(167.438 14.994)" fill="#769ddb"/>
        <rect id="Rectangle_2272" data-name="Rectangle 2272" width="194.876" height="6.824" transform="translate(167.438 25.15)" fill="#769ddb"/>
        <rect id="Rectangle_2273" data-name="Rectangle 2273" width="194.876" height="6.824" transform="translate(167.438 34.254)" fill="#769ddb"/>
        <rect id="Rectangle_2274" data-name="Rectangle 2274" width="194.876" height="6.824" transform="translate(167.438 43.751)" fill="#769ddb"/>
        <rect id="Rectangle_2275" data-name="Rectangle 2275" width="193.181" height="5.955" transform="translate(168.173 169.128)" fill="#769ddb"/>
        <path id="Path_26013" data-name="Path 26013" d="M162.339,120.089a.543.543,0,0,0-.76-.092.535.535,0,0,0-.092.752.526.526,0,0,0,.752.1.535.535,0,0,0,.1-.76Z" transform="translate(-26.59 -19.751)" fill="#000c1e"/>
        <path id="Path_26014" data-name="Path 26014" d="M163.237,121.519a.543.543,0,1,0-.6.468A.543.543,0,0,0,163.237,121.519Z" transform="translate(-26.719 -19.92)" fill="#000c1e"/>
        <path id="Path_26015" data-name="Path 26015" d="M163.929,122.158a.526.526,0,0,0-.752-.1.535.535,0,0,0-.1.76.551.551,0,0,0,.76.1A.543.543,0,0,0,163.929,122.158Z" transform="translate(-26.852 -20.091)" fill="#000c1e"/>
        <path id="Path_26016" data-name="Path 26016" d="M164.79,123.582a.535.535,0,1,0-.2.36.535.535,0,0,0,.2-.36Z" transform="translate(-26.977 -20.263)" fill="#000c1e"/>
        <path id="Path_26017" data-name="Path 26017" d="M165.562,124.263a.543.543,0,1,0-.137.685.543.543,0,0,0,.137-.685Z" transform="translate(-27.131 -20.451)" fill="#000c1e"/>
        <path id="Path_26018" data-name="Path 26018" d="M166.447,125.679a.543.543,0,1,0-.6.468.543.543,0,0,0,.6-.468Z" transform="translate(-27.248 -20.605)" fill="#000c1e"/>
        <path id="Path_26019" data-name="Path 26019" d="M167.127,126.3a.543.543,0,1,0,.165.581.543.543,0,0,0-.165-.581Z" transform="translate(-27.369 -20.76)" fill="#000c1e"/>
        <path id="Path_26020" data-name="Path 26020" d="M168.047,127.739a.543.543,0,1,0-.208.36A.543.543,0,0,0,168.047,127.739Z" transform="translate(-27.511 -20.945)" fill="#000c1e"/>
        <path id="Path_26021" data-name="Path 26021" d="M168.729,128.378a.535.535,0,0,0-.76-.1.489.489,0,1,0,.743.1Z" transform="translate(-27.642 -21.116)" fill="#000c1e"/>
        <path id="Path_26022" data-name="Path 26022" d="M169.627,129.8a.543.543,0,1,0-.6.468.543.543,0,0,0,.6-.468Z" transform="translate(-27.771 -21.284)" fill="#000c1e"/>
        <path id="Path_26023" data-name="Path 26023" d="M170.307,130.421a.543.543,0,1,0,.165.581.543.543,0,0,0-.165-.581Z" transform="translate(-27.893 -21.439)" fill="#000c1e"/>
        <path id="Path_26024" data-name="Path 26024" d="M171.206,131.878a.535.535,0,0,0-.459-.6.543.543,0,1,0-.142,1.069.535.535,0,0,0,.6-.468Z" transform="translate(-28.023 -21.626)" fill="#000c1e"/>
        <path id="Path_26025" data-name="Path 26025" d="M171.924,132.538a.535.535,0,0,0-.76-.1.543.543,0,1,0,.668.835.535.535,0,0,0,.092-.735Z" transform="translate(-28.157 -21.801)" fill="#000c1e"/>
        <path id="Path_26026" data-name="Path 26026" d="M172.837,133.959a.543.543,0,1,0-.6.468A.543.543,0,0,0,172.837,133.959Z" transform="translate(-28.3 -21.97)" fill="#000c1e"/>
        <path id="Path_26027" data-name="Path 26027" d="M173.517,134.581a.543.543,0,1,0,.165.581A.543.543,0,0,0,173.517,134.581Z" transform="translate(-28.421 -22.124)" fill="#000c1e"/>
        <path id="Path_26028" data-name="Path 26028" d="M174.437,136.019a.543.543,0,1,0-.208.36.543.543,0,0,0,.208-.36Z" transform="translate(-28.564 -22.309)" fill="#000c1e"/>
        <path id="Path_26029" data-name="Path 26029" d="M175.109,136.638a.543.543,0,0,0-.76-.1.551.551,0,0,0-.1.76.543.543,0,0,0,.835-.66Z" transform="translate(-28.693 -22.477)" fill="#000c1e"/>
        <path id="Path_26030" data-name="Path 26030" d="M176.019,138.061a.535.535,0,0,0-.468-.6.538.538,0,1,0,.468.6Z" transform="translate(-28.835 -22.648)" fill="#000c1e"/>
        <path id="Path_26031" data-name="Path 26031" d="M176.712,138.713a.543.543,0,1,0-.137.685.543.543,0,0,0,.137-.685Z" transform="translate(-28.968 -22.832)" fill="#000c1e"/>
        <path id="Path_26032" data-name="Path 26032" d="M177.6,140.129a.543.543,0,1,0-.6.468A.543.543,0,0,0,177.6,140.129Z" transform="translate(-29.085 -22.986)" fill="#000c1e"/>
        <path id="Path_26033" data-name="Path 26033" d="M178.307,140.781a.543.543,0,1,0-.148.672A.543.543,0,0,0,178.307,140.781Z" transform="translate(-29.211 -23.146)" fill="#000c1e"/>
        <path id="Path_26034" data-name="Path 26034" d="M179.22,142.222a.535.535,0,1,0-.2.36.535.535,0,0,0,.2-.36Z" transform="translate(-29.355 -23.334)" fill="#000c1e"/>
        <path id="Path_26035" data-name="Path 26035" d="M179.923,142.868a.535.535,0,0,0-.76-.1.543.543,0,0,0,.668.835.535.535,0,0,0,.092-.735Z" transform="translate(-29.499 -23.503)" fill="#000c1e"/>
        <path id="Path_26036" data-name="Path 26036" d="M180.787,144.289a.543.543,0,1,0-.6.468.543.543,0,0,0,.6-.468Z" transform="translate(-29.61 -23.672)" fill="#000c1e"/>
        <path id="Path_26037" data-name="Path 26037" d="M181.487,144.941a.543.543,0,1,0-.148.672A.543.543,0,0,0,181.487,144.941Z" transform="translate(-29.735 -23.831)" fill="#000c1e"/>
        <path id="Path_26038" data-name="Path 26038" d="M182.4,146.337a.543.543,0,1,0-1.069-.142.535.535,0,0,0,.459.6A.543.543,0,0,0,182.4,146.337Z" transform="translate(-29.877 -23.999)" fill="#000c1e"/>
        <path id="Path_26039" data-name="Path 26039" d="M183.089,146.958a.535.535,0,0,0-.76-.1.543.543,0,0,0-.092.76.535.535,0,0,0,.752.092.526.526,0,0,0,.1-.752Z" transform="translate(-30.009 -24.177)" fill="#000c1e"/>
        <path id="Path_26040" data-name="Path 26040" d="M183.987,148.409a.543.543,0,1,0-.6.468.543.543,0,0,0,.6-.468Z" transform="translate(-30.138 -24.35)" fill="#000c1e"/>
        <path id="Path_26041" data-name="Path 26041" d="M184.724,149.095a.543.543,0,1,0-.147.672.543.543,0,0,0,.147-.672Z" transform="translate(-30.29 -24.543)" fill="#000c1e"/>
        <path id="Path_26042" data-name="Path 26042" d="M185.607,150.509a.543.543,0,1,0-.6.468.543.543,0,0,0,.6-.468Z" transform="translate(-30.404 -24.696)" fill="#000c1e"/>
        <path id="Path_26043" data-name="Path 26043" d="M186.3,151.148a.535.535,0,0,0-.76-.1.543.543,0,0,0-.092.76.551.551,0,0,0,.76.1A.543.543,0,0,0,186.3,151.148Z" transform="translate(-30.537 -24.867)" fill="#000c1e"/>
        <path id="Path_26044" data-name="Path 26044" d="M187.2,152.572a.535.535,0,1,0-.2.36A.535.535,0,0,0,187.2,152.572Z" transform="translate(-30.67 -25.039)" fill="#000c1e"/>
        <path id="Path_26045" data-name="Path 26045" d="M187.8,153.077a.56.56,0,1,0-.1.785A.56.56,0,0,0,187.8,153.077Z" transform="translate(-30.779 -25.185)" fill="#000c1e"/>
        <path id="Path_26046" data-name="Path 26046" d="M188.78,154.555a.56.56,0,0,0-.484-.626.551.551,0,0,0-.626.484.56.56,0,0,0,.484.626A.568.568,0,0,0,188.78,154.555Z" transform="translate(-30.922 -25.36)" fill="#000c1e"/>
        <path id="Path_26047" data-name="Path 26047" d="M189.462,155.216a.551.551,0,0,0-.785-.1.56.56,0,0,0,.685.885.551.551,0,0,0,.1-.785Z" transform="translate(-31.053 -25.537)" fill="#000c1e"/>
        <path id="Path_26048" data-name="Path 26048" d="M190.4,156.7a.56.56,0,1,0-.626.484.576.576,0,0,0,.626-.484Z" transform="translate(-31.189 -25.713)" fill="#000c1e"/>
        <path id="Path_26049" data-name="Path 26049" d="M191.142,157.387a.56.56,0,1,0-.1.785A.56.56,0,0,0,191.142,157.387Z" transform="translate(-31.33 -25.895)" fill="#000c1e"/>
        <path id="Path_26050" data-name="Path 26050" d="M192.077,158.872a.568.568,0,1,0-.635.484A.568.568,0,0,0,192.077,158.872Z" transform="translate(-31.462 -26.069)" fill="#000c1e"/>
        <path id="Path_26051" data-name="Path 26051" d="M192.8,159.527a.56.56,0,1,0-.1.785A.56.56,0,0,0,192.8,159.527Z" transform="translate(-31.603 -26.248)" fill="#000c1e"/>
        <path id="Path_26052" data-name="Path 26052" d="M193.78,161.006a.568.568,0,0,0-.484-.626.56.56,0,1,0,.484.626Z" transform="translate(-31.746 -26.423)" fill="#000c1e"/>
        <path id="Path_26053" data-name="Path 26053" d="M194.441,161.658a.568.568,0,0,0-.785-.1.56.56,0,0,0-.109.785.568.568,0,0,0,.835.109.576.576,0,0,0,.058-.793Z" transform="translate(-31.872 -26.599)" fill="#000c1e"/>
        <path id="Path_26054" data-name="Path 26054" d="M195.37,163.136a.56.56,0,1,0-.626.484.56.56,0,0,0,.626-.484Z" transform="translate(-32.007 -26.774)" fill="#000c1e"/>
        <path id="Path_26055" data-name="Path 26055" d="M196.092,163.8a.568.568,0,0,0-.785-.1.551.551,0,0,0-.1.785.56.56,0,0,0,.785.109.568.568,0,0,0,.1-.793Z" transform="translate(-32.144 -26.952)" fill="#000c1e"/>
        <path id="Path_26056" data-name="Path 26056" d="M197.02,165.276a.56.56,0,1,0-.626.484A.56.56,0,0,0,197.02,165.276Z" transform="translate(-32.279 -27.127)" fill="#000c1e"/>
        <path id="Path_26057" data-name="Path 26057" d="M197.8,165.956a.563.563,0,1,0-.1.789A.563.563,0,0,0,197.8,165.956Z" transform="translate(-32.425 -27.307)" fill="#000c1e"/>
        <path id="Path_26058" data-name="Path 26058" d="M198.7,167.456a.56.56,0,1,0-.626.484.568.568,0,0,0,.626-.484Z" transform="translate(-32.556 -27.486)" fill="#000c1e"/>
        <path id="Path_26059" data-name="Path 26059" d="M199.421,168.116a.551.551,0,0,0-.785-.1.56.56,0,1,0,.785.1Z" transform="translate(-32.693 -27.662)" fill="#000c1e"/>
        <path id="Path_26060" data-name="Path 26060" d="M200.35,169.6a.56.56,0,1,0-.626.484A.568.568,0,0,0,200.35,169.6Z" transform="translate(-32.828 -27.839)" fill="#000c1e"/>
        <path id="Path_26061" data-name="Path 26061" d="M201.052,170.227a.56.56,0,1,0-.1.785.56.56,0,0,0,.1-.785Z" transform="translate(-32.962 -28.011)" fill="#000c1e"/>
        <path id="Path_26062" data-name="Path 26062" d="M201.98,171.706a.56.56,0,1,0-.213.372.56.56,0,0,0,.213-.372Z" transform="translate(-33.097 -28.186)" fill="#000c1e"/>
        <path id="Path_26063" data-name="Path 26063" d="M202.7,172.367a.56.56,0,1,0-.885.685.551.551,0,0,0,.785.1.56.56,0,0,0,.1-.785Z" transform="translate(-33.234 -28.363)" fill="#000c1e"/>
        <path id="Path_26064" data-name="Path 26064" d="M203.63,173.876a.56.56,0,0,0-1.111-.142.568.568,0,0,0,.484.626.551.551,0,0,0,.626-.484Z" transform="translate(-33.369 -28.544)" fill="#000c1e"/>
        <path id="Path_26065" data-name="Path 26065" d="M204.381,174.546a.56.56,0,0,0-.785-.109.568.568,0,0,0-.109.793.576.576,0,0,0,.835.1.568.568,0,0,0,.058-.785Z" transform="translate(-33.51 -28.722)" fill="#000c1e"/>
        <path id="Path_26066" data-name="Path 26066" d="M205.31,176.016a.56.56,0,0,0-.484-.626.568.568,0,0,0-.626.484.56.56,0,0,0,1.111.142Z" transform="translate(-33.645 -28.897)" fill="#000c1e"/>
        <path id="Path_26067" data-name="Path 26067" d="M206.032,176.687a.56.56,0,1,0-.1.785A.56.56,0,0,0,206.032,176.687Z" transform="translate(-33.783 -29.075)" fill="#000c1e"/>
        <path id="Path_26068" data-name="Path 26068" d="M206.96,178.156a.56.56,0,0,0-.484-.626.568.568,0,0,0-.626.484.56.56,0,1,0,1.111.142Z" transform="translate(-33.917 -29.249)" fill="#000c1e"/>
        <path id="Path_26069" data-name="Path 26069" d="M207.672,178.816a.551.551,0,0,0-.785-.1.56.56,0,1,0,.785.1Z" transform="translate(-34.053 -29.425)" fill="#000c1e"/>
        <path id="Path_26070" data-name="Path 26070" d="M208.61,180.3a.56.56,0,1,0-.626.484A.576.576,0,0,0,208.61,180.3Z" transform="translate(-34.189 -29.602)" fill="#000c1e"/>
        <path id="Path_26071" data-name="Path 26071" d="M209.332,180.956a.56.56,0,1,0,.109.415.56.56,0,0,0-.109-.415Z" transform="translate(-34.326 -29.778)" fill="#000c1e"/>
        <path id="Path_26072" data-name="Path 26072" d="M210.26,182.436a.56.56,0,1,0-.626.484.568.568,0,0,0,.626-.484Z" transform="translate(-34.461 -29.954)" fill="#000c1e"/>
        <path id="Path_26073" data-name="Path 26073" d="M211,183.127a.56.56,0,1,0-.1.785.56.56,0,0,0,.1-.785Z" transform="translate(-34.602 -30.136)" fill="#000c1e"/>
        <path id="Path_26074" data-name="Path 26074" d="M211.94,184.606a.568.568,0,0,0-.484-.626.56.56,0,1,0,.484.626Z" transform="translate(-34.738 -30.312)" fill="#000c1e"/>
        <path id="Path_26075" data-name="Path 26075" d="M212.652,185.267a.56.56,0,1,0-.1.785.551.551,0,0,0,.1-.785Z" transform="translate(-34.874 -30.489)" fill="#000c1e"/>
        <path id="Path_26076" data-name="Path 26076" d="M213.59,186.746a.56.56,0,1,0-.213.372A.56.56,0,0,0,213.59,186.746Z" transform="translate(-35.01 -30.664)" fill="#000c1e"/>
        <path id="Path_26077" data-name="Path 26077" d="M214.4,187.347a.56.56,0,0,0-.885.685.568.568,0,0,0,.785.1.56.56,0,0,0,.1-.785Z" transform="translate(-35.162 -30.832)" fill="#000c1e"/>
        <path id="Path_26078" data-name="Path 26078" d="M215.337,188.872a.568.568,0,1,0-.635.484.576.576,0,0,0,.635-.484Z" transform="translate(-35.295 -31.012)" fill="#000c1e"/>
        <path id="Path_26079" data-name="Path 26079" d="M216.052,189.486a.551.551,0,0,0-.785-.1.56.56,0,0,0-.1.785.568.568,0,0,0,.785.1.56.56,0,0,0,.1-.785Z" transform="translate(-35.434 -31.184)" fill="#000c1e"/>
        <path id="Path_26080" data-name="Path 26080" d="M217,190.965a.576.576,0,0,0-.484-.635.568.568,0,0,0-.142,1.119A.576.576,0,0,0,217,190.965Z" transform="translate(-35.581 -31.359)" fill="#000c1e"/>
        <path id="Path_26081" data-name="Path 26081" d="M217.732,191.657a.56.56,0,1,0-.1.785A.56.56,0,0,0,217.732,191.657Z" transform="translate(-35.711 -31.542)" fill="#000c1e"/>
        <path id="Path_26082" data-name="Path 26082" d="M218.66,193.136a.56.56,0,1,0-.626.484.551.551,0,0,0,.626-.484Z" transform="translate(-35.845 -31.717)" fill="#000c1e"/>
        <path id="Path_26083" data-name="Path 26083" d="M219.382,193.8a.56.56,0,1,0-.1.785.56.56,0,0,0,.1-.785Z" transform="translate(-35.983 -31.894)" fill="#000c1e"/>
        <path id="Path_26084" data-name="Path 26084" d="M220.317,195.272a.568.568,0,1,0-.635.484A.568.568,0,0,0,220.317,195.272Z" transform="translate(-36.116 -32.067)" fill="#000c1e"/>
        <path id="Path_26085" data-name="Path 26085" d="M221.031,195.957a.563.563,0,1,0-.894.685.551.551,0,0,0,.785.1.56.56,0,0,0,.109-.785Z" transform="translate(-36.253 -32.25)" fill="#000c1e"/>
        <path id="Path_26086" data-name="Path 26086" d="M221.96,197.406a.56.56,0,1,0-.213.372.56.56,0,0,0,.213-.372Z" transform="translate(-36.389 -32.421)" fill="#000c1e"/>
        <path id="Path_26087" data-name="Path 26087" d="M222.682,198.067a.56.56,0,1,0-.1.785.568.568,0,0,0,.1-.785Z" transform="translate(-36.526 -32.598)" fill="#000c1e"/>
        <path id="Path_26088" data-name="Path 26088" d="M223.61,199.546a.56.56,0,1,0-.213.372A.56.56,0,0,0,223.61,199.546Z" transform="translate(-36.661 -32.773)" fill="#000c1e"/>
        <path id="Path_26089" data-name="Path 26089" d="M224.349,200.246a.56.56,0,0,0-.785-.109.576.576,0,0,0-.1.835.568.568,0,0,0,.785.1.551.551,0,0,0,.1-.827Z" transform="translate(-36.798 -32.956)" fill="#000c1e"/>
        <path id="Path_26090" data-name="Path 26090" d="M225.29,201.716a.56.56,0,1,0-.626.484A.56.56,0,0,0,225.29,201.716Z" transform="translate(-36.937 -33.131)" fill="#000c1e"/>
        <path id="Path_26091" data-name="Path 26091" d="M226,202.382a.568.568,0,0,0-.835-.109.576.576,0,0,0-.1.793.568.568,0,0,0,.785.1.56.56,0,0,0,.15-.785Z" transform="translate(-37.066 -33.304)" fill="#000c1e"/>
        <path id="Path_26092" data-name="Path 26092" d="M226.94,203.876a.56.56,0,0,0-.484-.626.568.568,0,0,0-.626.484.56.56,0,0,0,1.111.142Z" transform="translate(-37.209 -33.487)" fill="#000c1e"/>
        <path id="Path_26093" data-name="Path 26093" d="M227.641,204.5a.563.563,0,1,0-.1.789.563.563,0,0,0,.1-.789Z" transform="translate(-37.342 -33.657)" fill="#000c1e"/>
        <path id="Path_26094" data-name="Path 26094" d="M228.57,205.976a.56.56,0,1,0-.626.484.551.551,0,0,0,.626-.484Z" transform="translate(-37.478 -33.833)" fill="#000c1e"/>
        <path id="Path_26095" data-name="Path 26095" d="M229.292,206.637a.56.56,0,1,0-.1.785.568.568,0,0,0,.1-.785Z" transform="translate(-37.615 -34.01)" fill="#000c1e"/>
        <path id="Path_26096" data-name="Path 26096" d="M230.22,208.116a.551.551,0,0,0-.484-.626.56.56,0,1,0-.142,1.111.551.551,0,0,0,.626-.484Z" transform="translate(-37.75 -34.185)" fill="#000c1e"/>
        <path id="Path_26097" data-name="Path 26097" d="M230.971,208.808a.576.576,0,0,0-.793-.1.568.568,0,0,0-.1.785.56.56,0,0,0,.785.109A.568.568,0,0,0,230.971,208.808Z" transform="translate(-37.891 -34.368)" fill="#000c1e"/>
        <path id="Path_26098" data-name="Path 26098" d="M231.9,210.286a.56.56,0,1,0-.626.484A.56.56,0,0,0,231.9,210.286Z" transform="translate(-38.026 -34.543)" fill="#000c1e"/>
        <path id="Path_26099" data-name="Path 26099" d="M232.621,210.958a.568.568,0,0,0-.785-.1.56.56,0,0,0-.109.785.568.568,0,0,0,.793.109.576.576,0,0,0,.1-.793Z" transform="translate(-38.163 -34.722)" fill="#000c1e"/>
        <path id="Path_26100" data-name="Path 26100" d="M233.55,212.426a.56.56,0,1,0-.626.484A.56.56,0,0,0,233.55,212.426Z" transform="translate(-38.298 -34.896)" fill="#000c1e"/>
        <path id="Path_26101" data-name="Path 26101" d="M234.262,213.086a.56.56,0,1,0-.1.785A.56.56,0,0,0,234.262,213.086Z" transform="translate(-38.434 -35.072)" fill="#000c1e"/>
        <path id="Path_26102" data-name="Path 26102" d="M235.2,214.567a.568.568,0,1,0-.623.427A.568.568,0,0,0,235.2,214.567Z" transform="translate(-38.569 -35.258)" fill="#000c1e"/>
        <path id="Path_26103" data-name="Path 26103" d="M235.912,215.226a.56.56,0,1,0-.1.785.551.551,0,0,0,.1-.785Z" transform="translate(-38.706 -35.424)" fill="#000c1e"/>
        <path id="Path_26104" data-name="Path 26104" d="M236.85,216.7a.568.568,0,0,0-.484-.626.56.56,0,0,0-.626.484.551.551,0,0,0,.484.626.56.56,0,0,0,.626-.484Z" transform="translate(-38.842 -35.599)" fill="#000c1e"/>
        <path id="Path_26105" data-name="Path 26105" d="M237.592,217.4a.56.56,0,1,0-.1.785.56.56,0,0,0,.1-.785Z" transform="translate(-38.983 -35.783)" fill="#000c1e"/>
        <path id="Path_26106" data-name="Path 26106" d="M238.52,218.876a.551.551,0,0,0-.484-.626.56.56,0,0,0-.626.484.576.576,0,0,0,.484.626.551.551,0,0,0,.626-.484Z" transform="translate(-39.118 -35.958)" fill="#000c1e"/>
        <path id="Path_26107" data-name="Path 26107" d="M239.242,219.537a.56.56,0,1,0-.1.785.56.56,0,0,0,.1-.785Z" transform="translate(-39.255 -36.136)" fill="#000c1e"/>
        <path id="Path_26108" data-name="Path 26108" d="M240.179,221.027a.568.568,0,0,0-1.119-.142.576.576,0,0,0,.484.626A.568.568,0,0,0,240.179,221.027Z" transform="translate(-39.389 -36.322)" fill="#000c1e"/>
      </g>
      <path id="Path_26110" data-name="Path 26110" d="M52.628,179.019,59.452,228.3h75.923L121.259,165.38H64.539a12.019,12.019,0,0,0-11.91,13.639Z" transform="translate(-8.654 -27.248)" fill="#02bcb2"/>
      <path id="Path_26111" data-name="Path 26111" d="M373.084,171.208h0a.175.175,0,0,0,.125-.209c-6.314-24.364-12.245-41.628-16.7-48.6a3.071,3.071,0,0,1-.2-.317.167.167,0,0,0-.234-.084.175.175,0,0,0-.084.234l.217.359c4.443,6.941,10.365,24.163,16.7,48.494A.175.175,0,0,0,373.084,171.208Z" transform="translate(-58.653 -20.096)" fill="#acddac"/>
      <path id="Path_26112" data-name="Path 26112" d="M352.7,120.312a8.743,8.743,0,0,0,3.516,2.138,8.819,8.819,0,0,0-.677-4.059,1.714,1.714,0,0,0-2.84,1.921Z" transform="translate(-58.066 -19.381)" fill="#acddac"/>
      <path id="Path_26113" data-name="Path 26113" d="M359.14,123.621a9,9,0,0,0,.418,4.176,9.137,9.137,0,0,0,2.9-3.049,1.766,1.766,0,1,0-3.341-1.144Z" transform="translate(-59.159 -20.168)" fill="#acddac"/>
      <path id="Path_26114" data-name="Path 26114" d="M354.579,129.639a8.947,8.947,0,0,0,3.984-1.353,9.019,9.019,0,0,0-3.625-2.138,1.755,1.755,0,0,0-.359,3.491Z" transform="translate(-58.164 -20.782)" fill="#acddac"/>
      <path id="Path_26115" data-name="Path 26115" d="M368.241,143.025c-.693,1.47-.484,6.866-.067,7.066s4.7-3.1,5.4-4.569a2.944,2.944,0,0,0-5.329-2.506Z" transform="translate(-60.6 -23.284)" fill="#acddac"/>
      <path id="Path_26116" data-name="Path 26116" d="M359.52,152.227c1.587.342,6.8-1.069,6.9-1.528s-4.084-3.884-5.671-4.176a2.94,2.94,0,1,0-1.228,5.746Z" transform="translate(-58.837 -24.126)" fill="#acddac"/>
      <path id="Path_26117" data-name="Path 26117" d="M372.691,150.485c-1.219,1.579-2.422,8.077-1.979,8.419s6.448-2.431,7.667-4a3.6,3.6,0,0,0-5.688-4.418Z" transform="translate(-61.067 -24.564)" fill="#acddac"/>
      <path id="Path_26118" data-name="Path 26118" d="M360.646,162.424c1.979.209,8.144-2.172,8.2-2.731s-5.446-4.176-7.425-4.427a3.6,3.6,0,1,0-.777,7.158Z" transform="translate(-58.894 -25.578)" fill="#acddac"/>
      <path id="Path_26119" data-name="Path 26119" d="M375.46,160.015c-1.219,1.57-2.431,8.068-1.979,8.419s6.448-2.431,7.667-4a3.6,3.6,0,1,0-5.688-4.418Z" transform="translate(-61.522 -26.135)" fill="#acddac"/>
      <path id="Path_26120" data-name="Path 26120" d="M363.416,171.944c1.971.217,8.144-2.163,8.2-2.731s-5.454-4.176-7.425-4.427a3.6,3.6,0,1,0-.777,7.158Z" transform="translate(-59.351 -27.147)" fill="#acddac"/>
      <path id="Path_26121" data-name="Path 26121" d="M381.278,172.276c-1.729.986-5.32,6.54-5.011,7.033s6.891.2,8.611-.785a3.6,3.6,0,1,0-3.575-6.248Z" transform="translate(-61.994 -28.306)" fill="#acddac"/>
      <path id="Path_26122" data-name="Path 26122" d="M365.9,181.371c1.938.459,8.352-1.136,8.486-1.67s-4.886-4.861-6.815-5.32a3.6,3.6,0,1,0-1.67,7.008Z" transform="translate(-59.834 -28.715)" fill="#acddac"/>
      <path id="Path_26123" data-name="Path 26123" d="M361.979,129.73a9.136,9.136,0,0,0,.418,4.26,9.276,9.276,0,0,0,2.948-3.1A1.779,1.779,0,0,0,362,129.73Z" transform="translate(-59.625 -21.207)" fill="#acddac"/>
      <path id="Path_26124" data-name="Path 26124" d="M357.475,135.879a9.217,9.217,0,0,0,4.059-1.37,9.171,9.171,0,0,0-3.692-2.172,1.78,1.78,0,1,0-.367,3.541Z" transform="translate(-58.638 -21.802)" fill="#acddac"/>
      <path id="Path_26125" data-name="Path 26125" d="M365.2,135.291c-.56,1.286-.259,5.922.1,6.08s3.976-2.773,4.535-4.051a2.53,2.53,0,1,0-4.636-2.03Z" transform="translate(-60.123 -22.04)" fill="#acddac"/>
      <path id="Path_26126" data-name="Path 26126" d="M358.1,144.005c1.387.15,5.713-1.545,5.755-1.946s-3.85-2.94-5.237-3.082a2.519,2.519,0,0,0-.518,5.011Z" transform="translate(-58.632 -22.895)" fill="#acddac"/>
      <path id="Path_26127" data-name="Path 26127" d="M380.475,172.312h0a.2.2,0,0,1-.175-.217c3.424-28.089,7.467-48.2,11.409-56.629.084-.192.15-.326.167-.393a.2.2,0,0,1,.251-.125.192.192,0,0,1,.125.242,1.611,1.611,0,0,1-.192.434c-3.917,8.4-7.951,28.473-11.367,56.52a.2.2,0,0,1-.217.167Z" transform="translate(-62.662 -18.937)" fill="#74aa74"/>
      <path id="Path_26128" data-name="Path 26128" d="M397.251,112.621c-.468.952-3.341,3.04-3.6,2.907a10.062,10.062,0,0,1,.159-4.627,1.924,1.924,0,0,1,3.441,1.721Z" transform="translate(-64.829 -18.096)" fill="#74aa74"/>
      <path id="Path_26129" data-name="Path 26129" d="M390.575,117.256c.484.969.434,4.585.159,4.727s-3.2-2-3.683-2.973a1.971,1.971,0,1,1,3.525-1.754Z" transform="translate(-63.732 -19.123)" fill="#74aa74"/>
      <path id="Path_26130" data-name="Path 26130" d="M396.084,123.293c-1.061.251-4.569-.61-4.644-.91s2.664-2.673,3.725-2.923a1.971,1.971,0,1,1,.919,3.834Z" transform="translate(-64.497 -19.673)" fill="#74aa74"/>
      <path id="Path_26131" data-name="Path 26131" d="M382.843,140.343c.986,1.537,1.554,7.584,1.119,7.868s-5.7-2.756-6.682-4.293a3.341,3.341,0,0,1,5.563-3.575Z" transform="translate(-62.115 -22.933)" fill="#74aa74"/>
      <path id="Path_26132" data-name="Path 26132" d="M393.177,149.257c-1.721.618-7.743-.192-7.918-.685s3.967-4.928,5.688-5.546a3.341,3.341,0,0,1,2.23,6.231Z" transform="translate(-63.478 -23.553)" fill="#74aa74"/>
      <path id="Path_26133" data-name="Path 26133" d="M378.439,149.315c1.587,1.57,3.9,8.636,3.45,9.087s-7.517-1.754-9.137-3.341a4.051,4.051,0,0,1,5.688-5.763Z" transform="translate(-61.235 -24.421)" fill="#74aa74"/>
      <path id="Path_26134" data-name="Path 26134" d="M393.006,160.766c-2.172.535-9.4-1.2-9.547-1.821s5.446-5.5,7.617-6.039a4.046,4.046,0,1,1,1.929,7.86Z" transform="translate(-63.182 -25.173)" fill="#74aa74"/>
      <path id="Path_26135" data-name="Path 26135" d="M376.752,160.327c1.6,1.562,3.9,8.628,3.458,9.087s-7.517-1.754-9.137-3.341a4.046,4.046,0,1,1,5.68-5.763Z" transform="translate(-60.943 -26.221)" fill="#74aa74"/>
      <path id="Path_26136" data-name="Path 26136" d="M391.336,171.8c-2.163.526-9.4-1.211-9.547-1.829s5.454-5.5,7.626-6.03a4.045,4.045,0,0,1,1.921,7.86Z" transform="translate(-62.907 -26.991)" fill="#74aa74"/>
      <path id="Path_26137" data-name="Path 26137" d="M371.673,174.936c2.071.835,6.9,6.5,6.682,7.083s-7.642,1.253-9.714.409a4.057,4.057,0,1,1,3.057-7.517Z" transform="translate(-60.324 -28.769)" fill="#74aa74"/>
      <path id="Path_26138" data-name="Path 26138" d="M390.024,182.654c-2.088.793-9.48,0-9.705-.618s4.719-6.139,6.807-6.941a4.051,4.051,0,1,1,2.9,7.559Z" transform="translate(-62.664 -28.795)" fill="#74aa74"/>
      <path id="Path_26139" data-name="Path 26139" d="M388.312,124.433c.493.986.443,4.669.159,4.8s-3.249-2.03-3.742-3.015a2,2,0,1,1,3.583-1.787Z" transform="translate(-63.349 -20.304)" fill="#74aa74"/>
      <path id="Path_26140" data-name="Path 26140" d="M393.8,130.676c-1.077.259-4.644-.618-4.719-.927s2.706-2.706,3.784-2.965a2,2,0,0,1,.935,3.892Z" transform="translate(-64.108 -20.883)" fill="#74aa74"/>
      <path id="Path_26141" data-name="Path 26141" d="M385.22,131.19c.835,1.345,1.178,6.557.793,6.79s-4.836-2.506-5.655-3.842a2.843,2.843,0,0,1,4.861-2.948Z" transform="translate(-62.604 -21.389)" fill="#74aa74"/>
      <path id="Path_26142" data-name="Path 26142" d="M393.822,139.9c-1.52.368-6.6-.877-6.682-1.311s3.85-3.85,5.371-4.176a2.843,2.843,0,0,1,1.328,5.529Z" transform="translate(-63.789 -22.133)" fill="#74aa74"/>
      <path id="Path_26143" data-name="Path 26143" d="M385.637,177.359h0a.125.125,0,0,1-.058-.159c7.083-15.577,13.071-26.435,16.872-30.586a2.135,2.135,0,0,0,.175-.192.115.115,0,1,1,.167.159,1.593,1.593,0,0,1-.192.217c-3.784,4.134-9.764,14.976-16.83,30.528a.117.117,0,0,1-.134.033Z" transform="translate(-63.53 -24.118)" fill="#448a44"/>
      <path id="Path_26144" data-name="Path 26144" d="M408.036,145.626a5.947,5.947,0,0,1-2.606,1.019,6.03,6.03,0,0,1,.927-2.639,1.169,1.169,0,0,1,1.67,1.62Z" transform="translate(-66.802 -23.681)" fill="#448a44"/>
      <path id="Path_26145" data-name="Path 26145" d="M403.44,147.076a6.214,6.214,0,0,1-.768,2.756,6.056,6.056,0,0,1-1.587-2.389,1.194,1.194,0,1,1,2.355-.367Z" transform="translate(-66.082 -24.053)" fill="#448a44"/>
      <path id="Path_26146" data-name="Path 26146" d="M405.506,151.65a6.281,6.281,0,0,1-2.506-1.37,6.055,6.055,0,0,1,2.681-1.011,1.194,1.194,0,1,1-.167,2.38Z" transform="translate(-66.402 -24.594)" fill="#448a44"/>
      <path id="Path_26147" data-name="Path 26147" d="M394.715,158.979c.292,1.069-.484,4.652-.785,4.736s-2.79-2.623-3.074-3.683a2,2,0,1,1,3.859-1.052Z" transform="translate(-64.389 -25.95)" fill="#448a44"/>
      <path id="Path_26148" data-name="Path 26148" d="M399,166.211c-1.1.042-4.435-1.52-4.443-1.837s3.182-2.122,4.285-2.163a2,2,0,0,1,.159,4Z" transform="translate(-65.011 -26.726)" fill="#448a44"/>
      <path id="Path_26149" data-name="Path 26149" d="M390.5,163.385c.635,1.194.685,5.688.342,5.847s-4.034-2.389-4.661-3.583a2.447,2.447,0,1,1,4.318-2.289Z" transform="translate(-63.573 -26.681)" fill="#448a44"/>
      <path id="Path_26150" data-name="Path 26150" d="M396.79,172.845c-1.345-.092-5.2-2.405-5.17-2.79s4.176-2.188,5.487-2.1a2.448,2.448,0,0,1-.317,4.886Z" transform="translate(-64.527 -27.672)" fill="#448a44"/>
      <path id="Path_26151" data-name="Path 26151" d="M387.55,169.458c.635,1.194.677,5.7.342,5.847s-4.034-2.38-4.669-3.575a2.449,2.449,0,1,1,4.327-2.3Z" transform="translate(-63.096 -27.701)" fill="#448a44"/>
      <path id="Path_26152" data-name="Path 26152" d="M393.828,178.9c-1.353-.084-5.2-2.405-5.178-2.79s4.176-2.18,5.5-2.1a2.448,2.448,0,1,1-.317,4.886Z" transform="translate(-64.038 -28.669)" fill="#448a44"/>
      <path id="Path_26153" data-name="Path 26153" d="M381.969,176.959c1.036.835,2.8,5.011,2.547,5.3s-4.636-.668-5.671-1.528a2.447,2.447,0,1,1,3.124-3.767Z" transform="translate(-62.276 -29.063)" fill="#448a44"/>
      <path id="Path_26154" data-name="Path 26154" d="M391.049,184.915c-1.345.084-5.454-1.737-5.479-2.121s3.842-2.681,5.187-2.765a2.447,2.447,0,1,1,.292,4.886Z" transform="translate(-63.53 -29.661)" fill="#448a44"/>
      <path id="Path_26155" data-name="Path 26155" d="M400.834,150.8a6.189,6.189,0,0,1-.785,2.8,6.189,6.189,0,0,1-1.612-2.422,1.213,1.213,0,0,1,2.4-.376Z" transform="translate(-65.648 -24.676)" fill="#448a44"/>
      <path id="Path_26156" data-name="Path 26156" d="M402.836,155.524a6.114,6.114,0,0,1-2.556-1.395A6.265,6.265,0,0,1,403,153.11a1.211,1.211,0,0,1-.167,2.414Z" transform="translate(-65.954 -25.226)" fill="#448a44"/>
      <path id="Path_26157" data-name="Path 26157" d="M397.781,154.168a8.913,8.913,0,0,1-.777,4.059,8.852,8.852,0,0,1-2.564-3.249,1.722,1.722,0,0,1,3.341-.835Z" transform="translate(-64.983 -25.181)" fill="#448a44"/>
      <path id="Path_26158" data-name="Path 26158" d="M401.133,160.842c-.952-.067-3.65-1.67-3.633-1.979s2.923-1.52,3.867-1.453a1.72,1.72,0,1,1-.234,3.433Z" transform="translate(-65.496 -25.934)" fill="#448a44"/>
      <path id="Path_26159" data-name="Path 26159" d="M367,189.78h24.088v5.254a11.217,11.217,0,0,1-11.217,11.217H378.2A11.217,11.217,0,0,1,367,195.034Z" transform="translate(-60.47 -36.981)" fill="#a67c52"/>
      <path id="Path_26160" data-name="Path 26160" d="M161.969,109.489s-4.126.61-5.913-.518-9.1-7.141-11.919-7.141l-3.007,2.13s7.976,12.086,11.927,13.289,9.288-.142,9.288-.142Z" transform="translate(-23.254 -16.777)" fill="#f3bf86"/>
      <path id="Path_26161" data-name="Path 26161" d="M153.521,111.836l-1.9,2.973c-.175.267-.9.109-1.629-.359L134.5,104.536c-.735-.459-1.186-1.052-1.011-1.32l1.9-2.982c.167-.267.9-.109,1.629.359l15.485,9.914C153.237,110.976,153.688,111.569,153.521,111.836Z" transform="translate(-21.99 -16.493)" fill="#000c1e"/>
      <path id="Path_26162" data-name="Path 26162" d="M162.791,115.764l-3.784,5.913c-.342.526-.835.835-1.128.618l-6.1-3.85c-.284-.184-.242-.76.1-1.286l3.784-5.905c.334-.535.835-.835,1.128-.626l6.08,3.892C163.159,114.661,163.117,115.237,162.791,115.764Z" transform="translate(-24.979 -18.215)" fill="#000c1e"/>
      <path id="Path_26163" data-name="Path 26163" d="M139.791,100.764l-3.784,5.913c-.342.526-.835.835-1.128.618l-6.1-3.85c-.284-.184-.242-.76.1-1.286l3.784-5.905c.334-.535.835-.835,1.128-.626l6.08,3.892C140.159,99.661,140.117,100.237,139.791,100.764Z" transform="translate(-21.189 -15.744)" fill="#000c1e"/>
      <path id="Path_26164" data-name="Path 26164" d="M146.1,147.04l-20.588,9.647-2.773,13.831,15.636,76.6,34.094-5.212-13.1-77.727Z" transform="translate(-20.224 -29.939)" fill="#fff"/>
      <path id="Path_26165" data-name="Path 26165" d="M150.71,139.856s21.858,65.983,24.673,117.542l25.358-1.888s-19.569-83.665-19.569-95.317S167.039,132.823,150.71,139.856Z" transform="translate(-24.833 -22.755)" fill="#001b47"/>
      <path id="Path_26166" data-name="Path 26166" d="M120.623,151.75S135.657,216.2,136.4,227.756s3.533,29.058,3.533,29.058l-33.56-2.74L93.06,226.512S97.62,165.323,120.623,151.75Z" transform="translate(-15.334 -25.002)" fill="#001b47"/>
      <path id="Path_26167" data-name="Path 26167" d="M131.477,99h0c-.092-.192-.184-.376-.284-.568a16.3,16.3,0,1,0-24.314,20.647c3.14,2.639,5.847,4.878,8.352,6.6a23.286,23.286,0,0,1,8.887,11.8l1.278,3.767c11.351-.058,13.021-6.59,13.021-6.59l-3.257-6.423a1.812,1.812,0,0,1,.668-2.347h0C146.42,119.287,134.133,103.927,131.477,99Z" transform="translate(-16.567 -14.807)" fill="#f3bf86"/>
      <path id="Path_26168" data-name="Path 26168" d="M102.2,126.17l8.929,7.442,2.33-1.929-5.187-13.372Z" transform="translate(-16.84 -25.205)" fill="#bebebe"/>
      <path id="Path_26169" data-name="Path 26169" d="M114.917,126.765a2.4,2.4,0,0,0-1.67-.409c-1.2.134-3.191.635-3.742,2.506-.835,2.706,5.254,5.471,7.517,1.261C116.98,130.106,117.423,128.561,114.917,126.765Z" transform="translate(-18.031 -20.815)" fill="#f3bf86"/>
      <path id="Path_26170" data-name="Path 26170" d="M135.08,119.613a3.049,3.049,0,0,1-2.506,1.236.267.267,0,1,1,0-.526,2.506,2.506,0,0,0,2.4-1.771.9.9,0,0,0,.075-.626c-.084-.167-.384-.267-.835-.409a7.759,7.759,0,0,1-4.176-3.182.267.267,0,0,1,.426-.309,7.174,7.174,0,0,0,3.967,2.99c.518.175.927.317,1.1.677a1.3,1.3,0,0,1-.058,1.036,3.384,3.384,0,0,1-.393.885Z" transform="translate(-21.422 -18.774)" fill="#946635"/>
      <path id="Path_26171" data-name="Path 26171" d="M131.2,125.988s5.847-2.272,8.394-5.738c0,0,1.4,4.652-1.579,6.682S131.2,125.988,131.2,125.988Z" transform="translate(-21.618 -19.812)" fill="#fff"/>
      <path id="Path_26172" data-name="Path 26172" d="M99.043,114.592a7.333,7.333,0,0,1-2.18-2.7,26.418,26.418,0,0,1-3.157-13.639,7.342,7.342,0,0,1,1.27-4.36.994.994,0,0,1,.518-.384c.526-.125.9.484,1.094.994l1.336,3.533a44.042,44.042,0,0,1,3.541-7.7,14.5,14.5,0,0,1,6.181-5.688,2.222,2.222,0,0,1,2.263,0c.835.668.468,2,0,2.99,5.3-2,10.967-4.026,16.5-2.8.768.167,1.67.56,1.746,1.336s-.635,1.3-1.328,1.554a5.922,5.922,0,0,0-2.021.835,19.151,19.151,0,0,0,2.865.468,2.506,2.506,0,0,1,2.1,1.754c.226,1.445-1.5,2.339-2.9,2.765l-11.777,3.558a10.581,10.581,0,0,0,2.573,1.545c.852.543,1.478,1.779.785,2.506a2.172,2.172,0,0,1-1.111.434l-8.862,1.971a3.408,3.408,0,0,1,1.971,3.241,5.5,5.5,0,0,1-1.412,3.007C107.211,112.078,102.066,116.63,99.043,114.592Z" transform="translate(-15.437 -13.895)" fill="#bebebe"/>
      <path id="Path_26173" data-name="Path 26173" d="M127.59,155.757l.819-4.017,8.987,2,3.809-7.834,3.617,1.8-.852,7.108-6.055-.142-3.057,4.836Z" transform="translate(-21.023 -29.753)" fill="#fff" stroke="#769ddb" stroke-width="0.5"/>
      <path id="Path_26174" data-name="Path 26174" d="M184.363,175.044s-4.118-22.919,4.686-34.938,20.547-25.951,17.815-32.649-44.551-.66-44.551-.66l.543,11.56s19.553,1.412,18.7,2.33-30.837,13.564-30.837,13.564l12.528,16Z" transform="translate(-24.834 -17.184)" fill="#001b47"/>
      <rect id="Rectangle_2276" data-name="Rectangle 2276" width="4.585" height="2.623" rx="1.311" transform="translate(117.521 87.465) rotate(-40.92)" fill="#f3bf86"/>
      <path id="Path_26175" data-name="Path 26175" d="M143.347,107.554h0a1.3,1.3,0,0,1,.134-1.846l1.9-1.67a1.32,1.32,0,0,1,1.846.134h0a1.311,1.311,0,0,1-.125,1.846l-1.913,1.67a1.3,1.3,0,0,1-1.846-.134Z" transform="translate(-23.567 -17.089)" fill="#f3bf86"/>
      <path id="Path_26176" data-name="Path 26176" d="M146.057,109.043h0a1.3,1.3,0,0,1,.134-1.846l1.9-1.67a1.3,1.3,0,0,1,1.846.134h0a1.3,1.3,0,0,1-.134,1.846l-1.9,1.67a1.32,1.32,0,0,1-1.846-.134Z" transform="translate(-24.013 -17.333)" fill="#f3bf86"/>
      <path id="Path_26177" data-name="Path 26177" d="M148.618,110.434h0a1.32,1.32,0,0,1,.134-1.846l1.9-1.67a1.32,1.32,0,0,1,1.854.134h0a1.32,1.32,0,0,1-.134,1.846l-1.9,1.67a1.311,1.311,0,0,1-1.854-.134Z" transform="translate(-24.436 -17.563)" fill="#f3bf86"/>
      <path id="Path_26178" data-name="Path 26178" d="M367.81,235.65c-7.066,29.534-41.052,48.176-68.9,48.176H53.244c-22.226,0-42.438-15.828-50.623-40.2A45.937,45.937,0,0,1,.7,235.65Z" transform="translate(-0.116 -38.826)" fill="#a67c52"/>
      <path id="Path_26179" data-name="Path 26179" d="M117.357,246.334s8.711-2.147,12.027-2.213,6.481-2.614,7.166-.835-5.12,4.452-5.12,4.452,6.081,2.94,8.093,3.558,5.3,2.639,5.011,4.176-9.764-2.138-9.764-2.138,7.642,3.809,7.642,5.279-10.449-2.021-10.449-2.021,8.352,3.708,8.745,4.577-.685,1.4-3.959.835a31.531,31.531,0,0,1-6.465-2.046,69.814,69.814,0,0,1,6.222,3.65c.551.61.877,1.829-3.884.434s-14.583-6.064-18.525-10.44Z" transform="translate(-18.801 -39.981)" fill="#f3bf86"/>
      <path id="Path_26180" data-name="Path 26180" d="M116.293,151.75s-18.5,7.058-25.742,16.446C80.528,181.234,62.7,208.362,67.624,221.868s38.162,18.325,38.162,18.325l5.345-12.528s-15.869-12.821-14.75-16.638,9.923-16.2,9.923-16.2Z" transform="translate(-11.004 -25.002)" fill="#001b47"/>
      <path id="Path_26181" data-name="Path 26181" d="M109.761,230.746c-1.169-1.094-11.4-10.741-10.482-12.386s10.09-12.662,10.474-13.13l.142.117c-.092.109-9.563,11.493-10.457,13.1-.718,1.295,7.3,9.188,10.449,12.169Z" transform="translate(-16.349 -33.814)" fill="#c1cff6"/>
      <path id="Path_26182" data-name="Path 26182" d="M326.692,181.407l-89.211-.067L209.45,246.6l89.219.067Z" transform="translate(-34.511 -35.591)" fill="#001b47"/>
      <rect id="Rectangle_2277" data-name="Rectangle 2277" width="59.727" height="3.951" transform="translate(132.726 207.047)" fill="#001b47"/>
      <path id="Path_26183" data-name="Path 26183" d="M283.387,213.126a3.693,3.693,0,0,1,4.176-3.09c1.837.409,2.882,2.464,2.4,4.577a3.693,3.693,0,0,1-4.176,3.082C283.947,217.286,282.911,215.239,283.387,213.126Z" transform="translate(-46.675 -34.594)" fill="#fff"/>
      <path id="Path_26184" data-name="Path 26184" d="M16.852,211.5a10.023,10.023,0,0,0,2.1,2.23l5.011,4.36c1.946,1.67,4.017,3.6,4.41,6.156.284,1.838-.368,3.809.334,5.538s2.79,2.8,4.744,3.082,3.959.05,5.913.334a5.644,5.644,0,0,1,4.92,3.708c.368,1.027.292,2.13,1.721,2.071,1.094,0,2.055-1.27,2.305-2.23a5.538,5.538,0,0,0-.961-4.276c-.835-1.27-1.9-2.347-2.765-3.575a13.364,13.364,0,0,1-2.464-7.15c-.15-3.224.835-6.765-.927-9.488a11.177,11.177,0,0,0-4.46-3.458c-3.241-1.729-6.79-3.942-7.517-7.517-.292-1.5-.084-3.182-1.019-4.393a4.51,4.51,0,0,0-3.216-1.437c-1.094-.117-2.389,0-2.965.977s-.184,1.946-.276,2.948c-.234,2.681-3.3,4.068-4.769,6.331a5.563,5.563,0,0,0-.125,5.788Zm4.452-3.9a2.773,2.773,0,0,1,3.065-1.219,2.322,2.322,0,0,1,1.036.585,7.216,7.216,0,0,1,.944,1.545,4.569,4.569,0,0,0,1.913,1.779,9.138,9.138,0,0,0,3.491.693c1.913.109,5.613.593,5.538,3.341,0,1.57-1.67,1.971-2.965,2.03-2.038.1-3.6-.793-5.4-1.528-2.33-.944-5.145-1.128-6.924-3.107A3.591,3.591,0,0,1,21.3,207.6Z" transform="translate(-2.653 -32.197)" fill="#fff"/>
      <rect id="Rectangle_2278" data-name="Rectangle 2278" width="18.551" height="22.409" transform="translate(51.775 227.251) rotate(180)" fill="#769ddb"/>
      <path id="Path_26185" data-name="Path 26185" d="M32.576,262.889h7.191a1.295,1.295,0,0,0,0-2.581H33.862v-8.478h5.212a1.295,1.295,0,0,0,0-2.581h-6.5a1.286,1.286,0,0,0-1.286,1.295V261.57a1.295,1.295,0,0,0,1.286,1.32Z" transform="translate(-5.156 -41.067)" fill="#769ddb"/>
      <rect id="Rectangle_2279" data-name="Rectangle 2279" width="2.456" height="39.69" transform="translate(126.433 232.005) rotate(-95.13)" fill="#f9f162"/>
      <path id="Path_26186" data-name="Path 26186" d="M202.725,278.3l-4.059,1.6-.226-2.447Z" transform="translate(-32.697 -51.426)" fill="#001b47"/>
      <rect id="Rectangle_2280" data-name="Rectangle 2280" width="1.746" height="2.514" transform="translate(123.908 231.901) rotate(-95.12)" fill="#001b47"/>
      <rect id="Rectangle_2281" data-name="Rectangle 2281" width="2.456" height="0.535" transform="translate(130.744 231.646) rotate(-95.12)" fill="#001b47"/>
      <path id="Path_26187" data-name="Path 26187" d="M121.849,116.687a1.3,1.3,0,1,1,1.393.4A1.295,1.295,0,0,1,121.849,116.687Z" transform="translate(-20.026 -18.872)" fill="#14161a"/>
      <path id="Path_26188" data-name="Path 26188" d="M117.867,114.079c-.309.175-.626,0-.668-.451-.117-1.261,1.37-3.341,4.577-3.909a.739.739,0,0,1,.217,1.462,5.579,5.579,0,0,0-3.708,2.188A3.34,3.34,0,0,1,117.867,114.079Z" transform="translate(-19.31 -18.076)" fill="#6d6b6b"/>
      <path id="Path_26189" data-name="Path 26189" d="M135.068,104.012c.3-.192.259-.568-.092-.835-1.052-.7-3.592-.359-5.588,2.205a.762.762,0,0,0,1.2.935,5.579,5.579,0,0,1,3.675-2.247,3.123,3.123,0,0,0,.8-.058Z" transform="translate(-21.293 -16.946)" fill="#6d6b6b"/>
      <path id="Path_26190" data-name="Path 26190" d="M124.834,114.286a.835.835,0,0,0,.234-.334c.134-.4-.259-.251-.651-.384-1.2-.409-3.232-.752-4.519,2.238-.159.384-.384.61,0,.777a.76.76,0,0,0,1-.4,2.565,2.565,0,0,1,3.2-1.754.752.752,0,0,0,.735-.142Z" transform="translate(-19.721 -18.667)" fill="#14161a"/>
      <path id="Path_26191" data-name="Path 26191" d="M136.834,107.286a.835.835,0,0,0,.234-.334c.134-.4-.259-.251-.651-.384-1.2-.409-3.232-.752-4.519,2.238-.159.384-.384.61,0,.777a.76.76,0,0,0,1-.4,2.565,2.565,0,0,1,3.2-1.754.752.752,0,0,0,.735-.142Z" transform="translate(-21.698 -17.514)" fill="#14161a"/>
      <path id="Path_26192" data-name="Path 26192" d="M133.485,109.742a1.3,1.3,0,1,1,1.761.078A1.3,1.3,0,0,1,133.485,109.742Z" transform="translate(-21.932 -17.714)" fill="#14161a"/>
      <path id="Path_26193" data-name="Path 26193" d="M140,149.56s7.141,22.184,8.987,31.6c3.917,20.046,6.949,40.308,6.949,40.308" transform="translate(-23.068 -24.641)" fill="#fff" stroke="#769ddb" stroke-width="0.5"/>
    </g>
  </g>
</svg>
