<svg xmlns="http://www.w3.org/2000/svg" width="300px" height="125.068px" viewBox="0 0 406 225.068"><defs><style>.a{fill:#ebf3ff;}.b{fill:#fff;}.c{fill:#a1bfed;}.d{fill:#c1cff6;}.e{fill:#769ddb;}.f{fill:#5f82bb;}.g{fill:#bacdeb;}.h{fill:#14161a;}.i{fill:#bcd5eb;}.j{fill:#b8b8b8;}.k{fill:#48d597;}.l{fill:#f9f162;}.m{fill:#588adb;}.n{fill:#4a72b5;}.o{fill:#00348a;}.p{fill:#f3bf86;}.q{fill:#454c59;}.r{fill:#45c98f;}.s{fill:#bf8b52;}.t{fill:#946635;}.u{fill:#0047bb;}.v{fill:#001b47;}.w{fill:#9cb3bf;}.x{fill:none;}</style></defs><g transform="translate(-0.003 0.002)"><path class="a" d="M401.812,113.9c-1.25-15.8-11.7-48.7-16.16-63.913s-14.586-29.458-29.27-35.418c-13.634-5.529-29.139-3.347-43.345.483s-28.195,9.246-42.89,9.973c-29,1.455-54.266-15.569-82.081-20.346-30.274-5.2-48.031-7.075-78.005-.332-15.852,3.565-40.476,21.342-51.3,34.287C46.834,52.894,21.3,59.984,10.5,82.529c-29.663,61.931,11.232,120.122,28.045,120.25,24.54.185,90.119-14.551,114.66-14.405l230.921,12.077S407.244,182.52,401.812,113.9Z"/><path class="b" d="M1807.688,334.174a13.4,13.4,0,0,1-4.409,1.23l-3.387.544c-2.542.409-5.225.81-7.677.135-1.778-.49-3.29-1.518-5.11-1.892s-3.74-.061-5.614-.146a5.189,5.189,0,0,1-1.567-.262,2.126,2.126,0,0,1-1.5-2.273,2.55,2.55,0,0,1,2.328-1.769c1.506-.13,3.326.7,4.377-.173a4.676,4.676,0,0,0,.752-1.112,4.618,4.618,0,0,1,2.487-1.5c3.121-.959,5.721-.281,8.847.073a33.031,33.031,0,0,0,6.159-.291c2.676-.178,5.4.135,6.354,2.466A4.108,4.108,0,0,1,1807.688,334.174Z" transform="translate(-1519.621 -278.961)"/><rect class="c" width="29.228" height="143.44" transform="translate(83.4 64.701)"/><rect class="d" width="29.228" height="104.546" transform="translate(311.818 103.595)"/><rect class="d" width="29.228" height="121.892" transform="translate(295.473 86.249)"/><rect class="d" width="29.228" height="104.546" transform="translate(256.051 103.595)"/><rect class="c" width="29.228" height="104.546" transform="translate(110.865 103.595)"/><rect class="d" width="34.305" height="121.892" transform="translate(201.738 86.249)"/><path class="c" d="M1620.788,444.67l-29.228,11.79V588.11h29.228Z" transform="translate(-1359.973 -379.969)"/><path class="c" d="M967.527,444.67,938.3,456.461V588.11h29.227Z" transform="translate(-801.768 -379.969)"/><rect class="c" width="40.825" height="128.402" transform="translate(340.439 79.739)"/><rect class="c" width="27.38" height="20.902" transform="translate(347.162 70.773)"/><rect class="c" width="14.378" height="18.562" transform="translate(353.664 56.185)"/><rect class="c" width="2.527" height="20.723" transform="translate(359.588 38.949)"/><rect class="c" width="40.825" height="128.402" transform="translate(164.482 79.739)"/><rect class="c" width="27.38" height="20.902" transform="translate(171.203 70.773)"/><rect class="c" width="14.378" height="18.562" transform="translate(177.703 56.185)"/><rect class="c" width="2.527" height="20.723" transform="translate(183.631 38.949)"/><rect class="d" width="4.057" height="8.952" transform="translate(336.988 112.687)"/><rect class="d" width="4.057" height="8.952" transform="translate(247.436 77.278)"/><rect class="d" width="4.057" height="8.952" transform="translate(230.945 107.225)"/><rect class="d" width="4.057" height="8.952" transform="translate(358.822 59.672)"/><rect class="d" width="4.057" height="8.952" transform="translate(361.646 101.221)"/><rect class="d" width="4.057" height="8.952" transform="translate(293.029 86.249)"/><path class="e" d="M307.658,296.3c7.766,1.148,14.763,5.164,15.559,13.9.754,8.269-5.554,16.453-2.434,24.643,3.2,8.406,12.343,11.281,9.007,21.681-1.189,3.7-3.1,7.313-3.006,11.2.2,8.148,8.148,13.122,12.036,19.514,5.013,8.247,3.158,19.61-3.517,26.388-12.691,12.888-34.213,8.259-50.222,7.038-9.3-.71-17.691-5.474-20.017-15.133-2.7-11.22,4.37-16.633,8.792-25.506,4.3-8.633-.994-18.8-1.122-28.447-.146-10.782,8.562-16.7,10.159-26.609,1.164-7.165-2.877-14.551,1.136-21.314,2.124-3.584,6.059-5.8,10.111-6.757A37.021,37.021,0,0,1,307.658,296.3Z" transform="translate(-225.98 -252.88)"/><path class="f" d="M526.553,589.277a.547.547,0,0,1-.547-.549V446.613a.549.549,0,1,1,1.1,0V588.736A.549.549,0,0,1,526.553,589.277Z" transform="translate(-449.465 -381.137)"/><path class="f" d="M435.049,685.021a.549.549,0,0,1-.5-.32l-15.6-34.129a.549.549,0,0,1,1-.455l15.6,34.129a.547.547,0,0,1-.5.776Z" transform="translate(-357.959 -555.277)"/><path class="f" d="M526.551,925.031a.554.554,0,0,1-.313-.1.549.549,0,0,1-.137-.764L541.458,902.1a.548.548,0,1,1,.9.626L527,924.8A.549.549,0,0,1,526.551,925.031Z" transform="translate(-449.463 -770.639)"/><path class="b" d="M1607.669,296.72a2.865,2.865,0,0,1-1.078,3.729,4.2,4.2,0,0,1-4.111-.052,7.59,7.59,0,0,0-2.037-1.019c-1.829-.384-4.074,1.844-5.782.551-1.48-1.12-.778-2.139.351-3.008C1598.39,294.325,1603.936,297.808,1607.669,296.72Z" transform="translate(-1361.904 -252.878)"/><path class="b" d="M798.174,409.58a2.866,2.866,0,0,1-1.077,3.729,4.2,4.2,0,0,1-4.112-.052,7.634,7.634,0,0,0-2.037-1.019c-1.829-.386-4.074,1.844-5.784.551-1.478-1.12-.778-2.14.352-3.008C788.9,407.185,794.442,410.668,798.174,409.58Z" transform="translate(-670.197 -349.315)"/><path class="b" d="M2520.925,322.32a2.866,2.866,0,0,1-1.077,3.729,4.2,4.2,0,0,1-4.111-.052,7.68,7.68,0,0,0-2.037-1.019c-1.829-.386-4.074,1.844-5.782.551-1.48-1.122-.78-2.14.351-3.008C2511.646,319.925,2517.193,323.408,2520.925,322.32Z" transform="translate(-2142.275 -274.753)"/><path class="b" d="M2174.564,268.474a2.865,2.865,0,0,1-1.078,3.729,4.2,4.2,0,0,1-4.111-.052,7.9,7.9,0,0,0-2.03-1.026c-1.83-.384-4.074,1.844-5.784.551-1.48-1.12-.778-2.139.352-3.008C2165.285,266.079,2170.83,269.563,2174.564,268.474Z" transform="translate(-1846.316 -228.739)"/><path class="b" d="M741.348,210.59a18.139,18.139,0,0,1-5.951,1.66l-4.575.736c-3.431.55-7.054,1.093-10.363.18-2.4-.662-4.442-2.047-6.9-2.555s-5.048-.083-7.579-.191a6.991,6.991,0,0,1-2.117-.354A2.87,2.87,0,0,1,701.839,207a3.44,3.44,0,0,1,3.139-2.388c2.037-.176,4.49.952,5.909-.233a6.42,6.42,0,0,0,1.019-1.5,6.257,6.257,0,0,1,3.355-2.037c4.22-1.3,7.725-.38,11.945.1,2.862.323,5.477-.2,8.316-.39,3.611-.24,7.3.183,8.578,3.331A5.534,5.534,0,0,1,741.348,210.59Z" transform="translate(-599.676 -171.051)"/><path class="b" d="M1190.678,176.725a6.708,6.708,0,0,1-2.2.615l-1.7.272a9.185,9.185,0,0,1-3.837.067c-.889-.244-1.646-.758-2.557-.946a17.829,17.829,0,0,0-2.807-.071,2.6,2.6,0,0,1-.783-.131,1.062,1.062,0,0,1-.749-1.136,1.272,1.272,0,0,1,1.164-.883c.754-.065,1.663.352,2.183-.087a2.341,2.341,0,0,0,.377-.556,2.3,2.3,0,0,1,1.243-.752c1.56-.48,2.861-.146,4.423.036a16.648,16.648,0,0,0,3.08-.146c1.337-.089,2.7.068,3.176,1.234A2.041,2.041,0,0,1,1190.678,176.725Z" transform="translate(-1004.906 -147.717)"/><path class="g" d="M570.585,1305.482c0-10.456-84.613-18.932-188.988-18.932s-188.987,8.476-188.987,18.932,84.613,18.933,188.987,18.933S570.585,1315.94,570.585,1305.482Z" transform="translate(-164.582 -1099.35)"/><path class="e" d="M2161.856,408.408c6.645.982,12.633,4.418,13.314,11.891.645,7.075-4.752,14.076-2.084,21.084,2.741,7.192,10.563,9.654,7.712,18.551-1.019,3.168-2.656,6.257-2.573,9.583.173,6.971,6.974,11.227,10.3,16.7,4.29,7.057,2.7,16.78-3.008,22.58-10.859,11.027-29.275,7.066-42.971,6.021-7.958-.607-15.133-4.684-17.128-12.95-2.311-9.6,3.74-14.225,7.52-21.816,3.678-7.387-.85-16.087-.959-24.339-.122-9.227,7.325-14.29,8.693-22.768.988-6.13-2.462-12.445.97-18.236,1.819-3.066,5.184-4.96,8.652-5.782A31.692,31.692,0,0,1,2161.856,408.408Z" transform="translate(-1815.713 -348.722)"/><path class="f" d="M241.263,1078.481s23.364,1.3,28.228-.4,9.886-10.373,6.165-14.551c-3.047-3.418-6.957-.384-9.133-3.287s5.216-12.873-10.673-11.216-7.421,13.916-11.536,12.434C236.256,1058.56,225.155,1071.881,241.263,1078.481Z" transform="translate(-199.115 -896.229)"/><path class="c" d="M1956.555,473.343h-28.374l-.291-105.017a14.551,14.551,0,0,1,14.551-14.551V343.88a14.551,14.551,0,0,1,14.551,14.551C1956.991,360.168,1956.555,473.343,1956.555,473.343Z" transform="translate(-1647.365 -293.845)"/><path class="b" d="M606.4,597.3h-.489A75.73,75.73,0,0,0,545.1,627.9l-14.01,18.877a16.3,16.3,0,0,1-5.892,4.909l-24.984,12.285A12.905,12.905,0,0,0,493,675.55v20.285a5.985,5.985,0,0,0,5.986,5.985H610.212Z" transform="translate(-421.262 -510.391)"/><path class="h" d="M941.084,814.923H907.593v-.189c.234-17.07-12.857-22.878-12.99-22.935l-.114-.048V760.364l.029-.045,8.138-12.709a31.421,31.421,0,0,1,26.578-14.541H943.7v51.748l-2.619,1.667Zm-33.113-.38H940.71V786.284l2.619-1.667V733.446h-14.1a31.054,31.054,0,0,0-26.264,14.369l-8.106,12.659v31.034C896.165,792.122,908.1,798.232,907.971,814.543Z" transform="translate(-764.332 -626.404)"/><path class="i" d="M958.768,806.148H979.62a11.7,11.7,0,0,0,11.7-11.7V780.239a4.109,4.109,0,0,0-4.108-4.109H982.24a28.035,28.035,0,0,0-20.894,9.342l-3.792,4.237-.78,14.34a2,2,0,0,0,1.993,2.1Z" transform="translate(-817.551 -663.199)"/><rect class="h" width="4.415" height="15.828" rx="1.17" transform="translate(130.639 126.976)"/><path class="i" d="M740.4,788.308,768.043,757.1H755.568a75.572,75.572,0,0,0-6.19,7.313l-14.012,18.878a16.221,16.221,0,0,1-3.076,3.118Z" transform="translate(-625.734 -646.938)"/><path class="i" d="M513.69,1075.169s1.937-7.968,5.929-10.5,11.373-3.079,11.373-1.631-5.807,6.882-5.807,8.693a9.558,9.558,0,0,0,.728,3.441Z" transform="translate(-438.941 -907.683)"/><path class="h" d="M527.034,1207.192s.5,2.274,1.256,2.274,2.417-4.856,2.226-5.448-4.24-.214-4.335-.095A31.259,31.259,0,0,0,527.034,1207.192Z" transform="translate(-449.609 -1028.551)"/><path class="j" d="M1125.52,1029.122a4.125,4.125,0,1,1,4.084,3.543A3.843,3.843,0,0,1,1125.52,1029.122Z" transform="translate(-961.746 -876.353)"/><rect class="b" width="14.893" height="2.402" rx="0.64" transform="translate(175.424 153.972) rotate(180)"/><rect class="j" width="171.054" height="109.112" rx="3.62" transform="translate(185.033 82.379)"/><rect class="b" width="171.054" height="109.112" rx="3.62" transform="translate(188.578 82.317)"/><rect class="h" width="298.503" height="9.828" transform="translate(68.406 183.33)"/><circle class="h" cx="20.224" cy="20.224" r="20.224" transform="translate(90.707 188.333) rotate(-45)"/><path class="e" d="M714.64,1204.561a15.319,15.319,0,1,1,15.319,15.318A15.319,15.319,0,0,1,714.64,1204.561Zm1.455,0a13.874,13.874,0,1,0-.006,0Z" transform="translate(-610.652 -1016.198)"/><path class="e" d="M787,1266.332a4.794,4.794,0,1,1,1.4,3.395A4.8,4.8,0,0,1,787,1266.332Z" transform="translate(-672.482 -1077.97)"/><path class="e" d="M804.869,1208.216,803.2,1197.79h4.866l-1.729,10.426Z" transform="translate(-686.326 -1023.504)"/><path class="e" d="M748.062,1222.05l-8.092-6.782,3.676-3.188,5.525,9.007Z" transform="translate(-632.297 -1035.715)"/><path class="e" d="M729.326,1281.786l-10.516.925.343-4.851,10.277,2.461Z" transform="translate(-614.215 -1091.924)"/><path class="e" d="M837.749,1222.05l8.092-6.782-3.674-3.188-5.526,9.007Z" transform="translate(-714.9 -1035.715)"/><path class="e" d="M804.869,1322.36l-1.669,10.426h4.866l-1.729-10.426Z" transform="translate(-686.326 -1129.948)"/><path class="e" d="M748.062,1311l-8.092,6.782,3.676,3.217,5.525-9.007Z" transform="translate(-632.297 -1120.241)"/><path class="e" d="M837.749,1311.2l8.092,6.782-3.674,3.188-5.526-9.007Z" transform="translate(-714.9 -1120.412)"/><path class="e" d="M848.145,1281.786l10.516.925-.343-4.851-10.277,2.461Z" transform="translate(-724.641 -1091.924)"/><circle class="h" cx="20.224" cy="20.224" r="20.224" transform="translate(258.227 188.332) rotate(-45)"/><path class="e" d="M1865.92,1204.561a15.319,15.319,0,1,1,15.318,15.318A15.319,15.319,0,0,1,1865.92,1204.561Zm1.448,0a13.871,13.871,0,1,0,13.871-13.871A13.871,13.871,0,0,0,1867.368,1204.561Z" transform="translate(-1594.412 -1016.198)"/><path class="e" d="M1938.24,1266.332a4.794,4.794,0,1,1,1.4,3.4A4.8,4.8,0,0,1,1938.24,1266.332Z" transform="translate(-1656.209 -1077.97)"/><path class="e" d="M1956.147,1208.216l-1.667-10.426h4.864l-1.729,10.426Z" transform="translate(-1670.086 -1023.504)"/><path class="e" d="M1899.332,1222.05l-8.092-6.782,3.676-3.188,5.526,9.007Z" transform="translate(-1616.047 -1035.715)"/><path class="e" d="M1880.6,1281.786l-10.516.925.343-4.851,10.277,2.461Z" transform="translate(-1597.967 -1091.924)"/><path class="e" d="M1989.019,1222.05l8.092-6.782-3.674-3.188-5.526,9.007Z" transform="translate(-1698.652 -1035.715)"/><path class="e" d="M1956.147,1322.36l-1.667,10.426h4.864l-1.729-10.426Z" transform="translate(-1670.086 -1129.948)"/><path class="e" d="M1899.332,1311l-8.092,6.782,3.676,3.217,5.526-9.007Z" transform="translate(-1616.047 -1120.241)"/><path class="e" d="M1989.019,1311.2l8.092,6.782-3.674,3.188-5.526-9.007Z" transform="translate(-1698.652 -1120.412)"/><path class="e" d="M1999.423,1281.786l10.516.925-.343-4.851-10.276,2.461Z" transform="translate(-1708.4 -1091.924)"/><path class="k" d="M1362.6,790.407h66.976V787.12H1358.56Z" transform="translate(-1160.877 -672.59)"/><path class="l" d="M1362.6,854.347h66.976V851.06H1358.56Z" transform="translate(-1160.877 -727.227)"/><rect class="m" width="38.286" height="24.17" transform="translate(216.307 188.306)"/><rect class="n" width="38.286" height="24.17" transform="translate(230.557 188.306)"/><rect class="b" width="8.629" height="2.938" transform="translate(233.316 207.422)"/><path class="o" d="M1486.55,1389.276l6.529-12.086,7.721,12.086Z" transform="translate(-1270.242 -1176.801)"/><path class="e" d="M1486.55,1294.14l6.529,16.047,7.721-16.047Z" transform="translate(-1270.242 -1105.835)"/><rect class="m" width="46.123" height="29.119" transform="translate(193.248 159.47)"/><rect class="n" width="46.124" height="29.119" transform="translate(210.414 159.47)"/><rect class="b" width="10.395" height="3.54" transform="translate(213.74 182.5)"/><path class="o" d="M1328.08,1210.579l7.866-14.559,9.3,14.559Z" transform="translate(-1134.832 -1021.992)"/><path class="e" d="M1328.08,1095.97l7.866,19.332,9.3-19.332Z" transform="translate(-1134.832 -936.5)"/><rect class="m" width="37.969" height="23.969" transform="translate(174.74 188.588)"/><rect class="n" width="37.969" height="23.969" transform="translate(188.871 188.588)"/><rect class="b" width="8.557" height="2.915" transform="translate(191.607 207.546)"/><path class="o" d="M1200.88,1390.434l6.475-11.984,7.655,11.984Z" transform="translate(-1026.141 -1177.877)"/><path class="e" d="M1200.88,1296.08l6.475,15.914,7.655-15.914Z" transform="translate(-1026.141 -1107.492)"/><rect class="m" width="30.522" height="19.268" transform="translate(214.51 140.2)"/><rect class="c" width="30.522" height="19.268" transform="translate(225.869 140.2)"/><rect class="b" width="6.88" height="2.343" transform="translate(228.07 155.441)"/><path class="o" d="M1474.2,1039.394l5.2-9.634,6.155,9.634Z" transform="translate(-1259.689 -879.924)"/><path class="e" d="M1474.2,963.54l5.2,12.793,6.155-12.793Z" transform="translate(-1259.689 -823.34)"/><path class="p" d="M2118.569,880.89l-4.569,7.8s6.855,3.4,7.012,3.088,4.656-7.492,4.656-7.492Z" transform="translate(-1806.395 -752.716)"/><path class="b" d="M2165.84,1403.544l1.55-6.634h3.578l-1.19,7.264S2166.719,1404.543,2165.84,1403.544Z" transform="translate(-1850.691 -1193.65)"/><path class="q" d="M2129.619,1442.646a8.527,8.527,0,0,1-4.017-.146s-6.848,2.111-6.839,4.114c0,0-.358.56,2.667.748s7.712.547,7.857.49S2130.863,1447.2,2129.619,1442.646Z" transform="translate(-1810.453 -1232.607)"/><path class="b" d="M2129.4,1469.708c-.135.055-4.894-.316-7.961-.514s-2.705-.757-2.705-.757a1.009,1.009,0,0,1,.087-.4l11.2.451C2129.887,1469.459,2129.472,1469.677,2129.4,1469.708Z" transform="translate(-1810.426 -1254.431)"/><path class="b" d="M2300.49,1401.375l.209-6.808,3.507-.707.268,7.355S2301.548,1402.182,2300.49,1401.375Z" transform="translate(-1965.748 -1191.045)"/><path class="q" d="M2269.717,1441a8.529,8.529,0,0,1-3.967.65s-6.3,3.422-5.9,5.384c0,0-.24.618,2.765.205s7.674-.988,7.793-1.069S2271.83,1445.22,2269.717,1441Z" transform="translate(-1931.01 -1231.325)"/><path class="b" d="M2270.557,1468.867c-.121.08-4.859.656-7.9,1.068s-2.8-.207-2.8-.207a1.04,1.04,0,0,1,0-.407l11.076-1.771C2270.989,1468.525,2270.624,1468.82,2270.557,1468.867Z" transform="translate(-1931.006 -1254.012)"/><path class="o" d="M2177.491,1043.335l2.466,55.875h-7.077s-6.484-33.321-7.949-43.652l-3.3,43.4h-8.73s1.1-56.457,1.687-56.623S2177.491,1043.335,2177.491,1043.335Z" transform="translate(-1839.635 -890.655)"/><path class="r" d="M2160.553,789.584s9.878,3.837,10.539,7.13-2.09,12.637-2.09,12.637l-3.085-1.641L2164.6,830.19s-24.019-1.921-24.019-2.338,2.165-21.26,2.165-21.26l-5.582-3.51s7.162-12.45,11.35-13.11a70.285,70.285,0,0,1,7.933-.771Z" transform="translate(-1826.184 -674.367)"/><path class="p" d="M2278.977,888.7l-7.081.49s.992,6.656-.728,8.522c-2.556,2.773-9.289,4.76-9.289,4.76l.412,2.93s12.794-1.235,14.884-5.654S2278.977,888.7,2278.977,888.7Z" transform="translate(-1932.756 -759.39)"/><path class="s" d="M2240.468,718.752s-.367-.741-.76-.508c-1,.594-.205,1.622.377,1.9Z" transform="translate(-1913.404 -613.697)"/><path class="p" d="M2244.372,674.336h0a1.864,1.864,0,0,1,.022-.217,5.62,5.62,0,1,1,10.378,3.623c-.682,1.238-1.278,2.3-1.877,3.162a8.039,8.039,0,0,0-1.393,4.9l.057,1.369c-3.656,1.39-5-.5-5-.5l.249-2.474a.623.623,0,0,0-.506-.674h0C2242.085,682.707,2244.131,676.249,2244.372,674.336Z" transform="translate(-1917.191 -571.832)"/><path class="h" d="M2254.538,716.51a.524.524,0,1,1,.454.582A.524.524,0,0,1,2254.538,716.51Z" transform="translate(-1926.48 -611.86)"/><path class="h" d="M2254.5,706.963c.146.025.234-.1.2-.26-.119-.5-.959-1.091-2.251-.883a.307.307,0,1,0,.1.605,2.244,2.244,0,0,1,1.7.343A1.356,1.356,0,0,0,2254.5,706.963Z" transform="translate(-1924.459 -603.083)"/><path class="h" d="M2285.544,715.755c.146.038.241-.077.215-.244-.08-.5-.873-1.164-2.175-1.058a.307.307,0,1,0,.049.611,2.241,2.241,0,0,1,1.666.477A1.363,1.363,0,0,0,2285.544,715.755Z" transform="translate(-1951.047 -610.487)"/><path class="h" d="M2253.238,714.891a.3.3,0,0,0,.161-.023c.154-.068,0-.146-.062-.291a1.316,1.316,0,0,0-1.892-.728c-.16.055-.291.051-.231.211a.307.307,0,0,0,.39.188,1.032,1.032,0,0,1,1.391.47A.306.306,0,0,0,2253.238,714.891Z" transform="translate(-1923.629 -609.863)"/><path class="h" d="M2284.538,725.51a.524.524,0,1,1,.454.582A.523.523,0,0,1,2284.538,725.51Z" transform="translate(-1952.113 -619.551)"/><path class="h" d="M2283.238,723.891a.3.3,0,0,0,.161-.023c.154-.068,0-.145-.062-.291a1.316,1.316,0,0,0-1.892-.728c-.16.055-.291.051-.231.211a.307.307,0,0,0,.39.188,1.032,1.032,0,0,1,1.391.47A.306.306,0,0,0,2283.238,723.891Z" transform="translate(-1949.264 -617.553)"/><path class="h" d="M2310.947,705.824l-1.99,3.579-.987-.33.007-4.943Z" transform="translate(-1972.141 -601.676)"/><path class="p" d="M2304.9,734.683a.836.836,0,0,1,.484-.339,1.406,1.406,0,0,1,1.512.336c.6.771-1.01,2.411-2.257,1.337C2304.641,736.017,2304.3,735.579,2304.9,734.683Z" transform="translate(-1969.215 -627.426)"/><path class="t" d="M2263.14,725.9a1.046,1.046,0,0,0,.95.092.092.092,0,0,0,.045-.121.093.093,0,0,0-.121-.045.851.851,0,0,1-.991-.272c-.071-.083-.106-.146-.1-.192s.089-.132.205-.231a2.669,2.669,0,0,0,.963-1.547.091.091,0,1,0-.176-.045,2.5,2.5,0,0,1-.9,1.455c-.146.121-.259.217-.271.354a.456.456,0,0,0,.146.326A1.209,1.209,0,0,0,2263.14,725.9Z" transform="translate(-1933.492 -618.202)"/><path class="b" d="M2259.021,743.782a7.671,7.671,0,0,1-3.411-.8s.127,1.669,1.34,1.956S2259.021,743.782,2259.021,743.782Z" transform="translate(-1927.398 -634.873)"/><path class="h" d="M2247.787,687.988s-.873.461-1.5,3.82c0,0,.455-3.754.927-4.116S2247.787,687.988,2247.787,687.988Z" transform="translate(-1919.436 -587.536)"/><path class="u" d="M2254.55,666.833s2.037-4.394,7.505-2.485,3.245,7.072,3.245,7.072-3.616-2.046-4.377-2.362S2254.55,666.833,2254.55,666.833Z" transform="translate(-1926.492 -567.271)"/><path class="u" d="M2242.978,680.476s-5.657-4.844-9.948-4.292,1.056,2.7,1.056,2.7S2234.9,677.306,2242.978,680.476Z" transform="translate(-1906.68 -577.758)"/><path class="v" d="M2087.292,914.147l-12.93,2.484a.134.134,0,0,0-.106.157l3.448,17.947a.134.134,0,0,0,.157.106l12.927-2.484a.134.134,0,0,0,.086-.057.136.136,0,0,0,.021-.1l-3.447-17.947a.134.134,0,0,0-.156-.106Z" transform="translate(-1772.432 -781.132)"/><rect class="w" width="5.433" height="1.155" transform="translate(305.807 133.884) rotate(-10.87)"/><path class="w" d="M2115.592,910.961a.9.9,0,1,0-.713,1.052.9.9,0,0,0,.713-1.052Z" transform="translate(-1806.23 -777.787)"/><path class="p" d="M2073.2,977.009s2.989-1.625,2.814-2.073-2.776.281-2.74.255,2.619-1.234,2.593-1.909-2.979.3-2.979.3,2.506-.957,2.464-1.417-2.541.192-2.59.022,2.139-.57,2.113-1.145-3.137-.13-3.4.466a.83.83,0,0,0,.275.985s-.332,1.043.106,1.455c0,0,.086,1.494.745,1.585C2072.6,975.532,2072.139,976.757,2073.2,977.009Z" transform="translate(-1769.998 -829.521)"/><rect class="h" width="0.786" height="10.335" transform="translate(326.424 138.729) rotate(18.27)"/><path class="h" d="M2221.078,1022.031l-.038-1.141.748.247Z" transform="translate(-1897.859 -872.345)"/><path class="p" d="M2225.543,975.739a25.1,25.1,0,0,0-3.457-1.349l-.333,1.01s-1.31.38-1.932.534c-.358.089-.918.214-.895.68s1.077.306,1.077.306-1.374.317-1.321.754c.092.765,1.995.372,1.995.372a6.726,6.726,0,0,0-1.9.479c-.165.237-.231.767.776.758a5.423,5.423,0,0,0,1.455-.154,21.674,21.674,0,0,0-2.044.765c-.2.151-.355.5,1.135.332a15.52,15.52,0,0,0,6.053-2.148Z" transform="translate(-1895.842 -832.61)"/><path class="p" d="M2230.757,970.6s-.928-.55-1.027-.374.437,1.107.739,1.243Z" transform="translate(-1905.273 -829.022)"/><path class="r" d="M2324.673,830.38a9.156,9.156,0,0,1,2.5,3.744c.812,2.35,0,9.937,0,9.937h-9.261l.4-8.215Z" transform="translate(-1980.633 -709.556)"/><line class="x" y1="29.102" transform="translate(288.672 40.538)"/><path class="u" d="M1359.89,655.41h2.781v8.615a2,2,0,0,0,2.271,2.271,1.982,1.982,0,0,0,2.271-2.234V655.41h2.778v8.8c0,2.91-1.877,4.618-5.049,4.618s-5.049-1.708-5.049-4.618Z" transform="translate(-1162.014 -560.045)"/><path class="u" d="M1446.45,699.53h5.18v2.421h-5.18Z" transform="translate(-1235.979 -597.745)"/><path class="u" d="M1498.56,655.41h3.079l3.678,8.841h.038l3.7-8.841h3.079v13.139h-2.722v-8.106h-.036l-3.435,8.108h-1.2l-3.415-8.108h-.038v8.108h-2.722Z" transform="translate(-1280.506 -560.045)"/><path class="u" d="M1614.14,653.48c3.492,0,5.82,2.722,5.82,6.85s-2.328,6.852-5.82,6.852-5.8-2.722-5.8-6.852S1610.63,653.48,1614.14,653.48Zm0,2.535c-1.877,0-3.022,1.614-3.022,4.316s1.145,4.317,3.022,4.317,3.041-1.614,3.041-4.317S1616.017,656.015,1614.14,656.015Z" transform="translate(-1374.313 -558.396)"/><path class="u" d="M1690.13,655.41h2.928l3.191,9.254h.038l3.172-9.254h2.947l-4.748,13.139h-2.8Z" transform="translate(-1444.201 -560.045)"/><path class="u" d="M1786.49,655.41h8.466v2.559h-5.688v2.666h5.18v2.44h-5.18V666h5.707v2.552h-8.484Z" transform="translate(-1526.539 -560.045)"/></g></svg>