<svg xmlns="http://www.w3.org/2000/svg" width="318.271" height="275.663" viewBox="0 0 318.271 275.663">
  <g id="Layer_2" data-name="Layer 2" transform="translate(0.001 0.023)">
    <g id="_ÎÓÈ_1" data-name="—ÎÓÈ_1">
      <path id="Path_25427" data-name="Path 25427" d="M309.63,198.9C324.18,149.17,306,92.67,282.81,48.58,271.43,27,257.8,8.38,233.37,2.41c-16.22-4-32.21-2-48.64-1.41-18.65.63-37.33.62-55.95,2-26.49,2-53.27,7-76.7,19.85S8.77,57.31,2.32,83.82c-7.26,29.84,4.08,56.68,12.51,84.61,7.26,24.07,4.74,49.39,15.33,72.11,2.33,5,5.13,9.87,9.17,13.52,4.3,3.89,9.76,6.15,15.28,7.7,12.88,3.6,26.43,3.61,39.78,3.6l114.91-.12c24.08,0,58.14,8.18,74.32-14.68C295.53,233.74,304.4,216.79,309.63,198.9Z" fill="#ebf3ff"/>
      <path id="Path_25428" data-name="Path 25428" d="M70,229.36h.08a.37.37,0,0,0,.21-.51c-24.48-51.4-45.29-87.28-58.6-101-.29-.3-.51-.53-.59-.64a.45.45,0,0,0-.59-.1.36.36,0,0,0-.1.54,7.34,7.34,0,0,0,.66.72C24.27,142,45,177.81,69.47,229.13a.44.44,0,0,0,.53.23Z" fill="#448a44"/>
      <path id="Path_25429" data-name="Path 25429" d="M3.4,126c1.56,1.54,8.71,3.86,9.18,3.45S11,122.24,9.4,120.7a4.37,4.37,0,0,0-5.84-.15A3.62,3.62,0,0,0,3.4,126Z" fill="#448a44"/>
      <path id="Path_25430" data-name="Path 25430" d="M17.09,129.59c-.39,2.13,2,9,2.62,9.08S25,133,25.41,130.9A4,4,0,0,0,22,126.39a4.2,4.2,0,0,0-4.91,3.2Z" fill="#448a44"/>
      <path id="Path_25431" data-name="Path 25431" d="M10.7,142.77c2.33-.13,9-3.79,9-4.41s-7.13-3.53-9.46-3.4a4,4,0,0,0-4,4.14,4.12,4.12,0,0,0,4.46,3.67Z" fill="#448a44"/>
      <path id="Path_25432" data-name="Path 25432" d="M41.61,162.7c-1.06,3.49,1.52,15.31,2.6,15.59s10-8.52,11-12a6.52,6.52,0,0,0-4.88-8.11,7.18,7.18,0,0,0-8.72,4.52Z" fill="#448a44"/>
      <path id="Path_25433" data-name="Path 25433" d="M28.38,183.62c3.91.18,15.75-4.82,15.81-5.85s-11.2-7.08-15.11-7.26a6.91,6.91,0,0,0-7.43,6.23,6.78,6.78,0,0,0,6.73,6.88Z" fill="#448a44"/>
      <path id="Path_25434" data-name="Path 25434" d="M53.5,174.89c-2.29,3.9-2.64,18.65-1.44,19.26s14.38-7.68,16.67-11.58a7.74,7.74,0,0,0-3.48-10.9,9,9,0,0,0-11.75,3.22Z" fill="#448a44"/>
      <path id="Path_25435" data-name="Path 25435" d="M34.27,202.49c4.78-.24,18.51-7.7,18.44-9s-14.6-7.31-19.38-7.07-8.45,4-8.19,8.45S29.49,202.73,34.27,202.49Z" fill="#448a44"/>
      <path id="Path_25436" data-name="Path 25436" d="M62.08,191.58c-2.29,3.9-2.63,18.65-1.43,19.26S75,203.16,77.31,199.26a7.75,7.75,0,0,0-3.47-10.9,9,9,0,0,0-11.76,3.22Z" fill="#448a44"/>
      <path id="Path_25437" data-name="Path 25437" d="M42.85,219.19c4.78-.24,18.51-7.71,18.44-9s-14.6-7.31-19.38-7.07-8.44,4-8.19,8.46S38.07,219.42,42.85,219.19Z" fill="#448a44"/>
      <path id="Path_25438" data-name="Path 25438" d="M78.71,211.88c-3.72,2.8-10.1,16.32-9.24,17.3s16.45-2,20.17-4.82a7.65,7.65,0,0,0,1.26-11.31,9.14,9.14,0,0,0-12.19-1.17Z" fill="#448a44"/>
      <path id="Path_25439" data-name="Path 25439" d="M50.68,235.77c4.78.32,19.41-5.5,19.51-6.76s-13.49-8.95-18.27-9.27-8.93,3-9.27,7.44S45.91,235.45,50.68,235.77Z" fill="#448a44"/>
      <path id="Path_25440" data-name="Path 25440" d="M24.67,139.91c-.4,2.16,2,9.12,2.65,9.22s5.4-5.73,5.8-7.89a4,4,0,0,0-3.51-4.59,4.27,4.27,0,0,0-4.94,3.26Z" fill="#448a44"/>
      <path id="Path_25441" data-name="Path 25441" d="M18.5,153.39c2.36-.12,9.14-3.85,9.1-4.47s-7.24-3.59-9.61-3.46a4.09,4.09,0,0,0-4,4.2,4.18,4.18,0,0,0,4.51,3.73Z" fill="#448a44"/>
      <path id="Path_25442" data-name="Path 25442" d="M33,149.34c-.83,3,1.68,13.12,2.61,13.34s8.36-7.52,9.2-10.55a5.62,5.62,0,0,0-4.4-6.86A6.13,6.13,0,0,0,33,149.34Z" fill="#448a44"/>
      <path id="Path_25443" data-name="Path 25443" d="M22.73,168.69c3.36-.19,13-5.48,12.93-6.37S25.37,157.23,22,157.41a5.83,5.83,0,0,0-5.72,6,6,6,0,0,0,6.45,5.28Z" fill="#448a44"/>
      <path id="Path_25444" data-name="Path 25444" d="M236.79,249.78s-40-50.25,63.63-98.94C300.42,150.84,311,261.31,236.79,249.78Z" fill="#4b8f4b"/>
      <path id="Path_25445" data-name="Path 25445" d="M300.54,150.65,233,242.73C226.23,227.36,219.91,188.54,300.54,150.65Z" fill="#58a858"/>
      <path id="Path_25446" data-name="Path 25446" d="M235.86,239.09a.28.28,0,0,1-.15,0,.24.24,0,0,1-.07-.34l64.68-88.2a.28.28,0,0,1,.37-.06.24.24,0,0,1,.07.34L236.08,239a.28.28,0,0,1-.22.09Z" fill="#3b703b"/>
      <path id="Path_25447" data-name="Path 25447" d="M266.77,196.94a.25.25,0,0,1-.06-.49l31.06-7a.26.26,0,0,1,.31.18.24.24,0,0,1-.19.3l-31.05,7Z" fill="#3b703b"/>
      <path id="Path_25448" data-name="Path 25448" d="M252.92,215.83h0a.26.26,0,0,1-.24-.27l3-28.95a.28.28,0,0,1,.29-.22.25.25,0,0,1,.24.27l-3,29A.25.25,0,0,1,252.92,215.83Z" fill="#060633"/>
      <path id="Path_25449" data-name="Path 25449" d="M250.6,247.12s-4-38.45,67.67-33.81C318.27,213.31,286,275.06,250.6,247.12Z" fill="#3b703b"/>
      <path id="Path_25450" data-name="Path 25450" d="M318.27,213.31,250.6,247.12S279.91,278.54,318.27,213.31Z" fill="#4b8f4b"/>
      <path id="Path_25451" data-name="Path 25451" d="M302.45,229h0l-17.73.67a.24.24,0,0,1-.25-.22.23.23,0,0,1,.23-.23l17.73-.67a.226.226,0,1,1,.02.45Z" fill="#3b703b"/>
      <path id="Path_25452" data-name="Path 25452" d="M281.31,245h-.05l-23.44-1.29a.25.25,0,0,1-.23-.24.24.24,0,0,1,.26-.21l23.44,1.29a.23.23,0,0,1,.22.24.22.22,0,0,1-.2.21Z" fill="#3b703b"/>
      <path id="Path_25453" data-name="Path 25453" d="M89,252.24S116.26,218,45.61,184.78C45.61,184.78,38.43,260.1,89,252.24Z" fill="#4b8f4b"/>
      <path id="Path_25454" data-name="Path 25454" d="M45.53,184.65l46,62.78C96.19,237,100.5,210.48,45.53,184.65Z" fill="#58a858"/>
      <path id="Path_25455" data-name="Path 25455" d="M89.63,245a.27.27,0,0,1-.22-.11l-44.1-60.13a.24.24,0,0,1,.07-.34.28.28,0,0,1,.37.06l44.09,60.13a.22.22,0,0,1-.07.34.24.24,0,0,1-.14.05Z" fill="#3b703b"/>
      <path id="Path_25456" data-name="Path 25456" d="M68.55,216.29h-.06L47.31,211.5a.24.24,0,0,1-.19-.3.27.27,0,0,1,.32-.18l21.17,4.78a.26.26,0,0,1,.2.3.27.27,0,0,1-.26.19Z" fill="#3b703b"/>
      <path id="Path_25457" data-name="Path 25457" d="M78,229.17a.26.26,0,0,1-.26-.22l-2-19.74a.25.25,0,0,1,.24-.27.28.28,0,0,1,.29.22l2,19.74a.26.26,0,0,1-.24.27Z" fill="#3b703b"/>
      <path id="Path_25458" data-name="Path 25458" d="M79.35,249.66S82.88,215.91,20,220C20,220,48.27,274.18,79.35,249.66Z" fill="#3b703b"/>
      <path id="Path_25459" data-name="Path 25459" d="M20,220l59.39,29.67S53.62,277.24,20,220Z" fill="#4b8f4b"/>
      <path id="Path_25460" data-name="Path 25460" d="M33.85,233.72h0l15.56.59a.2.2,0,0,0,.22-.19.19.19,0,0,0-.2-.2l-15.56-.59a.2.2,0,1,0,0,.39Z" fill="#3b703b"/>
      <path id="Path_25461" data-name="Path 25461" d="M52.39,247.82h0L73,246.68a.19.19,0,0,0,.2-.2.21.21,0,0,0-.23-.19l-20.56,1.14a.2.2,0,0,0-.02.39Z" fill="#3b703b"/>
      <ellipse id="Ellipse_185" data-name="Ellipse 185" cx="132.53" cy="16.21" rx="132.53" ry="16.21" transform="translate(25.49 243.22)" fill="#45c98f"/>
      <path id="Path_25462" data-name="Path 25462" d="M74.14,237.91S75.37,250,72.9,251.39c-4.48,2.49-12.73,4.86-12,7s20.48,2.22,21,.27-1.67-7.91.68-19.51Z" fill="#a95b3c"/>
      <path id="Path_25463" data-name="Path 25463" d="M81.69,254.31a17.87,17.87,0,0,1,.2,4.35c-.55,1.95-20.34,1.86-21-.27-.52-1.59,3.85-3.37,8-5.15C69.84,254.89,71.93,257.45,81.69,254.31Z" fill="#00348a"/>
      <path id="Path_25464" data-name="Path 25464" d="M111.26,237.57s3.27,11.72,1.07,13.49c-4,3.21-11.72,7-10.68,8.94s20.56-1.3,20.77-3.31-3-7.51-2.65-19.34Z" fill="#fb9391"/>
      <path id="Path_25465" data-name="Path 25465" d="M121.48,252.44a17.6,17.6,0,0,1,.94,4.25c-.21,2-19.72,5.3-20.77,3.31-.77-1.47,3.23-4,7-6.43C109.91,255,112.41,257.2,121.48,252.44Z" fill="#0b0755"/>
      <path id="Path_25466" data-name="Path 25466" d="M66.58,99.14s-4.16,5.57-7.62,5.57S43.72,90,43.72,90l-2.78,4.46s9.88,21.52,18.88,21.7,15.76-9.87,15.59-10.39-5.89-6.61-5.89-6.61Z" fill="#a95b3c"/>
      <path id="Path_25467" data-name="Path 25467" d="M76.45,130.6a48.53,48.53,0,0,0-7.8,14.13c-2.42,7.62,4,97.91,4,97.91H83.4s5.69-80.41,5.69-81.12c0-2.81,21.15,81.12,21.15,81.12H121s-5.8-98.27-19.27-112l-12.6.78Z" fill="#4a72b5"/>
      <path id="Path_25468" data-name="Path 25468" d="M76.45,127.22v3.38s6.41,6.23,25.24,0v-3.38l-16.54-1Z" fill="#060633"/>
      <path id="Path_25469" data-name="Path 25469" d="M82.85,86.49s-6.67-.25-10.06,2.09C70.37,90.25,65,99.68,65,99.68l6.14,5.22a7.61,7.61,0,0,0,4.25,8.55l1,13.77s10.74,6.24,25.29,0c0,0,2.77-25.8,5.37-23.55a34.51,34.51,0,0,1,4.15,4.24L121,98.3S110.39,87.7,106.89,86A16.94,16.94,0,0,0,92,85.9Z" fill="#f9f162"/>
      <path id="Path_25470" data-name="Path 25470" d="M112.17,107s5.63,6.57,5,8.39S106.56,132.2,105.23,135a7.631,7.631,0,0,0-.94,4.53l5.07,2.47s.26-4,1.36-5.19,17.86-18.45,17.47-23.91-8.08-13.79-8.08-13.79Z" fill="#a95b3c"/>
      <path id="Path_25471" data-name="Path 25471" d="M79.92,65.36s-.73-1.44-1.49-1c-2,1.19-.23,3.26.92,3.79Z" fill="#a95b3c"/>
      <path id="Path_25472" data-name="Path 25472" d="M93,50.39a11,11,0,0,1,7.48,16.4,47.93,47.93,0,0,1-5.33,8.61,11,11,0,0,0-2.79,7.51l.08,2.79c-6.71,2.45-9.34.77-9.34.77l.94-8.16h0c-6.78-1.61-4.42-14.19-4-17.94h0v-.43A11,11,0,0,1,93,50.39Z" fill="#a95b3c"/>
      <path id="Path_25473" data-name="Path 25473" d="M96.84,69.47a1.64,1.64,0,0,1,.94-.67,2.75,2.75,0,0,1,3,.62c1.19,1.49-1.92,4.74-4.38,2.67C96.37,72.09,95.69,71.24,96.84,69.47Z" fill="#a95b3c"/>
      <path id="Path_25474" data-name="Path 25474" d="M81.72,65.67a.961.961,0,1,1,.92,1A1,1,0,0,1,81.72,65.67Z" fill="#14161a"/>
      <path id="Path_25475" data-name="Path 25475" d="M90.6,67.71a1,1,0,1,1,.581.959A1,1,0,0,1,90.6,67.71Z" fill="#14161a"/>
      <path id="Path_25476" data-name="Path 25476" d="M82.68,72.39s1.26-.91,1.75-.76a1.47,1.47,0,0,1,.73.76,1.11,1.11,0,0,1,.91-.57c.6,0,1.83,1.65,1.83,1.65S86.12,76,84.32,75.66s-1.62-3.13-1.62-3.13Z" fill="#80442d"/>
      <path id="Path_25477" data-name="Path 25477" d="M93.6,66.61a.4.4,0,0,0,.34-.67A4.77,4.77,0,0,0,91,64.61a.39.39,0,0,0-.43.36.4.4,0,0,0,.36.43,4,4,0,0,1,2.4,1.08.34.34,0,0,0,.27.13Z" fill="#24170e"/>
      <path id="Path_25478" data-name="Path 25478" d="M84.45,63.79a.45.45,0,0,0,.29-.18.39.39,0,0,0-.12-.55,4.68,4.68,0,0,0-3.14-.61.4.4,0,0,0,.12.79,4,4,0,0,1,2.58.48A.38.38,0,0,0,84.45,63.79Z" fill="#24170e"/>
      <path id="Path_25479" data-name="Path 25479" d="M85.9,70.85a1.71,1.71,0,0,1-1.37-1.68.37.37,0,0,1,.1-.23,4.94,4.94,0,0,0,1.26-3,.34.34,0,0,1,.67,0,5.62,5.62,0,0,1-1.35,3.29c0,.27.24.89,1.32,1a.34.34,0,1,1,0,.67A3.21,3.21,0,0,1,85.9,70.85Z" fill="#80442d"/>
      <path id="Path_25480" data-name="Path 25480" d="M82.68,72.39l5.22,1.08s-2,1.29-3.37,1.07S82.68,72.39,82.68,72.39Z" fill="#fafafc"/>
      <path id="Path_25481" data-name="Path 25481" d="M107.08,132.08s-4.4,6.18-4,7.61,2.33,5.47,2.47,6.18.06,4.53.45,5.13,1.32-4.1,1.32-4.1-.23,4.11.49,4.37,1.35-4.13,1.35-4.13-.37,4.16.33,4.18,1.12-4,1.12-4-.25,3.24.31,3.24,1.8-5.29.71-7.15c-2.58-4.39-1.82-6.75-1.82-6.75Z" fill="#a95b3c"/>
      <path id="Path_25482" data-name="Path 25482" d="M104.25,136.53s-2.19,3.67-2.22,5.07-.43,4.23.17,4.22,1.42-3.93,1.85-4.1.44-1.94.44-1.94Z" fill="#a95b3c"/>
      <path id="Path_25483" data-name="Path 25483" d="M93,111.55c4.87,0,6.9-4.86,6.92-4.91a.18.18,0,1,0-.33-.14s-2,4.69-6.59,4.69a7.25,7.25,0,0,1-6.45-3.41.181.181,0,0,0-.32.17,7.62,7.62,0,0,0,6.77,3.6Z" fill="#060633"/>
      <path id="Path_25484" data-name="Path 25484" d="M71.16,105.08a.18.18,0,0,0,.18-.16,10.29,10.29,0,0,1,2.94-5.65A.195.195,0,0,0,74,99a10.56,10.56,0,0,0-3,5.87.18.18,0,0,0,.16.2Z" fill="#060633"/>
      <path id="Path_25485" data-name="Path 25485" d="M82.16,131.59a3.18,3.18,0,1,1,3.18,3.18A3.18,3.18,0,0,1,82.16,131.59Zm1.44,0a1.74,1.74,0,1,0,1.74-1.73,1.74,1.74,0,0,0-1.74,1.73Z" fill="#bdd1f9"/>
      <path id="Path_25486" data-name="Path 25486" d="M173.93,251.5a1.469,1.469,0,0,1-.36,0,1.5,1.5,0,0,1-1.1-1.82L178.26,226a1.51,1.51,0,0,1,2.93.72l-5.79,23.66a1.51,1.51,0,0,1-1.47,1.12Z" fill="#0b0755"/>
      <path id="Path_25487" data-name="Path 25487" d="M141.35,251.5a1.451,1.451,0,0,1-.35,0,1.51,1.51,0,0,1-1.11-1.82l8.4-34.33a1.51,1.51,0,1,1,2.93.71l-8.4,34.33A1.51,1.51,0,0,1,141.35,251.5Z" fill="#0b0755"/>
      <path id="Path_25488" data-name="Path 25488" d="M267.17,212.74s-2.47,31.73.9,35.1,8.33,6.53,8.78,8.56-14.63-.23-16-2.25-1.12-5.41-2.47-14.86S255,212.74,255,212.74Z" fill="#a95b3c"/>
      <path id="Path_25489" data-name="Path 25489" d="M276.85,256.4c-.31-1.38-2.7-3.28-5.26-5.42-.56,4.33-9.07-.11-12-1.77.29,2.46.57,3.88,1.27,4.94C262.22,256.17,277.3,258.42,276.85,256.4Z" fill="#00348a"/>
      <path id="Path_25490" data-name="Path 25490" d="M249.91,212.74s-2.47,31.73.9,35.1,8.33,6.53,8.78,8.56-14.63-.23-16-2.25-1.12-5.41-2.48-14.86-3.37-26.55-3.37-26.55Z" fill="#a95b3c"/>
      <path id="Path_25491" data-name="Path 25491" d="M259.59,256.4c-.31-1.38-2.7-3.28-5.26-5.42-.56,4.33-9.07-.11-12-1.77.29,2.46.57,3.88,1.27,4.94C245,256.17,260,258.42,259.59,256.4Z" fill="#00348a"/>
      <path id="Path_25492" data-name="Path 25492" d="M251.42,48.49a2,2,0,0,0-1.28,0c-.45.24-.64.77-1,1.17-.91,1.15-2.65,1-4.12.94s-3.32.32-3.64,1.75a2.82,2.82,0,0,1-.23,1,1.31,1.31,0,0,1-.5.4,19.721,19.721,0,0,1-3.84,1.11c-1.27.39-2.58,1.35-2.61,2.69,0,.63.26,1.24.2,1.87-.09,1-1,1.69-1.78,2.27l-4.55,3.26a3.64,3.64,0,0,0-1.47,1.62c-.41,1.28.7,2.57.69,3.92,0,1.65-1.63,2.79-2.35,4.27a4.31,4.31,0,0,0,2,5.59,3.55,3.55,0,0,1,1.34.72c.55.63.35,1.57.32,2.4A5.31,5.31,0,0,0,231,88c2.92,1.94,6.84.55,10.31,1.09,2.11.33,4,1.39,6.08,2a14.14,14.14,0,0,0,7.39.11,2.1,2.1,0,0,0,.77-.32c.54-.43.57-1.23.82-1.87.73-1.93,3.28-2.26,5.34-2.2s4.56,0,5.58-1.82c.54-.94.49-2.15,1.08-3.07.72-1.11,2.17-1.49,3.08-2.45,1.26-1.34,1.18-3.44.75-5.22s-1.11-3.6-.79-5.4a28.519,28.519,0,0,1,1.21-3.43,3.47,3.47,0,0,0-.43-3.44c-1-1.07-2.77-.87-4.1-1.52-3.11-1.52-2.69-6.87-5.88-8.21a9,9,0,0,0-2-.45,14.552,14.552,0,0,1-4.53-2.11,15.1,15.1,0,0,0-4.26-1.2Z" fill="#24170e"/>
      <path id="Path_25493" data-name="Path 25493" d="M222.63,152.59a49.612,49.612,0,0,1,3.79,5.45c.78,1.63,2.75,2.62,2,3.36s-3.35-1.53-3.35-1.53-.09,3.67.06,4.8-.12,3.22-.94,3.39-1.13-5.31-1.13-5.31-.19,4.63-.91,4.95-1.35-5.62-1.35-5.62,0,5-.29,5.35-.86,0-1.29-1.77a17.349,17.349,0,0,1-.44-3.66s-.24,3.49-.41,3.9-.71.84-1.09-1.83-.25-8.55,1-11.47Z" fill="#a95b3c"/>
      <path id="Path_25494" data-name="Path 25494" d="M261.23,69.78s1.24-.85,1.66-.14c1.07,1.84-1.1,2.77-2.28,2.7Z" fill="#874930"/>
      <path id="Path_25495" data-name="Path 25495" d="M263.3,65.62h0l.16-.36a10.23,10.23,0,1,0-19.72-3.41,51.071,51.071,0,0,0,.37,8.1,16,16,0,0,1-1.92,10.56l-.22.39c4.42,5,7.94,3.18,7.94,3.18l1.78-4.45a1.35,1.35,0,0,1,1.45-.83C259.77,79.86,262.06,68.73,263.3,65.62Z" fill="#a95b3c"/>
      <path id="Path_25496" data-name="Path 25496" d="M256.06,74s-.6-.7-1.07-.69a1.33,1.33,0,0,0-.83.5,1,1,0,0,0-.67-.72,12.09,12.09,0,0,0-2.12-.08s.85,2.6,2.54,2.57A2.21,2.21,0,0,0,256,74.11Z" fill="#80442d"/>
      <path id="Path_25497" data-name="Path 25497" d="M252,66.85a1.05,1.05,0,0,0-.58-1.36,1,1,0,0,0-1.35.58,1.05,1.05,0,0,0,.58,1.36,1,1,0,0,0,1.35-.58Z" fill="#14161a"/>
      <path id="Path_25498" data-name="Path 25498" d="M260.11,68.7a1,1,0,0,0-.57-1.35,1.05,1.05,0,0,0-1.36.58,1.039,1.039,0,1,0,1.93.77Z" fill="#14161a"/>
      <path id="Path_25499" data-name="Path 25499" d="M254.35,74.62a5.19,5.19,0,0,1-3.4-1.83.121.121,0,0,1,.19-.15c.1.12,2.38,2.86,4.95,1.22a.13.13,0,0,1,.17,0,.12.12,0,0,1,0,.17,3.28,3.28,0,0,1-1.91.59Z" fill="#14161a"/>
      <path id="Path_25500" data-name="Path 25500" d="M249.64,63.69a.36.36,0,0,1-.18-.25.37.37,0,0,1,.3-.43,4.43,4.43,0,0,1,2.87.63.37.37,0,0,1-.39.62,3.62,3.62,0,0,0-2.35-.52.42.42,0,0,1-.25-.05Z" fill="#24170e"/>
      <path id="Path_25501" data-name="Path 25501" d="M258.7,65.88a.36.36,0,0,1-.18-.25.38.38,0,0,1,.3-.43,4.37,4.37,0,0,1,2.87.63.38.38,0,0,1,.12.51.37.37,0,0,1-.51.11,3.54,3.54,0,0,0-2.35-.52.42.42,0,0,1-.25-.05Z" fill="#24170e"/>
      <path id="Path_25502" data-name="Path 25502" d="M254.66,71.38a1.67,1.67,0,0,1-.49-.41.182.182,0,0,1,.29-.22,1.37,1.37,0,0,0,1.62.38c.2-.08.26-.15.28-.19a.792.792,0,0,0-.12-.47,4.47,4.47,0,0,1-.18-3,.19.19,0,0,1,.22-.14.2.2,0,0,1,.14.23,4,4,0,0,0,.16,2.8,1,1,0,0,1,.12.75.77.77,0,0,1-.49.38A1.74,1.74,0,0,1,254.66,71.38Z" fill="#80442d"/>
      <path id="Path_25503" data-name="Path 25503" d="M246,65.19c.31-.44.42-1,.75-1.42.84-1.08,2.54-.8,3.78-1.36,1.54-.69,2.38-2.68,4.05-2.91.74-.1,1.55.18,2.21-.18a3.76,3.76,0,0,0,1.07-1.2,1.3,1.3,0,0,1,1.38-.61,1.17,1.17,0,0,1,.53.48c.92,1.37.6,3.4,1.78,4.54a10.659,10.659,0,0,0,1.3.89,4.42,4.42,0,0,1,1.86,3.77,2.92,2.92,0,0,0,1.54-3.13,27.441,27.441,0,0,0-1-3.61c-.31-1.21-.35-2.48-.63-3.7a4.64,4.64,0,0,0-1.93-3.09,19.43,19.43,0,0,0-2.94-1,20.538,20.538,0,0,1-2.35-1.37,8.28,8.28,0,0,0-7.61-.27,17,17,0,0,0-2.36,1.49l-5.08,3.64a6.8,6.8,0,0,0-2.13,2.07c-.82,1.49-.42,3.33,0,5a3,3,0,0,0,1.23,2.08C242.79,66,244.84,66.76,246,65.19Z" fill="#24170e"/>
      <path id="Path_25504" data-name="Path 25504" d="M245.56,65.67a1.54,1.54,0,0,0-.47-1,2.56,2.56,0,0,0-2.71-.8c-1.63.7-.52,4.73,2.41,4.12C244.79,68,245.72,67.63,245.56,65.67Z" fill="#a95b3c"/>
      <path id="Path_25505" data-name="Path 25505" d="M268.67,154s2.78,17.33,3.9,36.46.9,25.43,0,26.33-5.17-1.58-7.2,0-3.82,3.15-9.22,2.92-11.48-4.05-17.56-2.47-8.77-.45-8.55-2,3.15-69.54,3.15-69.54l4.05-10.57h21.83l4.73,1.8Z" fill="#8fe3be"/>
      <path id="Path_25506" data-name="Path 25506" d="M238.59,83.34s-.29-6,5-6c0,0,2,6.17,7.32,4.28,0,0,1.82.2,1.94,1.72a38.236,38.236,0,0,1,0,3.88s9.95-.85,15.36,7.71,16.09,30.26.67,32.85c0,0-.79,8.33-.11,11.37s2.14,15.86,1.8,17-21.72,4.27-25.88,1.57-2.48-16.09-5.07-16.54-2.7,15.08-6,15.64-3.49-.67-3.15-4.72,1.13-35.22.45-37.36-3.49,15.3-4.28,23.52-1,15-1,15-5.74.9-9.11-.22c0,0-2.48-22.17,1-38.37S223.51,88.29,238.59,83.34Z" fill="#fff"/>
      <path id="Path_25507" data-name="Path 25507" d="M268.67,127.44a.15.15,0,0,1-.14-.14h0c0-1.41-.49-13.86,0-18.53a.15.15,0,0,1,.06-.09.09.09,0,0,1,.1,0,.14.14,0,0,1,.12.15c-.52,4.91,0,18.37,0,18.51a.17.17,0,0,1,0,.1.19.19,0,0,1-.1,0Zm0-.14Z" fill="#272035"/>
      <path id="Path_25508" data-name="Path 25508" d="M262.27,112.14s1.69-3.89,3.9-5.4a4.59,4.59,0,0,1,3.9-.91l2.39-1.49s1.38,7.57-4.37,11C267.61,115.61,262.27,112.14,262.27,112.14Z" fill="#a95b3c"/>
      <rect id="Rectangle_2140" data-name="Rectangle 2140" width="18.01" height="9.06" rx="0.16" transform="translate(260.445 113.213) rotate(-73.87)" fill="#240d39"/>
      <path id="Path_25509" data-name="Path 25509" d="M273.47,106.33a1.031,1.031,0,0,0,.76-1.76l-1.76-1.89a1.05,1.05,0,0,0-1.48-.05,1,1,0,0,0-.05,1.48L272.7,106A1,1,0,0,0,273.47,106.33Z" fill="#a95b3c"/>
      <path id="Path_25510" data-name="Path 25510" d="M272.8,108.08a1.06,1.06,0,0,0,.76-1.77l-1.76-1.89a1.047,1.047,0,0,0-1.53,1.43l1.76,1.89A1.07,1.07,0,0,0,272.8,108.08Z" fill="#a95b3c"/>
      <path id="Path_25511" data-name="Path 25511" d="M272.09,109.68a1,1,0,0,0,.77-1.76L271.1,106a1.051,1.051,0,1,0-1.54,1.43l1.76,1.89a1.06,1.06,0,0,0,.77.36Z" fill="#a95b3c"/>
      <path id="Path_25512" data-name="Path 25512" d="M271,110.73a.69.69,0,0,0,.45-.16.71.71,0,0,0,.09-1l-1.61-1.9a.71.71,0,0,0-1-.08.7.7,0,0,0-.08,1l1.61,1.9a.67.67,0,0,0,.54.24Z" fill="#a95b3c"/>
      <path id="Path_25513" data-name="Path 25513" d="M243.61,115.71a12.17,12.17,0,0,1-5.59-1.39.26.26,0,0,1-.11-.34.27.27,0,0,1,.35-.12,11.89,11.89,0,0,0,12.47-1,.26.26,0,0,1,.33.4A12.81,12.81,0,0,1,243.61,115.71Z" fill="#272035"/>
      <path id="Path_25514" data-name="Path 25514" d="M154.36,127.62c57.87,0,46.75,59.51,65,58.49s26.7,42-39.62,42S101.11,127.62,154.36,127.62Z" fill="#769ddb"/>
      <path id="Path_25515" data-name="Path 25515" d="M236.22,238.65s-.15,10.23-.07,10.38-.74,1.42-.74,1.42l-3.23.58-2.94-1.35s.26-9.51-.05-11S236.22,238.65,236.22,238.65Z" fill="#a95b3c"/>
      <path id="Path_25516" data-name="Path 25516" d="M229.24,249.68a8.38,8.38,0,0,0,6.89-.85s12.38,4.64,12,8.16c0,0,.52,1.06-4.84.83s-13.7-.47-13.93-.59S228.1,257.67,229.24,249.68Z" fill="#454c59"/>
      <path id="Path_25517" data-name="Path 25517" d="M205,238.65s-.14,10.23-.06,10.38-.75,1.42-.75,1.42l-3.23.58L198,249.68s.26-9.51-.05-11S205,238.65,205,238.65Z" fill="#a95b3c"/>
      <path id="Path_25518" data-name="Path 25518" d="M198,249.68a8.4,8.4,0,0,0,6.9-.85s12.38,4.64,12,8.16c0,0,.53,1.06-4.84.83s-13.7-.47-13.92-.59S196.86,257.67,198,249.68Z" fill="#454c59"/>
      <path id="Path_25519" data-name="Path 25519" d="M175.11,117.35s1-1.16,1.57-.58c1.54,1.49-.33,3-1.49,3.23Z" fill="#874930"/>
      <path id="Path_25520" data-name="Path 25520" d="M176.3,112.16h0a1.128,1.128,0,0,1,.05-.4c.65-5.89-3.64-10.11-9.66-10.37-5-.23-9.67,2.23-10.68,7.14a10.26,10.26,0,0,0,.27,5.24c.69,2.5,1.3,4.65,2,6.45a14.69,14.69,0,0,1,.39,9.33L158,132c5.93,4.05,9.14,1.25,9.14,1.25l.62-4.51a1.14,1.14,0,0,1,1.19-1h0C176.78,128.08,175.91,115.68,176.3,112.16Z" fill="#a95b3c"/>
      <path id="Path_25521" data-name="Path 25521" d="M164.84,116.51a1,1,0,1,0-1.05.85,1,1,0,0,0,1.05-.85Z"/>
      <path id="Path_25522" data-name="Path 25522" d="M173.51,116.21a1,1,0,1,0-1.06.85A1,1,0,0,0,173.51,116.21Z"/>
      <path id="Path_25523" data-name="Path 25523" d="M158.77,117.24a1.5,1.5,0,0,0-.23-1,2.58,2.58,0,0,0-2.45-1.44c-1.77.29-1.66,4.5,1.36,4.61C157.45,119.36,158.45,119.2,158.77,117.24Z" fill="#a95b3c"/>
      <path id="Path_25524" data-name="Path 25524" d="M169.36,121a1.89,1.89,0,0,1-1.73-.25.17.17,0,0,1,0-.23.18.18,0,0,1,.24,0,1.55,1.55,0,0,0,1.88-.06.68.68,0,0,0,.27-.3,1.229,1.229,0,0,0-.27-.5,4.89,4.89,0,0,1-1.06-3.17.18.18,0,0,1,.17-.17.17.17,0,0,1,.17.16,4.55,4.55,0,0,0,1,3c.21.28.37.5.34.75a.88.88,0,0,1-.4.52,2.37,2.37,0,0,1-.61.25Z" fill="#80442d"/>
      <path id="Path_25525" data-name="Path 25525" d="M165.32,122.28s3.84.91,6.43,0c0,0-.94,2.93-3.23,2.92S165.32,122.28,165.32,122.28Z" fill="#fff"/>
      <path id="Path_25526" data-name="Path 25526" d="M223.21,187.83s12,1,15.82,16.23c2.23,8.87,1.36,37.74,1.36,37.74l-15.53,2.44S226.25,212,214.22,202c0,0,2.44,6.55-6.38,43.84H196.32l-3.85-38.19s-27.12.9-35.25-5.88-9-14.89-9-14.89l38.34-5.83Z" fill="#00348a"/>
      <path id="Path_25527" data-name="Path 25527" d="M154.35,136s.76-5.81,2-5.5,11.91,2.24,13,2,0,4.91,0,4.91,12,1.09,15.06,6.22,10,24.57,12.58,26.23a89.237,89.237,0,0,1,7.62,6.27l-20.84,11.72L164,186.91s-14.28,8.55-25.43,1.89-9.19-41.62,1.36-47.8S154.35,136,154.35,136Z" fill="#001b47"/>
      <path id="Path_25528" data-name="Path 25528" d="M189.43,182.5h-.06c-6-2.62-9.23-28.57-9.37-29.67a.16.16,0,0,1,.14-.17.15.15,0,0,1,.16.13c0,.27,3.34,26.88,9.19,29.44a.15.15,0,0,1,.08.2A.17.17,0,0,1,189.43,182.5Z" fill="#0b0755"/>
      <path id="Path_25529" data-name="Path 25529" d="M164,187.06a.16.16,0,0,1-.14-.09.15.15,0,0,1,.08-.2l4.34-1.9-.6-7.58c-1.31-.25-13.53-2.64-19.37-3.32a.15.15,0,0,1-.13-.15c0-.58-.22-14.34.69-16.38a.148.148,0,1,1,.27.12c-.83,1.88-.68,14.68-.66,16.13,6.2.74,19.24,3.3,19.37,3.33a.16.16,0,0,1,.12.13l.62,7.8a.15.15,0,0,1-.09.15L164,187Z" fill="#0b0755"/>
      <path id="Path_25530" data-name="Path 25530" d="M214.22,202.18a.16.16,0,0,1-.15-.13c0-.13-2.77-13.39-24.47-15a.15.15,0,0,1,0-.3c11.46.83,17.57,4.91,20.69,8.19a15.66,15.66,0,0,1,4.06,7,.14.14,0,0,1-.12.17Z" fill="#0b0755"/>
      <path id="Path_25531" data-name="Path 25531" d="M171.87,178.23h.8c2.47.07,9.87.33,10.73.63,1,.37-2.07,6.82-2.07,6.82s-8.9.49-11.76-1.42S171.87,178.23,171.87,178.23Z" fill="#a95b3c"/>
      <path id="Path_25532" data-name="Path 25532" d="M180.15,185.75s5,2.25,5.4,1.76-3.88-3-3.88-3Z" fill="#a95b3c"/>
      <path id="Path_25533" data-name="Path 25533" d="M181.5,184.16s7.35,3,7.9,2-7.57-3.64-7.57-3.64Z" fill="#a95b3c"/>
      <path id="Path_25534" data-name="Path 25534" d="M182.48,182.38s7.58,2.37,8,1.31-7.86-3-7.86-3Z" fill="#a95b3c"/>
      <path id="Path_25535" data-name="Path 25535" d="M182.86,180.47s7.08,2.31,7.53,1.25-7.34-2.9-7.34-2.9Z" fill="#a95b3c"/>
      <path id="Path_25536" data-name="Path 25536" d="M173.56,178.44l-5.59-.69.52,6.31,2.87.65Z" fill="#a95b3c"/>
      <path id="Path_25537" data-name="Path 25537" d="M236.82,158.9l-40.88-.05-12.87,29.89,40.89.06Z" fill="#001b47"/>
      <rect id="Rectangle_2141" data-name="Rectangle 2141" width="27.37" height="1.81" transform="translate(163.728 186.899) rotate(0.08)" fill="#001b47"/>
      <path id="Path_25538" data-name="Path 25538" d="M212.2,173.38a1.8,1.8,0,1,1,1.81,1.79A1.8,1.8,0,0,1,212.2,173.38Z" fill="#fff"/>
      <path id="Path_25539" data-name="Path 25539" d="M131.6,259.27s11,4.85,13.45,5.48,10.64-.47,6.57-5.48-7.51-2.35-14.86-6.1S131.6,259.27,131.6,259.27Z" fill="#454c59"/>
      <path id="Path_25540" data-name="Path 25540" d="M104,231.54S83.19,227,79.08,238.7,95.23,255.93,99,256.77s12.4,1.56,14.35,2.19,9.23,1.25,10.25,1.72,11.5,2.89,11.5,2.89l7.82-10.71-8.14-6.93-3.47-12.76Z" fill="#001b47"/>
      <path id="Path_25541" data-name="Path 25541" d="M119.68,182.62s16.89-.94,25.11,11,14.54,22.76,3.28,33.08-27,5.17-27,5.17l-20.89,1.29s-21.59-1.53-16.42-21.71S101.53,183.09,119.68,182.62Z" fill="#fff"/>
      <rect id="Rectangle_2142" data-name="Rectangle 2142" width="40.24" height="28.63" rx="0.52" transform="translate(98.99 206.08)" fill="#001b47"/>
      <path id="Path_25542" data-name="Path 25542" d="M108.88,261.78s-10.95,4.85-13.45,5.47-10.64-.47-6.57-5.47,7.51-2.35,14.86-6.1S108.88,261.78,108.88,261.78Z" fill="#454c59"/>
      <path id="Path_25543" data-name="Path 25543" d="M131.29,217.84a.16.16,0,0,1-.1-.05.14.14,0,0,1,0-.19c9-7.93,14.55-7,14.78-7a.137.137,0,1,1-.05.27c-.05,0-5.68-.94-14.55,6.89A.11.11,0,0,1,131.29,217.84Z" fill="#060633"/>
      <path id="Path_25544" data-name="Path 25544" d="M106.54,217.84a.18.18,0,0,1-.1,0c-5.65-5.66-14.28-7.57-14.36-7.59a.14.14,0,0,1-.11-.16.13.13,0,0,1,.16-.11c.09,0,8.79,1.95,14.5,7.66a.13.13,0,0,1,0,.2A.15.15,0,0,1,106.54,217.84Z" fill="#060633"/>
      <path id="Path_25545" data-name="Path 25545" d="M134.23,208a.14.14,0,0,1-.14-.11l-1.41-6.73a.16.16,0,0,1,.11-.17.14.14,0,0,1,.16.11l1.41,6.74a.14.14,0,0,1-.11.16Z" fill="#060633"/>
      <path id="Path_25546" data-name="Path 25546" d="M102.55,209.39h0a.14.14,0,0,1-.13-.15L103,202a.15.15,0,0,1,.15-.13.14.14,0,0,1,.12.15l-.59,7.27a.13.13,0,0,1-.13.1Z" fill="#060633"/>
      <path id="Path_25547" data-name="Path 25547" d="M101.15,172.48s-1.27-.75-1.63,0c-.92,1.88,1.28,2.63,2.43,2.48Z" fill="#874930"/>
      <path id="Path_25548" data-name="Path 25548" d="M127.66,242.51h0c-1-.2-3.5-1-5.69-1.74-1.23-.4-2.28-.75-2.87-.92-1.59-.46-8.29-1.08-8.36-1.09s-12.66-2.51-14.06-2.82a.13.13,0,0,1-.1-.16.14.14,0,0,1,.16-.11c1.39.31,13.91,2.8,14,2.82s6.78.63,8.4,1.1c.59.17,1.65.52,2.87.92,2.08.68,4.67,1.54,5.66,1.73a.14.14,0,0,1,.11.16A.13.13,0,0,1,127.66,242.51Z" fill="#060633"/>
      <path id="Path_25549" data-name="Path 25549" d="M121.32,182.59a31.69,31.69,0,0,1-3.25-13.72c0-1.61-.15-3.42-.31-5.45a10.07,10.07,0,1,0-19.11,4.78l.18.34h0c1.47,3,4.57,13.92,11.13,12.14l.9,4.43a12.54,12.54,0,0,0,10.47-2.53Z" fill="#a95b3c"/>
      <path id="Path_25550" data-name="Path 25550" d="M102,171.41a.93.93,0,1,1,1.24.42.92.92,0,0,1-1.24-.42Z" fill="#14161a"/>
      <path id="Path_25551" data-name="Path 25551" d="M110.46,169a.93.93,0,1,1,1.24.42.92.92,0,0,1-1.24-.42Z" fill="#14161a"/>
      <path id="Path_25552" data-name="Path 25552" d="M117.87,159.74l.53,7.16-1.81.47-4.85-7.41Z" fill="#24170e"/>
      <path id="Path_25553" data-name="Path 25553" d="M116.24,167.3a1.5,1.5,0,0,1,.39-1,2.54,2.54,0,0,1,2.6-1c1.65.57.86,4.61-2.07,4.23C117.16,169.56,116.22,169.23,116.24,167.3Z" fill="#a95b3c"/>
      <path id="Path_25554" data-name="Path 25554" d="M107.63,173.9a2.311,2.311,0,0,1-.61-.09.81.81,0,0,1-.53-.34,1,1,0,0,1,.05-.8,4.45,4.45,0,0,0-.07-3.07.158.158,0,1,1,.3-.1,4.69,4.69,0,0,1,.08,3.26c-.07.26-.13.45-.08.55a.64.64,0,0,0,.34.19,1.53,1.53,0,0,0,1.76-.57.16.16,0,0,1,.22-.05.15.15,0,0,1,0,.22A1.86,1.86,0,0,1,107.63,173.9Z" fill="#80442d"/>
      <path id="Path_25555" data-name="Path 25555" d="M109.53,167.11a.5.5,0,0,1-.43-.25.49.49,0,0,1,.18-.66,4.27,4.27,0,0,1,3.6-.32.48.48,0,0,1,.26.64.5.5,0,0,1-.64.26,3.27,3.27,0,0,0-2.73.26.44.44,0,0,1-.24.07Z" fill="#24170e"/>
      <path id="Path_25556" data-name="Path 25556" d="M100.56,170.34a.5.5,0,0,1-.28-.12.49.49,0,0,1,0-.69,4.58,4.58,0,0,1,2.81-1.53.5.5,0,0,1,.08,1,3.6,3.6,0,0,0-2.16,1.2A.5.5,0,0,1,100.56,170.34Z" fill="#24170e"/>
      <path id="Path_25557" data-name="Path 25557" d="M117.14,157.77a1.77,1.77,0,0,0-.84-2.59,1.761,1.761,0,0,1-.4-.16,1.07,1.07,0,0,1-.31-.51l-.45-1.22a.53.53,0,0,0-.55-.44,3,3,0,0,0-2,.29,4.42,4.42,0,0,0-2.47-.88c-.29,0-.57.09-.85.09-1.1,0-2.13-1-3.17-.64a5.46,5.46,0,0,0-.75.41,11.3,11.3,0,0,1-2.38.72,2.31,2.31,0,0,0-1.76,1.59,1.28,1.28,0,0,1-.13.51.88.88,0,0,1-.41.29,8.64,8.64,0,0,0-2.48,1.2,1.73,1.73,0,0,0-.3,2.44A2.7,2.7,0,0,0,96.5,160a1.76,1.76,0,0,0,0,1.72.77.77,0,0,1,.14.32c0,.22-.21.36-.39.49a2.07,2.07,0,0,0-.46,2.75,2.57,2.57,0,0,1,.35.57,3.579,3.579,0,0,1,0,.58,1.26,1.26,0,0,0,1,1.08A2.44,2.44,0,0,0,99,166.8c0,.25.33.36.58.37a3.43,3.43,0,0,0,3.41-2.59c.89.08,2,0,2.41-.75a2.09,2.09,0,0,0,.18-.55c.15-.64.29-1.28.44-1.92.28-.05.51.22.59.49a4.59,4.59,0,0,0,.21.81c.33.6,1.18.57,1.86.46a3.19,3.19,0,0,0,1.09-.32,1.12,1.12,0,0,0,.62-.9,1.91,1.91,0,0,0,1.87.57,11.61,11.61,0,0,0,4.66-1.67c.54-.32.91-.46,1-1.14A2,2,0,0,0,117.14,157.77Z" fill="#24170e"/>
      <path id="Path_25558" data-name="Path 25558" d="M134.85,230.49s14.24-8.45,21.9.78-5.94,16.43-9.23,19.4a20.14,20.14,0,0,1-11.1,5.47c-4.07.47-5.32.94-10,2.51s-8.6,3-9.07,3.28-8.13,3-8.13,3-7.83-7.82-8-10.16c0,0,7.66-6.82,9.85-8.81s12.67-4.49,14.55-7S134.85,230.49,134.85,230.49Z" fill="#00348a"/>
      <circle id="Ellipse_186" data-name="Ellipse 186" cx="2.55" cy="2.55" r="2.55" transform="translate(116.01 216.91)" fill="#fff"/>
      <path id="Path_25559" data-name="Path 25559" d="M47.28,94.78s-1.7-3.89-3.9-5.4a4.59,4.59,0,0,0-3.9-.91L37.09,87s-1.39,7.57,4.36,11C41.93,98.24,47.28,94.78,47.28,94.78Z" fill="#a95b3c"/>
      <rect id="Rectangle_2143" data-name="Rectangle 2143" width="9.06" height="18.01" rx="0.16" transform="translate(35.381 81.075) rotate(-16.13)" fill="#050521"/>
      <path id="Path_25560" data-name="Path 25560" d="M36.08,89a1,1,0,0,1-.77-1.76l1.77-1.89a1,1,0,0,1,1.48,0,1.05,1.05,0,0,1,0,1.48L36.8,88.72a1.06,1.06,0,0,1-.72.28Z" fill="#a95b3c"/>
      <path id="Path_25561" data-name="Path 25561" d="M36.75,90.71a1,1,0,0,1-.72-.28A1.05,1.05,0,0,1,36,89l1.76-1.89a1.051,1.051,0,1,1,1.54,1.43l-1.77,1.89A1,1,0,0,1,36.75,90.71Z" fill="#a95b3c"/>
      <path id="Path_25562" data-name="Path 25562" d="M37.45,92.31a1.031,1.031,0,0,1-.76-1.76l1.76-1.89A1.054,1.054,0,0,1,40,90.09L38.22,92A1.06,1.06,0,0,1,37.45,92.31Z" fill="#a95b3c"/>
      <path id="Path_25563" data-name="Path 25563" d="M38.56,93.37A.7.7,0,0,1,38,92.22l1.61-1.9a.69.69,0,0,1,1-.09.7.7,0,0,1,.08,1l-1.6,1.9a.72.72,0,0,1-.53.24Z" fill="#a95b3c"/>
      <path id="Path_25564" data-name="Path 25564" d="M174.48,76a8.23,8.23,0,1,0-8.23,8.23A8.23,8.23,0,0,0,174.48,76Z" fill="#769ddb"/>
      <path id="Path_25565" data-name="Path 25565" d="M181,67.14a2.73,2.73,0,0,1-1.88-.74c-4.33-4.08-8.8-6.06-13.3-5.89-7,.27-12,5.67-12.06,5.73a2.75,2.75,0,0,1-4.08-3.68c.27-.29,6.52-7.14,15.86-7.53,6.05-.25,11.89,2.23,17.34,7.37A2.74,2.74,0,0,1,181,67.14Z" fill="#769ddb"/>
      <path id="Path_25566" data-name="Path 25566" d="M189.54,55.25a2.72,2.72,0,0,1-1.88-.75c-7.19-6.77-14.68-10-22.25-9.75-11.79.47-20.1,9.5-20.18,9.59a2.744,2.744,0,0,1-4.08-3.67c.39-.44,9.86-10.81,24-11.4,9.13-.38,18,3.4,26.29,11.24a2.74,2.74,0,0,1-1.88,4.74Z" fill="#769ddb"/>
      <path id="Path_25567" data-name="Path 25567" d="M198.54,43.66a2.75,2.75,0,0,1-1.89-.75C186.46,33.31,175.8,28.65,165,29.09c-16.82.68-28.62,13.53-28.74,13.66a2.744,2.744,0,0,1-4.08-3.67c.54-.6,13.39-14.67,32.54-15.47,12.38-.52,24.4,4.63,35.73,15.31a2.74,2.74,0,0,1-1.88,4.74Z" fill="#769ddb"/>
      <path id="Path_25568" data-name="Path 25568" d="M100.5,68.82c.79-2.41,1.17-2.88,1.17-5.8a36,36,0,0,0-.5-5.33c-1.39-5.39-8.8-7.42-13.34-7.11S79,57.9,79.43,63a12.38,12.38,0,0,0,.11,2c.24-.89,1.41-4.38,2.4-5.21.7-.59,1.28,1.15,2.25.72,1.7-.74,1.93-1.29,4.07-1.09a20.309,20.309,0,0,0,2.62.79c1,.17,1.38-1,1.6,0s.21,2.41,1.38,2.41a1.92,1.92,0,0,1,2,1.5c.11.74-1.88,3.43-.88,4.09" fill="#24170e"/>
      <path id="Path_25569" data-name="Path 25569" d="M107,42.33l-.93.19a.48.48,0,0,0-.36.3l-.12.27a.53.53,0,0,1-.49.3h-.69a.5.5,0,0,0-.51.63v.13a.5.5,0,0,1-.45.64h-.41a.5.5,0,0,0-.47.53v.09a.52.52,0,0,1-.33.51,9.43,9.43,0,0,0-1.4.6c-.06.08.14.55.3.9A.49.49,0,0,1,101,48c-.47.27-1.14.7-1,.9a6.93,6.93,0,0,0,1,1,.48.48,0,0,1-.09.75l-.68.45a.47.47,0,0,0-.11.73l.67.67a.47.47,0,0,1-.05.69l-.79.68a.47.47,0,0,0-.13.59l.57,1a.48.48,0,0,1,0,.42l-.65,1.41" fill="none" stroke="#24170e" stroke-linecap="round" stroke-width="1.81"/>
      <path id="Path_25570" data-name="Path 25570" d="M106.46,45.64l-.94-.18a.51.51,0,0,0-.45.14l-.21.2a.5.5,0,0,1-.57.1l-.62-.3a.51.51,0,0,0-.71.4v.13a.51.51,0,0,1-.66.42l-.4-.13a.51.51,0,0,0-.63.32v.09a.52.52,0,0,1-.49.34,9.4,9.4,0,0,0-1.52,0c-.09,0-.09.55-.07.94a.49.49,0,0,1-.44.5c-.52.07-1.31.21-1.29.44A7.22,7.22,0,0,0,98,50.42a.47.47,0,0,1-.37.65l-.8.16a.47.47,0,0,0-.37.64l.36.86a.48.48,0,0,1-.31.63l-1,.32a.48.48,0,0,0-.34.51l.13,1.18a.5.5,0,0,1-.15.4l-1.14,1" fill="none" stroke="#24170e" stroke-linecap="round" stroke-width="1.81"/>
      <path id="Path_25571" data-name="Path 25571" d="M103,40.51l-.94.19a.49.49,0,0,0-.36.29l-.12.27a.51.51,0,0,1-.49.31h-.69a.5.5,0,0,0-.5.64v.12a.5.5,0,0,1-.44.64h-.42a.51.51,0,0,0-.47.54v.09a.51.51,0,0,1-.33.5,9.53,9.53,0,0,0-1.39.61c-.07.07.13.54.29.9a.49.49,0,0,1-.21.62c-.46.26-1.14.69-1,.9a6.93,6.93,0,0,0,1,1,.48.48,0,0,1-.09.75l-.68.44a.48.48,0,0,0-.11.74l.67.66a.47.47,0,0,1,0,.7l-.79.67a.48.48,0,0,0-.13.6l.57,1a.48.48,0,0,1,0,.42l-.65,1.4" fill="none" stroke="#24170e" stroke-linecap="round" stroke-width="1.81"/>
      <path id="Path_25572" data-name="Path 25572" d="M99.41,39.73l-.82.48a.49.49,0,0,0-.24.4v.3a.49.49,0,0,1-.36.44l-.66.19a.5.5,0,0,0-.27.77l.08.11a.51.51,0,0,1-.22.75l-.38.16a.51.51,0,0,0-.27.66v.09a.52.52,0,0,1-.15.58,11.26,11.26,0,0,0-1.12,1,2.744,2.744,0,0,0,.58.76.49.49,0,0,1,0,.66c-.35.4-.85,1-.68,1.18a7.33,7.33,0,0,0,1.28.65.48.48,0,0,1,.16.74l-.5.64A.48.48,0,0,0,96,51l.85.41a.47.47,0,0,1,.18.67l-.53.9a.5.5,0,0,0,.07.61l.89.8a.47.47,0,0,1,.14.39l-.15,1.55" fill="none" stroke="#24170e" stroke-linecap="round" stroke-width="1.81"/>
      <path id="Path_25573" data-name="Path 25573" d="M91.7,40.12l.94.19a.49.49,0,0,1,.36.3l.12.27a.52.52,0,0,0,.49.3h.68a.5.5,0,0,1,.51.63v.13a.51.51,0,0,0,.45.64h.42a.5.5,0,0,1,.47.53v.09a.52.52,0,0,0,.33.51,8.74,8.74,0,0,1,1.39.6c.06.08-.13.55-.29.9a.49.49,0,0,0,.21.62c.46.27,1.14.7,1,.9a6.93,6.93,0,0,1-1,1,.48.48,0,0,0,.09.75l.68.45a.47.47,0,0,1,.1.73l-.67.67a.48.48,0,0,0,.06.7l.79.67a.48.48,0,0,1,.13.59l-.57,1a.45.45,0,0,0,0,.42L99,55.2" fill="none" stroke="#24170e" stroke-linecap="round" stroke-width="1.81"/>
      <path id="Path_25574" data-name="Path 25574" d="M96.14,39.83a.5.5,0,0,1,.25.39v.3a.5.5,0,0,0,.36.45l.66.19a.51.51,0,0,1,.27.77l-.08.1a.51.51,0,0,0,.22.75l.38.17a.5.5,0,0,1,.27.65v.09a.51.51,0,0,0,.14.58,9.411,9.411,0,0,1,1.13,1,2.907,2.907,0,0,1-.58.75.49.49,0,0,0,0,.66c.35.4.85,1,.68,1.19a7.14,7.14,0,0,1-1.29.65.48.48,0,0,0-.16.73l.5.64a.49.49,0,0,1-.14.74l-.85.4a.48.48,0,0,0-.18.68l.53.89a.48.48,0,0,1-.08.61l-.88.8a.46.46,0,0,0-.14.4L97.29,56" fill="none" stroke="#24170e" stroke-linecap="round" stroke-width="1.81"/>
      <path id="Path_25575" data-name="Path 25575" d="M87.49,43l.93.19a.56.56,0,0,1,.37.3l.12.27a.5.5,0,0,0,.48.31h.69a.51.51,0,0,1,.51.64v.12a.5.5,0,0,0,.45.64h.41a.5.5,0,0,1,.47.53v.1a.49.49,0,0,0,.32.5,11.5,11.5,0,0,1,1.4.6c.06.08-.14.55-.3.9a.5.5,0,0,0,.22.63c.46.26,1.13.69,1,.9a6.9,6.9,0,0,1-1,1,.48.48,0,0,0,.1.75l.68.44a.48.48,0,0,1,.1.74l-.67.66a.48.48,0,0,0,0,.7l.8.67a.48.48,0,0,1,.12.6l-.57,1a.48.48,0,0,0,0,.42l.65,1.4" fill="none" stroke="#24170e" stroke-linecap="round" stroke-width="1.81"/>
      <path id="Path_25576" data-name="Path 25576" d="M90.1,41.07l.82.49a.52.52,0,0,1,.25.39v.3a.52.52,0,0,0,.36.45l.66.19a.5.5,0,0,1,.27.77l-.08.1a.51.51,0,0,0,.22.75l.39.17a.5.5,0,0,1,.26.66v.08a.49.49,0,0,0,.14.58,9.939,9.939,0,0,1,1.12,1,3.04,3.04,0,0,1-.57.75.5.5,0,0,0,0,.66c.35.4.85,1,.68,1.19a7,7,0,0,1-1.28.65.47.47,0,0,0-.16.73l.5.65a.48.48,0,0,1-.15.73l-.85.4a.49.49,0,0,0-.18.68l.53.89a.48.48,0,0,1-.07.61l-.88.8a.46.46,0,0,0-.15.4l.15,1.54" fill="none" stroke="#24170e" stroke-linecap="round" stroke-width="1.81"/>
      <path id="Path_25577" data-name="Path 25577" d="M85.27,45.11l.94.19a.5.5,0,0,1,.36.29l.12.28a.52.52,0,0,0,.49.3h.69a.5.5,0,0,1,.5.64v.13a.5.5,0,0,0,.45.63h.42a.52.52,0,0,1,.47.54v.09a.51.51,0,0,0,.33.5,9.529,9.529,0,0,1,1.39.61c.06.07-.13.54-.29.9a.49.49,0,0,0,.21.62c.46.26,1.14.69,1,.9a6.929,6.929,0,0,1-1,1,.48.48,0,0,0,.09.75l.68.44a.48.48,0,0,1,.1.74l-.67.66a.48.48,0,0,0,.06.7l.79.67a.5.5,0,0,1,.13.6l-.57,1a.45.45,0,0,0,0,.42l.65,1.41" fill="none" stroke="#24170e" stroke-linecap="round" stroke-width="1.81"/>
      <path id="Path_25578" data-name="Path 25578" d="M84.35,48.69l.92-.27a.49.49,0,0,1,.46.09l.23.18a.53.53,0,0,0,.58,0l.58-.36a.5.5,0,0,1,.75.32v.13a.51.51,0,0,0,.7.35L89,49a.49.49,0,0,1,.66.25v.08a.5.5,0,0,0,.53.29,10,10,0,0,1,1.51-.13c.09,0,.14.55.17.93a.47.47,0,0,0,.48.45c.53,0,1.33.08,1.33.31a7.64,7.64,0,0,1-.39,1.38.48.48,0,0,0,.43.62l.81.06a.48.48,0,0,1,.44.61l-.28.9a.48.48,0,0,0,.38.59l1,.21a.49.49,0,0,1,.39.47v1.19a.47.47,0,0,0,.19.38l1.24.93" fill="none" stroke="#24170e" stroke-linecap="round" stroke-width="1.81"/>
      <path id="Path_25579" data-name="Path 25579" d="M88.89,44.33l.82.48a.51.51,0,0,1,.25.4v.3a.48.48,0,0,0,.36.44l.66.19a.51.51,0,0,1,.27.77L91.2,47a.51.51,0,0,0,.22.75l.38.16a.51.51,0,0,1,.27.66v.09a.51.51,0,0,0,.14.58,9.41,9.41,0,0,1,1.13,1,2.907,2.907,0,0,1-.58.75.49.49,0,0,0,0,.66c.35.4.85,1,.68,1.19a8,8,0,0,1-1.29.64.49.49,0,0,0-.16.74l.5.64a.48.48,0,0,1-.14.73L91.5,56a.48.48,0,0,0-.18.68l.53.89a.48.48,0,0,1-.08.61l-.88.8a.45.45,0,0,0-.14.4L90.86,61" fill="none" stroke="#24170e" stroke-linecap="round" stroke-width="1.81"/>
      <path id="Path_25580" data-name="Path 25580" d="M104,42.76l-.94-.18a.51.51,0,0,0-.45.14l-.21.2a.5.5,0,0,1-.57.1l-.62-.29a.5.5,0,0,0-.71.39v.14a.51.51,0,0,1-.66.41l-.4-.13a.51.51,0,0,0-.63.32v.09a.5.5,0,0,1-.49.34,10.761,10.761,0,0,0-1.52,0c-.09,0-.09.56-.07,1a.49.49,0,0,1-.44.49c-.52.07-1.31.21-1.29.44a7,7,0,0,0,.54,1.34.48.48,0,0,1-.37.66l-.8.15a.47.47,0,0,0-.37.64l.36.87a.47.47,0,0,1-.31.62l-1,.32a.49.49,0,0,0-.34.51l.13,1.19a.48.48,0,0,1-.15.39l-1.14,1" fill="none" stroke="#24170e" stroke-linecap="round" stroke-width="1.81"/>
      <path id="Path_25581" data-name="Path 25581" d="M108.81,47.55l-.93-.18a.51.51,0,0,0-.45.14l-.22.2a.49.49,0,0,1-.56.1l-.63-.3a.5.5,0,0,0-.71.39V48a.51.51,0,0,1-.66.41l-.4-.13a.5.5,0,0,0-.63.31v.09a.5.5,0,0,1-.5.34,9.439,9.439,0,0,0-1.52,0,2.39,2.39,0,0,0-.07.94.49.49,0,0,1-.44.49c-.52.07-1.31.21-1.29.44a7.769,7.769,0,0,0,.53,1.34.47.47,0,0,1-.37.65l-.8.15a.48.48,0,0,0-.38.64l.37.87a.48.48,0,0,1-.32.63l-1,.31a.5.5,0,0,0-.35.51l.13,1.18a.47.47,0,0,1-.15.4l-1.14,1" fill="none" stroke="#24170e" stroke-linecap="round" stroke-width="1.81"/>
      <path id="Path_25582" data-name="Path 25582" d="M108.8,50l-.79-.52a.52.52,0,0,0-.47,0l-.28.11a.5.5,0,0,1-.56-.13l-.46-.51a.5.5,0,0,0-.81.1l-.06.11a.5.5,0,0,1-.77.14l-.31-.27a.5.5,0,0,0-.71.05l-.06.07a.52.52,0,0,1-.59.12,9.87,9.87,0,0,0-1.42-.55c-.09,0-.28.48-.42.85a.49.49,0,0,1-.59.29c-.51-.14-1.3-.31-1.36-.09a6.44,6.44,0,0,0,0,1.44.48.48,0,0,1-.59.47l-.8-.17a.48.48,0,0,0-.59.45v.94a.48.48,0,0,1-.53.46l-1-.08a.48.48,0,0,0-.51.33l-.33,1.15a.46.46,0,0,1-.29.3l-1.5.48" fill="none" stroke="#24170e" stroke-linecap="round" stroke-width="1.81"/>
      <path id="Path_25583" data-name="Path 25583" d="M108.32,53l-.63-.71a.51.51,0,0,0-.44-.16h-.3a.5.5,0,0,1-.5-.27l-.32-.61a.5.5,0,0,0-.8-.12l-.09.1a.51.51,0,0,1-.78-.06l-.24-.35a.49.49,0,0,0-.69-.13h-.08a.51.51,0,0,1-.6,0,9.41,9.41,0,0,0-1.23-.9c-.09,0-.4.39-.62.71a.5.5,0,0,1-.65.13c-.46-.27-1.17-.63-1.3-.43a7.6,7.6,0,0,0-.38,1.38A.48.48,0,0,1,98,52l-.73-.37a.48.48,0,0,0-.69.29l-.23.91a.48.48,0,0,1-.63.31l-1-.35a.48.48,0,0,0-.58.19l-.62,1a.44.44,0,0,1-.36.22l-1.54.15" fill="none" stroke="#24170e" stroke-linecap="round" stroke-width="1.81"/>
      <path id="Path_25584" data-name="Path 25584" d="M108.62,56.9a.48.48,0,0,0-.37-.28h-.3a.51.51,0,0,1-.41-.4l-.13-.68a.51.51,0,0,0-.75-.33l-.11.07a.51.51,0,0,1-.73-.28l-.13-.4a.5.5,0,0,0-.63-.32h-.09a.53.53,0,0,1-.57-.2,10.069,10.069,0,0,0-.92-1.2,3.047,3.047,0,0,0-.8.5.49.49,0,0,1-.66,0c-.37-.38-1-.93-1.13-.78a7.781,7.781,0,0,0-.75,1.23.48.48,0,0,1-.75.09l-.59-.55a.48.48,0,0,0-.74.08l-.48.81a.48.48,0,0,1-.69.12l-.85-.6a.48.48,0,0,0-.61,0l-.88.81a.44.44,0,0,1-.4.11l-1.52-.28" fill="none" stroke="#24170e" stroke-linecap="round" stroke-width="1.81"/>
      <path id="Path_25585" data-name="Path 25585" d="M108.2,61.14l-.41-.85a.52.52,0,0,0-.38-.29h-.29a.48.48,0,0,1-.41-.39l-.14-.68a.5.5,0,0,0-.74-.33l-.11.06a.5.5,0,0,1-.73-.28l-.13-.39a.52.52,0,0,0-.63-.33h-.09a.51.51,0,0,1-.57-.19,8.3,8.3,0,0,0-.93-1.2,3.219,3.219,0,0,0-.8.5.48.48,0,0,1-.65,0c-.37-.38-1-.93-1.13-.78a7.33,7.33,0,0,0-.75,1.22.48.48,0,0,1-.75.1l-.6-.55a.48.48,0,0,0-.74.08l-.47.81a.49.49,0,0,1-.7.12l-.84-.61a.49.49,0,0,0-.61,0l-.88.81a.46.46,0,0,1-.41.11l-1.52-.29" fill="none" stroke="#24170e" stroke-linecap="round" stroke-width="1.81"/>
      <path id="Path_25586" data-name="Path 25586" d="M105.68,64l-.41-.86a.55.55,0,0,0-.38-.28h-.29a.5.5,0,0,1-.42-.39l-.13-.68a.51.51,0,0,0-.74-.34l-.11.07a.51.51,0,0,1-.73-.28l-.13-.39a.53.53,0,0,0-.64-.33h-.08a.51.51,0,0,1-.57-.19,9.09,9.09,0,0,0-.93-1.2,3.047,3.047,0,0,0-.8.5.49.49,0,0,1-.66,0c-.36-.39-1-.93-1.12-.78A6.71,6.71,0,0,0,96.79,60a.48.48,0,0,1-.75.1l-.6-.55a.47.47,0,0,0-.74.08l-.48.81a.47.47,0,0,1-.69.12l-.84-.61a.49.49,0,0,0-.61,0l-.88.81a.47.47,0,0,1-.41.11l-1.52-.29" fill="none" stroke="#24170e" stroke-linecap="round" stroke-width="1.81"/>
      <circle id="Ellipse_187" data-name="Ellipse 187" cx="8.87" cy="8.87" r="8.87" transform="translate(86.86 41.92)" fill="#24170e"/>
      <circle id="Ellipse_188" data-name="Ellipse 188" cx="1.95" cy="1.95" r="1.95" transform="translate(100.45 54.82)" fill="#24170e"/>
      <circle id="Ellipse_189" data-name="Ellipse 189" cx="1.95" cy="1.95" r="1.95" transform="translate(99.99 58.32)" fill="#24170e"/>
      <circle id="Ellipse_190" data-name="Ellipse 190" cx="1.95" cy="1.95" r="1.95" transform="translate(99.76 61.71)" fill="#24170e"/>
      <path id="Path_25587" data-name="Path 25587" d="M100.68,69a1.95,1.95,0,1,0-2-1.94,2,2,0,0,0,2,1.94" fill="#24170e"/>
      <circle id="Ellipse_191" data-name="Ellipse 191" cx="1.72" cy="1.72" r="1.72" transform="translate(86.5 50.58)" fill="#24170e"/>
      <circle id="Ellipse_192" data-name="Ellipse 192" cx="1.72" cy="1.72" r="1.72" transform="translate(86.18 48.05)" fill="#24170e"/>
      <circle id="Ellipse_193" data-name="Ellipse 193" cx="1.72" cy="1.72" r="1.72" transform="translate(86.18 45.46)" fill="#24170e"/>
      <circle id="Ellipse_194" data-name="Ellipse 194" cx="1.72" cy="1.72" r="1.72" transform="translate(87.9 43.45)" fill="#24170e"/>
      <circle id="Ellipse_195" data-name="Ellipse 195" cx="1.72" cy="1.72" r="1.72" transform="translate(89.99 41.72)" fill="#24170e"/>
      <circle id="Ellipse_196" data-name="Ellipse 196" cx="1.72" cy="1.72" r="1.72" transform="translate(93.17 41)" fill="#24170e"/>
      <circle id="Ellipse_197" data-name="Ellipse 197" cx="1.72" cy="1.72" r="1.72" transform="translate(95.76 41)" fill="#24170e"/>
      <circle id="Ellipse_198" data-name="Ellipse 198" cx="1.72" cy="1.72" r="1.72" transform="translate(97.96 42.02)" fill="#24170e"/>
      <circle id="Ellipse_199" data-name="Ellipse 199" cx="1.72" cy="1.72" r="1.72" transform="translate(100.22 43.06)" fill="#24170e"/>
      <circle id="Ellipse_200" data-name="Ellipse 200" cx="1.72" cy="1.72" r="1.72" transform="translate(100.91 53.41)" fill="#24170e"/>
      <circle id="Ellipse_201" data-name="Ellipse 201" cx="1.72" cy="1.72" r="1.72" transform="translate(102.03 50.93)" fill="#24170e"/>
      <circle id="Ellipse_202" data-name="Ellipse 202" cx="1.72" cy="1.72" r="1.72" transform="translate(102.35 48.05)" fill="#24170e"/>
      <circle id="Ellipse_203" data-name="Ellipse 203" cx="1.72" cy="1.72" r="1.72" transform="translate(101.65 45.46)" fill="#24170e"/>
      <path id="Path_25588" data-name="Path 25588" d="M155.68,111.19a10.13,10.13,0,0,1,.15-3.62c.73-3.31,2.24-5.44,6-6.12l3.59-.41c.32,0,6.33-.48,9.14,1.17,1.05.62,2.43,2.12,2.41,3.12a19.051,19.051,0,0,1-.58,5.86c-1.23-5.23-4,.9-10.56-4.44-1.22-1-1.09,1.6-1.53,1.61-3.79-1.22-6.49.75-5.79,7.36a7.3,7.3,0,0,1-2.08-2.27A5,5,0,0,1,155.68,111.19Z" fill="#24170e"/>
      <path id="Path_25589" data-name="Path 25589" d="M158,115.42c-.12-.13-.51-.62-.51-.62l.31-1.06,1.72,1.15a1,1,0,0,1,.45,1l-.57,4.33c2.38,1.47,5.56,5.82,6.59,6,1.3.22,2.49-1,3.2-.58a8,8,0,0,0,2.59.76,7.31,7.31,0,0,0,2.47-1.75s-.85,2.77-1,3.25c-.42,1.13-2.88,3.4-2.88,3.4a1.13,1.13,0,0,1-1,.34l-3.08-.38-1.55-1c-2.16-1.24-7.15-6.13-7.17-6.8C157.47,119.59,159.16,116.75,158,115.42Z" fill="#24170e"/>
      <path id="Path_25590" data-name="Path 25590" d="M174.42,114.37c.22,0,.32-.25.21-.51-.32-.79-1.74-1.47-3.59-.64a.56.56,0,0,0-.28.68.44.44,0,0,0,.6.3,3,3,0,0,1,2.62-.06S174.33,114.38,174.42,114.37Z" fill="#14161a"/>
      <path id="Path_25591" data-name="Path 25591" d="M161.83,115c-.25,0-.38-.23-.28-.51.32-.85,1.89-1.7,4.06-1a.57.57,0,0,1,.36.69.52.52,0,0,1-.66.37,3.72,3.72,0,0,0-3,.18,2.12,2.12,0,0,1-.48.27Z" fill="#14161a"/>
      <path id="Path_25592" data-name="Path 25592" d="M110.83,177.15a6.77,6.77,0,0,0,2.18-2.06.35.35,0,0,0-.07-.4c-.11-.12-.26-.14-.33,0-3.19,4.45-6.54,1.66-6.68,1.54s-.26-.09-.32,0a.36.36,0,0,0,.11.4A4.67,4.67,0,0,0,110.83,177.15Z" fill="#80442d"/>
    </g>
  </g>
</svg>
