<svg xmlns="http://www.w3.org/2000/svg" width="349.998" height="268.003" viewBox="0 0 349.998 268.003">
  <g id="Layer_2" data-name="Layer 2" transform="translate(-0.002 0.003)">
    <g id="Layer_2-2" data-name="Layer 2">
      <path id="Path_26317" data-name="Path 26317" d="M32.11,244.13C31,238.71-44.36,86,39.73,21.57c66.07-50.61,109,4.2,198.09.49s141.85,86.73,94.32,225.28Z" fill="#ebf3ff"/>
      <path id="Path_26318" data-name="Path 26318" d="M347.18,249.41c0-10.29-73.3-18.64-163.73-18.64S19.72,239.12,19.72,249.41,93,268,183.45,268s163.73-8.34,163.73-18.63Z" fill="#3b703b"/>
      <path id="Path_26319" data-name="Path 26319" d="M190.8,228.65s-2,16.9-.31,18.69c.94,1,19.62,1.56,20.22-1s-12.17-4.59-13.14-9.35a31,31,0,0,1,0-10.15l-8.49,1.8Z" fill="#fcd3a3"/>
      <rect id="Rectangle_2312" data-name="Rectangle 2312" width="17.36" height="1.01" transform="translate(188.38 247.34)" fill="#dc7167"/>
      <path id="Path_26320" data-name="Path 26320" d="M205.74,248.35h7.12s.14-7.07-13.29-8.63l-.62,8.63Z" fill="#00348a"/>
      <path id="Path_26321" data-name="Path 26321" d="M181.07,98.51a31,31,0,0,1,7.7,8.63c2.81,5,19,24.66,32.19,27.35l-.2,5.58s-16.76,7.09-31-1.2S173.93,109,173.93,109Z" fill="#fff"/>
      <path id="Path_26322" data-name="Path 26322" d="M133.38,175.14a1,1,0,0,1-1-.78l-6-26a1.025,1.025,0,0,1,2-.45l6,25.95a1,1,0,0,1-.75,1.21.93.93,0,0,1-.23,0Z" fill="#1d1c2e"/>
      <path id="Path_26323" data-name="Path 26323" d="M148.44,102.35H104.19l16.31,47.41h44.25l-16.31-47.41Z" fill="#02bcb2"/>
      <path id="Path_26324" data-name="Path 26324" d="M162.6,248a1.11,1.11,0,0,1-1-1.11L157,179.71H134.23l-9.33,65.8a1,1,0,0,1-1.17,1,1.21,1.21,0,0,1-.82-1.39l9.48-66.8a1.08,1.08,0,0,1,1-1H157.9a1.11,1.11,0,0,1,1,1.11l4.7,68.31a1.15,1.15,0,0,1-.92,1.3Z" fill="#1d1c2e"/>
      <path id="Path_26325" data-name="Path 26325" d="M188.39,174.14h-61v5.98h61v-5.98Z" fill="#02bcb2"/>
      <path id="Path_26326" data-name="Path 26326" d="M158.74,180.84a1.6,1.6,0,0,1-1.57-1.24L151,153.05a1.611,1.611,0,0,1,3.14-.72l6.13,26.54a1.61,1.61,0,0,1-1.21,1.93,1.47,1.47,0,0,1-.36,0Z" fill="#1d1c2e"/>
      <path id="Path_26327" data-name="Path 26327" d="M178.09,228.65s-2,16.9-.32,18.69c.95,1,19.63,1.56,20.23-1s-12.17-4.59-13.15-9.35a31.27,31.27,0,0,1,0-10.15l-8.48,1.8Z" fill="#fcd3a3"/>
      <path id="Path_26328" data-name="Path 26328" d="M151.19,59.41a14.62,14.62,0,0,0-3.05,2.32c-2.44,2.44-2.8,6.21-2.58,9.48a26.82,26.82,0,0,0,.78,5c.48,1.83,1.53,3.6,1.36,5.54a1.08,1.08,0,0,1-.18.59,1.28,1.28,0,0,1-1.18.29,19.19,19.19,0,0,0-7.85.56,5.56,5.56,0,0,0-3.15,2.28,7.83,7.83,0,0,0-.75,2.91c-.37,2.93-1.19,6.29-3.86,7.55a11.37,11.37,0,0,1-3.94.72c-3,.27-6.29,1.36-7.62,4.07a10.22,10.22,0,0,0-.47,5.71c.33,2.68.84,5.46,2.39,7.68s4.42,3.73,7,2.94c1.53-.47,2.78-1.65,4.34-2,2.12-.47,4.23.68,6.38,1,3.51.54,7-1.13,10.11-2.76,2.3-1.18,4.68-2.43,6.27-4.47a18,18,0,0,0,2.34-4.61c2-5.19,4.12-10.76,3-16.22a6.6,6.6,0,0,1-.28-2.6c.34-1.82,2.32-2.75,4-3.53a34.929,34.929,0,0,0,8.29-5.44,3.941,3.941,0,0,0,.79-.89,4.12,4.12,0,0,0,.37-1.14c1.09-5.25.18-11.52-4.47-14.81-5-3.55-12.6-3.26-18-.13Z" fill="#24170e"/>
      <path id="Path_26329" data-name="Path 26329" d="M183,152.81s25.55,12.38,26.76,26-10.43,52.46-10.43,52.46-13.76,2.73-22,0c0,0-1.7-37.36-5.2-42.56s-32.71-9.41-33.45-19.06a42,42,0,0,1,3-18.06Z" fill="#4a72b5"/>
      <path id="Path_26330" data-name="Path 26330" d="M164.08,93.79s11.21,0,17,4.72c4.28,3.5,1.2,39.62.83,40.36s-.05,13.08-.05,13.08l-20.81.4s-32.6,20.65-32.7-22.15c-.06-28.2,15.42-35.2,26.72-35.77s9-.64,9-.64Z" fill="#fff"/>
      <path id="Path_26331" data-name="Path 26331" d="M171.4,75.75s1-1.35,1.7-.75c1.79,1.55-.33,3.37-1.59,3.72l-.11-3Z" fill="#fcd3a3"/>
      <path id="Path_26332" data-name="Path 26332" d="M160.61,58.18a11.39,11.39,0,0,0-10.54,15.51c1.38,4.1,2.53,7.4,4.05,9.82a11.1,11.1,0,0,1,1.5,8.07h0a3.27,3.27,0,0,1-2.1,2.45l-2.07.74s20.49,32.3,19.09-.41l-4-.7a2.12,2.12,0,0,1-1.75-2.19l.17-3.18c7.21-.49,6.94-13.76,7.14-17.68h0v-.44a11.41,11.41,0,0,0-11.49-12Z" fill="#fcd3a3"/>
      <path id="Path_26333" data-name="Path 26333" d="M159.12,69.73a48.185,48.185,0,0,0-4.06,4.39c-1.36,1.61-2.78,3.32-3.17,5.39a14.63,14.63,0,0,1-3.74-5.81,10.631,10.631,0,0,1-.9-3.09,11.79,11.79,0,0,1,.76-4.49,12.56,12.56,0,0,1,2.56-5.26,9.67,9.67,0,0,1,3.31-2,16.07,16.07,0,0,1,9-1,11.56,11.56,0,0,1,7.48,4.81c2.15,3.28,2.19,7.46,2.16,11.38a11.48,11.48,0,0,0-2.29-4.42A9.83,9.83,0,0,0,168,67.14c-1.52-1.06-2-.87-4.62-2.88-.84,2.37-2.43,3.78-4.26,5.47Z" fill="#24170e"/>
      <path id="Path_26334" data-name="Path 26334" d="M169.51,75.76a1.011,1.011,0,1,0-1.15.85,1.011,1.011,0,0,0,1.15-.85Z" fill="#24170e"/>
      <path id="Path_26335" data-name="Path 26335" d="M160.07,76.33a1,1,0,1,0-1.13.83A1,1,0,0,0,160.07,76.33Z" fill="#24170e"/>
      <path id="Path_26336" data-name="Path 26336" d="M167,82.84s-.85-.62-1.36-.48a1.49,1.49,0,0,0-.78.76,1.15,1.15,0,0,0-.93-.62,14.07,14.07,0,0,0-2.35.47s1.61,2.63,3.46,2.16a2.49,2.49,0,0,0,1.93-2.21v-.08Z" fill="#cd6868"/>
      <path id="Path_26337" data-name="Path 26337" d="M165.24,83.92A5.85,5.85,0,0,1,161,82.79a.13.13,0,0,1,0-.19.14.14,0,0,1,.2,0c.13.1,3.36,2.52,5.75,0a.15.15,0,0,1,.2,0,.14.14,0,0,1,0,.2,3.67,3.67,0,0,1-1.91,1.1Z" fill="#24170e"/>
      <path id="Path_26338" data-name="Path 26338" d="M157.16,75a.42.42,0,0,1-.19-.76,5.06,5.06,0,0,1,3.26-.65.42.42,0,0,1,.35.47.44.44,0,0,1-.48.35,4.1,4.1,0,0,0-2.67.52.38.38,0,0,1-.27.07Z" fill="#24170e"/>
      <path id="Path_26339" data-name="Path 26339" d="M167.79,73.94a.44.44,0,0,1-.24-.26.41.41,0,0,1,.27-.52,4.93,4.93,0,0,1,3.3.27.42.42,0,0,1,.21.55.41.41,0,0,1-.55.2,4.13,4.13,0,0,0-2.71-.23.44.44,0,0,1-.28,0Z" fill="#24170e"/>
      <path id="Path_26340" data-name="Path 26340" d="M164.35,80.34A1.75,1.75,0,0,0,166,78.86a.36.36,0,0,0-.06-.25,5.09,5.09,0,0,1-.78-3.24.352.352,0,0,0-.7-.08,5.85,5.85,0,0,0,.82,3.6c-.08.27-.4.87-1.51.76a.35.35,0,0,0-.07.69,3.2,3.2,0,0,0,.62,0Z" fill="#deb07c"/>
      <path id="Path_26341" data-name="Path 26341" d="M189.47,232.5h0a.1.1,0,0,1-.08-.12c.08-.41,7.95-41.77,6.23-51.52S179.1,162.37,179,162.28a.092.092,0,1,1,.13-.13c.15.09,15,8.9,16.74,18.72s-6.14,51.17-6.22,51.59a.1.1,0,0,1-.1.08Z" fill="#0e0e35"/>
      <path id="Path_26342" data-name="Path 26342" d="M158.8,73a2.94,2.94,0,1,0,2.137.746A2.95,2.95,0,0,0,158.8,73Zm.33,6.3a3.36,3.36,0,1,1,3.18-3.53A3.36,3.36,0,0,1,159.13,79.3Z" fill="#1d1c2e"/>
      <path id="Path_26343" data-name="Path 26343" d="M169,72.45a3,3,0,1,0,3.1,2.79A3,3,0,0,0,169,72.45Zm.33,6.3a3.35,3.35,0,1,1,2.318-1.107A3.35,3.35,0,0,1,169.33,78.75Z" fill="#1d1c2e"/>
      <path id="Path_26344" data-name="Path 26344" d="M162.23,76.17l-.22-.33c2.57-1.74,4.16-.2,4.18-.19l-.29.29C165.85,75.88,164.52,74.63,162.23,76.17Z" fill="#1d1c2e"/>
      <path id="Path_26345" data-name="Path 26345" d="M155.81,76.56l-3.08-.18.03-.4,3.07.18-.02.4Z" fill="#1d1c2e"/>
      <path id="Path_26346" data-name="Path 26346" d="M164.46,163.83c-4.47.3-7.67-3.83-5.48-7.21a4.21,4.21,0,0,1,4-1.87,28.35,28.35,0,0,1,17.49,7.06l-1.51,3.68s-5.52-2.25-14.48-1.66Z" fill="#fcd3a3"/>
      <path id="Path_26347" data-name="Path 26347" d="M178.7,165.41s4.25,2.12,5.4,1.34,3.12-6.09,1.65-6.38-2.95,1.88-4,1.7a4.08,4.08,0,0,1-1.72-.65s-1.35,3.09-1.3,4Z" fill="#fff"/>
      <path id="Path_26348" data-name="Path 26348" d="M169.62,123.71s.53-.88,1-.55c1.17.83.09,2-.66,2.3l-.33-1.75Z" fill="#deb07c"/>
      <path id="Path_26349" data-name="Path 26349" d="M169.72,124.39c0-4.93-3.71-8.93-8.28-8.93s-8.29,4-8.29,8.93,3.71,8.94,8.29,8.94S169.72,129.33,169.72,124.39Z" fill="#fcd3a3"/>
      <path id="Path_26350" data-name="Path 26350" d="M178.69,131.42l-3.2-.84a11.3,11.3,0,0,1-12.61,5.71.13.13,0,0,1-.09-.16h0a3.35,3.35,0,0,1,2.12-2.23,13.591,13.591,0,0,0,2.56-1.23c5-3.08,2.08-10.08,2.08-10.08s-17.58,1-15.28,6.29a10.66,10.66,0,0,0,2.35,3.52,3.34,3.34,0,0,1,.87,3.25h0a1.41,1.41,0,0,1-1.19,1c-10.17,1.2-13.45-4.13-13.45-4.13l-2.45.89c1.19,7.27,8.77,10.83,8.77,10.83a45.4,45.4,0,0,0-1.83,10.1l21.41.78-.49-10.6c9.26-2.67,10.43-13.13,10.43-13.13Z" fill="#fcd3a3"/>
      <path id="Path_26351" data-name="Path 26351" d="M160.15,126.4a.86.86,0,1,0-.81.9.86.86,0,0,0,.81-.9Z" fill="#24170e"/>
      <path id="Path_26352" data-name="Path 26352" d="M168.23,124.85a.87.87,0,0,0-.9-.82.86.86,0,1,0,.9.82Z" fill="#24170e"/>
      <path id="Path_26353" data-name="Path 26353" d="M155.24,127.54a1.33,1.33,0,0,0-.73-.61,2.29,2.29,0,0,0-2.49.35c-1.06,1.16,1.32,4,3.47,2.45,0,0,.6-.66-.25-2.19Z" fill="#fcd3a3"/>
      <path id="Path_26354" data-name="Path 26354" d="M164.21,128.09a.2.2,0,0,1-.2-.2.19.19,0,0,1,.2-.19.56.56,0,0,0,.46-.25.29.29,0,0,0,.05-.26,3.09,3.09,0,0,0-.94-.57.2.2,0,0,1-.09-.26.19.19,0,0,1,.25-.1c.3.14,1,.48,1.14.77a.71.71,0,0,1-.08.64,1,1,0,0,1-.79.42Z" fill="#deb07c"/>
      <path id="Path_26355" data-name="Path 26355" d="M168.61,152.12s4.56,12.66-7.17,14.63-19.69-3.16-13.89-14.63C147.55,152.12,164.77,157.42,168.61,152.12Z" fill="#454c59"/>
      <path id="Path_26356" data-name="Path 26356" d="M156.32,165.84c-4.47.3-7.67-3.83-5.48-7.21a4.21,4.21,0,0,1,4-1.87c7,.22,12.92,3.37,17.63,7.3l-1.85,3.58s-5.32-2.39-14.28-1.8Z" fill="#fcd3a3"/>
      <path id="Path_26357" data-name="Path 26357" d="M169.81,167.42s4.62,2.31,5.87,1.46,3.39-6.62,1.8-6.94-3.21,2-4.39,1.85a4.45,4.45,0,0,1-1.87-.72s-1.47,3.37-1.41,4.35Z" fill="#fff"/>
      <path id="Path_26358" data-name="Path 26358" d="M175.38,130.77a2.78,2.78,0,0,1,.83-2.76c.57-.6.39-2.15.91-2.18s.51,1.85.51,1.85.92-1,1.27-1.45,1.1-1.33,1.45-1.15-1,2.2-1,2.2,1.85-1.92,2.2-1.74c.56.29-1.07,2.38-1.07,2.38a15.753,15.753,0,0,1,2-1.7c.26,0,.25.51-.21,1.22a6.3,6.3,0,0,1-1.12,1.27s1.12-.66,1.33-.75.83-.32,0,.68a14.38,14.38,0,0,1-4.47,3.19l-2.65-1.06Z" fill="#fcd3a3"/>
      <path id="Path_26359" data-name="Path 26359" d="M143.3,133.44a2.78,2.78,0,0,0-.83-2.76c-.56-.61-.39-2.15-.91-2.19s-.51,1.86-.51,1.86-.92-1-1.27-1.45-1.1-1.33-1.45-1.15,1,2.2,1,2.2-1.86-1.92-2.2-1.75c-.56.29,1.06,2.39,1.06,2.39a16.62,16.62,0,0,0-2-1.71c-.26,0-.25.52.21,1.23a6.3,6.3,0,0,0,1.12,1.27s-1.12-.67-1.33-.75-.83-.33,0,.67a14.38,14.38,0,0,0,4.48,3.19l2.64-1.05Z" fill="#fcd3a3"/>
      <path id="Path_26360" data-name="Path 26360" d="M157.65,125.28a.316.316,0,0,1-.22-.52,4.1,4.1,0,0,1,2.11-.78.28.28,0,0,1,.3.28.3.3,0,0,1-.27.31h0a3.5,3.5,0,0,0-1.76.64.34.34,0,0,1-.19.07Z" fill="#24170e"/>
      <path id="Path_26361" data-name="Path 26361" d="M168.28,123.51h-.13a3.33,3.33,0,0,0-1.86-.23A.3.3,0,0,1,166,123a.29.29,0,0,1,.24-.34,4,4,0,0,1,2.22.28.3.3,0,0,1-.13.56Z" fill="#24170e"/>
      <path id="Path_26362" data-name="Path 26362" d="M158.65,114.52a3.29,3.29,0,0,1,2-1,.79.79,0,0,1-.19.87c-.21.23-.49.41-.68.66a13.92,13.92,0,0,1,6.89-.68,2.69,2.69,0,0,1,1,.3,1.05,1.05,0,0,1,.55.86c0,.57-.56,1-1.09,1.18a7.34,7.34,0,0,1-3.34.52c.53.16,1.16.45,1.2,1s-.5.88-1,1a6.62,6.62,0,0,1-4.13-.55,25.271,25.271,0,0,0-4.21-.72c.15-.65,1.2-1.38,1.45-1.71a16.21,16.21,0,0,1,1.5-1.72Z" fill="#24170e"/>
      <path id="Path_26363" data-name="Path 26363" d="M166.85,128.46a15.8,15.8,0,0,1-5.79,1.27,3.75,3.75,0,0,0,3.49,1.16,2.87,2.87,0,0,0,2.3-2.43Z" fill="#fff"/>
      <path id="Path_26364" data-name="Path 26364" d="M156.58,136.62s4.61,1.64,7.17-.19c0,0,4.66.19,5.23-.37l1.47,8.1-1.74.68.77,9.62a8.28,8.28,0,0,1-4.74,1.38c-3.18.12-17.94-2.07-17.94-2.07l1.71-9.45-2.9-1.89s3.12-3.6,4-6.37a66.9,66.9,0,0,0,6.93.56Z" fill="#45c98f"/>
      <path id="Path_26365" data-name="Path 26365" d="M156.53,150.83s3.7-3.53,5-4.72,1.71-3.32,2.61-2.84-.5,3.59-.5,3.59,3.48-.94,4.51-1.39,3.06-.8,3.45-.07-4.69,2.55-4.69,2.55,4.43-1.11,4.93-.52-4.92,2.84-4.92,2.84,4.66-1.42,5.13-1.21.21.8-1.32,1.71a16.78,16.78,0,0,1-3.32,1.44,38.142,38.142,0,0,1,3.78-.71c.44.05,1,.44-1.41,1.54s-8.41,1.45-11.52,1.08l-1.74-2Z" fill="#fcd3a3"/>
      <path id="Path_26366" data-name="Path 26366" d="M153.38,77.06a1.74,1.74,0,0,0-.85-.84,2.84,2.84,0,0,0-3.14.12c-1.47,1.33,1.15,5.19,4,3.48,0,0,.83-.75,0-2.76Z" fill="#fcd3a3"/>
      <path id="Path_26367" data-name="Path 26367" d="M158,149.46l.29,4.66s-8,4.34-15.4,3l-1.63-18.3a34.54,34.54,0,0,0,11.37,7.19,25.38,25.38,0,0,1,5.37,3.45Z" fill="#fff"/>
      <path id="Path_26368" data-name="Path 26368" d="M220.93,135.15s9.5.94,11.85,4,2.19,3.41,1.35,3.06a9.219,9.219,0,0,1-1.88-2.06s2.28,3.3,1.9,3.65-3.13-2.72-3.13-2.72,3,3.26,1.91,3.24c-.44,0-2.93-2.18-2.93-2.18s2.62,2.18,1.78,2.18c-.49,0-3.19-2.17-3.8-2.23s-4-.85-4.72-1.94c-.48-.75-2.48-.61-2.48-.61Z" fill="#fcd3a3"/>
      <path id="Path_26369" data-name="Path 26369" d="M223.26,140.14a9.49,9.49,0,0,0,2.2,2.24c1.14.71,1.73,1.47,2.12,1.49,1.29,0-.67-1.6-.52-2.35S223.26,140.14,223.26,140.14Z" fill="#fcd3a3"/>
      <rect id="Rectangle_2313" data-name="Rectangle 2313" width="17.36" height="1.01" transform="translate(175.67 247.34)" fill="#00348a"/>
      <path id="Path_26370" data-name="Path 26370" d="M193,248.35h7.12s.13-7.07-13.29-8.63l-.62,8.63Z" fill="#00348a"/>
      <path id="Path_26371" data-name="Path 26371" d="M217,45.28h34.14A8.92,8.92,0,0,1,260,54.19v3.68H208V54.19a8.92,8.92,0,0,1,9-8.91Z" fill="#fff"/>
      <rect id="Rectangle_2314" data-name="Rectangle 2314" width="1.18" height="32.06" transform="translate(233.47 16.11)" fill="#fff"/>
      <path id="Path_26372" data-name="Path 26372" d="M282.44,119.2l-36.81-.05-11.57,26.91,36.8.05Z" fill="#001b47"/>
      <rect id="Rectangle_2315" data-name="Rectangle 2315" width="24.64" height="1.63" transform="translate(216.638 144.403) rotate(0.08)" fill="#001b47"/>
      <path id="Path_26373" data-name="Path 26373" d="M257.14,132.62a3.05,3.05,0,0,1,2.76-1.9,1.41,1.41,0,0,1,1.48,1.92,3.07,3.07,0,0,1-2.76,1.9,1.4,1.4,0,0,1-1.48-1.92Z" fill="#fff"/>
      <rect id="Rectangle_2316" data-name="Rectangle 2316" width="134.1" height="6.69" transform="translate(187.19 145.99)" fill="#14161a"/>
      <path id="Path_26374" data-name="Path 26374" d="M313.27,251.25a.67.67,0,0,1-.7-.6l-5.71-101.28a.66.66,0,0,1,.67-.66.67.67,0,0,1,.73.6L314,250.59a.65.65,0,0,1-.66.66Z" fill="#14161a"/>
      <path id="Path_26375" data-name="Path 26375" d="M196.55,251.25a.66.66,0,0,0,.69-.6L203,149.37a.65.65,0,0,0-.66-.66.67.67,0,0,0-.73.6L195.9,250.59a.65.65,0,0,0,.66.66Z" fill="#14161a"/>
      <path id="Path_26376" data-name="Path 26376" d="M293.89,227.07c-.07-.22-.15-.44-.23-.65a27.213,27.213,0,0,0-1.11-2.7,20.449,20.449,0,0,0-4.28-6.22l-.09-.09c-.29-.27-.59-.53-.9-.77h0a10.939,10.939,0,0,0-1.68-1.09l-.26-.14a30.885,30.885,0,0,0-2.87-1.31c-.33-.14-.65-.26-1-.37h0c-.37-.13-.74-.26-1.11-.37-5.72-1.76-9.8-.68-11.72,2l-.12.18h0c-3,4.61-1.38,17,.05,25.3h0v.12c.72,4.17,1.38,7.25,1.34,7.67a.427.427,0,0,1,0,.05H295a33.749,33.749,0,0,0,1-7.45A41.821,41.821,0,0,0,293.89,227.07ZM275,241.34l-1.95-.23,1-6.55S277.06,240.16,275,241.34Z" fill="#e39439"/>
      <path id="Path_26377" data-name="Path 26377" d="M279,212.06a2.63,2.63,0,0,1-.27-3h0a8.36,8.36,0,0,0,1.16-3.61,4.2,4.2,0,0,0-.12-1.17,1,1,0,0,0,0-.14,9.68,9.68,0,0,0-2-3.5,9.091,9.091,0,0,0-1.07-1.08h0a6.65,6.65,0,0,0-4.52-1.8h-.71a6.57,6.57,0,0,0-3.67,1.1c-1.39,1-1.67,2.6-3.55,3.86a7,7,0,0,1-.73.43c-.36.18-.55.93-.5,1.91v.38a3.669,3.669,0,0,0,.13.76v.21a8.59,8.59,0,0,0,.46,1.38c0,.06.05.12.07.17a6.21,6.21,0,0,0,4.14,3.64A17.681,17.681,0,0,0,269,217c.66,1.56,13.45-2.93,13.45-2.93A8.42,8.42,0,0,1,279,212.06Z" fill="#e39439"/>
      <path id="Path_26378" data-name="Path 26378" d="M276.66,199.54c0-.24-1.78-6.4-3.87-6.46s-1.48,8.37,0,8.25S276.48,201.08,276.66,199.54Z" fill="#e39439"/>
      <path id="Path_26379" data-name="Path 26379" d="M273,200.69c0-.24-1.78-6.4-3.87-6.47s-1.48,8.38,0,8.26S272.81,202.23,273,200.69Z" fill="#d9722b"/>
      <path id="Path_26380" data-name="Path 26380" d="M287.25,216.62s-5.07.13-5.3,2.51-4.27,3.83-2.09,5.7,5.91,1.17,7.46-.35a17.75,17.75,0,0,1,4.21-2.74S289.6,218,287.25,216.62Z" fill="#d9722b"/>
      <path id="Path_26381" data-name="Path 26381" d="M296,241.17c-2.17-.85-4.6-3.91-6.9-2.36-3.21,2.18-8-.83-7.68-4.87s7.37-2.07,8.11-3.83c.51-1.2,2.9-2.39,4.38-3A41.821,41.821,0,0,1,296,241.17Z" fill="#d9722b"/>
      <path id="Path_26382" data-name="Path 26382" d="M279,217.06s-2.12,1-1.92,2.07,2,1,2.8.26S280.44,216,279,217.06Z" fill="#d9722b"/>
      <path id="Path_26383" data-name="Path 26383" d="M279.7,204.12c-.82-.06-1.87-.43-2.33-.23-.67.3-1.65,1-2.17,0s.78-1.28,1.19-2.27a2.16,2.16,0,0,1,1.34-1A9.68,9.68,0,0,1,279.7,204.12Z" fill="#d9722b"/>
      <path id="Path_26384" data-name="Path 26384" d="M279.86,205.43A8.36,8.36,0,0,1,278.7,209a6.581,6.581,0,0,0-1.85-1h-.19a2.35,2.35,0,0,1-2.12-1.64,1.59,1.59,0,0,1-.07-.48c0-1,1.91,0,3.06-.6a3,3,0,0,1,2.33.15Z" fill="#d9722b"/>
      <path id="Path_26385" data-name="Path 26385" d="M289.49,243.52s-24-4.09-28.79-2.54-5.58,7.51-1.31,7.58,32.36.06,32.36.06Z" fill="#e39439"/>
      <path id="Path_26386" data-name="Path 26386" d="M289.51,243.4v.25c-.11,0-8.64-1.33-15-2.12h0c-2.47-.3-4.62-.53-5.84-.59h0v-.12h0v-.12c1,0,2.58.2,4.46.42l1.95.23C281.29,242.15,289.4,243.38,289.51,243.4Z" fill="#0e0e35"/>
      <path id="Path_26387" data-name="Path 26387" d="M264.32,202.67a1.91,1.91,0,0,0-1.19.85A2.66,2.66,0,0,0,263,205S265.14,204.13,264.32,202.67Z" fill="#1a1a1a"/>
      <path id="Path_26388" data-name="Path 26388" d="M297.69,134.49h0a.12.12,0,0,0,.08-.14c-4-15.55-7.82-26.57-10.67-31l-.13-.21a.1.1,0,0,0-.14-.05.11.11,0,0,0-.06.14l.14.24c2.84,4.43,6.62,15.42,10.64,31a.12.12,0,0,0,.14.02Z" fill="#acddac"/>
      <path id="Path_26389" data-name="Path 26389" d="M285.05,102.45a5.61,5.61,0,0,0,2.24,1.37,5.48,5.48,0,0,0-.43-2.59,1.11,1.11,0,0,0-1.52-.3,1.09,1.09,0,0,0-.29,1.52Z" fill="#acddac"/>
      <path id="Path_26390" data-name="Path 26390" d="M288.46,104.07a5.69,5.69,0,0,0,.27,2.67,5.63,5.63,0,0,0,1.85-1.95,1.12,1.12,0,0,0-2.12-.72Z" fill="#acddac"/>
      <path id="Path_26391" data-name="Path 26391" d="M286.18,107.51a5.61,5.61,0,0,0,2.55-.86,5.73,5.73,0,0,0-2.32-1.36,1.12,1.12,0,0,0-.23,2.22Z" fill="#acddac"/>
      <path id="Path_26392" data-name="Path 26392" d="M293.35,114.46c-.44.94-.31,4.39,0,4.51s3-2,3.44-2.91a1.88,1.88,0,0,0-3.4-1.6Z" fill="#acddac"/>
      <path id="Path_26393" data-name="Path 26393" d="M288.92,119.8c1,.22,4.35-.68,4.41-1s-2.6-2.48-3.62-2.7a1.88,1.88,0,1,0-.79,3.67Z" fill="#acddac"/>
      <path id="Path_26394" data-name="Path 26394" d="M295.9,118.41c-.78,1-1.55,5.16-1.27,5.38s4.12-1.56,4.9-2.56a2.3,2.3,0,0,0-3.63-2.82Z" fill="#acddac"/>
      <path id="Path_26395" data-name="Path 26395" d="M289.59,125.38c1.26.14,5.2-1.38,5.24-1.74s-3.48-2.69-4.74-2.83a2.3,2.3,0,0,0-.5,4.57Z" fill="#acddac"/>
      <path id="Path_26396" data-name="Path 26396" d="M297.37,123.49c-.78,1-1.55,5.15-1.26,5.38s4.11-1.56,4.89-2.56a2.3,2.3,0,0,0-3.63-2.82Z" fill="#acddac"/>
      <path id="Path_26397" data-name="Path 26397" d="M291.07,130.46c1.26.14,5.2-1.38,5.24-1.74s-3.49-2.69-4.75-2.83a2.3,2.3,0,0,0-.49,4.57Z" fill="#acddac"/>
      <path id="Path_26398" data-name="Path 26398" d="M300.79,129.93c-1.11.63-3.4,4.18-3.22,4.49s4.4.13,5.5-.5a2.3,2.3,0,0,0-2.28-4Z" fill="#acddac"/>
      <path id="Path_26399" data-name="Path 26399" d="M292.35,135.48c1.24.29,5.33-.72,5.42-1.08s-3.12-3.1-4.36-3.39a2.3,2.3,0,0,0-1.06,4.47Z" fill="#acddac"/>
      <path id="Path_26400" data-name="Path 26400" d="M290,107.3a5.88,5.88,0,0,0,.27,2.72,5.81,5.81,0,0,0,1.88-2,1.14,1.14,0,0,0-2.15-.74Z" fill="#acddac"/>
      <path id="Path_26401" data-name="Path 26401" d="M287.73,110.85a5.86,5.86,0,0,0,2.59-.88,5.77,5.77,0,0,0-2.35-1.38,1.12,1.12,0,0,0-1.25,1,1.14,1.14,0,0,0,1.01,1.26Z" fill="#acddac"/>
      <path id="Path_26402" data-name="Path 26402" d="M291.71,110.32a8.42,8.42,0,0,0,.07,3.88,8.32,8.32,0,0,0,2.89-2.58,1.635,1.635,0,1,0-3-1.3Z" fill="#acddac"/>
      <path id="Path_26403" data-name="Path 26403" d="M288.13,115.34a8.26,8.26,0,0,0,3.68-1.24,8.31,8.31,0,0,0-3.34-2,1.614,1.614,0,0,0-.34,3.21Z" fill="#acddac"/>
      <path id="Path_26404" data-name="Path 26404" d="M299.85,135.94h0a.14.14,0,0,1-.11-.14c2.19-17.93,4.77-30.78,7.29-36.16l.11-.25a.12.12,0,0,1,.15-.08.13.13,0,0,1,.09.16,2.589,2.589,0,0,1-.13.28c-2.5,5.36-5.08,18.17-7.26,36.08a.11.11,0,0,1-.14.11Z" fill="#74aa74"/>
      <path id="Path_26405" data-name="Path 26405" d="M309.18,98.36a6.47,6.47,0,0,1-2.3,1.86,6.17,6.17,0,0,1,.1-3,1.23,1.23,0,1,1,2.2,1.1Z" fill="#74aa74"/>
      <path id="Path_26406" data-name="Path 26406" d="M305.61,100.67a6.42,6.42,0,0,1,.1,3,6.64,6.64,0,0,1-2.35-1.9,1.26,1.26,0,1,1,2.25-1.12Z" fill="#74aa74"/>
      <path id="Path_26407" data-name="Path 26407" d="M308.66,104.17a6.5,6.5,0,0,1-3-.58,6.31,6.31,0,0,1,2.38-1.87,1.26,1.26,0,0,1,.58,2.45Z" fill="#74aa74"/>
      <path id="Path_26408" data-name="Path 26408" d="M301.71,113c.63,1,1,4.84.71,5s-3.64-1.76-4.27-2.74a2.114,2.114,0,0,1,3.56-2.28Z" fill="#74aa74"/>
      <path id="Path_26409" data-name="Path 26409" d="M307.43,118.27c-1.09.39-4.94-.12-5.05-.43s2.53-3.15,3.63-3.55a2.122,2.122,0,0,1,1.42,4Z" fill="#74aa74"/>
      <path id="Path_26410" data-name="Path 26410" d="M299.46,117.76c1,1,2.49,5.51,2.2,5.8s-4.81-1.12-5.83-2.12a2.585,2.585,0,0,1,3.63-3.68Z" fill="#74aa74"/>
      <path id="Path_26411" data-name="Path 26411" d="M307.52,124.59c-1.39.34-6-.77-6.1-1.17s3.48-3.51,4.87-3.85a2.58,2.58,0,0,1,1.23,5Z" fill="#74aa74"/>
      <path id="Path_26412" data-name="Path 26412" d="M298.57,123.63c1,1,2.49,5.52,2.2,5.81s-4.81-1.12-5.83-2.13a2.585,2.585,0,1,1,3.63-3.68Z" fill="#74aa74"/>
      <path id="Path_26413" data-name="Path 26413" d="M306.63,130.47c-1.39.34-6-.77-6.1-1.17s3.48-3.51,4.87-3.85a2.58,2.58,0,0,1,1.23,5Z" fill="#74aa74"/>
      <path id="Path_26414" data-name="Path 26414" d="M295.72,131.32c1.32.54,4.4,4.15,4.25,4.52s-4.88.8-6.2.26a2.591,2.591,0,1,1,2-4.78Z" fill="#74aa74"/>
      <path id="Path_26415" data-name="Path 26415" d="M305.94,136.25c-1.33.51-6.05,0-6.19-.4s3-3.92,4.34-4.43a2.59,2.59,0,0,1,1.85,4.83Z" fill="#74aa74"/>
      <path id="Path_26416" data-name="Path 26416" d="M304.41,104.5a6.48,6.48,0,0,1,.11,3.06,6.5,6.5,0,0,1-2.39-1.92,1.275,1.275,0,1,1,2.28-1.14Z" fill="#74aa74"/>
      <path id="Path_26417" data-name="Path 26417" d="M307.43,108.11a6.43,6.43,0,0,1-3-.59,6.57,6.57,0,0,1,2.41-1.89,1.28,1.28,0,1,1,.6,2.48Z" fill="#74aa74"/>
      <path id="Path_26418" data-name="Path 26418" d="M302.92,108.12a9.359,9.359,0,0,1,.5,4.33c-.25.15-3.09-1.59-3.61-2.45a1.82,1.82,0,0,1,3.11-1.88Z" fill="#74aa74"/>
      <path id="Path_26419" data-name="Path 26419" d="M307.65,113.19a9.5,9.5,0,0,1-4.28-.84c-.07-.28,2.46-2.46,3.43-2.7a1.82,1.82,0,1,1,.85,3.54Z" fill="#74aa74"/>
      <path id="Path_26420" data-name="Path 26420" d="M302.59,135.85h0a.08.08,0,0,1,0-.1c4.52-10,8.34-16.88,10.77-19.53l.11-.13a.07.07,0,0,1,.1,0,.06.06,0,0,1,0,.1l-.12.14c-2.42,2.64-6.23,9.56-10.75,19.49a.07.07,0,0,1-.11.03Z" fill="#448a44"/>
      <path id="Path_26421" data-name="Path 26421" d="M314.8,115.88a3.93,3.93,0,0,1-1.66.65,3.71,3.71,0,0,1,.59-1.69.75.75,0,1,1,1.07,1Z" fill="#448a44"/>
      <path id="Path_26422" data-name="Path 26422" d="M312.33,116.56a4,4,0,0,1-.5,1.76,4.07,4.07,0,0,1-1-1.52.764.764,0,0,1,1.51-.24Z" fill="#448a44"/>
      <path id="Path_26423" data-name="Path 26423" d="M313.45,119.13a4,4,0,0,1-1.61-.87,3.89,3.89,0,0,1,1.71-.64.76.76,0,1,1-.1,1.51Z" fill="#448a44"/>
      <path id="Path_26424" data-name="Path 26424" d="M307.84,123a6.489,6.489,0,0,1-.51,3,6.55,6.55,0,0,1-2-2.35,1.28,1.28,0,0,1,2.47-.67Z" fill="#448a44"/>
      <path id="Path_26425" data-name="Path 26425" d="M310.18,127a6.53,6.53,0,0,1-2.84-1.17,6.56,6.56,0,0,1,2.74-1.38,1.28,1.28,0,0,1,.1,2.55Z" fill="#448a44"/>
      <path id="Path_26426" data-name="Path 26426" d="M305.67,125.29a8.2,8.2,0,0,1,.22,3.75,7.93,7.93,0,0,1-3-2.28,1.564,1.564,0,0,1,2.76-1.47Z" fill="#448a44"/>
      <path id="Path_26427" data-name="Path 26427" d="M309.08,130.7a8,8,0,0,1-3.31-1.78,8.08,8.08,0,0,1,3.51-1.34,1.563,1.563,0,1,1-.2,3.12Z" fill="#448a44"/>
      <path id="Path_26428" data-name="Path 26428" d="M304.09,128.52a8,8,0,0,1,.21,3.75,8,8,0,0,1-3-2.28,1.564,1.564,0,1,1,2.76-1.47Z" fill="#448a44"/>
      <path id="Path_26429" data-name="Path 26429" d="M307.49,133.93a8.09,8.09,0,0,1-3.3-1.78,7.91,7.91,0,0,1,3.51-1.34,1.564,1.564,0,0,1-.21,3.12Z" fill="#448a44"/>
      <path id="Path_26430" data-name="Path 26430" d="M301.05,132.44a8.15,8.15,0,0,1,1.63,3.38,8.07,8.07,0,0,1-3.63-1,1.562,1.562,0,0,1,2-2.4Z" fill="#448a44"/>
      <path id="Path_26431" data-name="Path 26431" d="M306.05,137.14a8.1,8.1,0,0,1-3.5-1.35,7.911,7.911,0,0,1,3.31-1.77,1.563,1.563,0,1,1,.19,3.12Z" fill="#448a44"/>
      <path id="Path_26432" data-name="Path 26432" d="M310.94,118.55a4.08,4.08,0,0,1-.5,1.79,4,4,0,0,1-1-1.55.76.76,0,0,1,.64-.88.78.78,0,0,1,.86.64Z" fill="#448a44"/>
      <path id="Path_26433" data-name="Path 26433" d="M312,121.18a3.84,3.84,0,0,1-1.63-.89,4,4,0,0,1,1.74-.65.78.78,0,0,1,.72.83.77.77,0,0,1-.83.71Z" fill="#448a44"/>
      <path id="Path_26434" data-name="Path 26434" d="M309.42,120.37a5.65,5.65,0,0,1-.5,2.59,5.69,5.69,0,0,1-1.64-2.07,1.1,1.1,0,0,1,2.14-.52Z" fill="#448a44"/>
      <path id="Path_26435" data-name="Path 26435" d="M311.23,124.15a5.64,5.64,0,0,1-2.32-1.26,5.54,5.54,0,0,1,2.47-.93,1.1,1.1,0,0,1-.15,2.19Z" fill="#448a44"/>
      <path id="Path_26436" data-name="Path 26436" d="M292.66,135.57H308v3.35a7.16,7.16,0,0,1-7.16,7.16h-1.05a7.16,7.16,0,0,1-7.16-7.16v-3.35Z" fill="#a67c52"/>
      <path id="Path_26437" data-name="Path 26437" d="M62.15,58.87c-6,1.23-11.32,5.53-11.93,14.88-.58,8.86,4.26,17.63,1.86,26.4-2.45,9-9.46,12.08-6.9,23.22.91,4,2.38,7.83,2.3,12-.15,8.72-6.25,14-9.23,20.9-3.84,8.83-2.42,21,2.7,28.26,9.73,13.8,26.23,8.85,38.51,7.54,7.13-.76,13.57-5.86,15.35-16.21,2.07-12-3.35-17.81-6.74-27.31-3.3-9.25.76-20.14.86-30.47.11-11.55-6.56-17.89-7.79-28.5-.89-7.68,2.21-15.58-.87-22.83a12.8,12.8,0,0,0-7.75-7.24,20.6,20.6,0,0,0-10.37-.64Z" fill="#0047bb" opacity="0.2"/>
      <rect id="Rectangle_2317" data-name="Rectangle 2317" width="1.42" height="108.99" transform="translate(64.96 114.16)" fill="#769ddb"/>
      <rect id="Rectangle_2318" data-name="Rectangle 2318" width="28.77" height="1.42" transform="matrix(0.416, -0.91, 0.91, 0.416, 65.028, 162.742)" fill="#769ddb"/>
      <rect id="Rectangle_2319" data-name="Rectangle 2319" width="1.42" height="20.62" transform="translate(53.305 165.423) rotate(-34.83)" fill="#769ddb"/>
      <path id="Path_26438" data-name="Path 26438" d="M53.66,219.14H78.32a2,2,0,0,1,2,2v20.61H51.7V221.09a2,2,0,0,1,1.96-1.95Z" transform="translate(131.98 460.84) rotate(180)" fill="#769ddb"/>
    </g>
  </g>
</svg>
