<svg id="manage_accounts_black_24dp" xmlns="http://www.w3.org/2000/svg" width="20.128" height="15.21" viewBox="0 0 20.128 15.21">
  <g id="Group_14174" data-name="Group 14174" transform="translate(0)">
    <path id="Path_24253" data-name="Path 24253" d="M0,0H15.339V15.21H0Z" fill="none"/>
  </g>
  <g id="Group_14176" data-name="Group 14176" transform="translate(5.106 0.071)">
    <g id="Group_14175" data-name="Group 14175">
      <path id="Path_24255" data-name="Path 24255" d="M9.7,11.39A3.7,3.7,0,1,0,6,7.7,3.694,3.694,0,0,0,9.7,11.39ZM9.4,8.453c1.016,0,.493-1.774.493-.758s.819.3-.2.3-.225,1.369-.225.352S8.384,8.453,9.4,8.453Z" transform="translate(-2.305 -4)" fill="#0047bb"/>
      <g id="Group_16015" data-name="Group 16015" transform="translate(0 8.602)">
        <path id="Path_24254" data-name="Path 24254" d="M3.631,15.088l.217,1.931a.874.874,0,0,1,.379-.748A10.059,10.059,0,0,1,9.39,14.848a2.592,2.592,0,0,1,.268,0,6.121,6.121,0,0,1,.351-1.82C9.806,13.009,9.6,13,9.39,13a11.9,11.9,0,0,0-6.106,1.681A2.7,2.7,0,0,0,2,17.019v2.448h8.554c-.388-.554-.693-4.12-.9-4.785Z" transform="translate(-2 -13)" fill="#0047bb"/>
        <path id="Path_25860" data-name="Path 25860" d="M5.225,14.681l3.1,1.3c0-.314.231.428,0,.29a10.059,10.059,0,0,0-5.164-1.423,2.592,2.592,0,0,0-.268,0,6.121,6.121,0,0,0-.351-1.82c.2-.018.406-.028.619-.028A11.9,11.9,0,0,1,9.27,14.681a2.7,2.7,0,0,1,1.284,2.337v2.448H2c.388-.554.5-4.315.7-4.98Z" transform="translate(4.467 -13)" fill="#0047bb"/>
      </g>
    </g>
  </g>
</svg>
