<svg xmlns="http://www.w3.org/2000/svg" xmlns:xlink="http://www.w3.org/1999/xlink" width="150" height="59" viewBox="0 0 150 59">
  <defs>
    <clipPath id="clip-path"/>
  </defs>
  <g id="Group_50112" data-name="Group 50112" transform="translate(-26 -287)">
    <g id="Group_50111" data-name="Group 50111" transform="translate(-47 2)">
      <g id="Group_50110" data-name="Group 50110" transform="translate(-179 121)">
        <g id="Group_50100" data-name="Group 50100">
          <rect id="Rectangle_2360" data-name="Rectangle 2360" width="36" height="36" transform="translate(255 164)" fill="none"/>
          <g id="Check_Circle" transform="translate(257.629 166.629)">
            <rect id="Boundary" width="30" height="30" transform="translate(0.371 0.371)" fill="none"/>
            <path id="Path_28989" data-name="Path 28989" d="M16.985,2A15,15,0,1,0,32,17,14.993,14.993,0,0,0,16.985,2ZM27.38,11H22.955a23.474,23.474,0,0,0-2.07-5.34A12.044,12.044,0,0,1,27.38,11ZM17,5.06A21.13,21.13,0,0,1,19.865,11h-5.73A21.13,21.13,0,0,1,17,5.06ZM5.39,20a11.733,11.733,0,0,1,0-6h5.07a24.773,24.773,0,0,0-.21,3,24.773,24.773,0,0,0,.21,3Zm1.23,3h4.425a23.474,23.474,0,0,0,2.07,5.34A11.98,11.98,0,0,1,6.62,23Zm4.425-12H6.62a11.98,11.98,0,0,1,6.495-5.34A23.474,23.474,0,0,0,11.045,11ZM17,28.94A21.13,21.13,0,0,1,14.135,23h5.73A21.13,21.13,0,0,1,17,28.94ZM20.51,20H13.49a22.069,22.069,0,0,1-.24-3,21.877,21.877,0,0,1,.24-3h7.02a21.878,21.878,0,0,1,.24,3A22.069,22.069,0,0,1,20.51,20Zm.375,8.34A23.474,23.474,0,0,0,22.955,23H27.38A12.044,12.044,0,0,1,20.885,28.34ZM23.54,20a24.773,24.773,0,0,0,.21-3,24.773,24.773,0,0,0-.21-3h5.07a11.734,11.734,0,0,1,0,6Z" transform="translate(-1.629 -1.629)" fill="#0047bb"/>
          </g>
        </g>
      </g>
      <line id="Line_230" data-name="Line 230" x2="18" transform="translate(166 303)" fill="none" stroke="#0047bb" stroke-width="2"/>
      <line id="Line_231" data-name="Line 231" x2="18" transform="translate(112 303)" fill="none" stroke="#0047bb" stroke-width="2"/>
      <g id="Group_50103" data-name="Group 50103" transform="translate(-19 219)">
        <g id="icon_modem" transform="translate(203 66)">
          <path id="Path_578" data-name="Path 578" d="M0,0H36V36H0Z" fill="none"/>
          <g id="Group_511" data-name="Group 511" transform="translate(9 4.5)">
            <path id="Path_169" data-name="Path 169" d="M-5100.749,18281.184c.124-.721-.155-2.605,2.1-2.727s9.387-.187,10.808,0,1.946.953,2.069,2.727c.122,1.758,1.388,18.57,1.479,19.682s.063,3.869-2.652,4.209a100.448,100.448,0,0,1-12.012.148c-1.143-.148-3.458-.828-3.366-4.357S-5100.872,18281.887-5100.749,18281.184Z" transform="translate(5102.339 -18278.338)" fill="none" stroke="#0047bb" stroke-width="3"/>
            <rect id="Rectangle_1392" data-name="Rectangle 1392" width="3" height="3" transform="translate(7.5 12)" fill="#0047bb"/>
            <g id="Group_3" data-name="Group 3" transform="translate(0 5.249)" clip-path="url(#clip-path)">
              <path id="Path_170" data-name="Path 170" d="M-5097.665,18296.285c1.359-.5,12.856-.715,14.741,0" transform="translate(5099.389 -18295.826)" fill="none" stroke="#0047bb" stroke-width="3"/>
              <path id="Path_171" data-name="Path 171" d="M0,.518C2.442-.148,16.037-.2,18.162.518" transform="translate(18.162 15.927) rotate(180)" fill="none" stroke="#0047bb" stroke-width="3"/>
            </g>
          </g>
        </g>
      </g>
      <g id="Group_50104" data-name="Group 50104" transform="translate(-125 121)">
        <g id="Group_50100-2" data-name="Group 50100">
          <rect id="Rectangle_2360-2" data-name="Rectangle 2360" width="36" height="36" transform="translate(255 164)" fill="none"/>
          <g id="Check_Circle-2" data-name="Check_Circle" transform="translate(257.629 166.629)">
            <rect id="Boundary-2" data-name="Boundary" width="30" height="30" transform="translate(0.371 0.371)" fill="none"/>
            <path id="_Color" data-name=" ↳Color" d="M12,24A12,12,0,1,1,24,12,12.014,12.014,0,0,1,12,24ZM5.292,10.308h0L3.6,12l6,6L20.4,7.2,18.708,5.5,9.6,14.6l-4.308-4.3Z" transform="translate(3.371 3.371)" fill="#077c49"/>
          </g>
        </g>
      </g>
    </g>
    <text id="Internet" transform="translate(47 342)" font-size="12" font-family="MaisonNeue-Light, Maison Neue" font-weight="300" letter-spacing="0.01em"><tspan x="-20" y="0">Internet</tspan></text>
    <text id="Modem" transform="translate(155 342)" font-size="12" font-family="MaisonNeue-Light, Maison Neue" font-weight="300" letter-spacing="0.01em"><tspan x="-20" y="0">Modem</tspan></text>
  </g>
</svg>
