<svg id="Layer_5" data-name="Layer 5" xmlns="http://www.w3.org/2000/svg" width="229.981" height="178" viewBox="0 0 229.981 178">
  <g id="Group_17871" data-name="Group 17871" transform="translate(0 0)">
    <g id="Group_17866" data-name="Group 17866" transform="translate(0 0)">
      <path id="Path_27217" data-name="Path 27217" d="M458.555,1643.248c0,3.291-17.064,6.192-43.026,7.907l-.148.009c-4.155.274-8.536.518-13.111.727-.11.006-.219.012-.329.016q-5.144.233-10.594.408-1.548.051-3.12.1-4.169.12-8.483.2l-.777.015-1.432.024-.687.013c-5.211.083-10.562.127-16.017.127q-4.831,0-9.548-.046l-.512-.006-.394,0-.681-.008q-4.8-.053-9.459-.15l-1.028-.022-1.025-.023q-1.023-.023-2.037-.05l-.892-.022-.889-.024-1.4-.039-.911-.027-1.027-.031-1.022-.032-1.246-.042q-1.245-.042-2.47-.088l-1.207-.045-.732-.029c-.488-.019-.974-.038-1.457-.058l-.723-.03-1.915-.083-.256-.013c-4.666-.21-9.135-.454-13.37-.731l-.143-.009c-26.16-1.711-43.378-4.624-43.378-7.93,0-.922,1.339-1.813,3.84-2.656,4.465-1.507,12.628-2.86,23.47-3.959l.159-.016c3.829-.386,7.991-.742,12.44-1.061l.121-.008c4.551-.326,9.4-.614,14.506-.86q5.931-.286,12.293-.493c5.086-.165,10.358-.29,15.778-.373.41-.006.82-.013,1.232-.017l1.939-.024,1.474-.016h0q1.23-.013,2.472-.022,1.153-.009,2.313-.016l2.021-.009.832,0q1.412,0,2.832,0h2.029l1.054,0q4.363.012,8.625.062,1.474.018,2.934.038l.116,0h0q3.587.053,7.084.129l1.24.028q5.221.124,10.212.3c4.411.156,8.674.343,12.764.557,5.043.263,9.822.57,14.287.912h0l.611.047.144.011q2.679.21,5.2.438,3.318.3,6.344.626l.183.02c13.133,1.432,21.9,3.254,24.255,5.267a1.5,1.5,0,0,1,.637,1.094Z" transform="translate(-237.516 -1474.789)" fill="#45c98f"/>
      <g id="Group_17857" data-name="Group 17857" transform="translate(151.605 34.351)">
        <path id="Path_27218" data-name="Path 27218" d="M1712.262,481.232a.233.233,0,0,1-.052-.011.262.262,0,0,1-.175-.328c11.057-36.29,21.09-61.9,28.251-72.12.159-.227.274-.391.317-.474a.262.262,0,1,1,.464.245,6.107,6.107,0,0,1-.352.529c-7.129,10.173-17.137,35.732-28.179,71.971a.263.263,0,0,1-.276.185Z" transform="translate(-1697.089 -402.807)" fill="#acddac"/>
        <path id="Path_27219" data-name="Path 27219" d="M2002.584,357.245c-.848,1.147-5.1,3.241-5.429,3s.43-4.923,1.277-6.069a2.582,2.582,0,1,1,4.152,3.07Z" transform="translate(-1954.414 -353.129)" fill="#acddac"/>
        <path id="Path_27220" data-name="Path 27220" d="M1921.245,413.516c.414,1.4-.494,6.164-.893,6.282s-3.757-3.382-4.172-4.781a2.641,2.641,0,0,1,5.065-1.5Z" transform="translate(-1881.287 -405.934)" fill="#acddac"/>
        <path id="Path_27221" data-name="Path 27221" d="M1966.059,468.017c-1.456.089-5.894-1.87-5.92-2.285s4.142-2.9,5.6-2.988a2.642,2.642,0,0,1,.322,5.273Z" transform="translate(-1921.069 -452.077)" fill="#acddac"/>
        <path id="Path_27222" data-name="Path 27222" d="M1761,652.855c.944,2.259.291,10.375-.354,10.645s-6.882-4.965-7.827-7.224a4.434,4.434,0,1,1,8.181-3.421Z" transform="translate(-1733.601 -621.239)" fill="#acddac"/>
        <path id="Path_27223" data-name="Path 27223" d="M1846.447,730.449c-2.413.411-10.174-2.054-10.292-2.742s6.387-5.588,8.8-6a4.434,4.434,0,1,1,1.49,8.741Z" transform="translate(-1809.144 -685.797)" fill="#acddac"/>
        <path id="Path_27224" data-name="Path 27224" d="M1682.928,750.1c1.736,2.443,3.142,12.307,2.445,12.8s-9.552-4.073-11.289-6.516a5.426,5.426,0,0,1,8.844-6.288Z" transform="translate(-1661.933 -709.425)" fill="#acddac"/>
        <path id="Path_27225" data-name="Path 27225" d="M1807,846.147c-2.99.2-12.127-3.78-12.183-4.634s8.479-6,11.468-6.195a5.426,5.426,0,1,1,.714,10.828Z" transform="translate(-1771.829 -788.402)" fill="#acddac"/>
        <path id="Path_27226" data-name="Path 27226" d="M1641.978,871.742c1.736,2.443,3.141,12.307,2.444,12.8s-9.552-4.073-11.289-6.516a5.426,5.426,0,1,1,8.844-6.288Z" transform="translate(-1624.967 -819.233)" fill="#acddac"/>
        <path id="Path_27227" data-name="Path 27227" d="M1766.04,967.787c-2.99.2-12.127-3.78-12.183-4.634s8.479-6,11.468-6.195a5.426,5.426,0,1,1,.715,10.828Z" transform="translate(-1734.853 -898.209)" fill="#acddac"/>
        <path id="Path_27228" data-name="Path 27228" d="M1566.816,1037.885c2.536,1.6,7.592,10.183,7.137,10.907s-10.384-.127-12.919-1.725a5.426,5.426,0,1,1,5.783-9.182Z" transform="translate(-1558.499 -970.52)" fill="#acddac"/>
        <path id="Path_27229" data-name="Path 27229" d="M1725.263,1088.909c-2.942.569-12.5-2.234-12.666-3.075s7.661-7.01,10.6-7.58a5.426,5.426,0,0,1,2.062,10.654Z" transform="translate(-1697.604 -1007.627)" fill="#acddac"/>
        <path id="Path_27230" data-name="Path 27230" d="M1880.642,490.167c.421,1.421-.5,6.263-.908,6.383s-3.818-3.437-4.238-4.858a2.684,2.684,0,1,1,5.146-1.525Z" transform="translate(-1844.56 -475.101)" fill="#acddac"/>
        <path id="Path_27231" data-name="Path 27231" d="M1924.193,546.451c-1.479.09-5.988-1.9-6.015-2.322s4.208-2.946,5.688-3.036a2.684,2.684,0,0,1,.327,5.358Z" transform="translate(-1883.191 -522.804)" fill="#acddac"/>
        <path id="Path_27232" data-name="Path 27232" d="M1815.643,556.819c.762,1.963.02,8.926-.541,9.143s-5.805-4.421-6.568-6.384a3.813,3.813,0,1,1,7.109-2.759Z" transform="translate(-1783.978 -534.808)" fill="#acddac"/>
        <path id="Path_27233" data-name="Path 27233" d="M1886.373,634.165c-2.1.128-8.508-2.7-8.545-3.3s5.979-4.185,8.081-4.313a3.813,3.813,0,0,1,.464,7.612Z" transform="translate(-1846.765 -599.949)" fill="#acddac"/>
      </g>
      <g id="Group_17858" data-name="Group 17858" transform="translate(80.68 66.671)">
        <path id="Path_27234" data-name="Path 27234" d="M916.43,829.334a.31.31,0,0,0,.058-.012.3.3,0,0,0,.2-.371c-12.644-40.8-24.078-69.579-32.194-81.043-.18-.255-.31-.439-.36-.531a.3.3,0,1,0-.522.279,7.111,7.111,0,0,0,.4.594c8.082,11.414,19.485,40.137,32.112,80.876a.3.3,0,0,0,.312.207Z" transform="translate(-878.301 -741.206)" fill="#acddac"/>
        <path id="Path_27235" data-name="Path 27235" d="M829.969,690.028c.961,1.286,5.762,3.622,6.128,3.347s-.511-5.54-1.471-6.827a2.907,2.907,0,0,0-4.658,3.479Z" transform="translate(-829.391 -685.381)" fill="#acddac"/>
        <path id="Path_27236" data-name="Path 27236" d="M929.5,752.907c-.459,1.577.589,6.937,1.04,7.068s4.212-3.829,4.671-5.406a2.974,2.974,0,0,0-5.711-1.662Z" transform="translate(-919.662 -744.403)" fill="#acddac"/>
        <path id="Path_27237" data-name="Path 27237" d="M846.747,814.663c1.64.092,6.626-2.136,6.653-2.6s-4.679-3.241-6.318-3.334a2.974,2.974,0,0,0-.334,5.939Z" transform="translate(-842.525 -796.723)" fill="#acddac"/>
        <path id="Path_27238" data-name="Path 27238" d="M1072.551,1021.6c-1.052,2.549-.271,11.683.456,11.984s7.722-5.627,8.772-8.175a4.992,4.992,0,1,0-9.23-3.807Z" transform="translate(-1048.435 -986.102)" fill="#acddac"/>
        <path id="Path_27239" data-name="Path 27239" d="M924.579,1109.669c2.72.45,11.444-2.367,11.572-3.143s-7.221-6.256-9.941-6.706a4.992,4.992,0,1,0-1.631,9.849Z" transform="translate(-911.549 -1059.444)" fill="#acddac"/>
        <path id="Path_27240" data-name="Path 27240" d="M1125.01,1130.706c-1.942,2.759-3.471,13.874-2.683,14.427s10.733-4.637,12.674-7.4a6.109,6.109,0,0,0-9.991-7.032Z" transform="translate(-1093.641 -1085.045)" fill="#acddac"/>
        <path id="Path_27241" data-name="Path 27241" d="M935.516,1239.836c3.368.206,13.632-4.321,13.691-5.282s-9.578-6.706-12.945-6.911a6.109,6.109,0,1,0-.745,12.194Z" transform="translate(-920.015 -1174.882)" fill="#acddac"/>
        <path id="Path_27242" data-name="Path 27242" d="M1171.771,1267.435c-1.942,2.759-3.471,13.873-2.683,14.427s10.733-4.637,12.674-7.4a6.108,6.108,0,0,0-9.99-7.031Z" transform="translate(-1135.852 -1208.474)" fill="#acddac"/>
        <path id="Path_27243" data-name="Path 27243" d="M982.276,1376.557c3.368.206,13.632-4.321,13.691-5.283s-9.578-6.706-12.945-6.911a6.108,6.108,0,0,0-.746,12.194Z" transform="translate(-962.226 -1298.303)" fill="#acddac"/>
        <path id="Path_27244" data-name="Path 27244" d="M1225.747,1454.088c-2.846,1.811-8.493,11.505-7.976,12.318s11.69-.2,14.536-2.011a6.109,6.109,0,1,0-6.56-10.306Z" transform="translate(-1179.961 -1378.449)" fill="#acddac"/>
        <path id="Path_27245" data-name="Path 27245" d="M1030.8,1512.7c3.315.625,14.065-2.584,14.244-3.529s-8.664-7.851-11.98-8.476a6.109,6.109,0,0,0-2.265,12.006Z" transform="translate(-1006.712 -1421.29)" fill="#acddac"/>
        <path id="Path_27246" data-name="Path 27246" d="M974.756,838.971c-.467,1.6.6,7.049,1.056,7.181s4.279-3.89,4.746-5.492a3.022,3.022,0,0,0-5.8-1.69Z" transform="translate(-960.511 -822.063)" fill="#acddac"/>
        <path id="Path_27247" data-name="Path 27247" d="M892.883,902.758c1.666.093,6.732-2.17,6.759-2.646s-4.754-3.294-6.42-3.387a3.022,3.022,0,1,0-.339,6.034Z" transform="translate(-884.132 -876.162)" fill="#acddac"/>
        <path id="Path_27248" data-name="Path 27248" d="M1024.083,913.734c-.847,2.214.026,10.05.659,10.291s6.513-5.009,7.36-7.223a4.293,4.293,0,1,0-8.018-3.068Z" transform="translate(-1004.827 -889.029)" fill="#acddac"/>
        <path id="Path_27249" data-name="Path 27249" d="M898.482,1001.418c2.367.133,9.564-3.084,9.6-3.76s-6.754-4.679-9.121-4.812a4.293,4.293,0,0,0-.483,8.572Z" transform="translate(-888.102 -962.931)" fill="#acddac"/>
      </g>
      <path id="Path_27250" data-name="Path 27250" d="M472.878,1477.769v0a44.49,44.49,0,0,1-3.6,3.477l-.394,0-.681-.008q-4.8-.052-9.459-.15l-1.028-.022-1.025-.023q-1.023-.023-2.037-.05l-.892-.022-.889-.024-1.4-.039-.911-.027-1.027-.031c-.341-.01-.683-.021-1.022-.032l-1.246-.042q-1.245-.042-2.47-.088l-1.207-.045-.732-.029c-.488-.019-.974-.038-1.457-.058l-.723-.03-1.915-.083-.256-.013c-4.666-.21-9.135-.454-13.37-.731-1.661-1.176-3.283-2.423-4.858-3.721q-.68-.559-1.346-1.129a114.2,114.2,0,0,1-8.287-7.872q-.878-.918-1.722-1.833a148.78,148.78,0,0,1-14.512-18.469l-.01-.015a.1.1,0,0,0-.008-.013.142.142,0,0,0-.01-.015v0c43.123-8.137,62.559,2.393,71.318,13.352.117.144.231.29.342.436.149.193.3.386.438.58q.479.647.91,1.292c.649.968,1.221,1.929,1.726,2.871a33.49,33.49,0,0,1,3.335,9.27,21.568,21.568,0,0,1,.43,3.339Z" transform="translate(-356.016 -1303.3)" fill="#74aa74"/>
      <path id="Path_27251" data-name="Path 27251" d="M465.027,1501.469l-.288-.114-.719-.284h0l-5.762-2.286-16.009-6.352-6.093-2.416-3.962-1.571-1.132-.45L394.39,1473.45v0a.122.122,0,0,1,.01.015.1.1,0,0,1,.008.013l.01.015a193.9,193.9,0,0,0,14.67,18.452q.857.944,1.7,1.842c2.807,2.976,5.522,5.59,8.146,7.879q.665.579,1.321,1.13,2.422,2.037,4.74,3.71l.143.009c4.234.276,8.7.521,13.37.731.085,0,.171.008.256.013q.951.042,1.915.083l.723.03c.483.021.969.039,1.457.058l.733.029,1.207.045q1.227.045,2.47.088l1.246.042,1.022.032,1.027.031.911.027q.7.021,1.4.039l.889.024.892.022,2.037.05,1.025.023,1.028.022q4.652.1,9.459.15l.681.008.394,0,.512.006a24.124,24.124,0,0,0,3.091-3.483v0l-7.861-3.119Z" transform="translate(-356.025 -1330.118)" fill="#448a44"/>
      <path id="Path_27252" data-name="Path 27252" d="M591.715,1623.275h.034l19.431-1.478a.266.266,0,0,0,.246-.287.269.269,0,0,0-.287-.246l-19.431,1.478a.267.267,0,0,0,.006.533Z" transform="translate(-533.926 -1463.553)" fill="#74aa74"/>
      <path id="Path_27253" data-name="Path 27253" d="M851.531,1761.621a.317.317,0,0,0,.06,0l25.387-4.524a.267.267,0,1,0-.094-.525l-25.388,4.524a.267.267,0,0,0,.033.53Z" transform="translate(-768.467 -1585.691)" fill="#74aa74"/>
      <g id="Group_17859" data-name="Group 17859" transform="translate(136.016 105.235)">
        <path id="Path_27254" data-name="Path 27254" d="M1399.157,1130.64s-12.445-37.412,54.726-47.89C1453.883,1082.75,1438.165,1150.983,1399.157,1130.64Z" transform="translate(-1398.247 -1082.66)" fill="#448a44"/>
        <path id="Path_27255" data-name="Path 27255" d="M1454.941,1081.82l-55.557,43.063C1398.613,1114.429,1402.678,1089.972,1454.941,1081.82Z" transform="translate(-1399.203 -1081.82)" fill="#3b703b"/>
      </g>
      <path id="Path_27256" data-name="Path 27256" d="M1444.319,1474.034v0s-.007.008-.01.013a.034.034,0,0,0-.008.01A137.532,137.532,0,0,1,1431.58,1488q-.944.906-1.94,1.826c-1.834,1.692-3.8,3.4-5.863,5.075-1.49,1.206-3.033,2.391-4.622,3.53-.039.028-.079.057-.117.084-1.858,1.329-3.777,2.6-5.742,3.762-4.155.275-8.536.518-13.111.727-.11.006-.219.012-.329.016q-5.144.233-10.594.408-1.548.051-3.12.1-4.169.12-8.484.2l-.777.015-1.432.024a37.432,37.432,0,0,1-6.89-6.887v0s.013-.117.046-.336a28.686,28.686,0,0,1,3.054-8.737,31.3,31.3,0,0,1,1.7-2.835c.008-.013.017-.024.024-.037.355-.523.733-1.052,1.141-1.582.6-.785,1.266-1.572,2-2.35q.96-1.027,2.079-2.03c.265-.235.534-.469.812-.7.256-.215.52-.428.788-.639a40.178,40.178,0,0,1,16.48-7.438,64.867,64.867,0,0,1,13.611-1.407,99.96,99.96,0,0,1,14.805,1.107,154.964,154.964,0,0,1,19.216,4.147Z" transform="translate(-1235.432 -1325.902)" fill="#3b703b"/>
      <path id="Path_27257" data-name="Path 27257" d="M1408.948,1533.459l-1.093.329-3.03.913-7.806,2.354-11.65,3.513-8.232,2.481-.694.209-6.631,2h-.009l-1.224.371v0a26.494,26.494,0,0,0,6.2,6.9l.687-.013,1.432-.024.777-.015q4.313-.082,8.483-.2,1.571-.045,3.12-.1,5.443-.174,10.594-.408l.329-.016c4.576-.209,8.956-.452,13.111-.727l.148-.009q2.71-1.651,5.594-3.753c.038-.027.077-.057.117-.084q2.211-1.62,4.528-3.527,2.813-2.32,5.786-5.089.956-.892,1.927-1.835a189.29,189.29,0,0,0,12.9-13.921.026.026,0,0,1,.008-.01l.01-.013v0l-35.388,10.669Z" transform="translate(-1235.449 -1374.659)" fill="#448a44"/>
      <path id="Path_27258" data-name="Path 27258" d="M1778.061,1632.492l-.032,0-18.022-2.922a.25.25,0,1,1,.08-.494l18.023,2.922a.25.25,0,0,1-.048.5Z" transform="translate(-1588.609 -1470.6)" fill="#3b703b"/>
      <path id="Path_27259" data-name="Path 27259" d="M1472.9,1736.628a.188.188,0,0,1-.056-.009l-23.343-6.239a.25.25,0,0,1,.129-.484l23.342,6.239a.25.25,0,0,1-.073.492Z" transform="translate(-1308.328 -1561.611)" fill="#3b703b"/>
      <g id="Group_17862" data-name="Group 17862" transform="translate(42.392 43.219)">
        <path id="Path_27260" data-name="Path 27260" d="M1566.9,1237s7.055,15.622,9.729,15.81,29.234-4.35,33.583-4.456,4.193-2.212,4.193-2.212l3.433,6.559s-7.668,1.184-9.78,1.927-32.016,14.108-38.729,10.57-14.95-19.609-14.95-19.609L1566.9,1237Z" transform="translate(-1445.568 -1159.888)" fill="#e09357"/>
        <path id="Path_27261" data-name="Path 27261" d="M656.694,1048.372s-5.327,10.056-8.432,10.056c-3.345,0-23.288-22.759-23.288-22.759l-3.844,6.188s14.738,30.093,27.236,30.1c8.805,0,20.824-13.7,20.584-14.418s-8.17-9.165-8.17-9.165Z" transform="translate(-603.101 -978.143)" fill="#e09357"/>
        <path id="Path_27262" data-name="Path 27262" d="M1069.139,1635.377q-1.548.051-3.12.1-4.169.12-8.483.2l-.777.015-1.432.024-.687.013c-5.211.083-10.562.127-16.016.127q-4.831,0-9.548-.046c-.171,0-.341,0-.512-.006l-.394,0-.681-.008q-4.8-.053-9.459-.15l-1.028-.022-1.025-.023q-1.023-.023-2.037-.05a7.4,7.4,0,0,1,.228-.987c.415-1.306.894-2.59,1.412-3.834q.123-.295.248-.587.149-.347.3-.69c.45-1.008.923-1.985,1.407-2.927a72.263,72.263,0,0,1,3.959-6.742c.757-1.146,1.446-2.123,2.011-2.892.9-1.236,1.481-1.935,1.481-1.935l.342.021,7.671.473,2.036.126,4.643.285,2.036.127.814.05,11.875-.734,5.606-.347a15.919,15.919,0,0,1,1.694,2.089,28.007,28.007,0,0,1,1.726,2.882c.61,1.159,1.208,2.444,1.793,3.841q.813,1.948,1.6,4.182c.118.335.235.675.35,1.02.064.188.128.377.192.568.607,1.831,1.2,3.784,1.776,5.844Z" transform="translate(-957.699 -1501.072)" fill="#00348a"/>
        <path id="Path_27263" data-name="Path 27263" d="M1127.54,1553.412v4.686s8.891,8.651,35.024,0l.06-4.686-22.948-1.442-12.135,1.442Z" transform="translate(-1060.249 -1444.219)" fill="#001b47"/>
        <path id="Path_27264" data-name="Path 27264" d="M992.759,969.07s-12.776,1.282-17.476,4.526c-3.362,2.321-10.783,15.41-10.783,15.41l8.52,7.242a10.54,10.54,0,0,0,5.9,11.861l1.438,19.105s14.9,8.651,35.084,0c0,0,.291-30.706,2.855-26.684.425.667,4.318,7.158,4.318,7.158l16.277-6.712s-11.761-25.513-19.773-28.231c-11.8-4-18.632-3.484-18.632-3.484l-7.729-.191Z" transform="translate(-913.069 -918.021)" fill="#fff"/>
        <g id="Group_17860" data-name="Group 17860" transform="translate(0 49.005)">
          <path id="Path_27265" data-name="Path 27265" d="M461.528,981.173s-5.266-9.1-7.334-9.361-8.249-.2-9.231-.424-5.756-2.532-6.729-2.382,4.414,4.029,4.414,4.029-5.06-2.663-5.8-1.907,4.442,4.085,4.442,4.085-5.043-2.863-5.477-1.99,4.428,3.722,4.428,3.722-3.947-2.168-4.277-1.469,5.645,5.308,8.623,5c7.034-.727,9.57,1.581,9.57,1.581l7.369-.885Z" transform="translate(-435.788 -966.962)" fill="#e09357"/>
          <path id="Path_27266" data-name="Path 27266" d="M561.233,956.146s-3.376-4.868-5.125-5.705-5.1-2.975-5.434-2.214,4.155,4.05,4.117,4.69,2.2,1.671,2.2,1.671l4.242,1.557Z" transform="translate(-539.483 -948.065)" fill="#e09357"/>
        </g>
        <g id="Group_17861" data-name="Group 17861" transform="translate(155.372 79.417)">
          <path id="Path_27267" data-name="Path 27267" d="M2033.011,1291.047s4.9-9.3,6.956-9.644,8.235-.526,9.206-.79,5.651-2.759,6.629-2.647-4.251,4.2-4.251,4.2,4.951-2.863,5.719-2.135-4.275,4.258-4.275,4.258,4.925-3.061,5.393-2.206-4.276,3.894-4.276,3.894,3.859-2.324,4.215-1.637-5.43,5.528-8.417,5.339a33.5,33.5,0,0,0-12.705,1.7l-4.194-.336Z" transform="translate(-2033.01 -1276.283)" fill="#e09357"/>
          <path id="Path_27268" data-name="Path 27268" d="M2071.482,1269.174s3.18-5,4.894-5.9,4.978-3.175,5.342-2.428-3.991,4.211-3.928,4.849-2.132,1.758-2.132,1.758l-4.177,1.725Z" transform="translate(-2067.738 -1260.693)" fill="#e09357"/>
        </g>
        <path id="Path_27269" data-name="Path 27269" d="M1276.044,1276.8c6.759,0,9.576-6.757,9.6-6.825a.25.25,0,1,0-.464-.188c-.026.065-2.723,6.512-9.14,6.512a10.1,10.1,0,0,1-8.946-4.73.251.251,0,0,0-.446.23,10.578,10.578,0,0,0,9.391,5Z" transform="translate(-1185.804 -1189.346)" fill="#001b47"/>
        <path id="Path_27270" data-name="Path 27270" d="M1049.762,1172.168a.25.25,0,0,0,.248-.221,14.335,14.335,0,0,1,4.079-7.844.25.25,0,1,0-.343-.365,14.58,14.58,0,0,0-4.232,8.15.25.25,0,0,0,.219.278Z" transform="translate(-989.811 -1093.692)" fill="#001b47"/>
        <path id="Path_27271" data-name="Path 27271" d="M1217.8,1587.872a4.368,4.368,0,0,0-.592-1.882h0a4.4,4.4,0,0,0-7.045-.753h0a4.381,4.381,0,0,0-1.164,2.981,4.254,4.254,0,0,0,.024.461,4.344,4.344,0,0,0,.452,1.533,4.454,4.454,0,0,0,1.079,1.365,4.4,4.4,0,0,0,5.706,0,4.456,4.456,0,0,0,.818-.922,4.371,4.371,0,0,0,.713-1.984,4.312,4.312,0,0,0,.023-.451c0-.117,0-.231-.014-.344Zm-6.8.344a2.406,2.406,0,0,1,4.765-.472,2.364,2.364,0,0,1,.047.471,2.283,2.283,0,0,1-.043.447,2.4,2.4,0,0,1-4.726.006,2.307,2.307,0,0,1-.044-.452Z" transform="translate(-1133.785 -1472.962)" fill="#bdd1f9"/>
        <path id="Path_27272" data-name="Path 27272" d="M1051.654,444.466c-4.052-.723-8.816.794-10.534,4.535-.577,1.256-.8,2.709-1.7,3.756-1.825,2.115-5.577,1.655-7.289,3.862-1.751,2.256-.213,5.7-1.344,8.318-.745,1.727-2.507,2.775-3.612,4.3a8.27,8.27,0,0,0-.428,8.2,15.758,15.758,0,0,0,5.828,6.2c1.125.743,2.41,1.559,2.672,2.881a11.682,11.682,0,0,1,.079,1.393c.195,2.621,2.937,4.4,5.551,4.676s5.208-.507,7.819-.817c9.165-1.09,18.6,3.628,27.484,1.124a3.236,3.236,0,0,0,2.389-1.723c.476-1.4-.878-2.727-1.137-4.181-.469-2.629,2.521-4.39,4.038-6.589a6.785,6.785,0,0,0-.053-7.584c-1.055-1.483-2.728-2.547-3.386-4.243-.641-1.653-.167-3.5-.155-5.272a12,12,0,0,0-4.4-8.969c-3.01-2.564-6.7-3.269-10.276-4.65-3.981-1.538-7.242-4.451-11.542-5.218Z" transform="translate(-968.464 -444.291)" fill="#14161a"/>
        <path id="Path_27273" data-name="Path 27273" d="M1180.937,493.177a14.92,14.92,0,0,1,11.811,21.437c-2.256,5.113-4.117,9.232-6.347,12.2a14.844,14.844,0,0,0-3,10.453l.156,1.5a3.02,3.02,0,0,1-2.079,3.183c-4.192,1.353-6.954.651-8.525-.166a2.929,2.929,0,0,1-1.572-2.715l.276-7.176h0c-9.34-1.48-7.424-18.748-7.227-23.867l.015,0c0-.193,0-.384.008-.578a14.924,14.924,0,0,1,16.484-14.267Z" transform="translate(-1093.289 -488.347)" fill="#e09357"/>
        <path id="Path_27274" data-name="Path 27274" d="M1195.339,705.695a1.3,1.3,0,1,1,1.375,1.225A1.3,1.3,0,0,1,1195.339,705.695Z" transform="translate(-1121.451 -679.022)" fill="#14161a"/>
        <path id="Path_27275" data-name="Path 27275" d="M1321.069,724.715a1.3,1.3,0,1,1,1.376,1.225A1.3,1.3,0,0,1,1321.069,724.715Z" transform="translate(-1234.95 -696.192)" fill="#14161a"/>
        <path id="Path_27276" data-name="Path 27276" d="M1220.82,811.573s1.176-.7,1.82-.46a1.938,1.938,0,0,1,.934,1.08,1.505,1.505,0,0,1,1.277-.7,18.707,18.707,0,0,1,3.009.895s-2.411,3.234-4.762,2.409a3.265,3.265,0,0,1-2.255-3.105Z" transform="translate(-1144.455 -775.383)" fill="#d63838"/>
        <path id="Path_27277" data-name="Path 27277" d="M1220.361,814.789c2.708.845,5.584-.941,5.622-.964a.183.183,0,1,0-.2-.309c-.19.121-4.676,2.9-7.5-.611a.183.183,0,1,0-.286.23A4.866,4.866,0,0,0,1220.361,814.789Z" transform="translate(-1141.87 -776.985)" fill="#14161a"/>
        <path id="Path_27278" data-name="Path 27278" d="M1325.515,699.545a.541.541,0,0,0,.333-.962,6.5,6.5,0,0,0-4.166-1.232.542.542,0,0,0-.51.572.554.554,0,0,0,.572.509,5.413,5.413,0,0,1,3.423.993A.541.541,0,0,0,1325.515,699.545Z" transform="translate(-1235.044 -672.724)" fill="#14161a"/>
        <path id="Path_27279" data-name="Path 27279" d="M1188.112,676.313a.541.541,0,0,0,.155-1.006,6.43,6.43,0,0,0-4.319-.465.541.541,0,0,0,.255,1.053,5.386,5.386,0,0,1,3.545.364.54.54,0,0,0,.364.056Z" transform="translate(-1110.796 -652.253)" fill="#14161a"/>
        <path id="Path_27280" data-name="Path 27280" d="M1242.169,722.773a3.214,3.214,0,0,0,1.293.223.192.192,0,1,0,0-.383c-1.852.02-2.123-1.193-2.162-1.507a7.307,7.307,0,0,0,1.506-4.511.191.191,0,0,0-.382.011,7.007,7.007,0,0,1-1.463,4.308.193.193,0,0,0-.048.133,2.066,2.066,0,0,0,1.263,1.725Z" transform="translate(-1162.589 -689.939)" fill="#e58876"/>
        <path id="Path_27281" data-name="Path 27281" d="M1133.47,509.133a72.553,72.553,0,0,1-2.791-8.207,3.636,3.636,0,0,0-.5-1.117,3.734,3.734,0,0,0-1.528-1.024c-1.282-.578-2.843-1.139-4.015-.361-1.3.863-1.253,2.792-2.127,4.083-1.425,2.1-4.89,2.023-6.21,4.193-1.051,1.727-.335,4.31-1.832,5.667-.612.555-1.477.763-2.1,1.307-2.019,1.774-.294,5.7-2.318,7.474a84.489,84.489,0,0,1-2.811-8.757,5.925,5.925,0,0,1-.276-2.3c.207-1.474,1.416-2.561,2.341-3.727,1.692-2.133,2.542-4.791,3.665-7.27a34.026,34.026,0,0,1,5.178-8.119,4.148,4.148,0,0,1,1.21-1.066,4.393,4.393,0,0,1,1.917-.331,47.545,47.545,0,0,1,9.686.536,18.5,18.5,0,0,1,8.762,3.933,11.54,11.54,0,0,1,2.437,2.876,19.575,19.575,0,0,1,1.581,3.91,15.65,15.65,0,0,1,1.029,5.031,14.828,14.828,0,0,1-.866,4.148,11.978,11.978,0,0,1-1.565,3.512c-3.582,4.908-7.323-.974-8.869-4.387Z" transform="translate(-1041.645 -485.146)" fill="#14161a"/>
        <path id="Path_27282" data-name="Path 27282" d="M1403.047,742.79a2.214,2.214,0,0,1,1.2-1.007c1.046-.375,2.878-.759,4.079.537,1.761,1.9-2.11,6.616-5.66,4.062,0,0-1-1.081.378-3.592Z" transform="translate(-1308.297 -712.52)" fill="#e09357"/>
      </g>
      <g id="Group_17863" data-name="Group 17863" transform="translate(190.986 102.492)">
        <path id="Path_27283" data-name="Path 27283" d="M2061.12,1053.62v7.837s3.888-1.017,3.888-4.367S2061.12,1053.62,2061.12,1053.62Z" transform="translate(-2051.608 -1053.62)" fill="#f1baba"/>
        <path id="Path_27284" data-name="Path 27284" d="M2061.319,1061.606a5.341,5.341,0,0,0,1.745-4.05,3.9,3.9,0,0,0-1.945-3.676v7.787s.074-.02.2-.06Z" transform="translate(-2051.608 -1053.855)" fill="#060633"/>
        <ellipse id="Ellipse_369" data-name="Ellipse 369" cx="16.81" cy="12.921" rx="16.81" ry="12.921" transform="translate(2.872 2.601)" fill="#f1baba"/>
        <path id="Path_27285" data-name="Path 27285" d="M1963.641,1182.45h3.647v7.358h-3.647a.3.3,0,0,1-.3-.3v-6.755A.3.3,0,0,1,1963.641,1182.45Z" transform="translate(-1963.34 -1169.918)" fill="#f1baba"/>
        <path id="Path_27286" data-name="Path 27286" d="M1971.318,1203.155c0-.909-.134-1.645-.3-1.645s-.3.736-.3,1.645.134,1.645.3,1.645S1971.318,1204.063,1971.318,1203.155Z" transform="translate(-1970.002 -1187.124)" fill="#060633"/>
        <path id="Path_27287" data-name="Path 27287" d="M2030.645,1187.5a1.062,1.062,0,1,0-1.062,1.062A1.063,1.063,0,0,0,2030.645,1187.5Z" transform="translate(-2022.18 -1173.52)" fill="#060633"/>
        <path id="Path_27288" data-name="Path 27288" d="M2106.63,1055.15v7.837s3.888-1.017,3.888-4.367S2106.63,1055.15,2106.63,1055.15Z" transform="translate(-2092.691 -1055.001)" fill="#f1baba"/>
        <path id="Path_27289" data-name="Path 27289" d="M2106.829,1063.136a5.342,5.342,0,0,0,1.745-4.05,3.9,3.9,0,0,0-1.945-3.676v7.787S2106.7,1063.177,2106.829,1063.136Z" transform="translate(-2092.691 -1055.236)" fill="#060633"/>
        <path id="Path_27290" data-name="Path 27290" d="M2165.691,1094.1h-.009a14.4,14.4,0,0,0-5.9-.359.039.039,0,0,1-.019-.077,14.466,14.466,0,0,1,5.941.359.04.04,0,0,1,.03.048.04.04,0,0,1-.039.031Z" transform="translate(-2140.625 -1089.64)" fill="#060633"/>
        <rect id="Rectangle_2941" data-name="Rectangle 2941" width="5.279" height="5.279" transform="translate(8.465 24.78)" fill="#f1baba"/>
        <rect id="Rectangle_2942" data-name="Rectangle 2942" width="5.279" height="5.279" transform="translate(25.454 24.78)" fill="#f1baba"/>
        <path id="Path_27291" data-name="Path 27291" d="M2323.963,1149.746a.719.719,0,0,1-.078,0,1.076,1.076,0,0,1-.849-.827,2.9,2.9,0,0,1-.01-1.137c-.031.008-.06.016-.09.025a1.341,1.341,0,0,0-.8.594,2.122,2.122,0,0,0-.156.466,1.244,1.244,0,0,1-.363.724.059.059,0,0,1-.084-.01.06.06,0,0,1,.01-.084,1.142,1.142,0,0,0,.321-.66,2.27,2.27,0,0,1,.167-.493,1.422,1.422,0,0,1,.873-.653c.047-.015.094-.026.141-.037a.91.91,0,0,1,.075-.275,1.084,1.084,0,0,1,.882-.465l1.6-.258a.059.059,0,0,1,.02.117l-1.6.258c-.338.055-.668.14-.795.4a.728.728,0,0,0-.057.2,1.636,1.636,0,0,1,1.052.16,1.2,1.2,0,0,1,.63,1.138A.946.946,0,0,1,2323.963,1149.746Zm-.814-2a2.9,2.9,0,0,0,0,1.133.973.973,0,0,0,.748.74.81.81,0,0,0,.833-.713,1.076,1.076,0,0,0-.569-1.021A1.539,1.539,0,0,0,2323.149,1147.751Z" transform="translate(-2286.677 -1137.603)" fill="#fa7267"/>
      </g>
      <g id="Group_17864" data-name="Group 17864" transform="translate(206.689 75.21)">
        <path id="Path_27292" data-name="Path 27292" d="M2141.71,781.758a8.478,8.478,0,1,0-8.35,8.838A8.6,8.6,0,0,0,2141.71,781.758Z" transform="translate(-2124.76 -773.161)" fill="#f1d35e"/>
        <path id="Path_27293" data-name="Path 27293" d="M2184.4,807.294l-.023-1.646a4.515,4.515,0,0,1-2.434-.683l.365-1.1a4.136,4.136,0,0,0,2.291.668,1.681,1.681,0,0,0,1.863-1.624c-.013-.9-.638-1.442-1.818-1.913-1.625-.629-2.634-1.365-2.654-2.782a2.644,2.644,0,0,1,2.355-2.658l-.023-1.646.983-.014.022,1.581a4.138,4.138,0,0,1,2.067.541l-.38,1.081a3.752,3.752,0,0,0-2-.525c-1.22.018-1.668.773-1.659,1.425.011.847.6,1.263,1.991,1.83,1.642.661,2.478,1.5,2.5,2.948a2.807,2.807,0,0,1-2.464,2.806l.024,1.695-1,.015Z" transform="translate(-2176.377 -791.883)" fill="#fff"/>
      </g>
      <g id="Group_17865" data-name="Group 17865" transform="translate(199.418 60.182)">
        <path id="Path_27294" data-name="Path 27294" d="M2061.271,624.385a5.631,5.631,0,1,0-5.546,5.87,5.712,5.712,0,0,0,5.546-5.87Z" transform="translate(-2050.013 -618.674)" fill="#ecc05c"/>
        <path id="Path_27295" data-name="Path 27295" d="M2089.612,641.329l-.015-1.093a3,3,0,0,1-1.617-.453l.242-.729a2.743,2.743,0,0,0,1.522.444,1.117,1.117,0,0,0,1.238-1.079c-.009-.6-.424-.957-1.207-1.271-1.08-.417-1.75-.907-1.763-1.848a1.757,1.757,0,0,1,1.564-1.766l-.016-1.093.653-.01.015,1.05a2.76,2.76,0,0,1,1.374.359l-.253.718a2.492,2.492,0,0,0-1.331-.349c-.81.012-1.108.514-1.1.946.008.563.4.839,1.322,1.215,1.091.44,1.646.994,1.66,1.957a1.865,1.865,0,0,1-1.636,1.864l.016,1.126-.664.01Z" transform="translate(-2084.287 -631.092)" fill="#fff"/>
      </g>
      <circle id="Ellipse_370" data-name="Ellipse 370" cx="50.758" cy="50.758" r="50.758" fill="#0047bb"/>
    </g>
    <g id="Group_17867" data-name="Group 17867" transform="translate(44.566 18.643)">
      <path id="Path_27296" data-name="Path 27296" d="M459.5,191.651l1.872.507-1.121,4.136a1.144,1.144,0,0,0,.857,1.609,1.208,1.208,0,0,0,1.565-.953l1.121-4.136,1.872.507-1.879,6.937-1.78-.482.166-.615-.026-.007a2.493,2.493,0,0,1-2.091.3,2.4,2.4,0,0,1-1.792-3.239l1.237-4.568Z" transform="translate(-458.135 -191.65)" fill="#fff"/>
      <path id="Path_27297" data-name="Path 27297" d="M524.2,212.471l1.793.485-.131.484.026.007a2.746,2.746,0,0,1,2.03-.181c1.793.485,2.68,2.4,2.109,4.5s-2.3,3.31-4.082,2.828a2.49,2.49,0,0,1-1.6-1.163l-.026-.007-.929,3.429-1.872-.507,2.678-9.881Zm2.9,2.415a1.443,1.443,0,0,0-1.834,1.062l-.269,1a1.461,1.461,0,0,0,1.043,1.856c1.008.273,1.779-.291,2.116-1.534S528.1,215.16,527.1,214.886Z" transform="translate(-515.354 -210.445)" fill="#fff"/>
      <path id="Path_27298" data-name="Path 27298" d="M653.253,230.448l-.795,2.932c-.117.432.018.609.555.754l.759.205-.485,1.793-.943-.256c-1.715-.465-2.225-1.277-1.789-2.887l.826-3.05-1.191-.323.446-1.649,1.191.323.472-1.74,1.872.507-.472,1.74,1.715.465-.446,1.649-1.715-.465Z" transform="translate(-631.508 -223.155)" fill="#fff"/>
      <path id="Path_27299" data-name="Path 27299" d="M701.015,261.729a3.8,3.8,0,1,1-4.421,2.734,3.5,3.5,0,0,1,4.421-2.734Zm-.461,1.7c-.982-.266-1.753.3-2.09,1.541s.044,2.12,1.025,2.385,1.766-.295,2.1-1.538-.044-2.12-1.039-2.389Z" transform="translate(-673.246 -254.786)" fill="#fff"/>
    </g>
    <g id="Group_17868" data-name="Group 17868" transform="translate(15.655 63.706)">
      <path id="Path_27300" data-name="Path 27300" d="M165.457,655.026a3.078,3.078,0,0,1,2.433,3.412l-1.852-.164A1.334,1.334,0,0,0,165,656.728c-.929-.252-1.687.315-2.024,1.559s.031,2.116.96,2.368a1.317,1.317,0,0,0,1.68-.809l1.682.793a3.079,3.079,0,0,1-3.823,1.718,3.811,3.811,0,0,1,1.986-7.329Z" transform="translate(-160.933 -654.897)" fill="#fff"/>
      <path id="Path_27301" data-name="Path 27301" d="M233.99,676.534c1.17.036,1.564-.068,1.663-.435.11-.406-.166-.734-.782-.9a1.3,1.3,0,0,0-1.624.754l-1.612-.844a2.529,2.529,0,0,1,1.446-1.393,3.445,3.445,0,0,1,2.212-.075,2.64,2.64,0,0,1,2.127,3.4l-1.22,4.5-1.675-.454.149-.55-.026-.007a2.183,2.183,0,0,1-2.021.253,2.13,2.13,0,0,1-1.713-2.7c.315-1.164,1.18-1.605,3.077-1.555Zm1.3,1.167-.026-.007c-.174.177-.509.269-1.183.269-.9,0-1.242.126-1.341.493-.114.419.118.706.68.859.785.213,1.442-.031,1.6-.607Z" transform="translate(-224.028 -671.686)" fill="#fff"/>
      <path id="Path_27302" data-name="Path 27302" d="M302.423,696.455a1.521,1.521,0,0,0,1.218,1.777c.667.181,1.1.074,1.2-.279a.581.581,0,0,0-.08-.485,3.812,3.812,0,0,0-1.153-.931c-1.33-.8-2.147-1.41-1.843-2.79.319-1.178,1.693-1.789,3.185-1.384a3.274,3.274,0,0,1,1.719,1.07,2.716,2.716,0,0,1,.66,1.767l-1.78.037a1.366,1.366,0,0,0-1.01-1.355c-.537-.145-.941,0-1.026.312s.22.537,1.052,1.044a11.611,11.611,0,0,1,1.221.837,2.1,2.1,0,0,1,.813,2.286,1.98,1.98,0,0,1-1.185,1.365,3.337,3.337,0,0,1-2.189.039,3.065,3.065,0,0,1-2.587-3.314l1.783.006Z" transform="translate(-287.037 -688.605)" fill="#fff"/>
      <path id="Path_27303" data-name="Path 27303" d="M368.429,679.64l1.872.507-.876,3.233.026.007a2.341,2.341,0,0,1,2.039-.318,2.527,2.527,0,0,1,1.844,3.253l-1.237,4.568-1.872-.507,1.114-4.11a1.2,1.2,0,0,0-.906-1.636,1.216,1.216,0,0,0-1.608.955l-1.114,4.11-1.872-.507,2.589-9.555Z" transform="translate(-345.907 -677.233)" fill="#fff"/>
      <path id="Path_27304" data-name="Path 27304" d="M482.7,740.813c1.924.521,2.858,2.362,2.266,4.548l-.149.55-4.646-1.259a1.459,1.459,0,0,0,1.008,1.931,2,2,0,0,0,1.955-.58l1.042,1.392a3.452,3.452,0,0,1-3.423.759c-1.95-.528-2.91-2.377-2.318-4.562s2.354-3.3,4.265-2.778Zm.656,3.282a1.361,1.361,0,0,0-1.068-1.708,1.409,1.409,0,0,0-1.759.943l2.827.767Z" transform="translate(-447.396 -732.342)" fill="#fff"/>
      <path id="Path_27305" data-name="Path 27305" d="M552.32,762.794c1.17.036,1.564-.068,1.663-.435.11-.406-.166-.733-.782-.9a1.3,1.3,0,0,0-1.623.754l-1.612-.844a2.529,2.529,0,0,1,1.445-1.393,3.445,3.445,0,0,1,2.212-.075,2.64,2.64,0,0,1,2.127,3.4l-1.22,4.5-1.675-.454.149-.55-.026-.007a2.183,2.183,0,0,1-2.021.253,2.13,2.13,0,0,1-1.713-2.7c.315-1.164,1.18-1.605,3.077-1.555Zm1.3,1.167-.026-.007c-.174.177-.509.269-1.183.269-.9,0-1.242.126-1.341.493-.114.419.118.706.68.859.785.213,1.442-.031,1.6-.607Z" transform="translate(-511.392 -749.555)" fill="#fff"/>
      <path id="Path_27306" data-name="Path 27306" d="M626.687,780.006a3.078,3.078,0,0,1,2.433,3.412l-1.852-.164a1.334,1.334,0,0,0-1.042-1.547c-.929-.252-1.687.315-2.024,1.559s.031,2.116.96,2.368a1.317,1.317,0,0,0,1.68-.809l1.682.793a3.079,3.079,0,0,1-3.823,1.718,3.811,3.811,0,0,1,1.986-7.329Z" transform="translate(-577.297 -767.719)" fill="#fff"/>
      <path id="Path_27307" data-name="Path 27307" d="M693.63,767.76l1.872.507-.876,3.232.026.007a2.34,2.34,0,0,1,2.039-.318,2.527,2.527,0,0,1,1.844,3.253l-1.237,4.568-1.872-.507,1.114-4.11a1.2,1.2,0,0,0-.906-1.636,1.216,1.216,0,0,0-1.608.955l-1.114,4.11-1.872-.507,2.589-9.554Z" transform="translate(-639.473 -756.781)" fill="#fff"/>
    </g>
    <g id="Group_17870" data-name="Group 17870" transform="translate(19.104 26.964)">
      <g id="Group_17869" data-name="Group 17869" transform="translate(12.204 6.478)">
        <path id="Path_27308" data-name="Path 27308" d="M327.526,372.044l-4.277-1.124,5.173-19.694a15.21,15.21,0,0,1-6.582,2.5l1.246-4.742a12.278,12.278,0,0,0,4.38-1.615,10.352,10.352,0,0,0,3.787-3.594l3.459.909-7.186,27.355Z" transform="translate(-321.84 -343.78)" fill="#fff"/>
        <path id="Path_27309" data-name="Path 27309" d="M459.339,382.259a6.258,6.258,0,0,1,4.449,4.477q1.2,3.622-.836,11.352-2.027,7.712-4.847,10.279a6.224,6.224,0,0,1-10.515-2.732q-1.2-3.594.852-11.417,2.016-7.675,4.838-10.241a6.246,6.246,0,0,1,6.057-1.717Zm-1.129,4.336a2.384,2.384,0,0,0-2.464,1.14q-1.195,1.474-2.835,7.716t-1.321,8.1q.32,1.862,1.588,2.195a2.375,2.375,0,0,0,2.473-1.138q1.185-1.475,2.821-7.7,1.64-6.242,1.333-8.11T458.209,386.595Z" transform="translate(-434.958 -378.326)" fill="#fff"/>
        <path id="Path_27310" data-name="Path 27310" d="M644.719,430.959a6.259,6.259,0,0,1,4.449,4.477q1.2,3.622-.836,11.352c-1.354,5.154-2.967,8.568-4.847,10.279a6.224,6.224,0,0,1-10.515-2.732q-1.2-3.594.852-11.417,2.016-7.675,4.838-10.241a6.246,6.246,0,0,1,6.057-1.717Zm-1.129,4.336a2.384,2.384,0,0,0-2.464,1.14q-1.2,1.474-2.835,7.716t-1.321,8.1q.32,1.862,1.588,2.195a2.387,2.387,0,0,0,2.473-1.138q1.185-1.475,2.821-7.7,1.64-6.242,1.333-8.11T643.589,435.295Z" transform="translate(-602.305 -422.289)" fill="#fff"/>
      </g>
      <path id="Path_27311" data-name="Path 27311" d="M199.657,292.014l1.194-4.544a5.375,5.375,0,0,1-.359-8.5,3.67,3.67,0,0,1,2.777-.708l.282-1.074,1.279.337-.282,1.074a3.754,3.754,0,0,1,1.931,1.741,4.939,4.939,0,0,1,.4,2.9l-2.339-.232A2.254,2.254,0,0,0,203.92,281l-1.114,4.24a5.8,5.8,0,0,1,2.367,2.418,5.137,5.137,0,0,1,.084,3.256A5.566,5.566,0,0,1,203.379,294a4.28,4.28,0,0,1-3.111.9l-.533,2.028-1.279-.337.518-1.974q-3.077-1.306-2.494-5.686l2.4.306a4.2,4.2,0,0,0,.14,1.63,2.678,2.678,0,0,0,.637,1.147Zm2.991-11.386a1.842,1.842,0,0,0-1.013.5,2.121,2.121,0,0,0-.622,1.042,2.085,2.085,0,0,0,.648,2.21l.985-3.752ZM200.9,292.5a1.829,1.829,0,0,0,1.271-.448,2.443,2.443,0,0,0,.8-1.313,2.106,2.106,0,0,0-.963-2.467L200.9,292.5Z" transform="translate(-196.387 -277.19)" fill="#fff"/>
    </g>
  </g>
</svg>
