<svg xmlns="http://www.w3.org/2000/svg" width="437.502" height="198.732" viewBox="0 0 437.502 198.732">
  <g id="Layer_2" data-name="Layer 2" transform="translate(0 -0.003)">
    <g id="_ÎÓÈ_1" data-name="—ÎÓÈ_1" transform="translate(0 0.003)">
      <path id="Path_24930" data-name="Path 24930" d="M1043.659,1322.76h.408C1043.932,1322.763,1043.8,1322.76,1043.659,1322.76Z" transform="translate(-888.229 -1125.839)" fill="#dee5fc"/>
      <path id="Path_24931" data-name="Path 24931" d="M437.273,147.058a43.891,43.891,0,0,0-1.73-8.1C430.88,123.9,418.961,109.8,411.287,95.185c-8.591-16.376-5.441-34.955-18.7-50.406-16.13-18.8-52.385-24.32-83.231-30.94-39.875-8.557-81.89-16.1-124.924-13.2-30.318,2.047-60.064,9.491-81.273,22.424C86.468,33.232,75.871,46.053,63.763,58.1,51.236,70.575,35.04,78.823,19.425,89.564c-36.052,24.8-16.729,65.978,15.8,92.177a62.691,62.691,0,0,0,5.416,3.9c.4.253.795.5,1.191.744a68.962,68.962,0,0,0,35.311,9.9l7.195.06,4.113.033,27.022.22c.527,0,1.056.009,1.588.013l12.608.1,6.512.052q6.154.049,12.58.1l3.208.027a1.357,1.357,0,0,1,.274,0c.3-.015.6-.031.907-.04s.572-.012.859,0c.222,0,.447.025.668.033h.275a1.863,1.863,0,0,1,.316,0c.055,0,.068.01.037.013a.055.055,0,0,1,.022,0h.089a7.873,7.873,0,0,1,1.088.039l3.019.024h.3l14.115.116h.49a1.344,1.344,0,0,1,.256,0h.424a1.455,1.455,0,0,1,.183,0h.112l1.236.01,16.354.132,1.236.01,10.868.089h.063a.492.492,0,0,1,.082,0h1.137a1.223,1.223,0,0,1,.2,0h.469a1.876,1.876,0,0,1,.241,0,1.4,1.4,0,0,1,.194,0l5.374.043a1.59,1.59,0,0,1,.411,0,1.438,1.438,0,0,1,.386.01H214a.33.33,0,0,1,.064,0h.686l3.631.03h1.063a.309.309,0,0,1,.052,0h.555a.974.974,0,0,1,.246.01,2.311,2.311,0,0,1,.344,0h.223a.517.517,0,0,1,.082,0l5.145.042,17.089.14,5.657.045,18.345.149,15.91.133,7.753.061c.412,0,.823,0,1.236.01h0l13.049.107,1.236.009,1.862.016c10.868.091,20.842.173,29.6.243q2.1.021,4.113.034l27.095.223,1.77.013,4.221.036a71.354,71.354,0,0,0,8.039-.341,66.736,66.736,0,0,0,6.684-1h0a66.269,66.269,0,0,0,12.72-3.9q2.045-.86,3.988-1.839a64.986,64.986,0,0,0,15.143-10.46q.6-.554,1.179-1.125c9.5-9.3,14.738-20.364,14.719-28.921A37.626,37.626,0,0,0,437.273,147.058Z" transform="translate(0 -0.003)" fill="#ebf3ff"/>
      <rect id="Rectangle_2075" data-name="Rectangle 2075" width="25.628" height="2.66" transform="translate(250.409 140.015) rotate(180)" fill="#8fb3f6"/>
      <rect id="Rectangle_2076" data-name="Rectangle 2076" width="26.081" height="1.644" transform="translate(251.852 137.378) rotate(180)" fill="#060633"/>
      <path id="Path_24932" data-name="Path 24932" d="M1240.54,687.86v64.582h47.688V687.86" transform="translate(-1055.859 -585.458)" fill="#617fcc"/>
      <rect id="Rectangle_2077" data-name="Rectangle 2077" width="61.11" height="9.307" transform="translate(245.79 166.368) rotate(180)" fill="#617fcc"/>
      <path id="Path_24933" data-name="Path 24933" d="M1163.53,696.623a1.191,1.191,0,0,0,1.191-1.191V622.071a1.191,1.191,0,0,0-1.191-1.191h-12.279a1.191,1.191,0,0,0,0,2.382h11.088v72.173A1.191,1.191,0,0,0,1163.53,696.623Z" transform="translate(-978.849 -528.449)" fill="#769ddb"/>
      <path id="Path_24934" data-name="Path 24934" d="M1404.766,1157.078h.552a.973.973,0,0,1,.246.01,2.346,2.346,0,0,1,.344,0h.211l-11.228-28.8a1.191,1.191,0,1,0-2.217.865l10.886,27.924h.716a.258.258,0,0,1,.058,0l.219-.012h.158A.5.5,0,0,1,1404.766,1157.078Z" transform="translate(-1185.258 -959.627)" fill="#769ddb"/>
      <path id="Path_24935" data-name="Path 24935" d="M2239.762,315.051c-.358,2.035.417,4.072.894,6.084s.567,4.378-.852,5.882c-1.021,1.082-2.66,1.513-3.469,2.762-.67,1.032-.613,2.394-1.222,3.464-1.149,2.017-3.961,2.112-6.281,2.047-.384-.012-.783-.012-1.191.009-2.031.1-4.145.652-4.838,2.464-.278.729-.3,1.638-.923,2.109a2.291,2.291,0,0,1-.863.362,16,16,0,0,1-8.325-.124c-2.313-.664-4.477-1.853-6.848-2.224-2.781-.435-5.824.235-8.535-.137a7.181,7.181,0,0,1-3.074-1.1,5.987,5.987,0,0,1-2.618-5.13c.035-.932.256-2-.359-2.7a4.085,4.085,0,0,0-1.5-.82,4.849,4.849,0,0,1-2.3-6.29c.811-1.676,2.638-2.952,2.653-4.815.01-1.516-1.246-2.977-.782-4.415a3.973,3.973,0,0,1,1.656-1.822l5.122-3.677c.91-.655,1.9-1.447,2.013-2.561.068-.7-.241-1.4-.227-2.105.034-1.507,1.5-2.586,2.942-3.031s3.009-.523,4.329-1.245a1.469,1.469,0,0,0,.555-.456,3.183,3.183,0,0,0,.267-1.091c.3-1.358,1.823-1.882,3.275-1.965a7.965,7.965,0,0,1,.821,0c.533.028,1.1.063,1.654.051a3.653,3.653,0,0,0,2.977-1.114c.357-.447.573-1.053,1.083-1.313a2.181,2.181,0,0,1,1.435-.025,16.985,16.985,0,0,1,4.825,1.34c1.736.956,3.08,1.992,5.1,2.373a10.783,10.783,0,0,1,2.233.506c3.6,1.511,3.117,7.545,6.622,9.257,1.489.731,3.475.5,4.615,1.708a3.927,3.927,0,0,1,.49,3.871A30.949,30.949,0,0,0,2239.762,315.051Z" transform="translate(-1861.443 -248.549)" fill="#0e0e35"/>
      <rect id="Rectangle_2078" data-name="Rectangle 2078" width="4.112" height="19.201" transform="translate(328.056 143.512)" fill="#14161a"/>
      <rect id="Rectangle_2079" data-name="Rectangle 2079" width="53.818" height="16.097" rx="7.02" transform="translate(365.7 174.611) rotate(180)" fill="#02bcb2"/>
      <rect id="Rectangle_2080" data-name="Rectangle 2080" width="41.788" height="41.788" rx="6.88" transform="translate(349.129 147.055) rotate(180)" fill="#02bcb2"/>
      <path id="Path_24936" data-name="Path 24936" d="M2273.483,1172.9v23.843l-4.113-.034V1172.9Z" transform="translate(-1931.526 -998.289)" fill="#14161a"/>
      <path id="Path_24937" data-name="Path 24937" d="M2294.971,1017.877a66.227,66.227,0,0,0,12.719-3.9q2.046-.86,3.989-1.839c-.408-10.3-1.664-26.676-5.528-29.975-8.588-7.335-20.04-12.459-25.863-14.78-2.32-.925-3.746-1.407-3.746-1.407l-22.2-1.157-6.848-.356h0l-8.856-.461s-.137,1.419-.173,3.543a42.134,42.134,0,0,0,1.2,11.463c.82,2.9,2.163,5.44,4.332,6.713,5.012,2.937,16.823,6.369,23.67,9.379,2.818,1.242,4.794,2.412,5.111,3.448.781,2.555,1.261,14.253,1.468,20.619l1.77.013,4.221.036a71.326,71.326,0,0,0,8.039-.341Z" transform="translate(-1905.214 -820.488)" fill="#001b47"/>
      <path id="Path_24938" data-name="Path 24938" d="M2189.777,559.57s-16.48,4.737-20.865,10.068-9.714,32.036-8.234,39.115,30.8,14.57,30.8,14.57,13.72,3.149,22.405,0l-.4-16.517s3.752,7.444,12.042,7.444,19.938-22.291,19.938-22.291l-6.12-4.753s-8.215,7.991-13.73,9.486a2.193,2.193,0,0,1-2.709-1.539c-1.538-5.755-6.716-24.162-11.2-28.476C2206.377,561.544,2189.777,559.57,2189.777,559.57Z" transform="translate(-1838.8 -476.267)" fill="#fff"/>
      <path id="Path_24939" data-name="Path 24939" d="M2502.124,721.413a.1.1,0,0,1-.1-.1l-.4-11.7a.111.111,0,0,1,.013-.052,18.016,18.016,0,0,0,2.061-7.453c0-3.68-4.075-7.781-4.116-7.823a.105.105,0,0,1,.149-.149c.042.043,4.176,4.219,4.176,7.969a18.155,18.155,0,0,1-2.072,7.526l.395,11.674a.1.1,0,0,1-.1.107Z" transform="translate(-2127.442 -590.771)" fill="#0e0e35"/>
      <path id="Path_24940" data-name="Path 24940" d="M2313.316,320.157a11.355,11.355,0,0,0-9.969,15.731c1.475,3.987,2.7,7.2,4.253,9.556a11.273,11.273,0,0,1,1.787,8.078l-.474,2.851c6.53,3.451,9.48.764,9.48.764l.164-7.146h0c7.161-.689,6.51-13.893,6.6-17.789h-.01c.009-.149.018-.3.021-.447a11.354,11.354,0,0,0-11.85-11.6Z" transform="translate(-1959.694 -272.486)" fill="#a95b3c"/>
      <path id="Path_24941" data-name="Path 24941" d="M2300.5,328.114a48.732,48.732,0,0,0-3.908,4.482c-1.313,1.638-2.68,3.376-3.006,5.449a14.633,14.633,0,0,1-3.887-5.669,10.666,10.666,0,0,1-.981-3.052,11.868,11.868,0,0,1,.624-4.484,12.383,12.383,0,0,1,2.406-5.3,9.409,9.409,0,0,1,3.229-2.127,15.974,15.974,0,0,1,8.873-1.288,11.508,11.508,0,0,1,7.579,4.567c2.233,3.2,2.4,7.357,2.477,11.258a11.481,11.481,0,0,0-2.4-4.329,9.911,9.911,0,0,0-2.233-2.333c-1.543-1.017-1.985-.813-4.683-2.733C2303.812,324.936,2302.278,326.384,2300.5,328.114Z" transform="translate(-1947.955 -268.912)" fill="#0e0e35"/>
      <path id="Path_24942" data-name="Path 24942" d="M2306.1,440.994a1.688,1.688,0,0,0-.865-.82,2.852,2.852,0,0,0-3.126.217c-1.426,1.364,1.3,5.123,4.109,3.35C2306.227,443.741,2307.033,442.962,2306.1,440.994Z" transform="translate(-1959.059 -374.333)" fill="#a95b3c"/>
      <path id="Path_24943" data-name="Path 24943" d="M2427.412,429.656a.99.99,0,1,0-.371.662.992.992,0,0,0,.371-.662Z" transform="translate(-2064.358 -364.748)" fill="#0e0e35"/>
      <path id="Path_24944" data-name="Path 24944" d="M2364.459,435.234a.99.99,0,1,0-1.1.866A.99.99,0,0,0,2364.459,435.234Z" transform="translate(-2010.779 -369.498)" fill="#0e0e35"/>
      <path id="Path_24945" data-name="Path 24945" d="M2392.561,474.361s-1.349-.793-1.85-.637a1.474,1.474,0,0,0-.76.777,1.17,1.17,0,0,0-.938-.6,10.6,10.6,0,0,0-2.633,1.237s2.02,2.559,3.871,2.159c1.888-.406,2.307-2.946,2.307-2.946Z" transform="translate(-2031.116 -403.183)" fill="#80442d"/>
      <path id="Path_24946" data-name="Path 24946" d="M2351.007,418.258a.416.416,0,0,1-.324-.129.411.411,0,0,1,.019-.582,4.936,4.936,0,0,1,3.092-1.167.412.412,0,0,1,.418.406.42.42,0,0,1-.4.417,4.113,4.113,0,0,0-2.543.945A.412.412,0,0,1,2351.007,418.258Z" transform="translate(-2000.638 -354.393)" fill="#0e0e35"/>
      <path id="Path_24947" data-name="Path 24947" d="M2420.965,409.3a.412.412,0,0,1,.126-.765,4.9,4.9,0,0,1,3.234.682.412.412,0,0,1,.134.567.417.417,0,0,1-.567.134,4.094,4.094,0,0,0-2.65-.573A.42.42,0,0,1,2420.965,409.3Z" transform="translate(-2060.373 -347.674)" fill="#0e0e35"/>
      <path id="Path_24948" data-name="Path 24948" d="M2399.677,437.046a1.773,1.773,0,0,0,1.637-1.527.351.351,0,0,0-.071-.247,5.122,5.122,0,0,1-.869-3.2.347.347,0,0,0-.691-.063,5.821,5.821,0,0,0,.917,3.56c-.075.272-.37.878-1.482.8a.347.347,0,1,0-.049.691A3.055,3.055,0,0,0,2399.677,437.046Z" transform="translate(-2041.625 -367.435)" fill="#80442d"/>
      <path id="Path_24949" data-name="Path 24949" d="M2386.38,478.908a58.836,58.836,0,0,0,6.181-.788s-1.055,1.953-2.5,2.008A9.346,9.346,0,0,1,2386.38,478.908Z" transform="translate(-2031.116 -406.942)" fill="#fff"/>
      <path id="Path_24950" data-name="Path 24950" d="M2284.151,745.372,2261.2,735.6l.01-.058,3.183-18.122.147.027-3.174,18.063,22.843,9.726Z" transform="translate(-1924.572 -610.617)" fill="#0e0e35"/>
      <path id="Path_24951" data-name="Path 24951" d="M2415.681,871.059a50.862,50.862,0,0,1,5.7-3.683c1.683-.741,2.771-2.712,3.5-1.935s-1.684,3.369-1.684,3.369,3.743.22,4.9.112,3.284.228,3.424,1.072-5.465.968-5.465.968,4.733.359,5.033,1.108-5.79,1.179-5.79,1.179,5.062.134,5.455.491-.053.869-1.859,1.256a17.522,17.522,0,0,1-3.749.319,39.912,39.912,0,0,1,3.965.554c.412.192.836.756-1.9,1.042s-8.752-.043-11.691-1.429Z" transform="translate(-2055.927 -736.45)" fill="#a95b3c"/>
      <path id="Path_24952" data-name="Path 24952" d="M2292.218,412.406c.28-2.611-1.2-4.913-3.308-5.136s-4.043,1.706-4.317,4.317,1.2,4.913,3.308,5.135S2291.939,415.015,2292.218,412.406Z" transform="translate(-1944.454 -346.624)" fill="#f9f162"/>
      <path id="Path_24953" data-name="Path 24953" d="M2315.167,308.9a11.591,11.591,0,0,0-1.256,1.724,15.457,15.457,0,0,0-.833,1.587c-1.833,4-2.346,8.98-2.653,11.63-.059.5-.109.92-.16,1.233l-1.715-.092c.022-.5.051-.987.084-1.463a41.76,41.76,0,0,1,1.514-8.719,30.13,30.13,0,0,1,1.1-3.126,16.637,16.637,0,0,1,1.444-2.814,7.96,7.96,0,0,1,.82,0C2314.042,308.879,2314.607,308.913,2315.167,308.9Z" transform="translate(-1964.873 -262.871)" fill="#f9f162"/>
      <path id="Path_24954" data-name="Path 24954" d="M2321.017,450.709a24.754,24.754,0,0,1-9.146-7.467l.744-.531a24.263,24.263,0,0,0,8.772,7.158Z" transform="translate(-1967.699 -376.804)" fill="#f9f162"/>
      <path id="Path_24955" data-name="Path 24955" d="M2369.74,489.938l-.481-.127a1,1,0,0,1-.712-1.216h0a1,1,0,0,1,1.218-.71l.481.127a1,1,0,0,1,.71,1.216h0A1,1,0,0,1,2369.74,489.938Z" transform="translate(-2015.911 -415.226)" fill="#001b47"/>
      <rect id="Rectangle_2081" data-name="Rectangle 2081" width="4.112" height="19.201" transform="translate(204.651 141.993)" fill="#0e0e35"/>
      <path id="Path_24956" data-name="Path 24956" d="M1516.2,385.153c-.633-2.561.528-5.05,2.595-5.56s4.255,1.149,4.887,3.71-.529,5.056-2.6,5.559S1516.837,387.712,1516.2,385.153Z" transform="translate(-1290.337 -323.004)" fill="#6fd16f"/>
      <path id="Path_24957" data-name="Path 24957" d="M1377.085,936.527l-18.345-.149-5.6-21.205-.052-.2v21.357l-17.089-.14-2.977-16.863-19.2-12.97a22.231,22.231,0,0,1-9.778-18.99l.228-8.794,16.7-4.841.1-.027,6.372-1.846h0l2.68-.776.63-.183h0l2.934-.85,2.482-.721,2.476-.718,2.5-.725,13.5,10.33-.744,12.654h.049l15.121,12.408a16.757,16.757,0,0,1,6.058,11.453Z" transform="translate(-1109.898 -738.686)" fill="#001b47"/>
      <path id="Path_24958" data-name="Path 24958" d="M1383.979,531.64h11.258l4.362,18.868v36.2s-10.333,5.005-23.939-1.541l3.967-42.357Z" transform="translate(-1170.864 -452.494)" fill="#fff"/>
      <path id="Path_24959" data-name="Path 24959" d="M1245.932,531.64s-16.983,7.188-20.319,11.814c-3.083,4.268-2.65.208-11.527,24.162a9.909,9.909,0,0,0,1.234,9.214,6.686,6.686,0,0,0,3.113,2.342l8.746,3.263-.925,22.244,16.943,1.669Z" transform="translate(-1032.817 -452.494)" fill="#3e6dbb"/>
      <path id="Path_24960" data-name="Path 24960" d="M1507.16,531.64s16.983,7.188,20.319,11.808-.642,61.225-.642,61.225l-16.942,1.669Z" transform="translate(-1282.787 -452.494)" fill="#3e6dbb"/>
      <path id="Path_24961" data-name="Path 24961" d="M1387.05,534.676l3.335,13.745-3.335,1.395,4.914,28.5,1.709-46.676Z" transform="translate(-1180.558 -452.494)" fill="#0047bb"/>
      <path id="Path_24962" data-name="Path 24962" d="M1615.75,587.36a19.287,19.287,0,0,1,8,9.933c2.379,6.841,7.368,25.534,11.834,27.145,3.573,1.283,22.673,5.641,22.673,5.641l4.112,7.89s-16.288,0-33.3-.837c-10.436-.512-12.016-27.79-12.016-27.79Z" transform="translate(-1375.211 -499.919)" fill="#3e6dbb"/>
      <path id="Path_24963" data-name="Path 24963" d="M1513.783,534.676l-3.336,13.745,3.336,1.395-4.914,28.5-1.709-46.676Z" transform="translate(-1282.787 -452.494)" fill="#0047bb"/>
      <path id="Path_24964" data-name="Path 24964" d="M1404.284,819.556a51.594,51.594,0,0,1,6.653-1.952c1.867-.237,3.5-1.85,3.994-.878s-2.628,2.811-2.628,2.811,3.6,1.3,4.764,1.533,3.148,1.176,3.046,2.044-5.633-.639-5.633-.639,4.532,1.725,4.615,2.546-6.011-.527-6.011-.527,4.922,1.6,5.2,2.066-.3.834-2.185.689a17.924,17.924,0,0,1-3.765-.777,40.518,40.518,0,0,1,3.722,1.694c.347.308.6.984-2.163.475s-8.557-2.583-11.031-4.8Z" transform="translate(-1194.014 -694.876)" fill="#fcd3a3"/>
      <path id="Path_24965" data-name="Path 24965" d="M1518.4,1046.566a.207.207,0,0,0,.207-.207c0-.07-.048-7.08-4.206-12.525-2.635-3.451-15.29-11.222-15.828-11.549a.206.206,0,1,0-.216.351c.131.08,13.128,8.06,15.715,11.448,4.075,5.335,4.121,12.207,4.121,12.274A.207.207,0,0,0,1518.4,1046.566Z" transform="translate(-1275.212 -870.071)" fill="#121054"/>
      <path id="Path_24966" data-name="Path 24966" d="M1318.417,732.084a.1.1,0,0,0,.1-.073l2.756-8.922a.106.106,0,0,0-.048-.119l-15-8.635,4.177-9.991a.1.1,0,0,0-.191-.079L1306,714.332a.1.1,0,0,0,.043.13l15,8.645-2.7,8.755L1305,729.2a.1.1,0,1,0-.04.2l13.436,2.68Z" transform="translate(-1110.618 -599.367)" fill="#1d1c2e"/>
      <path id="Path_24967" data-name="Path 24967" d="M1409.641,309.758h-.01c-.009-.149-.016-.3-.03-.438a11.295,11.295,0,1,0-21.1,6.553c1.282,2.531,2.4,4.7,3.546,6.485a16.14,16.14,0,0,1,2.449,9.936l-.211,2.745c7.249,3.05,10.089-.659,10.089-.659l-.326-4.975a1.255,1.255,0,0,1,1.064-1.318h.012C1413.645,326.741,1409.993,313.62,1409.641,309.758Z" transform="translate(-1180.566 -254.539)" fill="#fcd3a3"/>
      <path id="Path_24968" data-name="Path 24968" d="M1452.527,412.213a1.051,1.051,0,1,0-.239.769A1.051,1.051,0,0,0,1452.527,412.213Z" transform="translate(-1234.502 -350.034)" fill="#0e0e35"/>
      <path id="Path_24969" data-name="Path 24969" d="M1513.9,394a1.051,1.051,0,1,0-.953,1.143A1.051,1.051,0,0,0,1513.9,394Z" transform="translate(-1286.735 -334.535)" fill="#0e0e35"/>
      <path id="Path_24970" data-name="Path 24970" d="M1434.5,393.849a.618.618,0,0,1-.61-.881,3.3,3.3,0,0,1,4.386-1.46.616.616,0,1,1-.447,1.148,2.081,2.081,0,0,0-2.828.847A.615.615,0,0,1,1434.5,393.849Z" transform="translate(-1220.371 -332.961)" fill="#0e0e35"/>
      <path id="Path_24971" data-name="Path 24971" d="M1499.437,376.849a.618.618,0,0,1-.61-.881,3.3,3.3,0,0,1,4.386-1.46.616.616,0,0,1-.447,1.148,2.083,2.083,0,0,0-2.829.847A.615.615,0,0,1,1499.437,376.849Z" transform="translate(-1275.643 -318.491)" fill="#0e0e35"/>
      <path id="Path_24972" data-name="Path 24972" d="M1381.08,369.352l3.746,7.332,2.008-.6.332-9.928Z" transform="translate(-1175.477 -311.65)" fill="#0e0e35"/>
      <path id="Path_24973" data-name="Path 24973" d="M1397.136,425.768a1.683,1.683,0,0,0-.948-.713,2.831,2.831,0,0,0-3.062.567c-1.256,1.508,1.858,4.913,4.44,2.846C1397.565,428.473,1398.279,427.617,1397.136,425.768Z" transform="translate(-1185.485 -361.605)" fill="#e2918f"/>
      <path id="Path_24974" data-name="Path 24974" d="M1491.548,411.6a2.107,2.107,0,0,1-1.916.118.183.183,0,0,1,.164-.326,1.718,1.718,0,0,0,2.01-.478c.149-.162.223-.29.219-.38,0-.125-.17-.272-.4-.478a5.375,5.375,0,0,1-1.824-3.175.182.182,0,0,1,.138-.217.183.183,0,0,1,.219.138,4.959,4.959,0,0,0,1.71,2.977c.283.253.506.447.52.731a.914.914,0,0,1-.316.645A2.385,2.385,0,0,1,1491.548,411.6Z" transform="translate(-1267.794 -346.12)" fill="#ab7333"/>
      <path id="Path_24975" data-name="Path 24975" d="M1523.93,337.718s1.72.989,2.739,7.779c0,0-.149-7.659-1.067-8.422S1523.93,337.718,1523.93,337.718Z" transform="translate(-1297.06 -286.702)" fill="#0e0e35"/>
      <path id="Path_24976" data-name="Path 24976" d="M1381.309,290.893c.323-.331.919-.6,1.191-.222a.809.809,0,0,1,.1.537,4.981,4.981,0,0,1-.38,1.572c1.9-2.224,5.062-2.915,7.985-2.872s5.827.683,8.748.539c1.157-.057,2.546-.138,3.226.8a1.986,1.986,0,0,1-.11,2.266,3.484,3.484,0,0,1-2.032,1.233,1.577,1.577,0,0,1,1.98,2.233c-.5.868-1.638,1.06-2.643,1.142a89.2,89.2,0,0,1-9.547.269l1.389,1.121a1.216,1.216,0,0,1,.4.447.893.893,0,0,1-.138.793,2.363,2.363,0,0,1-1.858.948,9.531,9.531,0,0,1-2.147-.232,17.01,17.01,0,0,0-3.147-.217,1.555,1.555,0,0,0-.64.109,1.965,1.965,0,0,0-.63.6c-1.121,1.347-2.9,1.92-4.573,2.431-.521.158-1.21.259-1.5-.2a1.222,1.222,0,0,1-.134-.612,14.1,14.1,0,0,1,1.758-7.26.794.794,0,0,1-1.44.046c-.447-.84.61-1.533,1.2-1.877.542-.316,1.058-.383,1.462-.91C1380.46,292.75,1380.526,291.7,1381.309,290.893Z" transform="translate(-1171.864 -246.749)" fill="#0e0e35"/>
      <path id="Path_24977" data-name="Path 24977" d="M1484,450.1l5.955-1.437s-.341,3.3-2.5,3.3A4.586,4.586,0,0,1,1484,450.1Z" transform="translate(-1263.075 -381.868)" fill="#fff"/>
      <path id="Path_24978" data-name="Path 24978" d="M1379.133,405.761c-.633-2.559.529-5.048,2.6-5.559s4.253,1.149,4.887,3.708-.53,5.048-2.589,5.562S1379.767,408.322,1379.133,405.761Z" transform="translate(-1173.673 -340.546)" fill="#6fd16f"/>
      <path id="Path_24979" data-name="Path 24979" d="M1397.681,292s-5.939,4.215-6.339,9.455a28.943,28.943,0,0,0,.555,8.819l-1.848.527s-2.275-11.91,3-16.242C1393.051,294.562,1394.093,292.789,1397.681,292Z" transform="translate(-1182.696 -248.53)" fill="#6fd16f"/>
      <circle id="Ellipse_161" data-name="Ellipse 161" cx="14.561" cy="14.561" r="14.561" transform="translate(142.422 27.851) rotate(-13.28)" fill="#769ddb"/>
      <circle id="Ellipse_162" data-name="Ellipse 162" cx="11.584" cy="11.584" r="11.584" transform="translate(148.073 26.979)" fill="#fff"/>
      <path id="Path_24980" data-name="Path 24980" d="M1066.234,250.857a1.3,1.3,0,1,0-1.3,1.3A1.3,1.3,0,0,0,1066.234,250.857Z" transform="translate(-905.295 -212.408)" fill="#769ddb"/>
      <path id="Path_24981" data-name="Path 24981" d="M1066.4,205.135h-.259a.258.258,0,1,1,0-.514h0l.012-7.993-.322.467a.259.259,0,0,1-.424-.3l.794-1.148a.253.253,0,0,1,.287-.1.258.258,0,0,1,.182.246l-.015,9.081A.256.256,0,0,1,1066.4,205.135Z" transform="translate(-906.762 -166.429)" fill="#769ddb"/>
      <path id="Path_24982" data-name="Path 24982" d="M1071.849,197.153a.256.256,0,0,1-.2-.1l-.875-1.075a.257.257,0,0,1,.4-.325l.875,1.075a.257.257,0,0,1-.2.42Z" transform="translate(-911.316 -166.45)" fill="#769ddb"/>
      <path id="Path_24983" data-name="Path 24983" d="M1035.158,258.126a.253.253,0,0,1-.185-.077l-.765-.792a.258.258,0,0,1,.185-.436h0l6.038.013a.259.259,0,0,1,.258.258v.259a.258.258,0,1,1-.515,0h0l-5.175-.012.342.356a.255.255,0,0,1,0,.363A.26.26,0,0,1,1035.158,258.126Z" transform="translate(-880.183 -218.587)" fill="#769ddb"/>
      <path id="Path_24984" data-name="Path 24984" d="M1034.421,252.328a.25.25,0,0,1-.162-.058.258.258,0,0,1-.037-.362l.715-.875a.259.259,0,0,1,.363-.036.256.256,0,0,1,.036.362l-.715.875a.255.255,0,0,1-.2.094Z" transform="translate(-880.206 -213.582)" fill="#769ddb"/>
      <path id="Path_24985" data-name="Path 24985" d="M276.385,973.683l-2.084,40.91c-.4-.244-.8-.494-1.191-.744l2.053-40.225a.618.618,0,0,1,1.233.063Z" transform="translate(-232.452 -828.205)" fill="#14161a"/>
      <path id="Path_24986" data-name="Path 24986" d="M2034.594,1007.947l-1.236-.009-2.858-55.891a.618.618,0,0,1,1.233-.064Z" transform="translate(-1728.216 -809.786)" fill="#14161a"/>
      <path id="Path_24987" data-name="Path 24987" d="M1938.67,1007.83c-.412,0-.823,0-1.236-.01l-2.845-55.773a.618.618,0,0,1,1.233-.064Z" transform="translate(-1646.585 -809.785)" fill="#14161a"/>
      <path id="Path_24988" data-name="Path 24988" d="M2821.862,989.8c-.385.38-.778.756-1.179,1.125l-1.983-38.881a.618.618,0,0,1,1.232-.064Z" transform="translate(-2399.076 -809.786)" fill="#14161a"/>
      <rect id="Rectangle_2082" data-name="Rectangle 2082" width="4.112" height="19.201" transform="translate(74.568 143.512)" fill="#14161a"/>
      <rect id="Rectangle_2083" data-name="Rectangle 2083" width="53.818" height="16.097" rx="7.02" transform="translate(112.212 174.611) rotate(180)" fill="#02bcb2"/>
      <rect id="Rectangle_2084" data-name="Rectangle 2084" width="41.788" height="41.788" rx="6.88" transform="translate(95.641 147.055) rotate(180)" fill="#02bcb2"/>
      <path id="Path_24989" data-name="Path 24989" d="M570.713,1172.9v21.768l-4.113-.033V1172.9Z" transform="translate(-482.249 -998.289)" fill="#14161a"/>
      <path id="Path_24990" data-name="Path 24990" d="M608.28,1017.382c.3-.015.585-.03.877-.04-.171-8.6-1.064-31.235-5.682-35.181-8.588-7.335-20.04-12.459-25.863-14.78-2.319-.925-3.746-1.407-3.746-1.407l-20.383-1.061-.261-.013-1.557-.082-15.7-.817s-.121,1.243-.164,3.146h0c0,.128,0,.26-.009.4A42.128,42.128,0,0,0,537,979c.819,2.9,2.162,5.44,4.332,6.713,5.011,2.937,16.822,6.367,23.671,9.379,2.818,1.242,4.794,2.412,5.111,3.448.7,2.3,1.16,11.983,1.4,18.54.527,0,1.056.009,1.589.013l12.608.1,6.512.052q6.154.049,12.58.1l3.208.027A1.355,1.355,0,0,1,608.28,1017.382Z" transform="translate(-456.025 -820.488)" fill="#001b47"/>
      <path id="Path_24991" data-name="Path 24991" d="M646.107,1034.3a50.661,50.661,0,0,1,5.843,3.454c1.417,1.176,3.665,1.267,3.3,2.269s-3.766,0-3.766,0,1.475,3.445,2.084,4.435,1.262,3.038.573,3.545-3.308-4.454-3.308-4.454,1.8,4.393,1.258,5-3.641-4.652-3.641-4.652,2.144,4.593,2,5.1-.8.339-1.955-1.1a17.594,17.594,0,0,1-1.958-3.214s1.264,3.341,1.277,3.795-.3,1.087-1.786-1.23-3.871-7.849-3.945-11.1Z" transform="translate(-546.493 -880.323)" fill="#fcd3a3"/>
      <path id="Path_24992" data-name="Path 24992" d="M472.79,366.894c-1.112-2.934,2.589-5.657,2.593-8.783,0-2.257-1.886-4.02-3.722-5.343s-3.9-2.668-4.566-4.823c-1.024-3.3,1.712-6.924.621-10.2-.869-2.607-3.8-3.915-5.3-6.218-1.38-2.12-1.4-4.823-2.208-7.222-1.6-4.756-5.568-7.176-9.974-7.732a.022.022,0,0,0-.013,0,17.541,17.541,0,0,0-8.52,1.115,16.6,16.6,0,0,0-1.773.831l-.015.007q-.582.319-1.131.679a12.448,12.448,0,0,0-5.684,8.849c-.253,2.522.42,5.4-1.31,7.545-1.591,1.968-4.307,2.174-6.47,3.168a8.835,8.835,0,0,0-4.957,5.729c-.683,3.015.6,6.577-1.271,9.032-1.34,1.755-3.674,2.163-5.484,3.238a10.4,10.4,0,0,0-4.5,5.289c-1.414,3.914.182,8.783,4.02,10.658a12.932,12.932,0,0,0,6.276.953c.194-.009.386-.019.579-.033A35.6,35.6,0,0,0,431.34,371c3.722-1.538,7.275-3.735,11.279-4.124,3.472-.336,6.9.729,10.339,1.309,3.39.572,6.914.692,10.082,2.031,1.411.6,2.72,1.423,4.149,1.977a6.15,6.15,0,0,0,4.483.232,3.555,3.555,0,0,0,1.291-.916,2.894,2.894,0,0,0,.744-2.748C473.509,368.1,473.039,367.546,472.79,366.894Z" transform="translate(-347.765 -269.34)" fill="#24170e"/>
      <path id="Path_24993" data-name="Path 24993" d="M487.047,559.57s-16.48,4.737-20.864,10.068-9.714,32.036-8.234,39.115S484,635.965,484,635.965l8-6.586-3.257-6.056s13.72,3.149,22.405,0l-.39-16.517s4.788,8.413,13.078,8.413c3.11,0,21.062,1.34,25.336-.033,7.125-2.3-.051-7.7-3.5-6.766-1.179.32-22.8-6.332-25.5-13.266-2.159-5.553-6.716-24.162-11.2-28.476C503.647,561.544,487.047,559.57,487.047,559.57Z" transform="translate(-389.558 -476.267)" fill="#fff"/>
      <path id="Path_24994" data-name="Path 24994" d="M799.369,721.413a.1.1,0,0,1-.1-.1l-.4-11.7a.108.108,0,0,1,.013-.052,18.024,18.024,0,0,0,2.06-7.453c0-3.68-4.075-7.782-4.121-7.823a.105.105,0,0,1,.149-.149c.043.043,4.168,4.219,4.168,7.969a18.156,18.156,0,0,1-2.072,7.526l.395,11.674a.1.1,0,0,1-.1.107Z" transform="translate(-678.173 -590.771)" fill="#0e0e35"/>
      <path id="Path_24995" data-name="Path 24995" d="M593.237,756.571a.1.1,0,0,1-.085-.045l-11.96-16.988a4,4,0,0,1-.71-2.647l1.851-20.793a.1.1,0,0,1,.112-.094.1.1,0,0,1,.094.112l-1.846,20.793a3.785,3.785,0,0,0,.674,2.51l11.96,16.989a.1.1,0,0,1-.025.149A.1.1,0,0,1,593.237,756.571Z" transform="translate(-494.052 -609.412)" fill="#0e0e35"/>
      <path id="Path_24996" data-name="Path 24996" d="M610.585,320.157a11.355,11.355,0,0,0-9.968,15.731c1.475,3.987,2.7,7.2,4.253,9.556a11.274,11.274,0,0,1,1.786,8.078l-.473,2.851c6.529,3.451,9.48.764,9.48.764l.164-7.146h0c7.171-.688,6.513-13.9,6.6-17.795h-.01c.009-.149.018-.3.021-.447a11.354,11.354,0,0,0-11.853-11.593Z" transform="translate(-510.452 -272.485)" fill="#fcd3a3"/>
      <path id="Path_24997" data-name="Path 24997" d="M597.769,328.114a48.7,48.7,0,0,0-3.908,4.482c-1.313,1.638-2.68,3.376-3.006,5.449a14.628,14.628,0,0,1-3.887-5.669,10.436,10.436,0,0,1-.981-3.052,11.867,11.867,0,0,1,.624-4.484,12.385,12.385,0,0,1,2.406-5.3,9.43,9.43,0,0,1,3.229-2.127,15.974,15.974,0,0,1,8.873-1.288,11.509,11.509,0,0,1,7.579,4.567c2.233,3.2,2.4,7.357,2.477,11.258a11.476,11.476,0,0,0-2.4-4.329,9.764,9.764,0,0,0-2.233-2.333c-1.542-1.017-1.984-.813-4.684-2.733C601.082,324.936,599.548,326.384,597.769,328.114Z" transform="translate(-498.713 -268.912)" fill="#24170e"/>
      <path id="Path_24998" data-name="Path 24998" d="M603.373,440.994a1.69,1.69,0,0,0-.865-.82,2.851,2.851,0,0,0-3.126.217c-1.426,1.364,1.3,5.123,4.109,3.35C603.493,443.741,604.3,442.962,603.373,440.994Z" transform="translate(-509.817 -374.333)" fill="#e2918f"/>
      <path id="Path_24999" data-name="Path 24999" d="M724.7,429.656a.99.99,0,1,0-.371.662.992.992,0,0,0,.371-.662Z" transform="translate(-615.133 -364.748)" fill="#0e0e35"/>
      <path id="Path_25000" data-name="Path 25000" d="M661.719,435.234a.99.99,0,1,0-1.1.866A.99.99,0,0,0,661.719,435.234Z" transform="translate(-561.528 -369.498)" fill="#0e0e35"/>
      <path id="Path_25001" data-name="Path 25001" d="M689.831,474.361s-1.349-.793-1.849-.637a1.484,1.484,0,0,0-.761.777,1.17,1.17,0,0,0-.938-.6,10.6,10.6,0,0,0-2.633,1.237s2.02,2.559,3.871,2.159c1.888-.406,2.307-2.946,2.307-2.946Z" transform="translate(-581.874 -403.183)" fill="#ff96c6"/>
      <path id="Path_25002" data-name="Path 25002" d="M648.281,418.258a.417.417,0,0,1-.325-.129.412.412,0,0,1,.019-.582,4.936,4.936,0,0,1,3.092-1.167.412.412,0,0,1,.418.406.42.42,0,0,1-.4.417,4.113,4.113,0,0,0-2.543.945A.41.41,0,0,1,648.281,418.258Z" transform="translate(-551.4 -354.393)" fill="#24170e"/>
      <path id="Path_25003" data-name="Path 25003" d="M718.235,409.3a.412.412,0,0,1,.127-.765,4.9,4.9,0,0,1,3.232.682.412.412,0,0,1-.432.7,4.1,4.1,0,0,0-2.651-.573A.42.42,0,0,1,718.235,409.3Z" transform="translate(-611.131 -347.675)" fill="#24170e"/>
      <path id="Path_25004" data-name="Path 25004" d="M696.9,437a1.773,1.773,0,0,0,1.638-1.527.358.358,0,0,0-.073-.247,5.141,5.141,0,0,1-.877-3.2.347.347,0,1,0-.691-.063,5.884,5.884,0,0,0,.917,3.56c-.074.272-.369.878-1.481.8a.347.347,0,1,0-.049.691A3.057,3.057,0,0,0,696.9,437Z" transform="translate(-592.331 -367.39)" fill="#deb07c"/>
      <path id="Path_25005" data-name="Path 25005" d="M683.65,478.908a58.836,58.836,0,0,0,6.181-.788s-1.056,1.953-2.5,2.008A9.346,9.346,0,0,1,683.65,478.908Z" transform="translate(-581.874 -406.942)" fill="#fff"/>
      <path id="Path_25006" data-name="Path 25006" d="M560.209,941.464H144.44v-8.1H558.48a43.9,43.9,0,0,1,1.73,8.1Z" transform="translate(-122.937 -794.41)" fill="#14161a"/>
      <path id="Path_25007" data-name="Path 25007" d="M595.7,428.666c.138-2.622-1.463-4.838-3.573-4.951s-3.954,1.914-4.091,4.536,1.462,4.838,3.573,4.95S595.557,431.28,595.7,428.666Z" transform="translate(-500.485 -360.632)" fill="#6fd16f"/>
      <path id="Path_25008" data-name="Path 25008" d="M612.5,334.934c.286-2.645.164-12.784,4.825-17.294a15.283,15.283,0,0,0-3.245.924s-3.406,5.359-3.294,16.376Z" transform="translate(-519.854 -270.353)" fill="#6fd16f"/>
      <path id="Path_25009" data-name="Path 25009" d="M625.268,466.356a24.628,24.628,0,0,1-9.528-6.966l.719-.57A24.268,24.268,0,0,0,625.6,465.5Z" transform="translate(-524.074 -390.515)" fill="#6fd16f"/>
      <path id="Path_25010" data-name="Path 25010" d="M676.118,502.827l-.487-.1a1,1,0,0,1-.776-1.176h0a1,1,0,0,1,1.177-.776l.487.1a1,1,0,0,1,.776,1.176h0A1,1,0,0,1,676.118,502.827Z" transform="translate(-574.372 -426.208)" fill="#001b47"/>
      <path id="Path_25011" data-name="Path 25011" d="M1740.162,745.154,1701.9,745.1l-12.035,27.973,38.258.055Z" transform="translate(-1438.297 -634.176)" fill="#001b47"/>
      <rect id="Rectangle_2085" data-name="Rectangle 2085" width="25.613" height="1.693" transform="translate(233.473 137.178) rotate(0.08)" fill="#001b47"/>
      <path id="Path_25012" data-name="Path 25012" d="M1858.78,835.536a1.685,1.685,0,1,1,1.693,1.675A1.685,1.685,0,0,1,1858.78,835.536Z" transform="translate(-1582.061 -709.706)" fill="#fff"/>
      <path id="Path_25013" data-name="Path 25013" d="M2518.807,753.3l-36.6-.051-11.515,26.763,36.6.052Z" transform="translate(-2102.875 -641.113)" fill="#001b47"/>
      <rect id="Rectangle_2086" data-name="Rectangle 2086" width="24.504" height="1.62" transform="translate(350.5 137.255) rotate(0.08)" fill="#001b47"/>
      <path id="Path_25014" data-name="Path 25014" d="M2645.81,831.4a1.612,1.612,0,1,1,1.62,1.6A1.612,1.612,0,0,1,2645.81,831.4Z" transform="translate(-2251.925 -706.25)" fill="#fff"/>
      <path id="Path_25015" data-name="Path 25015" d="M902.562,745.154,864.3,745.1,852.27,773.073l38.257.055Z" transform="translate(-725.391 -634.176)" fill="#001b47"/>
      <rect id="Rectangle_2087" data-name="Rectangle 2087" width="25.613" height="1.693" transform="translate(108.779 137.179) rotate(0.08)" fill="#001b47"/>
      <path id="Path_25016" data-name="Path 25016" d="M1024,838.079a1.684,1.684,0,1,1,1.693,1.669A1.684,1.684,0,0,1,1024,838.079Z" transform="translate(-871.555 -711.867)" fill="#fff"/>
      <path id="Path_25017" data-name="Path 25017" d="M1395.2,450.336a24.648,24.648,0,0,1-9.528-6.964l.719-.572a24.261,24.261,0,0,0,9.144,6.678Z" transform="translate(-1179.384 -376.88)" fill="#6fd16f"/>
      <path id="Path_25018" data-name="Path 25018" d="M1446.049,486.808l-.488-.1a1,1,0,0,1-.776-1.176h0a1,1,0,0,1,1.178-.776l.488.1a1,1,0,0,1,.774,1.176h0A1,1,0,0,1,1446.049,486.808Z" transform="translate(-1229.681 -412.573)" fill="#001b47"/>
      <rect id="Rectangle_2088" data-name="Rectangle 2088" width="25.63" height="2.66" transform="translate(210.309 137.353) rotate(180)" fill="#769ddb"/>
      <rect id="Rectangle_2089" data-name="Rectangle 2089" width="26.081" height="1.644" transform="translate(211.999 134.692) rotate(180)" fill="#060633"/>
      <path id="Path_25019" data-name="Path 25019" d="M1073.31,1080.009h.326a35.042,35.042,0,0,0,1.175-9.022c0-18.758-14.738-34.017-32.854-34.017s-32.856,15.259-32.856,34.017a35.028,35.028,0,0,0,1.049,8.535h0c.22,0,.447-.009.66-.018a.98.98,0,0,1,.314-.015c.3-.015.6-.031.893-.04s.572-.012.859,0c.222,0,.447.025.668.033h.275a31.478,31.478,0,0,1-1.161-8.486c0-16.79,13.136-30.447,29.286-30.447s29.286,13.657,29.286,30.447a31.412,31.412,0,0,1-1.309,8.995.5.5,0,0,1,.17.015h.207a2.959,2.959,0,0,1,.351,0,1.4,1.4,0,0,1,.231,0,1.507,1.507,0,0,1,.381,0h.451q.4-.019.8,0h.347a.267.267,0,0,1,.068,0h.307A.358.358,0,0,1,1073.31,1080.009Z" transform="translate(-858.874 -882.595)" fill="#14161a"/>
      <path id="Path_25020" data-name="Path 25020" d="M1103.96,1121.3h.257a.639.639,0,0,1,.11,0h.194a.269.269,0,0,1,.059,0h.338a1.424,1.424,0,0,1,.362,0,1.36,1.36,0,0,1,.394,0,1.609,1.609,0,0,1,.331,0,2.74,2.74,0,0,1,.345-.009h.138a27.515,27.515,0,0,0,1.489-8.958c0-14.756-11.591-26.761-25.838-26.761s-25.84,12-25.84,26.761a27.494,27.494,0,0,0,1.365,8.582,3.293,3.293,0,0,1,.357,0h.007a.029.029,0,0,0,0-.01,3.818,3.818,0,0,1,.439,0l.027.009a.808.808,0,0,1,.238-.014.954.954,0,0,1,.275.021c.118,0,.262.009.284.013h.255a.652.652,0,0,0,.066,0h.158c.052,0,.177-.02.223.01h0a.472.472,0,0,1,.162.013h.036a25.091,25.091,0,0,1-1.514-8.615c0-13.444,10.524-24.38,23.459-24.38s23.459,10.936,23.459,24.38A25.129,25.129,0,0,1,1103.96,1121.3Z" transform="translate(-899.047 -923.96)" fill="#769ddb"/>
      <ellipse id="Ellipse_163" data-name="Ellipse 163" cx="4.343" cy="3.775" rx="4.343" ry="3.775" transform="translate(178.747 184.616)" fill="#14161a"/>
      <rect id="Rectangle_2090" data-name="Rectangle 2090" width="62.115" height="0.793" transform="translate(152.019 187.996)" fill="#14161a"/>
      <path id="Path_25021" data-name="Path 25021" d="M1227.286,1089.993a.661.661,0,0,1,.223.012h.013a3,3,0,0,1,.411,0V1049h-.794v41A1.108,1.108,0,0,1,1227.286,1089.993Z" transform="translate(-1044.454 -892.834)" fill="#14161a"/>
      <path id="Path_25022" data-name="Path 25022" d="M1170.021,1148.221h.121a1.2,1.2,0,0,1,.274.009h.563l31.011-30.161-.552-.569-31.588,30.721A1.112,1.112,0,0,1,1170.021,1148.221Z" transform="translate(-995.693 -951.137)" fill="#14161a"/>
      <path id="Path_25023" data-name="Path 25023" d="M1105.157,1148.368h.158a.2.2,0,0,1,.066.009l.013.015h.07c.033-.027.186,0,.219,0a1.371,1.371,0,0,1,.185,0,1.261,1.261,0,0,1,.149,0,1.455,1.455,0,0,1,.211,0l-31.763-30.892-.554.569,31.162,30.306Z" transform="translate(-914.036 -951.137)" fill="#14161a"/>
      <path id="Path_25024" data-name="Path 25024" d="M1281.692,1007.015l-1.236-.01-1.233-24.143-.822-16.1-.585-11.463-.167-3.275a.618.618,0,0,1,1.233-.064l.171,3.339.583,11.463.822,16.1Z" transform="translate(-1087.444 -809.769)" fill="#14161a"/>
      <path id="Path_25025" data-name="Path 25025" d="M1163.584,1006.909l-1.236-.01-2.8-54.831a.618.618,0,0,1,1.233-.064Z" transform="translate(-986.926 -809.804)" fill="#14161a"/>
    </g>
  </g>
</svg>
