<svg xmlns="http://www.w3.org/2000/svg" width="29" height="23.564" viewBox="0 0 29 23.564"><defs><style>.a{fill:#14161a;opacity:0.65;}</style></defs><path class="a" d="M27.031,7.364c.018.256.018.511.018.769,0,7.862-5.985,16.929-16.929,16.929v0A16.843,16.843,0,0,1,1,22.39a12.1,12.1,0,0,0,1.416.086,11.947,11.947,0,0,0,7.389-2.552,5.957,5.957,0,0,1-5.558-4.132,5.931,5.931,0,0,0,2.686-.1A5.95,5.95,0,0,1,2.16,9.858V9.782a5.912,5.912,0,0,0,2.7.745A5.957,5.957,0,0,1,3.019,2.583,16.887,16.887,0,0,0,15.281,8.8,5.955,5.955,0,0,1,25.421,3.372,11.939,11.939,0,0,0,29.2,1.928a5.972,5.972,0,0,1-2.615,3.291A11.833,11.833,0,0,0,30,4.282,12.087,12.087,0,0,1,27.031,7.364Z" transform="translate(-1 -1.497)"/></svg>