<svg xmlns="http://www.w3.org/2000/svg" width="48" height="48" viewBox="0 0 48 48"><defs><style>.a,.c{fill:#48d597;}.a{opacity:0.12;}.b{fill:none;}</style></defs><g transform="translate(-9 -12)"><circle class="a" cx="24" cy="24" r="24" transform="translate(9 12)"/><g transform="translate(19 22)"><path class="b" d="M0,0H28V28H0ZM0,0H28V28H0Z"/><path class="c" d="M1,9.759l2.333,2.333a14.85,14.85,0,0,1,21,0l2.333-2.333A18.16,18.16,0,0,0,1,9.759Zm9.333,9.333,3.5,3.5,3.5-3.5A4.943,4.943,0,0,0,10.333,19.092ZM5.667,14.425,8,16.759a8.253,8.253,0,0,1,11.667,0L22,14.425A11.562,11.562,0,0,0,5.667,14.425Z" transform="translate(0.167 0.741)"/></g></g></svg>