<svg xmlns="http://www.w3.org/2000/svg" viewBox="0 0 77.78757 14.29834"><path d="M182.16092,146.02452h-2.01859v10.59759h-2.01859V146.02452h-2.01859v-1.68216h6.05577Z" transform="translate(-111.43955 -143.35083)" fill="#282828"/><path d="M182.5061,144.34236h2.11552l.65177,5.48153c.18383,1.57093.35095,2.9246.55149,4.77963h.08356c.18384-1.855.36767-3.17527.5515-4.77963l.66848-5.48153h2.0987l-2.02136,12.27975h-2.66145Z" transform="translate(-111.43955 -143.35083)" fill="#282828"/><path d="M131.4404,145.5881a2.58109,2.58109,0,0,0-1.79991-1.81673c-1.59805-.42054-7.99024-.42054-7.99024-.42054s-6.3922,0-7.99025.42054a2.5521,2.5521,0,0,0-1.79991,1.81673,28.89572,28.89572,0,0,0,0,9.8238,2.5741,2.5741,0,0,0,1.81673,1.81673c1.58123.42054,7.97343.42054,7.97343.42054s6.39219,0,7.99024-.42054a2.61088,2.61088,0,0,0,1.81673-1.79991,26.9597,26.9597,0,0,0,.42054-4.9119A27.66136,27.66136,0,0,0,131.4404,145.5881Z" transform="translate(-111.43955 -143.35083)" fill="red"/><polygon points="8.145 10.211 13.461 7.149 8.145 4.088 8.145 10.211" fill="#fff"/><path d="M141.0423,156.34524a2.10029,2.10029,0,0,1-.85274-1.27073,8.70593,8.70593,0,0,1-.2508-2.274V151.5131a7.67793,7.67793,0,0,1,.301-2.3074,2.33206,2.33206,0,0,1,.9029-1.27074,3.03861,3.03861,0,0,1,1.62186-.40128,2.83143,2.83143,0,0,1,1.58842.40128,2.3368,2.3368,0,0,1,.86946,1.27074,7.6532,7.6532,0,0,1,.26752,2.3074v1.28745a8.17974,8.17974,0,0,1-.26752,2.29068,2.2527,2.2527,0,0,1-.86946,1.27073,2.93361,2.93361,0,0,1-1.63858.40129A3.159,3.159,0,0,1,141.0423,156.34524Zm2.25888-1.356a4.24584,4.24584,0,0,0,.17011-1.4459v-2.80675a4.50975,4.50975,0,0,0-.17011-1.42889.6178.6178,0,0,0-.59537-.45929.59836.59836,0,0,0-.57836.45929,4.51,4.51,0,0,0-.1701,1.42889v2.82376a4.24615,4.24615,0,0,0,.1701,1.4459.572.572,0,0,0,.59538.44227.59834.59834,0,0,0,.57835-.45928Z" transform="translate(-111.43955 -143.35083)" fill="#282828"/><path d="M172.23619,152.92137v.35419a4.64213,4.64213,0,0,0-.03711,1.29526,1.20955,1.20955,0,0,0,.21868.6224.72774.72774,0,0,0,1.127-.1514,3.08834,3.08834,0,0,0,.185-1.17751l1.73262.11776a2.03462,2.03462,0,0,1,.01683.3196,2.35459,2.35459,0,0,1-.67287,1.85038,2.78974,2.78974,0,0,1-1.91766.60557,2.29284,2.29284,0,0,1-2.08587-.942,10.39333,10.39333,0,0,1-.58529-2.89331v-1.61582a5.33274,5.33274,0,0,1,.62631-2.94377,2.38594,2.38594,0,0,1,2.13285-.92519,2.86871,2.86871,0,0,1,1.6081.3869,2.11381,2.11381,0,0,1,.79559,1.17751,8.18157,8.18157,0,0,1,.22005,2.22045v1.53076l-3.45188.16822Zm.08984-3.91943a1.171,1.171,0,0,0-.20645.6224q-.05161.656-.05161,1.31208v.63922h1.51394v-.63922a11.17453,11.17453,0,0,0-.06881-1.31208,1.19246,1.19246,0,0,0-.22365-.6224.58528.58528,0,0,0-.48171-.185.56574.56574,0,0,0-.48171.185Z" transform="translate(-111.43955 -143.35083)" fill="#282828"/><path d="M136.2213,152.58493l-2.27382-8.24257h1.96506l.79856,3.71q.29946,1.37253.44919,2.34578h.06655c.06654-.46583.21628-1.23112.44919-2.32914l.83184-3.72663h2.08962l-2.34089,8.293v3.98671H136.238v-4.03718Z" transform="translate(-111.43955 -143.35083)" fill="#282828"/><path d="M152.05029,147.70668v8.91543h-1.70286l-.18115-1.17751h.10553a2.035,2.035,0,0,1-1.90141,1.22352,1.5039,1.5039,0,0,1-1.28966-.57869,3.05274,3.05274,0,0,1-.41335-1.80221v-6.58054h1.85037v6.57723a2.02843,2.02843,0,0,0,.14249.8579.474.474,0,0,0,.46309.25233.99791.99791,0,0,0,.53433-.16822.92977.92977,0,0,0,.374-.40372v-7.11552Z" transform="translate(-111.43955 -143.35083)" fill="#282828"/><path d="M162.47967,147.70668v8.91543h-1.70286l-.18115-1.17751H160.533a2.035,2.035,0,0,1-1.90142,1.22352,1.50389,1.50389,0,0,1-1.28965-.57869,3.05274,3.05274,0,0,1-.41335-1.80221v-6.58054h2.01859v6.57723a2.02843,2.02843,0,0,0,.14249.8579.474.474,0,0,0,.46309.25233.99791.99791,0,0,0,.53433-.16822.92968.92968,0,0,0,.374-.40372v-7.11552Z" transform="translate(-111.43955 -143.35083)" fill="#282828"/><path d="M157.60141,146.02452h-2.01858v10.59759h-2.01859V146.02452h-1.85038v-1.68216h5.88755Z" transform="translate(-111.43955 -143.35083)" fill="#282828"/><path d="M169.15579,149.02318a2.35477,2.35477,0,0,0-.59429-1.2395,1.66056,1.66056,0,0,0-1.13763-.39053,1.8305,1.8305,0,0,0-1.05273.32261,2.07688,2.07688,0,0,0-.7471.832h.05173v-4.71005h-2.01859v12.7844h1.66534l.20186-.84108h.0657a1.73824,1.73824,0,0,0,.71314.73012,2.25747,2.25747,0,0,0,1.05274.27168,1.64166,1.64166,0,0,0,1.52815-.95086,6.85706,6.85706,0,0,0,.49241-2.97141v-1.42628A15.906,15.906,0,0,0,169.15579,149.02318Zm-1.96608,3.83528a10.72108,10.72108,0,0,1-.07724,1.4058,1.51114,1.51114,0,0,1-.24717.72607.57917.57917,0,0,1-.46345.21628.76523.76523,0,0,1-.41711-.10814.89207.89207,0,0,1-.309-.32442v-5.01913a1.38965,1.38965,0,0,1,.35682-.61169.733.733,0,0,1,.54373-.23788.57233.57233,0,0,1,.47576.23788,1.9682,1.9682,0,0,1,.23788.81559c.051.54373.068,1.08746.068,1.63119l-.16822,1.16408Z" transform="translate(-111.43955 -143.35083)" fill="#282828"/></svg>