<svg id="Full" xmlns="http://www.w3.org/2000/svg" width="24" height="24" viewBox="0 0 24 24">
  <path id="Path_28990" data-name="Path 28990" d="M0,0H24V24H0Z" fill="none"/>
  <path id="Path_28991" data-name="Path 28991" d="M20,3H19V1H17V3H7V1H5V3H4A2.006,2.006,0,0,0,2,5V21a2.006,2.006,0,0,0,2,2H20a2.006,2.006,0,0,0,2-2V5a2.006,2.006,0,0,0-2-2Zm0,18H4V10H20ZM20,8H4V5H20Z" fill="#14161a"/>
  <rect id="Rectangle_2903" data-name="Rectangle 2903" width="2" height="2" transform="translate(7 11.5)" fill="#14161a"/>
  <rect id="Rectangle_2904" data-name="Rectangle 2904" width="2" height="2" transform="translate(11 11.5)" fill="#14161a"/>
  <rect id="Rectangle_2905" data-name="Rectangle 2905" width="2" height="2" transform="translate(15 11.5)" fill="#14161a"/>
  <rect id="Rectangle_2906" data-name="Rectangle 2906" width="2" height="2" transform="translate(7 14.5)" fill="#14161a"/>
  <rect id="Rectangle_2907" data-name="Rectangle 2907" width="2" height="2" transform="translate(11 14.5)" fill="#14161a"/>
  <rect id="Rectangle_2908" data-name="Rectangle 2908" width="2" height="2" transform="translate(15 14.5)" fill="#14161a"/>
  <rect id="Rectangle_2909" data-name="Rectangle 2909" width="2" height="2" transform="translate(7 17.5)" fill="#14161a"/>
  <rect id="Rectangle_2910" data-name="Rectangle 2910" width="2" height="2" transform="translate(11 17.5)" fill="#14161a"/>
  <rect id="Rectangle_2911" data-name="Rectangle 2911" width="2" height="2" transform="translate(15 17.5)" fill="#14161a"/>
</svg>
