<svg xmlns="http://www.w3.org/2000/svg" width="138.788" height="28" viewBox="0 0 138.788 28"><defs><style>.a{fill:#14161a;}</style></defs><g transform="translate(0)"><g transform="translate(2.508)"><path class="a" d="M242.839,404.051a14.157,14.157,0,0,0,3.4,3.4l4.639-8.036-8.035,4.639" transform="translate(-242.839 -381.957)"/><path class="a" d="M246.235,385.4a14.072,14.072,0,0,0-3.4,3.4l8.035,4.637-4.639-8.034" transform="translate(-242.839 -382.89)"/><path class="a" d="M259.439,384.289a13.911,13.911,0,0,0-4.639-1.242v9.278l4.639-8.036" transform="translate(-242.042 -383.047)"/><path class="a" d="M248.076,408.634a13.964,13.964,0,0,0,4.641,1.243V400.6l-4.641,8.037" transform="translate(-242.49 -381.878)"/><path class="a" d="M264.889,388.8a14.072,14.072,0,0,0-3.4-3.4l-4.639,8.034,8.035-4.637" transform="translate(-241.905 -382.89)"/><path class="a" d="M261.492,407.448a14.125,14.125,0,0,0,3.4-3.4l-8.035-4.64,4.639,8.036" transform="translate(-241.905 -381.957)"/></g><path class="a" d="M267.318,395.275a14.044,14.044,0,0,0-1.24-4.64l-8.038,4.64h9.278" transform="translate(-239.319 -382.542)"/><path class="a" d="M240.488,397.357A13.955,13.955,0,0,0,241.729,402l8.039-4.638h-9.279" transform="translate(-240.488 -382.094)"/><path class="a" d="M241.729,390.635a13.981,13.981,0,0,0-1.241,4.64h9.279l-8.039-4.64" transform="translate(-240.488 -382.541)"/><path class="a" d="M258.039,397.357,266.077,402a13.932,13.932,0,0,0,1.24-4.638h-9.278" transform="translate(-239.319 -382.094)"/><path class="a" d="M252.717,383.047a13.892,13.892,0,0,0-4.641,1.242l4.641,8.036v-9.278" transform="translate(-239.982 -383.047)"/><path class="a" d="M254.8,409.878a13.958,13.958,0,0,0,4.639-1.243L254.8,400.6v9.28" transform="translate(-239.534 -381.878)"/><path class="a" d="M263.565,384.735a1.7,1.7,0,1,1,.5,1.2,1.692,1.692,0,0,1-.5-1.2Zm3.114,0a1.423,1.423,0,1,0-1.418,1.426,1.368,1.368,0,0,0,1.418-1.426Zm-1.806.958h-.248V383.76h.833c.5,0,.676.188.676.535,0,.373-.262.513-.6.54l.575.86h-.278l-.545-.86h-.415Zm.342-1.085c.271,0,.649.045.649-.319,0-.27-.225-.307-.459-.307h-.532v.626Z" transform="translate(-238.95 -383.047)"/></g><g transform="translate(35.744 7.278)"><path class="a" d="M282.378,393.465a2.578,2.578,0,0,0-2.735-2.057c-3.183,0-3.773,2.914-3.773,5.185,0,2.663.807,5.179,3.613,5.179a2.618,2.618,0,0,0,2.839-2.052H284.2c-.178,2.163-2.359,3.588-4.876,3.588-3.808,0-5.324-3.106-5.324-6.715,0-3.163,1.39-6.846,5.714-6.72,2.483.072,4.344,1.287,4.539,3.592h-1.873" transform="translate(-273.999 -389.87)"/><path class="a" d="M286.619,398.633c-.124,1.574.52,3.2,2.251,3.2a1.888,1.888,0,0,0,2.183-1.821h1.786c-.269,2.037-1.84,3.053-3.985,3.053-2.876,0-4.02-2.034-4.02-4.678,0-2.626,1.32-4.825,4.161-4.825,2.682.052,3.948,1.75,3.948,4.232v.842h-6.324m4.54-1.175c.034-1.5-.646-2.667-2.289-2.667a2.38,2.38,0,0,0-2.251,2.667Z" transform="translate(-273.277 -389.624)"/><path class="a" d="M295.732,395.149h.035a3.112,3.112,0,0,1,2.715-1.589c.627,0,3.4.162,3.4,3.038v6.2h-1.7V397.15c0-1.483-.623-2.286-2.057-2.286a2.327,2.327,0,0,0-1.642.661c-.249.248-.715.645-.715,2.4v4.874h-1.7v-8.967h1.663v1.322" transform="translate(-272.662 -389.624)"/><path class="a" d="M304,393.96v-1.907l1.7-.538v2.445h2.073v1.232H305.7v5.758c0,.641.5.945,1.109.945a3.872,3.872,0,0,0,.89-.105v1.3c-.39.02-.769.105-1.157.105a6.292,6.292,0,0,1-1.144-.085,1.607,1.607,0,0,1-1-.592c-.3-.429-.4-.463-.4-1.66v-5.669h-1.534V393.96H304" transform="translate(-272.102 -389.76)"/><path class="a" d="M314.815,393.81h1.7v8.967h-1.66v-1.319h-.036a3.406,3.406,0,0,1-3.074,1.588,2.939,2.939,0,0,1-2.95-3.233v-6h1.7v5.305c0,1.557.356,2.7,1.983,2.7a2.132,2.132,0,0,0,2-1.287,6.66,6.66,0,0,0,.338-2.107v-4.61" transform="translate(-271.682 -389.607)"/><path class="a" d="M319.852,402.786h-1.7v-8.967h1.7v1.731h.037a2.484,2.484,0,0,1,2.625-1.857c.214,0,.4.02.589.02v1.607a2.091,2.091,0,0,0-.731-.088c-2.146.069-2.52,1.212-2.52,3.108v4.445" transform="translate(-271.057 -389.615)"/><path class="a" d="M87.272,23.165H85.534L86.893,19.7l-3.731-8.934h1.889l2.807,7.076,2.863-7.076h1.82l-5.269,12.4" transform="translate(-30.203 -6.56)"/><g transform="translate(63.61 0.27)"><path class="a" d="M93.148,19.976V7.076h2.77V17.835h5.592v2.141H93.148" transform="translate(-93.148 -7.076)"/><path class="a" d="M342.965,390.123h2.859v2.306h-2.859Zm.09,3.933h2.68v8.967h-2.68Z" transform="translate(-333.014 -390.123)"/><path class="a" d="M350.632,394.864l.035.055a3.057,3.057,0,0,1,2.752-1.358c.893,0,2.626.658,2.947,1.965a6.087,6.087,0,0,1,.182,1.431v5.839h-2.682V397.4c-.016-.967-.287-2.054-1.608-2.054-.841,0-1.572.75-1.609,2.054v5.393h-2.679v-8.967h2.661v1.036" transform="translate(-332.68 -389.894)"/><path class="a" d="M120.635,14.639l.034.032,2.644-3.768H126.3l-3.091,3.929,3.287,5.143h-3.125l-2.7-4.911-.034.036v4.874h-2.679V7.076h2.679v7.563" transform="translate(-91.495 -7.076)"/></g><path class="a" d="M367.434,395.4a1.695,1.695,0,1,1,.5,1.2A1.692,1.692,0,0,1,367.434,395.4Zm3.114,0a1.422,1.422,0,1,0-1.418,1.428,1.368,1.368,0,0,0,1.418-1.428Zm-1.8.959H368.5v-1.936h.834c.5,0,.673.19.673.536,0,.373-.261.515-.6.54l.576.86H369.7l-.545-.86h-.413Zm.341-1.085c.271,0,.649.046.649-.319,0-.27-.225-.306-.459-.306h-.531v.625Z" transform="translate(-267.774 -389.613)"/></g></svg>