<svg xmlns="http://www.w3.org/2000/svg" width="22" height="22" viewBox="0 0 22 22">
    <g fill="none" fill-rule="evenodd">
        <circle cx="11" cy="11" r="9" stroke="#0047BB" stroke-width="2"/>
        <path fill="#0047BB" fill-rule="nonzero" d="M12.29 12.867v-.49c0-.489.209-.727 1.117-1.3C14.525 10.392 15 9.707 15 8.74 15 7.161 13.603 6 11.689 6 9.537 6 8.069 7.357 8 9.44l2.068.154c.07-1.09.657-1.706 1.607-1.706.768 0 1.257.35 1.257.923 0 .476-.265.77-1.16 1.3-.992.602-1.369 1.134-1.369 1.987v.77h1.886zM12.498 16v-2.168h-2.236V16H12.5z"/>
    </g>
</svg>
