<svg xmlns="http://www.w3.org/2000/svg" width="24" height="31.759" viewBox="0 0 24 31.759">
  <g id="payments_black_24dp" transform="translate(0 0.403)">
    <rect id="Rectangle_1646" data-name="Rectangle 1646" width="24" height="24" transform="translate(0 -0.403)" fill="none"/>
    <path id="Path_24248" data-name="Path 24248" d="M19,14V6a2.006,2.006,0,0,0-2-2H3A2.006,2.006,0,0,0,1,6v8a2.006,2.006,0,0,0,2,2H17A2.006,2.006,0,0,0,19,14Zm-2,0H3V6H17ZM10,7a3,3,0,1,0,3,3A3,3,0,0,0,10,7ZM23,7V18a2.006,2.006,0,0,1-2,2H4V18H21V7Z" transform="translate(0 11.355)" fill="#14161a"/>
  </g>
</svg>
