<svg xmlns="http://www.w3.org/2000/svg" width="24" height="24" viewBox="0 0 24 24">
  <g id="print_black_24dp" transform="translate(0 0)">
    <path id="Path_26315" data-name="Path 26315" d="M0,0H24V24H0Z" transform="translate(0 0)" fill="none"/>
    <path id="Path_26316" data-name="Path 26316" d="M19,8H18V3H6V8H5a3,3,0,0,0-3,3v6H6v4H18V17h4V11A3,3,0,0,0,19,8ZM8,5h8V8H8Zm8,12v2H8V15h8Zm2-2V13H6v2H4V11a1,1,0,0,1,1-1H19a1,1,0,0,1,1,1v4Z" transform="translate(0 0)" fill="#0047BB"/>
    <circle id="Ellipse_241" data-name="Ellipse 241" cx="1" cy="1" r="1" transform="translate(17 10.5)" fill="#0047BB"/>
  </g>
</svg>
