<svg xmlns="http://www.w3.org/2000/svg" width="20" height="20" viewBox="0 0 20 20">
  <g id="Question" transform="translate(0 0)">
    <g id="Group_16894" data-name="Group 16894" transform="translate(0 0)">
      <g id="Group_16896" data-name="Group 16896">
        <path id="Path_26558" data-name="Path 26558" d="M147.3,137.077a10,10,0,1,0,10,10A10,10,0,0,0,147.3,137.077Zm0,18a8,8,0,1,1,8-8,7.993,7.993,0,0,1-8,8Z" transform="translate(-137.3 -137.077)" fill="#0047BB"/>
        <path id="Path_26559" data-name="Path 26559" d="M147.918,149.452A2.424,2.424,0,0,1,149.5,147.3c1.147-.62,1.583-1.1,1.583-1.839a1.432,1.432,0,0,0-.556-1.052,1.649,1.649,0,0,0-1.205-.335,2.255,2.255,0,0,0-1.693.563,1.945,1.945,0,0,0-.651,1.563l-1.648-.091a3.351,3.351,0,0,1,1.173-2.56,3.87,3.87,0,0,1,2.815-.923,3.331,3.331,0,0,1,2.351.734,2.9,2.9,0,0,1,1.074,2.085c0,1.206-.7,1.99-2.133,2.791-.888.482-1.131.784-1.131,1.387v.769h-1.568Zm-.226,2.02h2.133v1.93h-2.133Z" transform="translate(-139.043 -138.012)" fill="#0047BB"/>
      </g>
    </g>
  </g>
</svg>
