<svg xmlns="http://www.w3.org/2000/svg" xmlns:xlink="http://www.w3.org/1999/xlink" width="24" height="24" viewBox="0 0 24 24"><defs><style>.a,.b{fill:none;}.b{stroke:#14161a;stroke-width:2px;}.c{fill:#14161a;}.d{clip-path:url(#a);}</style><clipPath id="a"/></defs><path class="a" d="M0,0H24V24H0Z"/><g transform="translate(5.608 3)"><path class="b" d="M-5101.274,18280.234c.083-.48-.1-1.736,1.4-1.818s6.258-.125,7.205,0,1.3.637,1.38,1.818.925,12.381.986,13.121.042,2.58-1.769,2.807a66.792,66.792,0,0,1-8.008.1c-.762-.1-2.305-.551-2.244-2.9S-5101.356,18280.7-5101.274,18280.234Z" transform="translate(5102.727 -18278.336)"/><rect class="c" width="2" height="2" transform="translate(5.392 8)"/><g class="d" transform="translate(0.392 3.705)"><path class="b" d="M-5097.665,18296.133c.906-.33,8.571-.477,9.827,0" transform="translate(5098.814 -18296.033)"/><path class="b" d="M0,.346C1.628-.1,10.691-.131,12.108.346" transform="translate(12.108 10.413) rotate(180)"/></g></g></svg>